%TF.GenerationSoftware,KiCad,Pcbnew,5.1.9*%
%TF.CreationDate,2021-01-20T23:16:29+01:00*%
%TF.ProjectId,wi-se-opi4,77692d73-652d-46f7-9069-342e6b696361,rev?*%
%TF.SameCoordinates,Original*%
%TF.FileFunction,Legend,Bot*%
%TF.FilePolarity,Positive*%
%FSLAX46Y46*%
G04 Gerber Fmt 4.6, Leading zero omitted, Abs format (unit mm)*
G04 Created by KiCad (PCBNEW 5.1.9) date 2021-01-20 23:16:29*
%MOMM*%
%LPD*%
G01*
G04 APERTURE LIST*
%ADD10C,0.150000*%
%ADD11C,0.125000*%
%ADD12C,0.200000*%
%ADD13C,0.120000*%
%ADD14C,0.152400*%
G04 APERTURE END LIST*
D10*
X97676333Y-70485800D02*
X97576333Y-70519133D01*
X97543000Y-70552466D01*
X97509666Y-70619133D01*
X97509666Y-70719133D01*
X97543000Y-70785800D01*
X97576333Y-70819133D01*
X97643000Y-70852466D01*
X97909666Y-70852466D01*
X97909666Y-70152466D01*
X97676333Y-70152466D01*
X97609666Y-70185800D01*
X97576333Y-70219133D01*
X97543000Y-70285800D01*
X97543000Y-70352466D01*
X97576333Y-70419133D01*
X97609666Y-70452466D01*
X97676333Y-70485800D01*
X97909666Y-70485800D01*
X97076333Y-70152466D02*
X96943000Y-70152466D01*
X96876333Y-70185800D01*
X96809666Y-70252466D01*
X96776333Y-70385800D01*
X96776333Y-70619133D01*
X96809666Y-70752466D01*
X96876333Y-70819133D01*
X96943000Y-70852466D01*
X97076333Y-70852466D01*
X97143000Y-70819133D01*
X97209666Y-70752466D01*
X97243000Y-70619133D01*
X97243000Y-70385800D01*
X97209666Y-70252466D01*
X97143000Y-70185800D01*
X97076333Y-70152466D01*
X96343000Y-70152466D02*
X96209666Y-70152466D01*
X96143000Y-70185800D01*
X96076333Y-70252466D01*
X96043000Y-70385800D01*
X96043000Y-70619133D01*
X96076333Y-70752466D01*
X96143000Y-70819133D01*
X96209666Y-70852466D01*
X96343000Y-70852466D01*
X96409666Y-70819133D01*
X96476333Y-70752466D01*
X96509666Y-70619133D01*
X96509666Y-70385800D01*
X96476333Y-70252466D01*
X96409666Y-70185800D01*
X96343000Y-70152466D01*
X95843000Y-70152466D02*
X95443000Y-70152466D01*
X95643000Y-70852466D02*
X95643000Y-70152466D01*
X95076333Y-70152466D02*
X95009666Y-70152466D01*
X94943000Y-70185800D01*
X94909666Y-70219133D01*
X94876333Y-70285800D01*
X94843000Y-70419133D01*
X94843000Y-70585800D01*
X94876333Y-70719133D01*
X94909666Y-70785800D01*
X94943000Y-70819133D01*
X95009666Y-70852466D01*
X95076333Y-70852466D01*
X95143000Y-70819133D01*
X95176333Y-70785800D01*
X95209666Y-70719133D01*
X95243000Y-70585800D01*
X95243000Y-70419133D01*
X95209666Y-70285800D01*
X95176333Y-70219133D01*
X95143000Y-70185800D01*
X95076333Y-70152466D01*
X94575285Y-79696000D02*
X94603857Y-79667428D01*
X94632428Y-79581714D01*
X94632428Y-79524571D01*
X94603857Y-79438857D01*
X94546714Y-79381714D01*
X94489571Y-79353142D01*
X94375285Y-79324571D01*
X94289571Y-79324571D01*
X94175285Y-79353142D01*
X94118142Y-79381714D01*
X94061000Y-79438857D01*
X94032428Y-79524571D01*
X94032428Y-79581714D01*
X94061000Y-79667428D01*
X94089571Y-79696000D01*
X94318142Y-79953142D02*
X94318142Y-80153142D01*
X94632428Y-80238857D02*
X94632428Y-79953142D01*
X94032428Y-79953142D01*
X94032428Y-80238857D01*
X94632428Y-80838857D02*
X94346714Y-80638857D01*
X94632428Y-80496000D02*
X94032428Y-80496000D01*
X94032428Y-80724571D01*
X94061000Y-80781714D01*
X94089571Y-80810285D01*
X94146714Y-80838857D01*
X94232428Y-80838857D01*
X94289571Y-80810285D01*
X94318142Y-80781714D01*
X94346714Y-80724571D01*
X94346714Y-80496000D01*
X94632428Y-81096000D02*
X94032428Y-81096000D01*
X94632428Y-81438857D01*
X94032428Y-81438857D01*
X94403857Y-81724571D02*
X94403857Y-82181714D01*
X94032428Y-82581714D02*
X94032428Y-82696000D01*
X94061000Y-82753142D01*
X94118142Y-82810285D01*
X94232428Y-82838857D01*
X94432428Y-82838857D01*
X94546714Y-82810285D01*
X94603857Y-82753142D01*
X94632428Y-82696000D01*
X94632428Y-82581714D01*
X94603857Y-82524571D01*
X94546714Y-82467428D01*
X94432428Y-82438857D01*
X94232428Y-82438857D01*
X94118142Y-82467428D01*
X94061000Y-82524571D01*
X94032428Y-82581714D01*
X94632428Y-83096000D02*
X94032428Y-83096000D01*
X94318142Y-83096000D02*
X94318142Y-83438857D01*
X94632428Y-83438857D02*
X94032428Y-83438857D01*
X94632428Y-84010285D02*
X94632428Y-83724571D01*
X94032428Y-83724571D01*
X94403857Y-84210285D02*
X94403857Y-84667428D01*
X94603857Y-84924571D02*
X94632428Y-85010285D01*
X94632428Y-85153142D01*
X94603857Y-85210285D01*
X94575285Y-85238857D01*
X94518142Y-85267428D01*
X94461000Y-85267428D01*
X94403857Y-85238857D01*
X94375285Y-85210285D01*
X94346714Y-85153142D01*
X94318142Y-85038857D01*
X94289571Y-84981714D01*
X94261000Y-84953142D01*
X94203857Y-84924571D01*
X94146714Y-84924571D01*
X94089571Y-84953142D01*
X94061000Y-84981714D01*
X94032428Y-85038857D01*
X94032428Y-85181714D01*
X94061000Y-85267428D01*
X94886428Y-73544285D02*
X94286428Y-73544285D01*
X94857857Y-73544285D02*
X94886428Y-73487142D01*
X94886428Y-73372857D01*
X94857857Y-73315714D01*
X94829285Y-73287142D01*
X94772142Y-73258571D01*
X94600714Y-73258571D01*
X94543571Y-73287142D01*
X94515000Y-73315714D01*
X94486428Y-73372857D01*
X94486428Y-73487142D01*
X94515000Y-73544285D01*
X94857857Y-74058571D02*
X94886428Y-74001428D01*
X94886428Y-73887142D01*
X94857857Y-73830000D01*
X94800714Y-73801428D01*
X94572142Y-73801428D01*
X94515000Y-73830000D01*
X94486428Y-73887142D01*
X94486428Y-74001428D01*
X94515000Y-74058571D01*
X94572142Y-74087142D01*
X94629285Y-74087142D01*
X94686428Y-73801428D01*
X94486428Y-74344285D02*
X95086428Y-74344285D01*
X94515000Y-74344285D02*
X94486428Y-74401428D01*
X94486428Y-74515714D01*
X94515000Y-74572857D01*
X94543571Y-74601428D01*
X94600714Y-74630000D01*
X94772142Y-74630000D01*
X94829285Y-74601428D01*
X94857857Y-74572857D01*
X94886428Y-74515714D01*
X94886428Y-74401428D01*
X94857857Y-74344285D01*
X94886428Y-75144285D02*
X94572142Y-75144285D01*
X94515000Y-75115714D01*
X94486428Y-75058571D01*
X94486428Y-74944285D01*
X94515000Y-74887142D01*
X94857857Y-75144285D02*
X94886428Y-75087142D01*
X94886428Y-74944285D01*
X94857857Y-74887142D01*
X94800714Y-74858571D01*
X94743571Y-74858571D01*
X94686428Y-74887142D01*
X94657857Y-74944285D01*
X94657857Y-75087142D01*
X94629285Y-75144285D01*
X94486428Y-75687142D02*
X94886428Y-75687142D01*
X94486428Y-75430000D02*
X94800714Y-75430000D01*
X94857857Y-75458571D01*
X94886428Y-75515714D01*
X94886428Y-75601428D01*
X94857857Y-75658571D01*
X94829285Y-75687142D01*
X94829285Y-75972857D02*
X94857857Y-76001428D01*
X94886428Y-75972857D01*
X94857857Y-75944285D01*
X94829285Y-75972857D01*
X94886428Y-75972857D01*
X94857857Y-76487142D02*
X94886428Y-76430000D01*
X94886428Y-76315714D01*
X94857857Y-76258571D01*
X94800714Y-76230000D01*
X94572142Y-76230000D01*
X94515000Y-76258571D01*
X94486428Y-76315714D01*
X94486428Y-76430000D01*
X94515000Y-76487142D01*
X94572142Y-76515714D01*
X94629285Y-76515714D01*
X94686428Y-76230000D01*
X94486428Y-77030000D02*
X94886428Y-77030000D01*
X94486428Y-76772857D02*
X94800714Y-76772857D01*
X94857857Y-76801428D01*
X94886428Y-76858571D01*
X94886428Y-76944285D01*
X94857857Y-77001428D01*
X94829285Y-77030000D01*
X92835428Y-79353142D02*
X92835428Y-79581714D01*
X93235428Y-79438857D02*
X92721142Y-79438857D01*
X92664000Y-79467428D01*
X92635428Y-79524571D01*
X92635428Y-79581714D01*
X93235428Y-79867428D02*
X93206857Y-79810285D01*
X93178285Y-79781714D01*
X93121142Y-79753142D01*
X92949714Y-79753142D01*
X92892571Y-79781714D01*
X92864000Y-79810285D01*
X92835428Y-79867428D01*
X92835428Y-79953142D01*
X92864000Y-80010285D01*
X92892571Y-80038857D01*
X92949714Y-80067428D01*
X93121142Y-80067428D01*
X93178285Y-80038857D01*
X93206857Y-80010285D01*
X93235428Y-79953142D01*
X93235428Y-79867428D01*
X93235428Y-80324571D02*
X92835428Y-80324571D01*
X92949714Y-80324571D02*
X92892571Y-80353142D01*
X92864000Y-80381714D01*
X92835428Y-80438857D01*
X92835428Y-80496000D01*
X93235428Y-81238857D02*
X93206857Y-81181714D01*
X93178285Y-81153142D01*
X93121142Y-81124571D01*
X92949714Y-81124571D01*
X92892571Y-81153142D01*
X92864000Y-81181714D01*
X92835428Y-81238857D01*
X92835428Y-81324571D01*
X92864000Y-81381714D01*
X92892571Y-81410285D01*
X92949714Y-81438857D01*
X93121142Y-81438857D01*
X93178285Y-81410285D01*
X93206857Y-81381714D01*
X93235428Y-81324571D01*
X93235428Y-81238857D01*
X92835428Y-81696000D02*
X93435428Y-81696000D01*
X92864000Y-81696000D02*
X92835428Y-81753142D01*
X92835428Y-81867428D01*
X92864000Y-81924571D01*
X92892571Y-81953142D01*
X92949714Y-81981714D01*
X93121142Y-81981714D01*
X93178285Y-81953142D01*
X93206857Y-81924571D01*
X93235428Y-81867428D01*
X93235428Y-81753142D01*
X93206857Y-81696000D01*
X93235428Y-82238857D02*
X92835428Y-82238857D01*
X92635428Y-82238857D02*
X92664000Y-82210285D01*
X92692571Y-82238857D01*
X92664000Y-82267428D01*
X92635428Y-82238857D01*
X92692571Y-82238857D01*
X92835428Y-82781714D02*
X93235428Y-82781714D01*
X92606857Y-82638857D02*
X93035428Y-82496000D01*
X93035428Y-82867428D01*
X92835428Y-83496000D02*
X93235428Y-83638857D01*
X92835428Y-83781714D01*
X92635428Y-84124571D02*
X92635428Y-84181714D01*
X92664000Y-84238857D01*
X92692571Y-84267428D01*
X92749714Y-84296000D01*
X92864000Y-84324571D01*
X93006857Y-84324571D01*
X93121142Y-84296000D01*
X93178285Y-84267428D01*
X93206857Y-84238857D01*
X93235428Y-84181714D01*
X93235428Y-84124571D01*
X93206857Y-84067428D01*
X93178285Y-84038857D01*
X93121142Y-84010285D01*
X93006857Y-83981714D01*
X92864000Y-83981714D01*
X92749714Y-84010285D01*
X92692571Y-84038857D01*
X92664000Y-84067428D01*
X92635428Y-84124571D01*
X93178285Y-84581714D02*
X93206857Y-84610285D01*
X93235428Y-84581714D01*
X93206857Y-84553142D01*
X93178285Y-84581714D01*
X93235428Y-84581714D01*
X93235428Y-85181714D02*
X93235428Y-84838857D01*
X93235428Y-85010285D02*
X92635428Y-85010285D01*
X92721142Y-84953142D01*
X92778285Y-84896000D01*
X92806857Y-84838857D01*
X92142571Y-71771285D02*
X93642571Y-72128428D01*
X92571142Y-72414142D01*
X93642571Y-72699857D01*
X92142571Y-73057000D01*
X93642571Y-73628428D02*
X92642571Y-73628428D01*
X92142571Y-73628428D02*
X92214000Y-73557000D01*
X92285428Y-73628428D01*
X92214000Y-73699857D01*
X92142571Y-73628428D01*
X92285428Y-73628428D01*
X93071142Y-74342714D02*
X93071142Y-75485571D01*
X93571142Y-76128428D02*
X93642571Y-76342714D01*
X93642571Y-76699857D01*
X93571142Y-76842714D01*
X93499714Y-76914142D01*
X93356857Y-76985571D01*
X93214000Y-76985571D01*
X93071142Y-76914142D01*
X92999714Y-76842714D01*
X92928285Y-76699857D01*
X92856857Y-76414142D01*
X92785428Y-76271285D01*
X92714000Y-76199857D01*
X92571142Y-76128428D01*
X92428285Y-76128428D01*
X92285428Y-76199857D01*
X92214000Y-76271285D01*
X92142571Y-76414142D01*
X92142571Y-76771285D01*
X92214000Y-76985571D01*
X93571142Y-78199857D02*
X93642571Y-78057000D01*
X93642571Y-77771285D01*
X93571142Y-77628428D01*
X93428285Y-77557000D01*
X92856857Y-77557000D01*
X92714000Y-77628428D01*
X92642571Y-77771285D01*
X92642571Y-78057000D01*
X92714000Y-78199857D01*
X92856857Y-78271285D01*
X92999714Y-78271285D01*
X93142571Y-77557000D01*
D11*
X109854952Y-86125809D02*
X109569238Y-86125809D01*
X109712095Y-85625809D02*
X109712095Y-86125809D01*
X109450190Y-86125809D02*
X109116857Y-85625809D01*
X109116857Y-86125809D02*
X109450190Y-85625809D01*
D12*
%TO.C,REF\u002A\u002A*%
X92837000Y-88201500D02*
X93005065Y-87956593D01*
X93529907Y-88349504D02*
X93327243Y-88262603D01*
X92926145Y-87278167D02*
X93006574Y-87081672D01*
X93044959Y-86588909D02*
X93064545Y-86587103D01*
X93045059Y-88427314D02*
X92838806Y-88221070D01*
X93529827Y-86666714D02*
X93544257Y-86649939D01*
X93327143Y-86753608D02*
X93529827Y-86666714D01*
X93597043Y-88649703D02*
X93544337Y-88366279D01*
X92909659Y-87723618D02*
X92616508Y-87669050D01*
X93305328Y-88263986D02*
X93064646Y-88429120D01*
X92836900Y-86814766D02*
X92838706Y-86795180D01*
X93006574Y-87081672D02*
X93004965Y-87059656D01*
X93327243Y-88262603D02*
X93305328Y-88263986D01*
X92603843Y-87362303D02*
X92616410Y-87347198D01*
X93544337Y-88366279D02*
X93529907Y-88349504D01*
X93064646Y-88429120D02*
X93045059Y-88427314D01*
X92616508Y-87669050D02*
X92603940Y-87653931D01*
X93612101Y-86353963D02*
X93903801Y-86353980D01*
X92926245Y-87738099D02*
X92909659Y-87723618D01*
X93006674Y-87934577D02*
X92926245Y-87738099D01*
X93064545Y-86587103D02*
X93305228Y-86752254D01*
X94031370Y-87334419D02*
X93759635Y-87185544D01*
X93759635Y-87185544D02*
X93531524Y-87280035D01*
X93531524Y-87280035D02*
X93437040Y-87508139D01*
X93918939Y-86366550D02*
X93970386Y-86643008D01*
X93005065Y-87956593D02*
X93006674Y-87934577D01*
X92909558Y-87292648D02*
X92926145Y-87278167D01*
X93596962Y-86366533D02*
X93612101Y-86353963D01*
X93437040Y-87508139D02*
X93531524Y-87736235D01*
X93531524Y-87736235D02*
X93759635Y-87830717D01*
X93759635Y-87830717D02*
X94031370Y-87681842D01*
X93004965Y-87059656D02*
X92836900Y-86814766D01*
X92838706Y-86795180D02*
X93044959Y-86588909D01*
X94200518Y-86745730D02*
X94222534Y-86744094D01*
X94222534Y-86744094D02*
X94451373Y-86587063D01*
X94677229Y-86795157D02*
X94679036Y-86814743D01*
X94679036Y-86814743D02*
X94524748Y-87039530D01*
X93305228Y-86752254D02*
X93327143Y-86753608D01*
X94077042Y-87380918D02*
X94058576Y-87374918D01*
X94058576Y-87374918D02*
X94043387Y-87350108D01*
X94043387Y-87350108D02*
X94031370Y-87334419D01*
X94031370Y-87681842D02*
X94043387Y-87666187D01*
X94043387Y-87666187D02*
X94058576Y-87641377D01*
X94058576Y-87641377D02*
X94077042Y-87635377D01*
X94077042Y-87635377D02*
X94570960Y-87839768D01*
X94524748Y-87039530D02*
X94524013Y-87061080D01*
X94524013Y-87061080D02*
X94576943Y-87160216D01*
X93970386Y-86643008D02*
X93984920Y-86659422D01*
X92838806Y-88221070D02*
X92837000Y-88201500D01*
X93903801Y-86353980D02*
X93918939Y-86366550D01*
X92603940Y-87653931D02*
X92603843Y-87362303D01*
X94576943Y-87160216D02*
X94570943Y-87176509D01*
X94570943Y-87176509D02*
X94077042Y-87380918D01*
X92616410Y-87347198D02*
X92909558Y-87292648D01*
X93544257Y-86649939D02*
X93596962Y-86366533D01*
X94570960Y-87839768D02*
X94576960Y-87856061D01*
X94576960Y-87856061D02*
X94524030Y-87955196D01*
X94524030Y-87955196D02*
X94524765Y-87976747D01*
X94524765Y-87976747D02*
X94679053Y-88201551D01*
X94679053Y-88201551D02*
X94677247Y-88221120D01*
X94677247Y-88221120D02*
X94470995Y-88427408D01*
X94470995Y-88427408D02*
X94451391Y-88429214D01*
X94451391Y-88429214D02*
X94222644Y-88272103D01*
X94222644Y-88272103D02*
X94200627Y-88270494D01*
X94200627Y-88270494D02*
X93985029Y-88356803D01*
X93985029Y-88356803D02*
X93970494Y-88373200D01*
X93970494Y-88373200D02*
X93919048Y-88649658D01*
X93919048Y-88649658D02*
X93903909Y-88662228D01*
X93903909Y-88662228D02*
X93612209Y-88662262D01*
X93612209Y-88662262D02*
X93597054Y-88649729D01*
X94451373Y-86587063D02*
X94470976Y-86588869D01*
X94470976Y-86588869D02*
X94677229Y-86795157D01*
X93984920Y-86659422D02*
X94200518Y-86745730D01*
D13*
%TO.C,C2*%
X99938160Y-85714892D02*
X99938160Y-84292388D01*
X101758160Y-85714892D02*
X101758160Y-84292388D01*
%TO.C,J2*%
X111080000Y-92580000D02*
X111080000Y-91250000D01*
X109750000Y-92580000D02*
X111080000Y-92580000D01*
X108480000Y-92580000D02*
X108480000Y-89920000D01*
X108480000Y-89920000D02*
X98260000Y-89920000D01*
X108480000Y-92580000D02*
X98260000Y-92580000D01*
X98260000Y-92580000D02*
X98260000Y-89920000D01*
D14*
%TO.C,Q1*%
X101166739Y-75643060D02*
X101833261Y-75643060D01*
X103125600Y-75643060D02*
X103125600Y-77294060D01*
X103125600Y-77294060D02*
X102116740Y-77294060D01*
X99874400Y-77294060D02*
X99874400Y-75643060D01*
X100883260Y-77294060D02*
X99874400Y-77294060D01*
X100626200Y-74081561D02*
G75*
G03*
X100626200Y-74081561I-76200J0D01*
G01*
D13*
%TO.C,J1*%
X111170000Y-68300000D02*
X111170000Y-66970000D01*
X111170000Y-66970000D02*
X109840000Y-66970000D01*
X108570000Y-66970000D02*
X103430000Y-66970000D01*
X103430000Y-69630000D02*
X103430000Y-66970000D01*
X108570000Y-69630000D02*
X103430000Y-69630000D01*
X108570000Y-69630000D02*
X108570000Y-66970000D01*
D14*
%TO.C,Q2*%
X96626200Y-74113001D02*
G75*
G03*
X96626200Y-74113001I-76200J0D01*
G01*
X96883260Y-77325500D02*
X95874400Y-77325500D01*
X95874400Y-77325500D02*
X95874400Y-75674500D01*
X99125600Y-77325500D02*
X98116740Y-77325500D01*
X99125600Y-75674500D02*
X99125600Y-77325500D01*
X97166739Y-75674500D02*
X97833261Y-75674500D01*
D13*
%TO.C,C5*%
X99202920Y-85704732D02*
X99202920Y-84282228D01*
X97382920Y-85704732D02*
X97382920Y-84282228D01*
%TO.C,C6*%
X96720120Y-85951940D02*
X96720120Y-85670780D01*
X95700120Y-85951940D02*
X95700120Y-85670780D01*
%TO.C,C7*%
X98723564Y-72623000D02*
X98939236Y-72623000D01*
X98723564Y-71903000D02*
X98939236Y-71903000D01*
%TO.C,C8*%
X100857836Y-72623000D02*
X100642164Y-72623000D01*
X100857836Y-71903000D02*
X100642164Y-71903000D01*
%TO.C,C9*%
X102590164Y-72578000D02*
X102805836Y-72578000D01*
X102590164Y-71858000D02*
X102805836Y-71858000D01*
%TO.C,R1*%
X109596359Y-73786000D02*
X109903641Y-73786000D01*
X109596359Y-73026000D02*
X109903641Y-73026000D01*
%TO.C,R2*%
X109574359Y-74042000D02*
X109881641Y-74042000D01*
X109574359Y-74802000D02*
X109881641Y-74802000D01*
%TO.C,R3*%
X102490000Y-85345241D02*
X102490000Y-85037959D01*
X103250000Y-85345241D02*
X103250000Y-85037959D01*
%TO.C,R4*%
X102996000Y-86968359D02*
X102996000Y-87275641D01*
X102236000Y-86968359D02*
X102236000Y-87275641D01*
%TO.C,R5*%
X98959641Y-73630000D02*
X98652359Y-73630000D01*
X98959641Y-72870000D02*
X98652359Y-72870000D01*
%TO.C,R6*%
X100596359Y-73630000D02*
X100903641Y-73630000D01*
X100596359Y-72870000D02*
X100903641Y-72870000D01*
%TO.C,R7*%
X102851641Y-72899000D02*
X102544359Y-72899000D01*
X102851641Y-73659000D02*
X102544359Y-73659000D01*
%TO.C,R8*%
X97346359Y-78870000D02*
X97653641Y-78870000D01*
X97346359Y-79630000D02*
X97653641Y-79630000D01*
%TO.C,R9*%
X101653641Y-78870000D02*
X101346359Y-78870000D01*
X101653641Y-79630000D02*
X101346359Y-79630000D01*
%TO.C,R11*%
X102488000Y-68227641D02*
X102488000Y-67920359D01*
X101728000Y-68227641D02*
X101728000Y-67920359D01*
%TO.C,R12*%
X101472000Y-68225641D02*
X101472000Y-67918359D01*
X100712000Y-68225641D02*
X100712000Y-67918359D01*
%TO.C,U1*%
X110979000Y-86898400D02*
X109719000Y-86898400D01*
X104159000Y-86898400D02*
X105419000Y-86898400D01*
X110979000Y-83138400D02*
X110979000Y-86898400D01*
X104159000Y-80888400D02*
X104159000Y-86898400D01*
D10*
%TO.C,SW2*%
X99325000Y-69800000D02*
X96325000Y-69800000D01*
X99325000Y-66800000D02*
X96325000Y-66800000D01*
X96325000Y-69800000D02*
X96325000Y-66800000D01*
X99325000Y-66800000D02*
X99325000Y-69800000D01*
%TO.C,C2*%
X100300000Y-87914285D02*
X100328571Y-87942857D01*
X100414285Y-87971428D01*
X100471428Y-87971428D01*
X100557142Y-87942857D01*
X100614285Y-87885714D01*
X100642857Y-87828571D01*
X100671428Y-87714285D01*
X100671428Y-87628571D01*
X100642857Y-87514285D01*
X100614285Y-87457142D01*
X100557142Y-87400000D01*
X100471428Y-87371428D01*
X100414285Y-87371428D01*
X100328571Y-87400000D01*
X100300000Y-87428571D01*
X100071428Y-87428571D02*
X100042857Y-87400000D01*
X99985714Y-87371428D01*
X99842857Y-87371428D01*
X99785714Y-87400000D01*
X99757142Y-87428571D01*
X99728571Y-87485714D01*
X99728571Y-87542857D01*
X99757142Y-87628571D01*
X100100000Y-87971428D01*
X99728571Y-87971428D01*
%TO.C,Q1*%
X101595238Y-77016179D02*
X101690476Y-76968560D01*
X101785714Y-76873321D01*
X101928571Y-76730464D01*
X102023809Y-76682845D01*
X102119047Y-76682845D01*
X102071428Y-76920940D02*
X102166666Y-76873321D01*
X102261904Y-76778083D01*
X102309523Y-76587607D01*
X102309523Y-76254274D01*
X102261904Y-76063798D01*
X102166666Y-75968560D01*
X102071428Y-75920940D01*
X101880952Y-75920940D01*
X101785714Y-75968560D01*
X101690476Y-76063798D01*
X101642857Y-76254274D01*
X101642857Y-76587607D01*
X101690476Y-76778083D01*
X101785714Y-76873321D01*
X101880952Y-76920940D01*
X102071428Y-76920940D01*
X100690476Y-76920940D02*
X101261904Y-76920940D01*
X100976190Y-76920940D02*
X100976190Y-75920940D01*
X101071428Y-76063798D01*
X101166666Y-76159036D01*
X101261904Y-76206655D01*
%TO.C,J1*%
X108633333Y-69016666D02*
X108633333Y-69516666D01*
X108666666Y-69616666D01*
X108733333Y-69683333D01*
X108833333Y-69716666D01*
X108900000Y-69716666D01*
X107933333Y-69716666D02*
X108333333Y-69716666D01*
X108133333Y-69716666D02*
X108133333Y-69016666D01*
X108200000Y-69116666D01*
X108266666Y-69183333D01*
X108333333Y-69216666D01*
%TO.C,Q2*%
X97595238Y-77047619D02*
X97690476Y-77000000D01*
X97785714Y-76904761D01*
X97928571Y-76761904D01*
X98023809Y-76714285D01*
X98119047Y-76714285D01*
X98071428Y-76952380D02*
X98166666Y-76904761D01*
X98261904Y-76809523D01*
X98309523Y-76619047D01*
X98309523Y-76285714D01*
X98261904Y-76095238D01*
X98166666Y-76000000D01*
X98071428Y-75952380D01*
X97880952Y-75952380D01*
X97785714Y-76000000D01*
X97690476Y-76095238D01*
X97642857Y-76285714D01*
X97642857Y-76619047D01*
X97690476Y-76809523D01*
X97785714Y-76904761D01*
X97880952Y-76952380D01*
X98071428Y-76952380D01*
X97261904Y-76047619D02*
X97214285Y-76000000D01*
X97119047Y-75952380D01*
X96880952Y-75952380D01*
X96785714Y-76000000D01*
X96738095Y-76047619D01*
X96690476Y-76142857D01*
X96690476Y-76238095D01*
X96738095Y-76380952D01*
X97309523Y-76952380D01*
X96690476Y-76952380D01*
%TO.C,C5*%
X98400000Y-87914285D02*
X98428571Y-87942857D01*
X98514285Y-87971428D01*
X98571428Y-87971428D01*
X98657142Y-87942857D01*
X98714285Y-87885714D01*
X98742857Y-87828571D01*
X98771428Y-87714285D01*
X98771428Y-87628571D01*
X98742857Y-87514285D01*
X98714285Y-87457142D01*
X98657142Y-87400000D01*
X98571428Y-87371428D01*
X98514285Y-87371428D01*
X98428571Y-87400000D01*
X98400000Y-87428571D01*
X97857142Y-87371428D02*
X98142857Y-87371428D01*
X98171428Y-87657142D01*
X98142857Y-87628571D01*
X98085714Y-87600000D01*
X97942857Y-87600000D01*
X97885714Y-87628571D01*
X97857142Y-87657142D01*
X97828571Y-87714285D01*
X97828571Y-87857142D01*
X97857142Y-87914285D01*
X97885714Y-87942857D01*
X97942857Y-87971428D01*
X98085714Y-87971428D01*
X98142857Y-87942857D01*
X98171428Y-87914285D01*
%TO.C,C6*%
X96239000Y-84161285D02*
X96267571Y-84189857D01*
X96353285Y-84218428D01*
X96410428Y-84218428D01*
X96496142Y-84189857D01*
X96553285Y-84132714D01*
X96581857Y-84075571D01*
X96610428Y-83961285D01*
X96610428Y-83875571D01*
X96581857Y-83761285D01*
X96553285Y-83704142D01*
X96496142Y-83647000D01*
X96410428Y-83618428D01*
X96353285Y-83618428D01*
X96267571Y-83647000D01*
X96239000Y-83675571D01*
X95724714Y-83618428D02*
X95839000Y-83618428D01*
X95896142Y-83647000D01*
X95924714Y-83675571D01*
X95981857Y-83761285D01*
X96010428Y-83875571D01*
X96010428Y-84104142D01*
X95981857Y-84161285D01*
X95953285Y-84189857D01*
X95896142Y-84218428D01*
X95781857Y-84218428D01*
X95724714Y-84189857D01*
X95696142Y-84161285D01*
X95667571Y-84104142D01*
X95667571Y-83961285D01*
X95696142Y-83904142D01*
X95724714Y-83875571D01*
X95781857Y-83847000D01*
X95896142Y-83847000D01*
X95953285Y-83875571D01*
X95981857Y-83904142D01*
X96010428Y-83961285D01*
%TO.C,C7*%
X98931400Y-71614285D02*
X98959971Y-71642857D01*
X99045685Y-71671428D01*
X99102828Y-71671428D01*
X99188542Y-71642857D01*
X99245685Y-71585714D01*
X99274257Y-71528571D01*
X99302828Y-71414285D01*
X99302828Y-71328571D01*
X99274257Y-71214285D01*
X99245685Y-71157142D01*
X99188542Y-71100000D01*
X99102828Y-71071428D01*
X99045685Y-71071428D01*
X98959971Y-71100000D01*
X98931400Y-71128571D01*
X98731400Y-71071428D02*
X98331400Y-71071428D01*
X98588542Y-71671428D01*
%TO.C,C8*%
X100900000Y-71614285D02*
X100928571Y-71642857D01*
X101014285Y-71671428D01*
X101071428Y-71671428D01*
X101157142Y-71642857D01*
X101214285Y-71585714D01*
X101242857Y-71528571D01*
X101271428Y-71414285D01*
X101271428Y-71328571D01*
X101242857Y-71214285D01*
X101214285Y-71157142D01*
X101157142Y-71100000D01*
X101071428Y-71071428D01*
X101014285Y-71071428D01*
X100928571Y-71100000D01*
X100900000Y-71128571D01*
X100557142Y-71328571D02*
X100614285Y-71300000D01*
X100642857Y-71271428D01*
X100671428Y-71214285D01*
X100671428Y-71185714D01*
X100642857Y-71128571D01*
X100614285Y-71100000D01*
X100557142Y-71071428D01*
X100442857Y-71071428D01*
X100385714Y-71100000D01*
X100357142Y-71128571D01*
X100328571Y-71185714D01*
X100328571Y-71214285D01*
X100357142Y-71271428D01*
X100385714Y-71300000D01*
X100442857Y-71328571D01*
X100557142Y-71328571D01*
X100614285Y-71357142D01*
X100642857Y-71385714D01*
X100671428Y-71442857D01*
X100671428Y-71557142D01*
X100642857Y-71614285D01*
X100614285Y-71642857D01*
X100557142Y-71671428D01*
X100442857Y-71671428D01*
X100385714Y-71642857D01*
X100357142Y-71614285D01*
X100328571Y-71557142D01*
X100328571Y-71442857D01*
X100357142Y-71385714D01*
X100385714Y-71357142D01*
X100442857Y-71328571D01*
%TO.C,C9*%
X102798000Y-71614285D02*
X102826571Y-71642857D01*
X102912285Y-71671428D01*
X102969428Y-71671428D01*
X103055142Y-71642857D01*
X103112285Y-71585714D01*
X103140857Y-71528571D01*
X103169428Y-71414285D01*
X103169428Y-71328571D01*
X103140857Y-71214285D01*
X103112285Y-71157142D01*
X103055142Y-71100000D01*
X102969428Y-71071428D01*
X102912285Y-71071428D01*
X102826571Y-71100000D01*
X102798000Y-71128571D01*
X102512285Y-71671428D02*
X102398000Y-71671428D01*
X102340857Y-71642857D01*
X102312285Y-71614285D01*
X102255142Y-71528571D01*
X102226571Y-71414285D01*
X102226571Y-71185714D01*
X102255142Y-71128571D01*
X102283714Y-71100000D01*
X102340857Y-71071428D01*
X102455142Y-71071428D01*
X102512285Y-71100000D01*
X102540857Y-71128571D01*
X102569428Y-71185714D01*
X102569428Y-71328571D01*
X102540857Y-71385714D01*
X102512285Y-71414285D01*
X102455142Y-71442857D01*
X102340857Y-71442857D01*
X102283714Y-71414285D01*
X102255142Y-71385714D01*
X102226571Y-71328571D01*
%TO.C,R1*%
X111471428Y-73200000D02*
X111185714Y-73000000D01*
X111471428Y-72857142D02*
X110871428Y-72857142D01*
X110871428Y-73085714D01*
X110900000Y-73142857D01*
X110928571Y-73171428D01*
X110985714Y-73200000D01*
X111071428Y-73200000D01*
X111128571Y-73171428D01*
X111157142Y-73142857D01*
X111185714Y-73085714D01*
X111185714Y-72857142D01*
X111471428Y-73771428D02*
X111471428Y-73428571D01*
X111471428Y-73600000D02*
X110871428Y-73600000D01*
X110957142Y-73542857D01*
X111014285Y-73485714D01*
X111042857Y-73428571D01*
%TO.C,R2*%
X111471428Y-74500000D02*
X111185714Y-74300000D01*
X111471428Y-74157142D02*
X110871428Y-74157142D01*
X110871428Y-74385714D01*
X110900000Y-74442857D01*
X110928571Y-74471428D01*
X110985714Y-74500000D01*
X111071428Y-74500000D01*
X111128571Y-74471428D01*
X111157142Y-74442857D01*
X111185714Y-74385714D01*
X111185714Y-74157142D01*
X110928571Y-74728571D02*
X110900000Y-74757142D01*
X110871428Y-74814285D01*
X110871428Y-74957142D01*
X110900000Y-75014285D01*
X110928571Y-75042857D01*
X110985714Y-75071428D01*
X111042857Y-75071428D01*
X111128571Y-75042857D01*
X111471428Y-74700000D01*
X111471428Y-75071428D01*
%TO.C,R3*%
X103171428Y-83500000D02*
X102885714Y-83300000D01*
X103171428Y-83157142D02*
X102571428Y-83157142D01*
X102571428Y-83385714D01*
X102600000Y-83442857D01*
X102628571Y-83471428D01*
X102685714Y-83500000D01*
X102771428Y-83500000D01*
X102828571Y-83471428D01*
X102857142Y-83442857D01*
X102885714Y-83385714D01*
X102885714Y-83157142D01*
X102571428Y-83700000D02*
X102571428Y-84071428D01*
X102800000Y-83871428D01*
X102800000Y-83957142D01*
X102828571Y-84014285D01*
X102857142Y-84042857D01*
X102914285Y-84071428D01*
X103057142Y-84071428D01*
X103114285Y-84042857D01*
X103142857Y-84014285D01*
X103171428Y-83957142D01*
X103171428Y-83785714D01*
X103142857Y-83728571D01*
X103114285Y-83700000D01*
%TO.C,R4*%
X102871428Y-88500000D02*
X102585714Y-88300000D01*
X102871428Y-88157142D02*
X102271428Y-88157142D01*
X102271428Y-88385714D01*
X102300000Y-88442857D01*
X102328571Y-88471428D01*
X102385714Y-88500000D01*
X102471428Y-88500000D01*
X102528571Y-88471428D01*
X102557142Y-88442857D01*
X102585714Y-88385714D01*
X102585714Y-88157142D01*
X102471428Y-89014285D02*
X102871428Y-89014285D01*
X102242857Y-88871428D02*
X102671428Y-88728571D01*
X102671428Y-89100000D01*
%TO.C,R5*%
X98900000Y-74471428D02*
X99100000Y-74185714D01*
X99242857Y-74471428D02*
X99242857Y-73871428D01*
X99014285Y-73871428D01*
X98957142Y-73900000D01*
X98928571Y-73928571D01*
X98900000Y-73985714D01*
X98900000Y-74071428D01*
X98928571Y-74128571D01*
X98957142Y-74157142D01*
X99014285Y-74185714D01*
X99242857Y-74185714D01*
X98357142Y-73871428D02*
X98642857Y-73871428D01*
X98671428Y-74157142D01*
X98642857Y-74128571D01*
X98585714Y-74100000D01*
X98442857Y-74100000D01*
X98385714Y-74128571D01*
X98357142Y-74157142D01*
X98328571Y-74214285D01*
X98328571Y-74357142D01*
X98357142Y-74414285D01*
X98385714Y-74442857D01*
X98442857Y-74471428D01*
X98585714Y-74471428D01*
X98642857Y-74442857D01*
X98671428Y-74414285D01*
%TO.C,R6*%
X101400000Y-74371428D02*
X101600000Y-74085714D01*
X101742857Y-74371428D02*
X101742857Y-73771428D01*
X101514285Y-73771428D01*
X101457142Y-73800000D01*
X101428571Y-73828571D01*
X101400000Y-73885714D01*
X101400000Y-73971428D01*
X101428571Y-74028571D01*
X101457142Y-74057142D01*
X101514285Y-74085714D01*
X101742857Y-74085714D01*
X100885714Y-73771428D02*
X101000000Y-73771428D01*
X101057142Y-73800000D01*
X101085714Y-73828571D01*
X101142857Y-73914285D01*
X101171428Y-74028571D01*
X101171428Y-74257142D01*
X101142857Y-74314285D01*
X101114285Y-74342857D01*
X101057142Y-74371428D01*
X100942857Y-74371428D01*
X100885714Y-74342857D01*
X100857142Y-74314285D01*
X100828571Y-74257142D01*
X100828571Y-74114285D01*
X100857142Y-74057142D01*
X100885714Y-74028571D01*
X100942857Y-74000000D01*
X101057142Y-74000000D01*
X101114285Y-74028571D01*
X101142857Y-74057142D01*
X101171428Y-74114285D01*
%TO.C,R7*%
X103400000Y-74471428D02*
X103600000Y-74185714D01*
X103742857Y-74471428D02*
X103742857Y-73871428D01*
X103514285Y-73871428D01*
X103457142Y-73900000D01*
X103428571Y-73928571D01*
X103400000Y-73985714D01*
X103400000Y-74071428D01*
X103428571Y-74128571D01*
X103457142Y-74157142D01*
X103514285Y-74185714D01*
X103742857Y-74185714D01*
X103200000Y-73871428D02*
X102800000Y-73871428D01*
X103057142Y-74471428D01*
%TO.C,R8*%
X97600000Y-80471428D02*
X97800000Y-80185714D01*
X97942857Y-80471428D02*
X97942857Y-79871428D01*
X97714285Y-79871428D01*
X97657142Y-79900000D01*
X97628571Y-79928571D01*
X97600000Y-79985714D01*
X97600000Y-80071428D01*
X97628571Y-80128571D01*
X97657142Y-80157142D01*
X97714285Y-80185714D01*
X97942857Y-80185714D01*
X97257142Y-80128571D02*
X97314285Y-80100000D01*
X97342857Y-80071428D01*
X97371428Y-80014285D01*
X97371428Y-79985714D01*
X97342857Y-79928571D01*
X97314285Y-79900000D01*
X97257142Y-79871428D01*
X97142857Y-79871428D01*
X97085714Y-79900000D01*
X97057142Y-79928571D01*
X97028571Y-79985714D01*
X97028571Y-80014285D01*
X97057142Y-80071428D01*
X97085714Y-80100000D01*
X97142857Y-80128571D01*
X97257142Y-80128571D01*
X97314285Y-80157142D01*
X97342857Y-80185714D01*
X97371428Y-80242857D01*
X97371428Y-80357142D01*
X97342857Y-80414285D01*
X97314285Y-80442857D01*
X97257142Y-80471428D01*
X97142857Y-80471428D01*
X97085714Y-80442857D01*
X97057142Y-80414285D01*
X97028571Y-80357142D01*
X97028571Y-80242857D01*
X97057142Y-80185714D01*
X97085714Y-80157142D01*
X97142857Y-80128571D01*
%TO.C,R9*%
X101600000Y-80471428D02*
X101800000Y-80185714D01*
X101942857Y-80471428D02*
X101942857Y-79871428D01*
X101714285Y-79871428D01*
X101657142Y-79900000D01*
X101628571Y-79928571D01*
X101600000Y-79985714D01*
X101600000Y-80071428D01*
X101628571Y-80128571D01*
X101657142Y-80157142D01*
X101714285Y-80185714D01*
X101942857Y-80185714D01*
X101314285Y-80471428D02*
X101200000Y-80471428D01*
X101142857Y-80442857D01*
X101114285Y-80414285D01*
X101057142Y-80328571D01*
X101028571Y-80214285D01*
X101028571Y-79985714D01*
X101057142Y-79928571D01*
X101085714Y-79900000D01*
X101142857Y-79871428D01*
X101257142Y-79871428D01*
X101314285Y-79900000D01*
X101342857Y-79928571D01*
X101371428Y-79985714D01*
X101371428Y-80128571D01*
X101342857Y-80185714D01*
X101314285Y-80214285D01*
X101257142Y-80242857D01*
X101142857Y-80242857D01*
X101085714Y-80214285D01*
X101057142Y-80185714D01*
X101028571Y-80128571D01*
%TO.C,R11*%
X102379428Y-69362685D02*
X102093714Y-69162685D01*
X102379428Y-69019828D02*
X101779428Y-69019828D01*
X101779428Y-69248400D01*
X101808000Y-69305542D01*
X101836571Y-69334114D01*
X101893714Y-69362685D01*
X101979428Y-69362685D01*
X102036571Y-69334114D01*
X102065142Y-69305542D01*
X102093714Y-69248400D01*
X102093714Y-69019828D01*
X102379428Y-69934114D02*
X102379428Y-69591257D01*
X102379428Y-69762685D02*
X101779428Y-69762685D01*
X101865142Y-69705542D01*
X101922285Y-69648400D01*
X101950857Y-69591257D01*
X102379428Y-70505542D02*
X102379428Y-70162685D01*
X102379428Y-70334114D02*
X101779428Y-70334114D01*
X101865142Y-70276971D01*
X101922285Y-70219828D01*
X101950857Y-70162685D01*
%TO.C,R12*%
X101388828Y-69362685D02*
X101103114Y-69162685D01*
X101388828Y-69019828D02*
X100788828Y-69019828D01*
X100788828Y-69248400D01*
X100817400Y-69305542D01*
X100845971Y-69334114D01*
X100903114Y-69362685D01*
X100988828Y-69362685D01*
X101045971Y-69334114D01*
X101074542Y-69305542D01*
X101103114Y-69248400D01*
X101103114Y-69019828D01*
X101388828Y-69934114D02*
X101388828Y-69591257D01*
X101388828Y-69762685D02*
X100788828Y-69762685D01*
X100874542Y-69705542D01*
X100931685Y-69648400D01*
X100960257Y-69591257D01*
X100845971Y-70162685D02*
X100817400Y-70191257D01*
X100788828Y-70248400D01*
X100788828Y-70391257D01*
X100817400Y-70448400D01*
X100845971Y-70476971D01*
X100903114Y-70505542D01*
X100960257Y-70505542D01*
X101045971Y-70476971D01*
X101388828Y-70134114D01*
X101388828Y-70505542D01*
%TO.C,U1*%
X108161904Y-85252380D02*
X108161904Y-86061904D01*
X108114285Y-86157142D01*
X108066666Y-86204761D01*
X107971428Y-86252380D01*
X107780952Y-86252380D01*
X107685714Y-86204761D01*
X107638095Y-86157142D01*
X107590476Y-86061904D01*
X107590476Y-85252380D01*
X106590476Y-86252380D02*
X107161904Y-86252380D01*
X106876190Y-86252380D02*
X106876190Y-85252380D01*
X106971428Y-85395238D01*
X107066666Y-85490476D01*
X107161904Y-85538095D01*
%TO.C,SW2*%
X98615400Y-67705257D02*
X98529685Y-67733828D01*
X98386828Y-67733828D01*
X98329685Y-67705257D01*
X98301114Y-67676685D01*
X98272542Y-67619542D01*
X98272542Y-67562400D01*
X98301114Y-67505257D01*
X98329685Y-67476685D01*
X98386828Y-67448114D01*
X98501114Y-67419542D01*
X98558257Y-67390971D01*
X98586828Y-67362400D01*
X98615400Y-67305257D01*
X98615400Y-67248114D01*
X98586828Y-67190971D01*
X98558257Y-67162400D01*
X98501114Y-67133828D01*
X98358257Y-67133828D01*
X98272542Y-67162400D01*
X98072542Y-67133828D02*
X97929685Y-67733828D01*
X97815400Y-67305257D01*
X97701114Y-67733828D01*
X97558257Y-67133828D01*
X97358257Y-67190971D02*
X97329685Y-67162400D01*
X97272542Y-67133828D01*
X97129685Y-67133828D01*
X97072542Y-67162400D01*
X97043971Y-67190971D01*
X97015400Y-67248114D01*
X97015400Y-67305257D01*
X97043971Y-67390971D01*
X97386828Y-67733828D01*
X97015400Y-67733828D01*
%TD*%
M02*
