%TF.GenerationSoftware,KiCad,Pcbnew,5.1.9*%
%TF.CreationDate,2021-01-18T23:58:31+01:00*%
%TF.ProjectId,wi-se-opi4,77692d73-652d-46f7-9069-342e6b696361,rev?*%
%TF.SameCoordinates,Original*%
%TF.FileFunction,Paste,Top*%
%TF.FilePolarity,Positive*%
%FSLAX46Y46*%
G04 Gerber Fmt 4.6, Leading zero omitted, Abs format (unit mm)*
G04 Created by KiCad (PCBNEW 5.1.9) date 2021-01-18 23:58:31*
%MOMM*%
%LPD*%
G01*
G04 APERTURE LIST*
%ADD10R,0.912500X0.850000*%
%ADD11R,4.300000X4.300000*%
%ADD12R,0.900000X1.700000*%
%ADD13R,0.800000X1.100000*%
G04 APERTURE END LIST*
D10*
%TO.C,U2*%
X95920000Y-71282500D03*
X97420000Y-71282500D03*
X98920000Y-71282500D03*
X100420000Y-71282500D03*
X101920000Y-71282500D03*
X103420000Y-71282500D03*
X104920000Y-71282500D03*
X106420000Y-71282500D03*
X107920000Y-71282500D03*
X107920000Y-88757500D03*
X106420000Y-88757500D03*
X104920000Y-88757500D03*
X103420000Y-88757500D03*
X101920000Y-88757500D03*
X100420000Y-88757500D03*
X98920000Y-88757500D03*
X97420000Y-88757500D03*
X95920000Y-88757500D03*
D11*
X102500000Y-78900000D03*
%TD*%
%TO.C,C1*%
G36*
G01*
X110950001Y-82191820D02*
X109649999Y-82191820D01*
G75*
G02*
X109400000Y-81941821I0J249999D01*
G01*
X109400000Y-81116819D01*
G75*
G02*
X109649999Y-80866820I249999J0D01*
G01*
X110950001Y-80866820D01*
G75*
G02*
X111200000Y-81116819I0J-249999D01*
G01*
X111200000Y-81941821D01*
G75*
G02*
X110950001Y-82191820I-249999J0D01*
G01*
G37*
G36*
G01*
X110950001Y-79066820D02*
X109649999Y-79066820D01*
G75*
G02*
X109400000Y-78816821I0J249999D01*
G01*
X109400000Y-77991819D01*
G75*
G02*
X109649999Y-77741820I249999J0D01*
G01*
X110950001Y-77741820D01*
G75*
G02*
X111200000Y-77991819I0J-249999D01*
G01*
X111200000Y-78816821D01*
G75*
G02*
X110950001Y-79066820I-249999J0D01*
G01*
G37*
%TD*%
%TO.C,D1*%
G36*
G01*
X110737500Y-73525000D02*
X110262500Y-73525000D01*
G75*
G02*
X110025000Y-73287500I0J237500D01*
G01*
X110025000Y-72712500D01*
G75*
G02*
X110262500Y-72475000I237500J0D01*
G01*
X110737500Y-72475000D01*
G75*
G02*
X110975000Y-72712500I0J-237500D01*
G01*
X110975000Y-73287500D01*
G75*
G02*
X110737500Y-73525000I-237500J0D01*
G01*
G37*
G36*
G01*
X110737500Y-71775000D02*
X110262500Y-71775000D01*
G75*
G02*
X110025000Y-71537500I0J237500D01*
G01*
X110025000Y-70962500D01*
G75*
G02*
X110262500Y-70725000I237500J0D01*
G01*
X110737500Y-70725000D01*
G75*
G02*
X110975000Y-70962500I0J-237500D01*
G01*
X110975000Y-71537500D01*
G75*
G02*
X110737500Y-71775000I-237500J0D01*
G01*
G37*
%TD*%
%TO.C,D2*%
G36*
G01*
X110262500Y-75975000D02*
X110737500Y-75975000D01*
G75*
G02*
X110975000Y-76212500I0J-237500D01*
G01*
X110975000Y-76787500D01*
G75*
G02*
X110737500Y-77025000I-237500J0D01*
G01*
X110262500Y-77025000D01*
G75*
G02*
X110025000Y-76787500I0J237500D01*
G01*
X110025000Y-76212500D01*
G75*
G02*
X110262500Y-75975000I237500J0D01*
G01*
G37*
G36*
G01*
X110262500Y-74225000D02*
X110737500Y-74225000D01*
G75*
G02*
X110975000Y-74462500I0J-237500D01*
G01*
X110975000Y-75037500D01*
G75*
G02*
X110737500Y-75275000I-237500J0D01*
G01*
X110262500Y-75275000D01*
G75*
G02*
X110025000Y-75037500I0J237500D01*
G01*
X110025000Y-74462500D01*
G75*
G02*
X110262500Y-74225000I237500J0D01*
G01*
G37*
%TD*%
%TO.C,D3*%
G36*
G01*
X110737500Y-89275000D02*
X110262500Y-89275000D01*
G75*
G02*
X110025000Y-89037500I0J237500D01*
G01*
X110025000Y-88462500D01*
G75*
G02*
X110262500Y-88225000I237500J0D01*
G01*
X110737500Y-88225000D01*
G75*
G02*
X110975000Y-88462500I0J-237500D01*
G01*
X110975000Y-89037500D01*
G75*
G02*
X110737500Y-89275000I-237500J0D01*
G01*
G37*
G36*
G01*
X110737500Y-87525000D02*
X110262500Y-87525000D01*
G75*
G02*
X110025000Y-87287500I0J237500D01*
G01*
X110025000Y-86712500D01*
G75*
G02*
X110262500Y-86475000I237500J0D01*
G01*
X110737500Y-86475000D01*
G75*
G02*
X110975000Y-86712500I0J-237500D01*
G01*
X110975000Y-87287500D01*
G75*
G02*
X110737500Y-87525000I-237500J0D01*
G01*
G37*
%TD*%
%TO.C,D4*%
G36*
G01*
X110737500Y-83983080D02*
X110262500Y-83983080D01*
G75*
G02*
X110025000Y-83745580I0J237500D01*
G01*
X110025000Y-83170580D01*
G75*
G02*
X110262500Y-82933080I237500J0D01*
G01*
X110737500Y-82933080D01*
G75*
G02*
X110975000Y-83170580I0J-237500D01*
G01*
X110975000Y-83745580D01*
G75*
G02*
X110737500Y-83983080I-237500J0D01*
G01*
G37*
G36*
G01*
X110737500Y-85733080D02*
X110262500Y-85733080D01*
G75*
G02*
X110025000Y-85495580I0J237500D01*
G01*
X110025000Y-84920580D01*
G75*
G02*
X110262500Y-84683080I237500J0D01*
G01*
X110737500Y-84683080D01*
G75*
G02*
X110975000Y-84920580I0J-237500D01*
G01*
X110975000Y-85495580D01*
G75*
G02*
X110737500Y-85733080I-237500J0D01*
G01*
G37*
%TD*%
%TO.C,R10*%
G36*
G01*
X95266500Y-89889500D02*
X95741500Y-89889500D01*
G75*
G02*
X95979000Y-90127000I0J-237500D01*
G01*
X95979000Y-90627000D01*
G75*
G02*
X95741500Y-90864500I-237500J0D01*
G01*
X95266500Y-90864500D01*
G75*
G02*
X95029000Y-90627000I0J237500D01*
G01*
X95029000Y-90127000D01*
G75*
G02*
X95266500Y-89889500I237500J0D01*
G01*
G37*
G36*
G01*
X95266500Y-91714500D02*
X95741500Y-91714500D01*
G75*
G02*
X95979000Y-91952000I0J-237500D01*
G01*
X95979000Y-92452000D01*
G75*
G02*
X95741500Y-92689500I-237500J0D01*
G01*
X95266500Y-92689500D01*
G75*
G02*
X95029000Y-92452000I0J237500D01*
G01*
X95029000Y-91952000D01*
G75*
G02*
X95266500Y-91714500I237500J0D01*
G01*
G37*
%TD*%
%TO.C,R13*%
G36*
G01*
X97265500Y-90825000D02*
X96790500Y-90825000D01*
G75*
G02*
X96553000Y-90587500I0J237500D01*
G01*
X96553000Y-90087500D01*
G75*
G02*
X96790500Y-89850000I237500J0D01*
G01*
X97265500Y-89850000D01*
G75*
G02*
X97503000Y-90087500I0J-237500D01*
G01*
X97503000Y-90587500D01*
G75*
G02*
X97265500Y-90825000I-237500J0D01*
G01*
G37*
G36*
G01*
X97265500Y-92650000D02*
X96790500Y-92650000D01*
G75*
G02*
X96553000Y-92412500I0J237500D01*
G01*
X96553000Y-91912500D01*
G75*
G02*
X96790500Y-91675000I237500J0D01*
G01*
X97265500Y-91675000D01*
G75*
G02*
X97503000Y-91912500I0J-237500D01*
G01*
X97503000Y-92412500D01*
G75*
G02*
X97265500Y-92650000I-237500J0D01*
G01*
G37*
%TD*%
D12*
%TO.C,SW1*%
X95940140Y-68000000D03*
X99340140Y-68000000D03*
D13*
X97640140Y-69640000D03*
%TD*%
M02*
