M48
; DRILL file {KiCad 5.1.9} date Mon Jan 18 23:58:34 2021
; FORMAT={-:-/ absolute / metric / decimal}
; #@! TF.CreationDate,2021-01-18T23:58:34+01:00
; #@! TF.GenerationSoftware,Kicad,Pcbnew,5.1.9
; #@! TF.FileFunction,Plated,1,4,PTH
FMAT,2
METRIC
T1C0.300
T2C0.400
T3C0.800
T4C1.000
%
G90
G05
T1
X95.809Y-74.295
X97.206Y-87.554
X97.5Y-75.427
X97.892Y-92.525
X98.146Y-91.389
X98.501Y-90.033
X99.129Y-78.809
X99.289Y-75.336
X99.568Y-70.409
X99.797Y-79.781
X100.33Y-89.633
X100.457Y-70.231
X100.762Y-90.221
X100.838Y-87.63
X102.489Y-74.295
X103.082Y-89.633
X103.683Y-75.692
X103.937Y-84.277
X104.343Y-76.149
X105.156Y-86.656
X105.664Y-85.556
X106.147Y-86.665
X106.21Y-90.31
X106.346Y-83.953
X106.934Y-78.232
X107.95Y-77.216
X107.996Y-80.125
X108.461Y-90.3
X108.875Y-86.106
X110.414Y-87.986
X111.225Y-82.804
X111.225Y-86.106
T2
X96.2Y-87.4
X97.7Y-68.0
X99.822Y-73.595
X103.723Y-72.274
X103.803Y-86.982
X103.835Y-73.279
X104.902Y-72.136
X106.172Y-70.104
X107.696Y-73.381
X108.458Y-70.104
X109.401Y-75.422
X109.728Y-72.39
X110.998Y-70.358
T3
X97.7Y-82.2
X97.8Y-85.4
X98.8Y-82.2
X98.9Y-85.4
X100.3Y-82.4
X100.3Y-85.5
X101.4Y-82.4
X101.4Y-85.3
X104.25Y-78.75
X104.25Y-80.5
X107.493Y-86.906
X107.696Y-84.47
X108.052Y-79.172
X109.144Y-83.033
T4
X99.59Y-91.25
X102.13Y-91.25
X104.67Y-91.25
X104.76Y-68.3
X107.21Y-91.25
X107.3Y-68.3
X109.75Y-91.25
X109.84Y-68.3
T0
M30
