%TF.GenerationSoftware,KiCad,Pcbnew,5.1.9*%
%TF.CreationDate,2021-01-18T23:58:31+01:00*%
%TF.ProjectId,wi-se-opi4,77692d73-652d-46f7-9069-342e6b696361,rev?*%
%TF.SameCoordinates,Original*%
%TF.FileFunction,Copper,L1,Top*%
%TF.FilePolarity,Positive*%
%FSLAX46Y46*%
G04 Gerber Fmt 4.6, Leading zero omitted, Abs format (unit mm)*
G04 Created by KiCad (PCBNEW 5.1.9) date 2021-01-18 23:58:31*
%MOMM*%
%LPD*%
G01*
G04 APERTURE LIST*
%TA.AperFunction,SMDPad,CuDef*%
%ADD10R,0.912500X0.850000*%
%TD*%
%TA.AperFunction,SMDPad,CuDef*%
%ADD11R,4.300000X4.300000*%
%TD*%
%TA.AperFunction,ComponentPad*%
%ADD12R,1.700000X1.700000*%
%TD*%
%TA.AperFunction,ComponentPad*%
%ADD13O,1.700000X1.700000*%
%TD*%
%TA.AperFunction,SMDPad,CuDef*%
%ADD14R,0.900000X1.700000*%
%TD*%
%TA.AperFunction,SMDPad,CuDef*%
%ADD15R,0.800000X1.100000*%
%TD*%
%TA.AperFunction,ViaPad*%
%ADD16C,1.000000*%
%TD*%
%TA.AperFunction,ViaPad*%
%ADD17C,0.800000*%
%TD*%
%TA.AperFunction,ViaPad*%
%ADD18C,0.500000*%
%TD*%
%TA.AperFunction,Conductor*%
%ADD19C,0.500000*%
%TD*%
%TA.AperFunction,Conductor*%
%ADD20C,0.750000*%
%TD*%
%TA.AperFunction,Conductor*%
%ADD21C,0.200000*%
%TD*%
%TA.AperFunction,Conductor*%
%ADD22C,0.300000*%
%TD*%
G04 APERTURE END LIST*
D10*
%TO.P,U2,18*%
%TO.N,GND*%
X95920000Y-71282500D03*
%TO.P,U2,17*%
%TO.N,N/C*%
X97420000Y-71282500D03*
%TO.P,U2,16*%
X98920000Y-71282500D03*
%TO.P,U2,15*%
%TO.N,RST*%
X100420000Y-71282500D03*
%TO.P,U2,14*%
%TO.N,LED_WIFI*%
X101920000Y-71282500D03*
%TO.P,U2,13*%
%TO.N,GND*%
X103420000Y-71282500D03*
%TO.P,U2,12*%
%TO.N,Net-(R12-Pad1)*%
X104920000Y-71282500D03*
%TO.P,U2,11*%
%TO.N,Net-(R11-Pad1)*%
X106420000Y-71282500D03*
%TO.P,U2,10*%
%TO.N,N/C*%
X107920000Y-71282500D03*
%TO.P,U2,9*%
%TO.N,GND*%
X107920000Y-88757500D03*
%TO.P,U2,8*%
%TO.N,Net-(R13-Pad2)*%
X106420000Y-88757500D03*
%TO.P,U2,7*%
%TO.N,N/C*%
X104920000Y-88757500D03*
%TO.P,U2,6*%
X103420000Y-88757500D03*
%TO.P,U2,5*%
%TO.N,LED_TX*%
X101920000Y-88757500D03*
%TO.P,U2,4*%
%TO.N,LED_RX*%
X100420000Y-88757500D03*
%TO.P,U2,3*%
%TO.N,LED_STATUS*%
X98920000Y-88757500D03*
%TO.P,U2,2*%
%TO.N,Net-(R10-Pad1)*%
X97420000Y-88757500D03*
%TO.P,U2,1*%
%TO.N,+3V3*%
X95920000Y-88757500D03*
D11*
%TO.P,U2,19*%
%TO.N,GND*%
X102500000Y-78900000D03*
%TD*%
D12*
%TO.P,J2,1*%
%TO.N,VCC*%
X109750000Y-91250000D03*
D13*
%TO.P,J2,2*%
%TO.N,EN*%
X107210000Y-91250000D03*
%TO.P,J2,3*%
%TO.N,BOOT0*%
X104670000Y-91250000D03*
%TO.P,J2,4*%
%TO.N,DTR*%
X102130000Y-91250000D03*
%TO.P,J2,5*%
%TO.N,RTS*%
X99590000Y-91250000D03*
%TD*%
%TO.P,C1,1*%
%TO.N,VCC*%
%TA.AperFunction,SMDPad,CuDef*%
G36*
G01*
X110950001Y-82191820D02*
X109649999Y-82191820D01*
G75*
G02*
X109400000Y-81941821I0J249999D01*
G01*
X109400000Y-81116819D01*
G75*
G02*
X109649999Y-80866820I249999J0D01*
G01*
X110950001Y-80866820D01*
G75*
G02*
X111200000Y-81116819I0J-249999D01*
G01*
X111200000Y-81941821D01*
G75*
G02*
X110950001Y-82191820I-249999J0D01*
G01*
G37*
%TD.AperFunction*%
%TO.P,C1,2*%
%TO.N,GND*%
%TA.AperFunction,SMDPad,CuDef*%
G36*
G01*
X110950001Y-79066820D02*
X109649999Y-79066820D01*
G75*
G02*
X109400000Y-78816821I0J249999D01*
G01*
X109400000Y-77991819D01*
G75*
G02*
X109649999Y-77741820I249999J0D01*
G01*
X110950001Y-77741820D01*
G75*
G02*
X111200000Y-77991819I0J-249999D01*
G01*
X111200000Y-78816821D01*
G75*
G02*
X110950001Y-79066820I-249999J0D01*
G01*
G37*
%TD.AperFunction*%
%TD*%
%TO.P,D1,1*%
%TO.N,Net-(D1-Pad1)*%
%TA.AperFunction,SMDPad,CuDef*%
G36*
G01*
X110737500Y-73525000D02*
X110262500Y-73525000D01*
G75*
G02*
X110025000Y-73287500I0J237500D01*
G01*
X110025000Y-72712500D01*
G75*
G02*
X110262500Y-72475000I237500J0D01*
G01*
X110737500Y-72475000D01*
G75*
G02*
X110975000Y-72712500I0J-237500D01*
G01*
X110975000Y-73287500D01*
G75*
G02*
X110737500Y-73525000I-237500J0D01*
G01*
G37*
%TD.AperFunction*%
%TO.P,D1,2*%
%TO.N,LED_WIFI*%
%TA.AperFunction,SMDPad,CuDef*%
G36*
G01*
X110737500Y-71775000D02*
X110262500Y-71775000D01*
G75*
G02*
X110025000Y-71537500I0J237500D01*
G01*
X110025000Y-70962500D01*
G75*
G02*
X110262500Y-70725000I237500J0D01*
G01*
X110737500Y-70725000D01*
G75*
G02*
X110975000Y-70962500I0J-237500D01*
G01*
X110975000Y-71537500D01*
G75*
G02*
X110737500Y-71775000I-237500J0D01*
G01*
G37*
%TD.AperFunction*%
%TD*%
%TO.P,D2,2*%
%TO.N,LED_STATUS*%
%TA.AperFunction,SMDPad,CuDef*%
G36*
G01*
X110262500Y-75975000D02*
X110737500Y-75975000D01*
G75*
G02*
X110975000Y-76212500I0J-237500D01*
G01*
X110975000Y-76787500D01*
G75*
G02*
X110737500Y-77025000I-237500J0D01*
G01*
X110262500Y-77025000D01*
G75*
G02*
X110025000Y-76787500I0J237500D01*
G01*
X110025000Y-76212500D01*
G75*
G02*
X110262500Y-75975000I237500J0D01*
G01*
G37*
%TD.AperFunction*%
%TO.P,D2,1*%
%TO.N,Net-(D2-Pad1)*%
%TA.AperFunction,SMDPad,CuDef*%
G36*
G01*
X110262500Y-74225000D02*
X110737500Y-74225000D01*
G75*
G02*
X110975000Y-74462500I0J-237500D01*
G01*
X110975000Y-75037500D01*
G75*
G02*
X110737500Y-75275000I-237500J0D01*
G01*
X110262500Y-75275000D01*
G75*
G02*
X110025000Y-75037500I0J237500D01*
G01*
X110025000Y-74462500D01*
G75*
G02*
X110262500Y-74225000I237500J0D01*
G01*
G37*
%TD.AperFunction*%
%TD*%
%TO.P,D3,1*%
%TO.N,Net-(D3-Pad1)*%
%TA.AperFunction,SMDPad,CuDef*%
G36*
G01*
X110737500Y-89275000D02*
X110262500Y-89275000D01*
G75*
G02*
X110025000Y-89037500I0J237500D01*
G01*
X110025000Y-88462500D01*
G75*
G02*
X110262500Y-88225000I237500J0D01*
G01*
X110737500Y-88225000D01*
G75*
G02*
X110975000Y-88462500I0J-237500D01*
G01*
X110975000Y-89037500D01*
G75*
G02*
X110737500Y-89275000I-237500J0D01*
G01*
G37*
%TD.AperFunction*%
%TO.P,D3,2*%
%TO.N,LED_TX*%
%TA.AperFunction,SMDPad,CuDef*%
G36*
G01*
X110737500Y-87525000D02*
X110262500Y-87525000D01*
G75*
G02*
X110025000Y-87287500I0J237500D01*
G01*
X110025000Y-86712500D01*
G75*
G02*
X110262500Y-86475000I237500J0D01*
G01*
X110737500Y-86475000D01*
G75*
G02*
X110975000Y-86712500I0J-237500D01*
G01*
X110975000Y-87287500D01*
G75*
G02*
X110737500Y-87525000I-237500J0D01*
G01*
G37*
%TD.AperFunction*%
%TD*%
%TO.P,D4,2*%
%TO.N,LED_RX*%
%TA.AperFunction,SMDPad,CuDef*%
G36*
G01*
X110737500Y-83983080D02*
X110262500Y-83983080D01*
G75*
G02*
X110025000Y-83745580I0J237500D01*
G01*
X110025000Y-83170580D01*
G75*
G02*
X110262500Y-82933080I237500J0D01*
G01*
X110737500Y-82933080D01*
G75*
G02*
X110975000Y-83170580I0J-237500D01*
G01*
X110975000Y-83745580D01*
G75*
G02*
X110737500Y-83983080I-237500J0D01*
G01*
G37*
%TD.AperFunction*%
%TO.P,D4,1*%
%TO.N,Net-(D4-Pad1)*%
%TA.AperFunction,SMDPad,CuDef*%
G36*
G01*
X110737500Y-85733080D02*
X110262500Y-85733080D01*
G75*
G02*
X110025000Y-85495580I0J237500D01*
G01*
X110025000Y-84920580D01*
G75*
G02*
X110262500Y-84683080I237500J0D01*
G01*
X110737500Y-84683080D01*
G75*
G02*
X110975000Y-84920580I0J-237500D01*
G01*
X110975000Y-85495580D01*
G75*
G02*
X110737500Y-85733080I-237500J0D01*
G01*
G37*
%TD.AperFunction*%
%TD*%
D12*
%TO.P,J1,1*%
%TO.N,GND*%
X109840000Y-68300000D03*
D13*
%TO.P,J1,2*%
%TO.N,TXD*%
X107300000Y-68300000D03*
%TO.P,J1,3*%
%TO.N,RXD*%
X104760000Y-68300000D03*
%TD*%
%TO.P,R10,1*%
%TO.N,Net-(R10-Pad1)*%
%TA.AperFunction,SMDPad,CuDef*%
G36*
G01*
X95266500Y-89889500D02*
X95741500Y-89889500D01*
G75*
G02*
X95979000Y-90127000I0J-237500D01*
G01*
X95979000Y-90627000D01*
G75*
G02*
X95741500Y-90864500I-237500J0D01*
G01*
X95266500Y-90864500D01*
G75*
G02*
X95029000Y-90627000I0J237500D01*
G01*
X95029000Y-90127000D01*
G75*
G02*
X95266500Y-89889500I237500J0D01*
G01*
G37*
%TD.AperFunction*%
%TO.P,R10,2*%
%TO.N,EN*%
%TA.AperFunction,SMDPad,CuDef*%
G36*
G01*
X95266500Y-91714500D02*
X95741500Y-91714500D01*
G75*
G02*
X95979000Y-91952000I0J-237500D01*
G01*
X95979000Y-92452000D01*
G75*
G02*
X95741500Y-92689500I-237500J0D01*
G01*
X95266500Y-92689500D01*
G75*
G02*
X95029000Y-92452000I0J237500D01*
G01*
X95029000Y-91952000D01*
G75*
G02*
X95266500Y-91714500I237500J0D01*
G01*
G37*
%TD.AperFunction*%
%TD*%
%TO.P,R13,2*%
%TO.N,Net-(R13-Pad2)*%
%TA.AperFunction,SMDPad,CuDef*%
G36*
G01*
X97265500Y-90825000D02*
X96790500Y-90825000D01*
G75*
G02*
X96553000Y-90587500I0J237500D01*
G01*
X96553000Y-90087500D01*
G75*
G02*
X96790500Y-89850000I237500J0D01*
G01*
X97265500Y-89850000D01*
G75*
G02*
X97503000Y-90087500I0J-237500D01*
G01*
X97503000Y-90587500D01*
G75*
G02*
X97265500Y-90825000I-237500J0D01*
G01*
G37*
%TD.AperFunction*%
%TO.P,R13,1*%
%TO.N,BOOT0*%
%TA.AperFunction,SMDPad,CuDef*%
G36*
G01*
X97265500Y-92650000D02*
X96790500Y-92650000D01*
G75*
G02*
X96553000Y-92412500I0J237500D01*
G01*
X96553000Y-91912500D01*
G75*
G02*
X96790500Y-91675000I237500J0D01*
G01*
X97265500Y-91675000D01*
G75*
G02*
X97503000Y-91912500I0J-237500D01*
G01*
X97503000Y-92412500D01*
G75*
G02*
X97265500Y-92650000I-237500J0D01*
G01*
G37*
%TD.AperFunction*%
%TD*%
D14*
%TO.P,SW1,1*%
%TO.N,GND*%
X95940140Y-68000000D03*
%TO.P,SW1,2*%
%TO.N,EN*%
X99340140Y-68000000D03*
D15*
%TO.P,SW1,3*%
%TO.N,GND*%
X97640140Y-69640000D03*
%TD*%
D16*
%TO.N,VCC*%
X109143800Y-83032600D03*
%TO.N,GND*%
X104250000Y-78750000D03*
X104250000Y-80500000D03*
X97700000Y-82200000D03*
X98800000Y-82200000D03*
X100300000Y-82400000D03*
X101400000Y-82400000D03*
D17*
X97700000Y-68000000D03*
X103722969Y-72273631D03*
D18*
X106209810Y-90309990D03*
D16*
X108051600Y-79171800D03*
D17*
X107696000Y-73380600D03*
X103802715Y-86981609D03*
D16*
%TO.N,+3V3*%
X101400000Y-85300000D03*
D17*
X96200000Y-87400000D03*
D16*
X97800000Y-85400000D03*
X98900000Y-85400000D03*
X100300000Y-85500000D03*
D17*
X99822000Y-73595000D03*
X103835200Y-73279000D03*
D16*
X107696000Y-84469647D03*
X107492800Y-86906000D03*
D18*
%TO.N,EN*%
X99568000Y-70408800D03*
X98501200Y-90032501D03*
X100761800Y-90220800D03*
%TO.N,BOOT0*%
X97891600Y-92525000D03*
X108461250Y-90300002D03*
X106146600Y-86664800D03*
X106345999Y-83953114D03*
X103936800Y-84277200D03*
X104343200Y-76149200D03*
X97500000Y-75427400D03*
%TO.N,RST*%
X100457000Y-70231000D03*
D17*
%TO.N,LED_WIFI*%
X108458000Y-70104000D03*
X110998000Y-70358000D03*
%TO.N,Net-(D1-Pad1)*%
X109728000Y-72390000D03*
%TO.N,Net-(D2-Pad1)*%
X109400719Y-75421928D03*
D18*
%TO.N,LED_STATUS*%
X107950000Y-77216000D03*
X106934000Y-78232000D03*
%TO.N,Net-(D3-Pad1)*%
X110413800Y-87985600D03*
%TO.N,Net-(D4-Pad1)*%
X111225000Y-86106000D03*
X100838000Y-87630000D03*
X108874990Y-86106000D03*
%TO.N,LED_RX*%
X111225000Y-82804000D03*
X107996417Y-80124749D03*
X105664000Y-85556000D03*
X105156000Y-86656000D03*
%TO.N,DTR*%
X98145600Y-91389200D03*
%TO.N,RTS*%
X97205800Y-87553800D03*
X99796600Y-79781400D03*
X99129090Y-78809090D03*
%TO.N,Net-(Q1-Pad2)*%
X95808800Y-74295000D03*
X102489000Y-74295000D03*
%TO.N,Net-(Q2-Pad2)*%
X103682800Y-75692000D03*
X99288600Y-75336400D03*
D17*
%TO.N,Net-(R11-Pad1)*%
X106172000Y-70104000D03*
%TO.N,Net-(R12-Pad1)*%
X104902000Y-72136000D03*
D18*
%TO.N,Net-(R13-Pad2)*%
X100330000Y-89632502D03*
X103082000Y-89632502D03*
%TD*%
D19*
%TO.N,VCC*%
X109574990Y-91074990D02*
X109750000Y-91250000D01*
X109574990Y-82254330D02*
X109574990Y-91074990D01*
X110300000Y-81529320D02*
X109574990Y-82254330D01*
D20*
X110300000Y-81876400D02*
X109143800Y-83032600D01*
X110300000Y-81529320D02*
X110300000Y-81876400D01*
D19*
%TO.N,GND*%
X107049999Y-75591999D02*
X107049999Y-77331999D01*
X108826251Y-73815747D02*
X107049999Y-75591999D01*
X108826251Y-71426461D02*
X108826251Y-73815747D01*
X109840000Y-70412712D02*
X108826251Y-71426461D01*
X109840000Y-68300000D02*
X109840000Y-70412712D01*
X108122320Y-78404320D02*
X110300000Y-78404320D01*
X107049999Y-77331999D02*
X108122320Y-78404320D01*
X103722969Y-71585469D02*
X103420000Y-71282500D01*
X103722969Y-72273631D02*
X103722969Y-71585469D01*
X95940140Y-68000000D02*
X97700000Y-68000000D01*
X95940140Y-71262360D02*
X95920000Y-71282500D01*
X95940140Y-68000000D02*
X95940140Y-71262360D01*
X97640140Y-68059860D02*
X97700000Y-68000000D01*
X97640140Y-69640000D02*
X97640140Y-68059860D01*
D21*
X106380500Y-90297000D02*
X106070400Y-90297000D01*
X107920000Y-88757500D02*
X106380500Y-90297000D01*
D20*
X108819080Y-78404320D02*
X108051600Y-79171800D01*
X110300000Y-78404320D02*
X108819080Y-78404320D01*
%TO.N,+3V3*%
X95920000Y-87680000D02*
X96200000Y-87400000D01*
X95920000Y-88757500D02*
X95920000Y-87680000D01*
D21*
%TO.N,EN*%
X99340140Y-70180940D02*
X99568000Y-70408800D01*
X99340140Y-68000000D02*
X99340140Y-70180940D01*
X98501200Y-90111956D02*
X98501200Y-90032501D01*
X97238166Y-91374990D02*
X98501200Y-90111956D01*
X96331010Y-91374990D02*
X97238166Y-91374990D01*
X95504000Y-92202000D02*
X96331010Y-91374990D01*
X99915997Y-90032501D02*
X98501200Y-90032501D01*
X100104296Y-90220800D02*
X99915997Y-90032501D01*
X100761800Y-90220800D02*
X100104296Y-90220800D01*
%TO.N,BOOT0*%
X97529100Y-92162500D02*
X97891600Y-92525000D01*
X97028000Y-92162500D02*
X97529100Y-92162500D01*
X108461250Y-90300002D02*
X108711249Y-90050003D01*
X105821000Y-87663999D02*
X105821000Y-87117400D01*
X106107000Y-87949999D02*
X105821000Y-87663999D01*
X108533751Y-87949999D02*
X106107000Y-87949999D01*
X108711249Y-88127497D02*
X108533751Y-87949999D01*
X105821000Y-87117400D02*
X106248200Y-86690200D01*
X108711249Y-90050003D02*
X108711249Y-88127497D01*
X104686001Y-83527999D02*
X103936800Y-84277200D01*
X105920884Y-83527999D02*
X104686001Y-83527999D01*
X106345999Y-83953114D02*
X105920884Y-83527999D01*
X98471799Y-76399199D02*
X97500000Y-75427400D01*
X104093201Y-76399199D02*
X98471799Y-76399199D01*
X104343200Y-76149200D02*
X104093201Y-76399199D01*
%TO.N,RST*%
X100457000Y-71245500D02*
X100420000Y-71282500D01*
X100457000Y-70231000D02*
X100457000Y-71245500D01*
D22*
%TO.N,LED_WIFI*%
X106532001Y-69353999D02*
X107282002Y-70104000D01*
X105421999Y-69743999D02*
X105811999Y-69353999D01*
X107282002Y-70104000D02*
X108458000Y-70104000D01*
X105811999Y-69353999D02*
X106532001Y-69353999D01*
X103458501Y-69743999D02*
X105421999Y-69743999D01*
X101920000Y-71282500D02*
X103458501Y-69743999D01*
X110998000Y-70752000D02*
X110500000Y-71250000D01*
X110998000Y-70358000D02*
X110998000Y-70752000D01*
%TO.N,Net-(D1-Pad1)*%
X110500000Y-73000000D02*
X110662500Y-73000000D01*
X109890000Y-72390000D02*
X110500000Y-73000000D01*
X109728000Y-72390000D02*
X109890000Y-72390000D01*
%TO.N,Net-(D2-Pad1)*%
X110500000Y-74750000D02*
X110662500Y-74750000D01*
X110072647Y-74750000D02*
X109400719Y-75421928D01*
X110500000Y-74750000D02*
X110072647Y-74750000D01*
D21*
%TO.N,LED_STATUS*%
X108666000Y-76500000D02*
X107950000Y-77216000D01*
X110500000Y-76500000D02*
X108666000Y-76500000D01*
X99645001Y-88032499D02*
X98920000Y-88757500D01*
X102200001Y-84915999D02*
X102200001Y-85684001D01*
X106934000Y-80182000D02*
X102200001Y-84915999D01*
X106934000Y-78232000D02*
X106934000Y-80182000D01*
X100804003Y-87079999D02*
X102200001Y-85684001D01*
X100597501Y-87079999D02*
X100804003Y-87079999D01*
X99645001Y-88032499D02*
X100597501Y-87079999D01*
%TO.N,LED_TX*%
X111275010Y-91964992D02*
X110840001Y-92400001D01*
X111275010Y-87775010D02*
X111275010Y-91964992D01*
X110500000Y-87000000D02*
X111275010Y-87775010D01*
X103967399Y-92400001D02*
X103352600Y-91785202D01*
X110840001Y-92400001D02*
X103967399Y-92400001D01*
X101920000Y-89284504D02*
X101920000Y-88757500D01*
X103352600Y-90717104D02*
X101920000Y-89284504D01*
X103352600Y-91785202D02*
X103352600Y-90717104D01*
%TO.N,Net-(D3-Pad1)*%
X110500000Y-88071800D02*
X110413800Y-87985600D01*
X110500000Y-88750000D02*
X110500000Y-88071800D01*
%TO.N,Net-(D4-Pad1)*%
X103124000Y-86810301D02*
X102304301Y-87630000D01*
X111225000Y-85933080D02*
X110500000Y-85208080D01*
X103124000Y-86106000D02*
X103124000Y-86810301D01*
X102304301Y-87630000D02*
X100838000Y-87630000D01*
X111225000Y-86106000D02*
X111225000Y-85933080D01*
X103124000Y-86106000D02*
X108874990Y-86106000D01*
D22*
%TO.N,LED_RX*%
X110500000Y-83500000D02*
X110500000Y-83458080D01*
D21*
X110570920Y-83458080D02*
X111225000Y-82804000D01*
X110500000Y-83458080D02*
X110570920Y-83458080D01*
X106895999Y-84324001D02*
X105664000Y-85556000D01*
X106895999Y-83943999D02*
X106895999Y-84324001D01*
X108496001Y-82343997D02*
X106895999Y-83943999D01*
X108496001Y-80624333D02*
X108496001Y-82343997D01*
X107996417Y-80124749D02*
X108496001Y-80624333D01*
X100498748Y-88757500D02*
X100420000Y-88757500D01*
X101223749Y-88032499D02*
X100498748Y-88757500D01*
X102467501Y-88032499D02*
X101223749Y-88032499D01*
X102616000Y-87884000D02*
X102467501Y-88032499D01*
X103928000Y-87884000D02*
X102616000Y-87884000D01*
X105156000Y-86656000D02*
X103928000Y-87884000D01*
%TO.N,DTR*%
X98145600Y-91507602D02*
X98145600Y-91389200D01*
X99037999Y-92400001D02*
X98145600Y-91507602D01*
X100979999Y-92400001D02*
X99037999Y-92400001D01*
X102130000Y-91250000D02*
X100979999Y-92400001D01*
%TO.N,RTS*%
X96899999Y-81815999D02*
X98934598Y-79781400D01*
X96899999Y-87247999D02*
X96899999Y-81815999D01*
X98934598Y-79781400D02*
X99796600Y-79781400D01*
X97205800Y-87553800D02*
X96899999Y-87247999D01*
X99129090Y-79113890D02*
X99796600Y-79781400D01*
X99129090Y-78809090D02*
X99129090Y-79113890D01*
%TO.N,Net-(Q1-Pad2)*%
X95808800Y-74295000D02*
X102489000Y-74295000D01*
%TO.N,Net-(Q2-Pad2)*%
X99644200Y-75692000D02*
X99288600Y-75336400D01*
X103682800Y-75692000D02*
X99644200Y-75692000D01*
%TO.N,Net-(R10-Pad1)*%
X96694999Y-89482501D02*
X96398499Y-89482501D01*
X96398499Y-89482501D02*
X95504000Y-90377000D01*
X97420000Y-88757500D02*
X96694999Y-89482501D01*
D22*
%TO.N,Net-(R11-Pad1)*%
X106172000Y-71034500D02*
X106420000Y-71282500D01*
X106172000Y-70104000D02*
X106172000Y-71034500D01*
%TO.N,Net-(R12-Pad1)*%
X104902000Y-71300500D02*
X104920000Y-71282500D01*
X104902000Y-72136000D02*
X104902000Y-71300500D01*
D21*
%TO.N,Net-(R13-Pad2)*%
X97028000Y-89850000D02*
X97395499Y-89482501D01*
X97028000Y-90337500D02*
X97028000Y-89850000D01*
X97395499Y-89482501D02*
X99723749Y-89482501D01*
X100179999Y-89482501D02*
X100330000Y-89632502D01*
X99723749Y-89482501D02*
X100179999Y-89482501D01*
X106341252Y-88757500D02*
X106420000Y-88757500D01*
X105466250Y-89632502D02*
X106341252Y-88757500D01*
X103082000Y-89632502D02*
X105466250Y-89632502D01*
%TD*%
M02*
