%TF.GenerationSoftware,KiCad,Pcbnew,5.1.9*%
%TF.CreationDate,2021-01-20T23:16:29+01:00*%
%TF.ProjectId,wi-se-opi4,77692d73-652d-46f7-9069-342e6b696361,rev?*%
%TF.SameCoordinates,Original*%
%TF.FileFunction,Soldermask,Bot*%
%TF.FilePolarity,Negative*%
%FSLAX46Y46*%
G04 Gerber Fmt 4.6, Leading zero omitted, Abs format (unit mm)*
G04 Created by KiCad (PCBNEW 5.1.9) date 2021-01-20 23:16:29*
%MOMM*%
%LPD*%
G01*
G04 APERTURE LIST*
%ADD10R,1.700000X1.700000*%
%ADD11O,1.700000X1.700000*%
%ADD12R,0.568000X1.207999*%
%ADD13R,3.800000X2.000000*%
%ADD14R,1.500000X2.000000*%
%ADD15R,1.500000X1.000000*%
G04 APERTURE END LIST*
%TO.C,C2*%
G36*
G01*
X101498161Y-84103640D02*
X100198159Y-84103640D01*
G75*
G02*
X99948160Y-83853641I0J249999D01*
G01*
X99948160Y-83203639D01*
G75*
G02*
X100198159Y-82953640I249999J0D01*
G01*
X101498161Y-82953640D01*
G75*
G02*
X101748160Y-83203639I0J-249999D01*
G01*
X101748160Y-83853641D01*
G75*
G02*
X101498161Y-84103640I-249999J0D01*
G01*
G37*
G36*
G01*
X101498161Y-87053640D02*
X100198159Y-87053640D01*
G75*
G02*
X99948160Y-86803641I0J249999D01*
G01*
X99948160Y-86153639D01*
G75*
G02*
X100198159Y-85903640I249999J0D01*
G01*
X101498161Y-85903640D01*
G75*
G02*
X101748160Y-86153639I0J-249999D01*
G01*
X101748160Y-86803641D01*
G75*
G02*
X101498161Y-87053640I-249999J0D01*
G01*
G37*
%TD*%
D10*
%TO.C,J2*%
X109750000Y-91250000D03*
D11*
X107210000Y-91250000D03*
X104670000Y-91250000D03*
X102130000Y-91250000D03*
X99590000Y-91250000D03*
%TD*%
D12*
%TO.C,Q1*%
X101500000Y-77489560D03*
X102450001Y-75447561D03*
X100549999Y-75447561D03*
%TD*%
D10*
%TO.C,J1*%
X109840000Y-68300000D03*
D11*
X107300000Y-68300000D03*
X104760000Y-68300000D03*
%TD*%
D12*
%TO.C,Q2*%
X96549999Y-75479001D03*
X98450001Y-75479001D03*
X97500000Y-77521000D03*
%TD*%
%TO.C,C5*%
G36*
G01*
X98942921Y-87043480D02*
X97642919Y-87043480D01*
G75*
G02*
X97392920Y-86793481I0J249999D01*
G01*
X97392920Y-86143479D01*
G75*
G02*
X97642919Y-85893480I249999J0D01*
G01*
X98942921Y-85893480D01*
G75*
G02*
X99192920Y-86143479I0J-249999D01*
G01*
X99192920Y-86793481D01*
G75*
G02*
X98942921Y-87043480I-249999J0D01*
G01*
G37*
G36*
G01*
X98942921Y-84093480D02*
X97642919Y-84093480D01*
G75*
G02*
X97392920Y-83843481I0J249999D01*
G01*
X97392920Y-83193479D01*
G75*
G02*
X97642919Y-82943480I249999J0D01*
G01*
X98942921Y-82943480D01*
G75*
G02*
X99192920Y-83193479I0J-249999D01*
G01*
X99192920Y-83843481D01*
G75*
G02*
X98942921Y-84093480I-249999J0D01*
G01*
G37*
%TD*%
%TO.C,C6*%
G36*
G01*
X96460120Y-87036360D02*
X95960120Y-87036360D01*
G75*
G02*
X95735120Y-86811360I0J225000D01*
G01*
X95735120Y-86361360D01*
G75*
G02*
X95960120Y-86136360I225000J0D01*
G01*
X96460120Y-86136360D01*
G75*
G02*
X96685120Y-86361360I0J-225000D01*
G01*
X96685120Y-86811360D01*
G75*
G02*
X96460120Y-87036360I-225000J0D01*
G01*
G37*
G36*
G01*
X96460120Y-85486360D02*
X95960120Y-85486360D01*
G75*
G02*
X95735120Y-85261360I0J225000D01*
G01*
X95735120Y-84811360D01*
G75*
G02*
X95960120Y-84586360I225000J0D01*
G01*
X96460120Y-84586360D01*
G75*
G02*
X96685120Y-84811360I0J-225000D01*
G01*
X96685120Y-85261360D01*
G75*
G02*
X96460120Y-85486360I-225000J0D01*
G01*
G37*
%TD*%
%TO.C,C7*%
G36*
G01*
X98071400Y-72433000D02*
X98071400Y-72093000D01*
G75*
G02*
X98211400Y-71953000I140000J0D01*
G01*
X98491400Y-71953000D01*
G75*
G02*
X98631400Y-72093000I0J-140000D01*
G01*
X98631400Y-72433000D01*
G75*
G02*
X98491400Y-72573000I-140000J0D01*
G01*
X98211400Y-72573000D01*
G75*
G02*
X98071400Y-72433000I0J140000D01*
G01*
G37*
G36*
G01*
X99031400Y-72433000D02*
X99031400Y-72093000D01*
G75*
G02*
X99171400Y-71953000I140000J0D01*
G01*
X99451400Y-71953000D01*
G75*
G02*
X99591400Y-72093000I0J-140000D01*
G01*
X99591400Y-72433000D01*
G75*
G02*
X99451400Y-72573000I-140000J0D01*
G01*
X99171400Y-72573000D01*
G75*
G02*
X99031400Y-72433000I0J140000D01*
G01*
G37*
%TD*%
%TO.C,C8*%
G36*
G01*
X100550000Y-72093000D02*
X100550000Y-72433000D01*
G75*
G02*
X100410000Y-72573000I-140000J0D01*
G01*
X100130000Y-72573000D01*
G75*
G02*
X99990000Y-72433000I0J140000D01*
G01*
X99990000Y-72093000D01*
G75*
G02*
X100130000Y-71953000I140000J0D01*
G01*
X100410000Y-71953000D01*
G75*
G02*
X100550000Y-72093000I0J-140000D01*
G01*
G37*
G36*
G01*
X101510000Y-72093000D02*
X101510000Y-72433000D01*
G75*
G02*
X101370000Y-72573000I-140000J0D01*
G01*
X101090000Y-72573000D01*
G75*
G02*
X100950000Y-72433000I0J140000D01*
G01*
X100950000Y-72093000D01*
G75*
G02*
X101090000Y-71953000I140000J0D01*
G01*
X101370000Y-71953000D01*
G75*
G02*
X101510000Y-72093000I0J-140000D01*
G01*
G37*
%TD*%
%TO.C,C9*%
G36*
G01*
X101938000Y-72388000D02*
X101938000Y-72048000D01*
G75*
G02*
X102078000Y-71908000I140000J0D01*
G01*
X102358000Y-71908000D01*
G75*
G02*
X102498000Y-72048000I0J-140000D01*
G01*
X102498000Y-72388000D01*
G75*
G02*
X102358000Y-72528000I-140000J0D01*
G01*
X102078000Y-72528000D01*
G75*
G02*
X101938000Y-72388000I0J140000D01*
G01*
G37*
G36*
G01*
X102898000Y-72388000D02*
X102898000Y-72048000D01*
G75*
G02*
X103038000Y-71908000I140000J0D01*
G01*
X103318000Y-71908000D01*
G75*
G02*
X103458000Y-72048000I0J-140000D01*
G01*
X103458000Y-72388000D01*
G75*
G02*
X103318000Y-72528000I-140000J0D01*
G01*
X103038000Y-72528000D01*
G75*
G02*
X102898000Y-72388000I0J140000D01*
G01*
G37*
%TD*%
%TO.C,R1*%
G36*
G01*
X108970000Y-73591000D02*
X108970000Y-73221000D01*
G75*
G02*
X109105000Y-73086000I135000J0D01*
G01*
X109375000Y-73086000D01*
G75*
G02*
X109510000Y-73221000I0J-135000D01*
G01*
X109510000Y-73591000D01*
G75*
G02*
X109375000Y-73726000I-135000J0D01*
G01*
X109105000Y-73726000D01*
G75*
G02*
X108970000Y-73591000I0J135000D01*
G01*
G37*
G36*
G01*
X109990000Y-73591000D02*
X109990000Y-73221000D01*
G75*
G02*
X110125000Y-73086000I135000J0D01*
G01*
X110395000Y-73086000D01*
G75*
G02*
X110530000Y-73221000I0J-135000D01*
G01*
X110530000Y-73591000D01*
G75*
G02*
X110395000Y-73726000I-135000J0D01*
G01*
X110125000Y-73726000D01*
G75*
G02*
X109990000Y-73591000I0J135000D01*
G01*
G37*
%TD*%
%TO.C,R2*%
G36*
G01*
X109968000Y-74607000D02*
X109968000Y-74237000D01*
G75*
G02*
X110103000Y-74102000I135000J0D01*
G01*
X110373000Y-74102000D01*
G75*
G02*
X110508000Y-74237000I0J-135000D01*
G01*
X110508000Y-74607000D01*
G75*
G02*
X110373000Y-74742000I-135000J0D01*
G01*
X110103000Y-74742000D01*
G75*
G02*
X109968000Y-74607000I0J135000D01*
G01*
G37*
G36*
G01*
X108948000Y-74607000D02*
X108948000Y-74237000D01*
G75*
G02*
X109083000Y-74102000I135000J0D01*
G01*
X109353000Y-74102000D01*
G75*
G02*
X109488000Y-74237000I0J-135000D01*
G01*
X109488000Y-74607000D01*
G75*
G02*
X109353000Y-74742000I-135000J0D01*
G01*
X109083000Y-74742000D01*
G75*
G02*
X108948000Y-74607000I0J135000D01*
G01*
G37*
%TD*%
%TO.C,R3*%
G36*
G01*
X103055000Y-84951600D02*
X102685000Y-84951600D01*
G75*
G02*
X102550000Y-84816600I0J135000D01*
G01*
X102550000Y-84546600D01*
G75*
G02*
X102685000Y-84411600I135000J0D01*
G01*
X103055000Y-84411600D01*
G75*
G02*
X103190000Y-84546600I0J-135000D01*
G01*
X103190000Y-84816600D01*
G75*
G02*
X103055000Y-84951600I-135000J0D01*
G01*
G37*
G36*
G01*
X103055000Y-85971600D02*
X102685000Y-85971600D01*
G75*
G02*
X102550000Y-85836600I0J135000D01*
G01*
X102550000Y-85566600D01*
G75*
G02*
X102685000Y-85431600I135000J0D01*
G01*
X103055000Y-85431600D01*
G75*
G02*
X103190000Y-85566600I0J-135000D01*
G01*
X103190000Y-85836600D01*
G75*
G02*
X103055000Y-85971600I-135000J0D01*
G01*
G37*
%TD*%
%TO.C,R4*%
G36*
G01*
X102431000Y-87362000D02*
X102801000Y-87362000D01*
G75*
G02*
X102936000Y-87497000I0J-135000D01*
G01*
X102936000Y-87767000D01*
G75*
G02*
X102801000Y-87902000I-135000J0D01*
G01*
X102431000Y-87902000D01*
G75*
G02*
X102296000Y-87767000I0J135000D01*
G01*
X102296000Y-87497000D01*
G75*
G02*
X102431000Y-87362000I135000J0D01*
G01*
G37*
G36*
G01*
X102431000Y-86342000D02*
X102801000Y-86342000D01*
G75*
G02*
X102936000Y-86477000I0J-135000D01*
G01*
X102936000Y-86747000D01*
G75*
G02*
X102801000Y-86882000I-135000J0D01*
G01*
X102431000Y-86882000D01*
G75*
G02*
X102296000Y-86747000I0J135000D01*
G01*
X102296000Y-86477000D01*
G75*
G02*
X102431000Y-86342000I135000J0D01*
G01*
G37*
%TD*%
%TO.C,R5*%
G36*
G01*
X98566000Y-73065000D02*
X98566000Y-73435000D01*
G75*
G02*
X98431000Y-73570000I-135000J0D01*
G01*
X98161000Y-73570000D01*
G75*
G02*
X98026000Y-73435000I0J135000D01*
G01*
X98026000Y-73065000D01*
G75*
G02*
X98161000Y-72930000I135000J0D01*
G01*
X98431000Y-72930000D01*
G75*
G02*
X98566000Y-73065000I0J-135000D01*
G01*
G37*
G36*
G01*
X99586000Y-73065000D02*
X99586000Y-73435000D01*
G75*
G02*
X99451000Y-73570000I-135000J0D01*
G01*
X99181000Y-73570000D01*
G75*
G02*
X99046000Y-73435000I0J135000D01*
G01*
X99046000Y-73065000D01*
G75*
G02*
X99181000Y-72930000I135000J0D01*
G01*
X99451000Y-72930000D01*
G75*
G02*
X99586000Y-73065000I0J-135000D01*
G01*
G37*
%TD*%
%TO.C,R6*%
G36*
G01*
X99970000Y-73435000D02*
X99970000Y-73065000D01*
G75*
G02*
X100105000Y-72930000I135000J0D01*
G01*
X100375000Y-72930000D01*
G75*
G02*
X100510000Y-73065000I0J-135000D01*
G01*
X100510000Y-73435000D01*
G75*
G02*
X100375000Y-73570000I-135000J0D01*
G01*
X100105000Y-73570000D01*
G75*
G02*
X99970000Y-73435000I0J135000D01*
G01*
G37*
G36*
G01*
X100990000Y-73435000D02*
X100990000Y-73065000D01*
G75*
G02*
X101125000Y-72930000I135000J0D01*
G01*
X101395000Y-72930000D01*
G75*
G02*
X101530000Y-73065000I0J-135000D01*
G01*
X101530000Y-73435000D01*
G75*
G02*
X101395000Y-73570000I-135000J0D01*
G01*
X101125000Y-73570000D01*
G75*
G02*
X100990000Y-73435000I0J135000D01*
G01*
G37*
%TD*%
%TO.C,R7*%
G36*
G01*
X103478000Y-73094000D02*
X103478000Y-73464000D01*
G75*
G02*
X103343000Y-73599000I-135000J0D01*
G01*
X103073000Y-73599000D01*
G75*
G02*
X102938000Y-73464000I0J135000D01*
G01*
X102938000Y-73094000D01*
G75*
G02*
X103073000Y-72959000I135000J0D01*
G01*
X103343000Y-72959000D01*
G75*
G02*
X103478000Y-73094000I0J-135000D01*
G01*
G37*
G36*
G01*
X102458000Y-73094000D02*
X102458000Y-73464000D01*
G75*
G02*
X102323000Y-73599000I-135000J0D01*
G01*
X102053000Y-73599000D01*
G75*
G02*
X101918000Y-73464000I0J135000D01*
G01*
X101918000Y-73094000D01*
G75*
G02*
X102053000Y-72959000I135000J0D01*
G01*
X102323000Y-72959000D01*
G75*
G02*
X102458000Y-73094000I0J-135000D01*
G01*
G37*
%TD*%
%TO.C,R8*%
G36*
G01*
X97740000Y-79435000D02*
X97740000Y-79065000D01*
G75*
G02*
X97875000Y-78930000I135000J0D01*
G01*
X98145000Y-78930000D01*
G75*
G02*
X98280000Y-79065000I0J-135000D01*
G01*
X98280000Y-79435000D01*
G75*
G02*
X98145000Y-79570000I-135000J0D01*
G01*
X97875000Y-79570000D01*
G75*
G02*
X97740000Y-79435000I0J135000D01*
G01*
G37*
G36*
G01*
X96720000Y-79435000D02*
X96720000Y-79065000D01*
G75*
G02*
X96855000Y-78930000I135000J0D01*
G01*
X97125000Y-78930000D01*
G75*
G02*
X97260000Y-79065000I0J-135000D01*
G01*
X97260000Y-79435000D01*
G75*
G02*
X97125000Y-79570000I-135000J0D01*
G01*
X96855000Y-79570000D01*
G75*
G02*
X96720000Y-79435000I0J135000D01*
G01*
G37*
%TD*%
%TO.C,R9*%
G36*
G01*
X102280000Y-79065000D02*
X102280000Y-79435000D01*
G75*
G02*
X102145000Y-79570000I-135000J0D01*
G01*
X101875000Y-79570000D01*
G75*
G02*
X101740000Y-79435000I0J135000D01*
G01*
X101740000Y-79065000D01*
G75*
G02*
X101875000Y-78930000I135000J0D01*
G01*
X102145000Y-78930000D01*
G75*
G02*
X102280000Y-79065000I0J-135000D01*
G01*
G37*
G36*
G01*
X101260000Y-79065000D02*
X101260000Y-79435000D01*
G75*
G02*
X101125000Y-79570000I-135000J0D01*
G01*
X100855000Y-79570000D01*
G75*
G02*
X100720000Y-79435000I0J135000D01*
G01*
X100720000Y-79065000D01*
G75*
G02*
X100855000Y-78930000I135000J0D01*
G01*
X101125000Y-78930000D01*
G75*
G02*
X101260000Y-79065000I0J-135000D01*
G01*
G37*
%TD*%
%TO.C,R11*%
G36*
G01*
X102293000Y-68854000D02*
X101923000Y-68854000D01*
G75*
G02*
X101788000Y-68719000I0J135000D01*
G01*
X101788000Y-68449000D01*
G75*
G02*
X101923000Y-68314000I135000J0D01*
G01*
X102293000Y-68314000D01*
G75*
G02*
X102428000Y-68449000I0J-135000D01*
G01*
X102428000Y-68719000D01*
G75*
G02*
X102293000Y-68854000I-135000J0D01*
G01*
G37*
G36*
G01*
X102293000Y-67834000D02*
X101923000Y-67834000D01*
G75*
G02*
X101788000Y-67699000I0J135000D01*
G01*
X101788000Y-67429000D01*
G75*
G02*
X101923000Y-67294000I135000J0D01*
G01*
X102293000Y-67294000D01*
G75*
G02*
X102428000Y-67429000I0J-135000D01*
G01*
X102428000Y-67699000D01*
G75*
G02*
X102293000Y-67834000I-135000J0D01*
G01*
G37*
%TD*%
%TO.C,R12*%
G36*
G01*
X101277000Y-68852000D02*
X100907000Y-68852000D01*
G75*
G02*
X100772000Y-68717000I0J135000D01*
G01*
X100772000Y-68447000D01*
G75*
G02*
X100907000Y-68312000I135000J0D01*
G01*
X101277000Y-68312000D01*
G75*
G02*
X101412000Y-68447000I0J-135000D01*
G01*
X101412000Y-68717000D01*
G75*
G02*
X101277000Y-68852000I-135000J0D01*
G01*
G37*
G36*
G01*
X101277000Y-67832000D02*
X100907000Y-67832000D01*
G75*
G02*
X100772000Y-67697000I0J135000D01*
G01*
X100772000Y-67427000D01*
G75*
G02*
X100907000Y-67292000I135000J0D01*
G01*
X101277000Y-67292000D01*
G75*
G02*
X101412000Y-67427000I0J-135000D01*
G01*
X101412000Y-67697000D01*
G75*
G02*
X101277000Y-67832000I-135000J0D01*
G01*
G37*
%TD*%
D13*
%TO.C,U1*%
X107569000Y-88138400D03*
D14*
X107569000Y-81838400D03*
X109869000Y-81838400D03*
X105269000Y-81838400D03*
%TD*%
D15*
%TO.C,SW2*%
X96075000Y-67200000D03*
X96075000Y-69400000D03*
X99575000Y-69400000D03*
X99575000Y-67200000D03*
%TD*%
M02*
