%TF.GenerationSoftware,KiCad,Pcbnew,5.1.9*%
%TF.CreationDate,2021-01-20T23:16:29+01:00*%
%TF.ProjectId,wi-se-opi4,77692d73-652d-46f7-9069-342e6b696361,rev?*%
%TF.SameCoordinates,Original*%
%TF.FileFunction,Legend,Top*%
%TF.FilePolarity,Positive*%
%FSLAX46Y46*%
G04 Gerber Fmt 4.6, Leading zero omitted, Abs format (unit mm)*
G04 Created by KiCad (PCBNEW 5.1.9) date 2021-01-20 23:16:29*
%MOMM*%
%LPD*%
G01*
G04 APERTURE LIST*
%ADD10C,0.150000*%
%ADD11C,0.120000*%
%ADD12C,0.125000*%
%ADD13C,0.100000*%
G04 APERTURE END LIST*
D10*
X101535666Y-69393466D02*
X101202333Y-69626800D01*
X101535666Y-69793466D02*
X100835666Y-69793466D01*
X100835666Y-69526800D01*
X100869000Y-69460133D01*
X100902333Y-69426800D01*
X100969000Y-69393466D01*
X101069000Y-69393466D01*
X101135666Y-69426800D01*
X101169000Y-69460133D01*
X101202333Y-69526800D01*
X101202333Y-69793466D01*
X101169000Y-69093466D02*
X101169000Y-68860133D01*
X101535666Y-68760133D02*
X101535666Y-69093466D01*
X100835666Y-69093466D01*
X100835666Y-68760133D01*
X101502333Y-68493466D02*
X101535666Y-68393466D01*
X101535666Y-68226800D01*
X101502333Y-68160133D01*
X101469000Y-68126800D01*
X101402333Y-68093466D01*
X101335666Y-68093466D01*
X101269000Y-68126800D01*
X101235666Y-68160133D01*
X101202333Y-68226800D01*
X101169000Y-68360133D01*
X101135666Y-68426800D01*
X101102333Y-68460133D01*
X101035666Y-68493466D01*
X100969000Y-68493466D01*
X100902333Y-68460133D01*
X100869000Y-68426800D01*
X100835666Y-68360133D01*
X100835666Y-68193466D01*
X100869000Y-68093466D01*
X101169000Y-67793466D02*
X101169000Y-67560133D01*
X101535666Y-67460133D02*
X101535666Y-67793466D01*
X100835666Y-67793466D01*
X100835666Y-67460133D01*
X100835666Y-67260133D02*
X100835666Y-66860133D01*
X101535666Y-67060133D02*
X100835666Y-67060133D01*
X92652380Y-85419047D02*
X93366666Y-85419047D01*
X93509523Y-85466666D01*
X93604761Y-85561904D01*
X93652380Y-85704761D01*
X93652380Y-85800000D01*
X93652380Y-84466666D02*
X93652380Y-84942857D01*
X92652380Y-84942857D01*
X93557142Y-83561904D02*
X93604761Y-83609523D01*
X93652380Y-83752380D01*
X93652380Y-83847619D01*
X93604761Y-83990476D01*
X93509523Y-84085714D01*
X93414285Y-84133333D01*
X93223809Y-84180952D01*
X93080952Y-84180952D01*
X92890476Y-84133333D01*
X92795238Y-84085714D01*
X92700000Y-83990476D01*
X92652380Y-83847619D01*
X92652380Y-83752380D01*
X92700000Y-83609523D01*
X92747619Y-83561904D01*
X92652380Y-82847619D02*
X93366666Y-82847619D01*
X93509523Y-82895238D01*
X93604761Y-82990476D01*
X93652380Y-83133333D01*
X93652380Y-83228571D01*
X93652380Y-81895238D02*
X93652380Y-82371428D01*
X92652380Y-82371428D01*
X93557142Y-80990476D02*
X93604761Y-81038095D01*
X93652380Y-81180952D01*
X93652380Y-81276190D01*
X93604761Y-81419047D01*
X93509523Y-81514285D01*
X93414285Y-81561904D01*
X93223809Y-81609523D01*
X93080952Y-81609523D01*
X92890476Y-81561904D01*
X92795238Y-81514285D01*
X92700000Y-81419047D01*
X92652380Y-81276190D01*
X92652380Y-81180952D01*
X92700000Y-81038095D01*
X92747619Y-80990476D01*
X92652380Y-80276190D02*
X93366666Y-80276190D01*
X93509523Y-80323809D01*
X93604761Y-80419047D01*
X93652380Y-80561904D01*
X93652380Y-80657142D01*
X93652380Y-79323809D02*
X93652380Y-79800000D01*
X92652380Y-79800000D01*
X93557142Y-78419047D02*
X93604761Y-78466666D01*
X93652380Y-78609523D01*
X93652380Y-78704761D01*
X93604761Y-78847619D01*
X93509523Y-78942857D01*
X93414285Y-78990476D01*
X93223809Y-79038095D01*
X93080952Y-79038095D01*
X92890476Y-78990476D01*
X92795238Y-78942857D01*
X92700000Y-78847619D01*
X92652380Y-78704761D01*
X92652380Y-78609523D01*
X92700000Y-78466666D01*
X92747619Y-78419047D01*
X92652380Y-77704761D02*
X93366666Y-77704761D01*
X93509523Y-77752380D01*
X93604761Y-77847619D01*
X93652380Y-77990476D01*
X93652380Y-78085714D01*
X93652380Y-76752380D02*
X93652380Y-77228571D01*
X92652380Y-77228571D01*
X93557142Y-75847619D02*
X93604761Y-75895238D01*
X93652380Y-76038095D01*
X93652380Y-76133333D01*
X93604761Y-76276190D01*
X93509523Y-76371428D01*
X93414285Y-76419047D01*
X93223809Y-76466666D01*
X93080952Y-76466666D01*
X92890476Y-76419047D01*
X92795238Y-76371428D01*
X92700000Y-76276190D01*
X92652380Y-76133333D01*
X92652380Y-76038095D01*
X92700000Y-75895238D01*
X92747619Y-75847619D01*
D11*
X109474000Y-75692000D02*
X109728000Y-75692000D01*
X109474000Y-75184000D02*
X109474000Y-75692000D01*
X109474000Y-72136000D02*
X109728000Y-72136000D01*
X109474000Y-72644000D02*
X109474000Y-72136000D01*
D12*
X109200190Y-74890190D02*
X109700190Y-74771142D01*
X109343047Y-74675904D01*
X109700190Y-74580666D01*
X109200190Y-74461619D01*
X109700190Y-74271142D02*
X109366857Y-74271142D01*
X109200190Y-74271142D02*
X109224000Y-74294952D01*
X109247809Y-74271142D01*
X109224000Y-74247333D01*
X109200190Y-74271142D01*
X109247809Y-74271142D01*
X109509714Y-74033047D02*
X109509714Y-73652095D01*
X109438285Y-73247333D02*
X109438285Y-73414000D01*
X109700190Y-73414000D02*
X109200190Y-73414000D01*
X109200190Y-73175904D01*
X109700190Y-72985428D02*
X109366857Y-72985428D01*
X109200190Y-72985428D02*
X109224000Y-73009238D01*
X109247809Y-72985428D01*
X109224000Y-72961619D01*
X109200190Y-72985428D01*
X109247809Y-72985428D01*
X109200190Y-84708952D02*
X109200190Y-84423238D01*
X109700190Y-84566095D02*
X109200190Y-84566095D01*
X109200190Y-84304190D02*
X109700190Y-83970857D01*
X109200190Y-83970857D02*
X109700190Y-84304190D01*
X109700190Y-87967333D02*
X109462095Y-88134000D01*
X109700190Y-88253047D02*
X109200190Y-88253047D01*
X109200190Y-88062571D01*
X109224000Y-88014952D01*
X109247809Y-87991142D01*
X109295428Y-87967333D01*
X109366857Y-87967333D01*
X109414476Y-87991142D01*
X109438285Y-88014952D01*
X109462095Y-88062571D01*
X109462095Y-88253047D01*
X109200190Y-87800666D02*
X109700190Y-87467333D01*
X109200190Y-87467333D02*
X109700190Y-87800666D01*
D10*
X108794666Y-89608866D02*
X109028000Y-90308866D01*
X109261333Y-89608866D01*
X109894666Y-90242200D02*
X109861333Y-90275533D01*
X109761333Y-90308866D01*
X109694666Y-90308866D01*
X109594666Y-90275533D01*
X109528000Y-90208866D01*
X109494666Y-90142200D01*
X109461333Y-90008866D01*
X109461333Y-89908866D01*
X109494666Y-89775533D01*
X109528000Y-89708866D01*
X109594666Y-89642200D01*
X109694666Y-89608866D01*
X109761333Y-89608866D01*
X109861333Y-89642200D01*
X109894666Y-89675533D01*
X110594666Y-90242200D02*
X110561333Y-90275533D01*
X110461333Y-90308866D01*
X110394666Y-90308866D01*
X110294666Y-90275533D01*
X110228000Y-90208866D01*
X110194666Y-90142200D01*
X110161333Y-90008866D01*
X110161333Y-89908866D01*
X110194666Y-89775533D01*
X110228000Y-89708866D01*
X110294666Y-89642200D01*
X110394666Y-89608866D01*
X110461333Y-89608866D01*
X110561333Y-89642200D01*
X110594666Y-89675533D01*
X106283333Y-89866000D02*
X106516666Y-89866000D01*
X106616666Y-90232666D02*
X106283333Y-90232666D01*
X106283333Y-89532666D01*
X106616666Y-89532666D01*
X106916666Y-90232666D02*
X106916666Y-89532666D01*
X107316666Y-90232666D01*
X107316666Y-89532666D01*
X103948000Y-90232666D02*
X103948000Y-89532666D01*
X104414666Y-89532666D02*
X104548000Y-89532666D01*
X104614666Y-89566000D01*
X104681333Y-89632666D01*
X104714666Y-89766000D01*
X104714666Y-89999333D01*
X104681333Y-90132666D01*
X104614666Y-90199333D01*
X104548000Y-90232666D01*
X104414666Y-90232666D01*
X104348000Y-90199333D01*
X104281333Y-90132666D01*
X104248000Y-89999333D01*
X104248000Y-89766000D01*
X104281333Y-89632666D01*
X104348000Y-89566000D01*
X104414666Y-89532666D01*
X105148000Y-89532666D02*
X105214666Y-89532666D01*
X105281333Y-89566000D01*
X105314666Y-89599333D01*
X105348000Y-89666000D01*
X105381333Y-89799333D01*
X105381333Y-89966000D01*
X105348000Y-90099333D01*
X105314666Y-90166000D01*
X105281333Y-90199333D01*
X105214666Y-90232666D01*
X105148000Y-90232666D01*
X105081333Y-90199333D01*
X105048000Y-90166000D01*
X105014666Y-90099333D01*
X104981333Y-89966000D01*
X104981333Y-89799333D01*
X105014666Y-89666000D01*
X105048000Y-89599333D01*
X105081333Y-89566000D01*
X105148000Y-89532666D01*
X101308000Y-90232666D02*
X101308000Y-89532666D01*
X101474666Y-89532666D01*
X101574666Y-89566000D01*
X101641333Y-89632666D01*
X101674666Y-89699333D01*
X101708000Y-89832666D01*
X101708000Y-89932666D01*
X101674666Y-90066000D01*
X101641333Y-90132666D01*
X101574666Y-90199333D01*
X101474666Y-90232666D01*
X101308000Y-90232666D01*
X101908000Y-89532666D02*
X102308000Y-89532666D01*
X102108000Y-90232666D02*
X102108000Y-89532666D01*
X102941333Y-90232666D02*
X102708000Y-89899333D01*
X102541333Y-90232666D02*
X102541333Y-89532666D01*
X102808000Y-89532666D01*
X102874666Y-89566000D01*
X102908000Y-89599333D01*
X102941333Y-89666000D01*
X102941333Y-89766000D01*
X102908000Y-89832666D01*
X102874666Y-89866000D01*
X102808000Y-89899333D01*
X102541333Y-89899333D01*
X99316666Y-90316666D02*
X99083333Y-89983333D01*
X98916666Y-90316666D02*
X98916666Y-89616666D01*
X99183333Y-89616666D01*
X99250000Y-89650000D01*
X99283333Y-89683333D01*
X99316666Y-89750000D01*
X99316666Y-89850000D01*
X99283333Y-89916666D01*
X99250000Y-89950000D01*
X99183333Y-89983333D01*
X98916666Y-89983333D01*
X99516666Y-89616666D02*
X99916666Y-89616666D01*
X99716666Y-90316666D02*
X99716666Y-89616666D01*
X100116666Y-90283333D02*
X100216666Y-90316666D01*
X100383333Y-90316666D01*
X100450000Y-90283333D01*
X100483333Y-90250000D01*
X100516666Y-90183333D01*
X100516666Y-90116666D01*
X100483333Y-90050000D01*
X100450000Y-90016666D01*
X100383333Y-89983333D01*
X100250000Y-89950000D01*
X100183333Y-89916666D01*
X100150000Y-89883333D01*
X100116666Y-89816666D01*
X100116666Y-89750000D01*
X100150000Y-89683333D01*
X100183333Y-89650000D01*
X100250000Y-89616666D01*
X100416666Y-89616666D01*
X100516666Y-89650000D01*
D11*
X108712000Y-86360000D02*
X108521500Y-86487000D01*
X108712000Y-86360000D02*
X108648500Y-86169500D01*
X107950000Y-86106000D02*
X108712000Y-86360000D01*
D10*
X109266666Y-69550000D02*
X109200000Y-69516666D01*
X109100000Y-69516666D01*
X109000000Y-69550000D01*
X108933333Y-69616666D01*
X108900000Y-69683333D01*
X108866666Y-69816666D01*
X108866666Y-69916666D01*
X108900000Y-70050000D01*
X108933333Y-70116666D01*
X109000000Y-70183333D01*
X109100000Y-70216666D01*
X109166666Y-70216666D01*
X109266666Y-70183333D01*
X109300000Y-70150000D01*
X109300000Y-69916666D01*
X109166666Y-69916666D01*
X109600000Y-70216666D02*
X109600000Y-69516666D01*
X110000000Y-70216666D01*
X110000000Y-69516666D01*
X110333333Y-70216666D02*
X110333333Y-69516666D01*
X110500000Y-69516666D01*
X110600000Y-69550000D01*
X110666666Y-69616666D01*
X110700000Y-69683333D01*
X110733333Y-69816666D01*
X110733333Y-69916666D01*
X110700000Y-70050000D01*
X110666666Y-70116666D01*
X110600000Y-70183333D01*
X110500000Y-70216666D01*
X110333333Y-70216666D01*
X106416666Y-69516666D02*
X106816666Y-69516666D01*
X106616666Y-70216666D02*
X106616666Y-69516666D01*
X106983333Y-69516666D02*
X107450000Y-70216666D01*
X107450000Y-69516666D02*
X106983333Y-70216666D01*
X107716666Y-70216666D02*
X107716666Y-69516666D01*
X107883333Y-69516666D01*
X107983333Y-69550000D01*
X108050000Y-69616666D01*
X108083333Y-69683333D01*
X108116666Y-69816666D01*
X108116666Y-69916666D01*
X108083333Y-70050000D01*
X108050000Y-70116666D01*
X107983333Y-70183333D01*
X107883333Y-70216666D01*
X107716666Y-70216666D01*
X104333333Y-70216666D02*
X104100000Y-69883333D01*
X103933333Y-70216666D02*
X103933333Y-69516666D01*
X104200000Y-69516666D01*
X104266666Y-69550000D01*
X104300000Y-69583333D01*
X104333333Y-69650000D01*
X104333333Y-69750000D01*
X104300000Y-69816666D01*
X104266666Y-69850000D01*
X104200000Y-69883333D01*
X103933333Y-69883333D01*
X104566666Y-69516666D02*
X105033333Y-70216666D01*
X105033333Y-69516666D02*
X104566666Y-70216666D01*
X105300000Y-70216666D02*
X105300000Y-69516666D01*
X105466666Y-69516666D01*
X105566666Y-69550000D01*
X105633333Y-69616666D01*
X105666666Y-69683333D01*
X105700000Y-69816666D01*
X105700000Y-69916666D01*
X105666666Y-70050000D01*
X105633333Y-70116666D01*
X105566666Y-70183333D01*
X105466666Y-70216666D01*
X105300000Y-70216666D01*
D13*
%TO.C,U2*%
X108720000Y-89140000D02*
X108940000Y-89140000D01*
X108940000Y-89140000D02*
X108940000Y-88120000D01*
X108620000Y-70900000D02*
X108920000Y-70900000D01*
X108940000Y-72020000D02*
X108940000Y-70900000D01*
X88700000Y-89140000D02*
X88700000Y-70900000D01*
X88700000Y-70900000D02*
X95220000Y-70900000D01*
X88700000Y-89140000D02*
X95020000Y-89140000D01*
X95020000Y-89140000D02*
X95020000Y-91020000D01*
D11*
%TO.C,C1*%
X111210000Y-80678072D02*
X111210000Y-79255568D01*
X109390000Y-80678072D02*
X109390000Y-79255568D01*
%TO.C,D1*%
X111235000Y-73785000D02*
X111235000Y-71325000D01*
X109765000Y-73785000D02*
X111235000Y-73785000D01*
X109765000Y-71325000D02*
X109765000Y-73785000D01*
%TO.C,D2*%
X111235000Y-76425000D02*
X111235000Y-73965000D01*
X111235000Y-73965000D02*
X109765000Y-73965000D01*
X109765000Y-73965000D02*
X109765000Y-76425000D01*
%TO.C,D3*%
X111235000Y-89535000D02*
X111235000Y-87075000D01*
X109765000Y-89535000D02*
X111235000Y-89535000D01*
X109765000Y-87075000D02*
X109765000Y-89535000D01*
%TO.C,D4*%
X109765000Y-83533080D02*
X109765000Y-85993080D01*
X109765000Y-85993080D02*
X111235000Y-85993080D01*
X111235000Y-85993080D02*
X111235000Y-83533080D01*
%TO.C,R10*%
X94981500Y-91034776D02*
X94981500Y-91544224D01*
X96026500Y-91034776D02*
X96026500Y-91544224D01*
%TO.C,R13*%
X96505500Y-91504724D02*
X96505500Y-90995276D01*
X97550500Y-91504724D02*
X97550500Y-90995276D01*
D10*
%TO.C,SW1*%
X96325000Y-66800000D02*
X96325000Y-69800000D01*
X99325000Y-69800000D02*
X99325000Y-66800000D01*
X96325000Y-66800000D02*
X99325000Y-66800000D01*
X96325000Y-69800000D02*
X99325000Y-69800000D01*
%TO.C,U2*%
X102538095Y-82352380D02*
X102538095Y-83161904D01*
X102585714Y-83257142D01*
X102633333Y-83304761D01*
X102728571Y-83352380D01*
X102919047Y-83352380D01*
X103014285Y-83304761D01*
X103061904Y-83257142D01*
X103109523Y-83161904D01*
X103109523Y-82352380D01*
X103538095Y-82447619D02*
X103585714Y-82400000D01*
X103680952Y-82352380D01*
X103919047Y-82352380D01*
X104014285Y-82400000D01*
X104061904Y-82447619D01*
X104109523Y-82542857D01*
X104109523Y-82638095D01*
X104061904Y-82780952D01*
X103490476Y-83352380D01*
X104109523Y-83352380D01*
%TO.C,C1*%
X110590640Y-80083486D02*
X110623973Y-80116820D01*
X110657306Y-80216820D01*
X110657306Y-80283486D01*
X110623973Y-80383486D01*
X110557306Y-80450153D01*
X110490640Y-80483486D01*
X110357306Y-80516820D01*
X110257306Y-80516820D01*
X110123973Y-80483486D01*
X110057306Y-80450153D01*
X109990640Y-80383486D01*
X109957306Y-80283486D01*
X109957306Y-80216820D01*
X109990640Y-80116820D01*
X110023973Y-80083486D01*
X110657306Y-79416820D02*
X110657306Y-79816820D01*
X110657306Y-79616820D02*
X109957306Y-79616820D01*
X110057306Y-79683486D01*
X110123973Y-79750153D01*
X110157306Y-79816820D01*
%TO.C,D1*%
X108723866Y-72805066D02*
X108023866Y-72805066D01*
X108023866Y-72638400D01*
X108057200Y-72538400D01*
X108123866Y-72471733D01*
X108190533Y-72438400D01*
X108323866Y-72405066D01*
X108423866Y-72405066D01*
X108557200Y-72438400D01*
X108623866Y-72471733D01*
X108690533Y-72538400D01*
X108723866Y-72638400D01*
X108723866Y-72805066D01*
X108723866Y-71738400D02*
X108723866Y-72138400D01*
X108723866Y-71938400D02*
X108023866Y-71938400D01*
X108123866Y-72005066D01*
X108190533Y-72071733D01*
X108223866Y-72138400D01*
%TO.C,D2*%
X108774666Y-76183266D02*
X108074666Y-76183266D01*
X108074666Y-76016600D01*
X108108000Y-75916600D01*
X108174666Y-75849933D01*
X108241333Y-75816600D01*
X108374666Y-75783266D01*
X108474666Y-75783266D01*
X108608000Y-75816600D01*
X108674666Y-75849933D01*
X108741333Y-75916600D01*
X108774666Y-76016600D01*
X108774666Y-76183266D01*
X108141333Y-75516600D02*
X108108000Y-75483266D01*
X108074666Y-75416600D01*
X108074666Y-75249933D01*
X108108000Y-75183266D01*
X108141333Y-75149933D01*
X108208000Y-75116600D01*
X108274666Y-75116600D01*
X108374666Y-75149933D01*
X108774666Y-75549933D01*
X108774666Y-75116600D01*
%TO.C,D3*%
X108916666Y-88016666D02*
X108216666Y-88016666D01*
X108216666Y-87850000D01*
X108250000Y-87750000D01*
X108316666Y-87683333D01*
X108383333Y-87650000D01*
X108516666Y-87616666D01*
X108616666Y-87616666D01*
X108750000Y-87650000D01*
X108816666Y-87683333D01*
X108883333Y-87750000D01*
X108916666Y-87850000D01*
X108916666Y-88016666D01*
X108216666Y-87383333D02*
X108216666Y-86950000D01*
X108483333Y-87183333D01*
X108483333Y-87083333D01*
X108516666Y-87016666D01*
X108550000Y-86983333D01*
X108616666Y-86950000D01*
X108783333Y-86950000D01*
X108850000Y-86983333D01*
X108883333Y-87016666D01*
X108916666Y-87083333D01*
X108916666Y-87283333D01*
X108883333Y-87350000D01*
X108850000Y-87383333D01*
%TO.C,D4*%
X108816666Y-84916666D02*
X108116666Y-84916666D01*
X108116666Y-84750000D01*
X108150000Y-84650000D01*
X108216666Y-84583333D01*
X108283333Y-84550000D01*
X108416666Y-84516666D01*
X108516666Y-84516666D01*
X108650000Y-84550000D01*
X108716666Y-84583333D01*
X108783333Y-84650000D01*
X108816666Y-84750000D01*
X108816666Y-84916666D01*
X108350000Y-83916666D02*
X108816666Y-83916666D01*
X108083333Y-84083333D02*
X108583333Y-84250000D01*
X108583333Y-83816666D01*
%TO.C,R10*%
X95394428Y-88472914D02*
X95108714Y-88672914D01*
X95394428Y-88815771D02*
X94794428Y-88815771D01*
X94794428Y-88587200D01*
X94823000Y-88530057D01*
X94851571Y-88501485D01*
X94908714Y-88472914D01*
X94994428Y-88472914D01*
X95051571Y-88501485D01*
X95080142Y-88530057D01*
X95108714Y-88587200D01*
X95108714Y-88815771D01*
X95394428Y-87901485D02*
X95394428Y-88244342D01*
X95394428Y-88072914D02*
X94794428Y-88072914D01*
X94880142Y-88130057D01*
X94937285Y-88187200D01*
X94965857Y-88244342D01*
X94794428Y-87530057D02*
X94794428Y-87472914D01*
X94823000Y-87415771D01*
X94851571Y-87387200D01*
X94908714Y-87358628D01*
X95023000Y-87330057D01*
X95165857Y-87330057D01*
X95280142Y-87358628D01*
X95337285Y-87387200D01*
X95365857Y-87415771D01*
X95394428Y-87472914D01*
X95394428Y-87530057D01*
X95365857Y-87587200D01*
X95337285Y-87615771D01*
X95280142Y-87644342D01*
X95165857Y-87672914D01*
X95023000Y-87672914D01*
X94908714Y-87644342D01*
X94851571Y-87615771D01*
X94823000Y-87587200D01*
X94794428Y-87530057D01*
%TO.C,R13*%
X96997885Y-88257028D02*
X96797885Y-87971314D01*
X96655028Y-88257028D02*
X96655028Y-87657028D01*
X96883600Y-87657028D01*
X96940742Y-87685600D01*
X96969314Y-87714171D01*
X96997885Y-87771314D01*
X96997885Y-87857028D01*
X96969314Y-87914171D01*
X96940742Y-87942742D01*
X96883600Y-87971314D01*
X96655028Y-87971314D01*
X97569314Y-88257028D02*
X97226457Y-88257028D01*
X97397885Y-88257028D02*
X97397885Y-87657028D01*
X97340742Y-87742742D01*
X97283600Y-87799885D01*
X97226457Y-87828457D01*
X97769314Y-87657028D02*
X98140742Y-87657028D01*
X97940742Y-87885600D01*
X98026457Y-87885600D01*
X98083600Y-87914171D01*
X98112171Y-87942742D01*
X98140742Y-87999885D01*
X98140742Y-88142742D01*
X98112171Y-88199885D01*
X98083600Y-88228457D01*
X98026457Y-88257028D01*
X97855028Y-88257028D01*
X97797885Y-88228457D01*
X97769314Y-88199885D01*
%TO.C,SW1*%
X97015400Y-67705257D02*
X97101114Y-67733828D01*
X97243971Y-67733828D01*
X97301114Y-67705257D01*
X97329685Y-67676685D01*
X97358257Y-67619542D01*
X97358257Y-67562400D01*
X97329685Y-67505257D01*
X97301114Y-67476685D01*
X97243971Y-67448114D01*
X97129685Y-67419542D01*
X97072542Y-67390971D01*
X97043971Y-67362400D01*
X97015400Y-67305257D01*
X97015400Y-67248114D01*
X97043971Y-67190971D01*
X97072542Y-67162400D01*
X97129685Y-67133828D01*
X97272542Y-67133828D01*
X97358257Y-67162400D01*
X97558257Y-67133828D02*
X97701114Y-67733828D01*
X97815400Y-67305257D01*
X97929685Y-67733828D01*
X98072542Y-67133828D01*
X98615400Y-67733828D02*
X98272542Y-67733828D01*
X98443971Y-67733828D02*
X98443971Y-67133828D01*
X98386828Y-67219542D01*
X98329685Y-67276685D01*
X98272542Y-67305257D01*
%TD*%
M02*
