%TF.GenerationSoftware,KiCad,Pcbnew,5.1.9*%
%TF.CreationDate,2021-01-18T23:58:31+01:00*%
%TF.ProjectId,wi-se-opi4,77692d73-652d-46f7-9069-342e6b696361,rev?*%
%TF.SameCoordinates,Original*%
%TF.FileFunction,Legend,Bot*%
%TF.FilePolarity,Positive*%
%FSLAX46Y46*%
G04 Gerber Fmt 4.6, Leading zero omitted, Abs format (unit mm)*
G04 Created by KiCad (PCBNEW 5.1.9) date 2021-01-18 23:58:31*
%MOMM*%
%LPD*%
G01*
G04 APERTURE LIST*
%ADD10C,0.150000*%
%ADD11C,0.125000*%
%ADD12C,0.200000*%
%ADD13C,0.120000*%
%ADD14C,0.152400*%
G04 APERTURE END LIST*
D10*
X95414285Y-86600000D02*
X95442857Y-86571428D01*
X95471428Y-86485714D01*
X95471428Y-86428571D01*
X95442857Y-86342857D01*
X95385714Y-86285714D01*
X95328571Y-86257142D01*
X95214285Y-86228571D01*
X95128571Y-86228571D01*
X95014285Y-86257142D01*
X94957142Y-86285714D01*
X94900000Y-86342857D01*
X94871428Y-86428571D01*
X94871428Y-86485714D01*
X94900000Y-86571428D01*
X94928571Y-86600000D01*
X95157142Y-86857142D02*
X95157142Y-87057142D01*
X95471428Y-87142857D02*
X95471428Y-86857142D01*
X94871428Y-86857142D01*
X94871428Y-87142857D01*
X95471428Y-87742857D02*
X95185714Y-87542857D01*
X95471428Y-87400000D02*
X94871428Y-87400000D01*
X94871428Y-87628571D01*
X94900000Y-87685714D01*
X94928571Y-87714285D01*
X94985714Y-87742857D01*
X95071428Y-87742857D01*
X95128571Y-87714285D01*
X95157142Y-87685714D01*
X95185714Y-87628571D01*
X95185714Y-87400000D01*
X95471428Y-88000000D02*
X94871428Y-88000000D01*
X95471428Y-88342857D01*
X94871428Y-88342857D01*
X95242857Y-88628571D02*
X95242857Y-89085714D01*
X94871428Y-89485714D02*
X94871428Y-89600000D01*
X94900000Y-89657142D01*
X94957142Y-89714285D01*
X95071428Y-89742857D01*
X95271428Y-89742857D01*
X95385714Y-89714285D01*
X95442857Y-89657142D01*
X95471428Y-89600000D01*
X95471428Y-89485714D01*
X95442857Y-89428571D01*
X95385714Y-89371428D01*
X95271428Y-89342857D01*
X95071428Y-89342857D01*
X94957142Y-89371428D01*
X94900000Y-89428571D01*
X94871428Y-89485714D01*
X95471428Y-90000000D02*
X94871428Y-90000000D01*
X95157142Y-90000000D02*
X95157142Y-90342857D01*
X95471428Y-90342857D02*
X94871428Y-90342857D01*
X95471428Y-90914285D02*
X95471428Y-90628571D01*
X94871428Y-90628571D01*
X95242857Y-91114285D02*
X95242857Y-91571428D01*
X95442857Y-91828571D02*
X95471428Y-91914285D01*
X95471428Y-92057142D01*
X95442857Y-92114285D01*
X95414285Y-92142857D01*
X95357142Y-92171428D01*
X95300000Y-92171428D01*
X95242857Y-92142857D01*
X95214285Y-92114285D01*
X95185714Y-92057142D01*
X95157142Y-91942857D01*
X95128571Y-91885714D01*
X95100000Y-91857142D01*
X95042857Y-91828571D01*
X94985714Y-91828571D01*
X94928571Y-91857142D01*
X94900000Y-91885714D01*
X94871428Y-91942857D01*
X94871428Y-92085714D01*
X94900000Y-92171428D01*
X96971428Y-89014285D02*
X96371428Y-89014285D01*
X96942857Y-89014285D02*
X96971428Y-88957142D01*
X96971428Y-88842857D01*
X96942857Y-88785714D01*
X96914285Y-88757142D01*
X96857142Y-88728571D01*
X96685714Y-88728571D01*
X96628571Y-88757142D01*
X96600000Y-88785714D01*
X96571428Y-88842857D01*
X96571428Y-88957142D01*
X96600000Y-89014285D01*
X96942857Y-89528571D02*
X96971428Y-89471428D01*
X96971428Y-89357142D01*
X96942857Y-89300000D01*
X96885714Y-89271428D01*
X96657142Y-89271428D01*
X96600000Y-89300000D01*
X96571428Y-89357142D01*
X96571428Y-89471428D01*
X96600000Y-89528571D01*
X96657142Y-89557142D01*
X96714285Y-89557142D01*
X96771428Y-89271428D01*
X96571428Y-89814285D02*
X97171428Y-89814285D01*
X96600000Y-89814285D02*
X96571428Y-89871428D01*
X96571428Y-89985714D01*
X96600000Y-90042857D01*
X96628571Y-90071428D01*
X96685714Y-90100000D01*
X96857142Y-90100000D01*
X96914285Y-90071428D01*
X96942857Y-90042857D01*
X96971428Y-89985714D01*
X96971428Y-89871428D01*
X96942857Y-89814285D01*
X96971428Y-90614285D02*
X96657142Y-90614285D01*
X96600000Y-90585714D01*
X96571428Y-90528571D01*
X96571428Y-90414285D01*
X96600000Y-90357142D01*
X96942857Y-90614285D02*
X96971428Y-90557142D01*
X96971428Y-90414285D01*
X96942857Y-90357142D01*
X96885714Y-90328571D01*
X96828571Y-90328571D01*
X96771428Y-90357142D01*
X96742857Y-90414285D01*
X96742857Y-90557142D01*
X96714285Y-90614285D01*
X96571428Y-91157142D02*
X96971428Y-91157142D01*
X96571428Y-90900000D02*
X96885714Y-90900000D01*
X96942857Y-90928571D01*
X96971428Y-90985714D01*
X96971428Y-91071428D01*
X96942857Y-91128571D01*
X96914285Y-91157142D01*
X96914285Y-91442857D02*
X96942857Y-91471428D01*
X96971428Y-91442857D01*
X96942857Y-91414285D01*
X96914285Y-91442857D01*
X96971428Y-91442857D01*
X96942857Y-91957142D02*
X96971428Y-91900000D01*
X96971428Y-91785714D01*
X96942857Y-91728571D01*
X96885714Y-91700000D01*
X96657142Y-91700000D01*
X96600000Y-91728571D01*
X96571428Y-91785714D01*
X96571428Y-91900000D01*
X96600000Y-91957142D01*
X96657142Y-91985714D01*
X96714285Y-91985714D01*
X96771428Y-91700000D01*
X96571428Y-92500000D02*
X96971428Y-92500000D01*
X96571428Y-92242857D02*
X96885714Y-92242857D01*
X96942857Y-92271428D01*
X96971428Y-92328571D01*
X96971428Y-92414285D01*
X96942857Y-92471428D01*
X96914285Y-92500000D01*
X107271428Y-71857142D02*
X107271428Y-72085714D01*
X107671428Y-71942857D02*
X107157142Y-71942857D01*
X107100000Y-71971428D01*
X107071428Y-72028571D01*
X107071428Y-72085714D01*
X107671428Y-72371428D02*
X107642857Y-72314285D01*
X107614285Y-72285714D01*
X107557142Y-72257142D01*
X107385714Y-72257142D01*
X107328571Y-72285714D01*
X107300000Y-72314285D01*
X107271428Y-72371428D01*
X107271428Y-72457142D01*
X107300000Y-72514285D01*
X107328571Y-72542857D01*
X107385714Y-72571428D01*
X107557142Y-72571428D01*
X107614285Y-72542857D01*
X107642857Y-72514285D01*
X107671428Y-72457142D01*
X107671428Y-72371428D01*
X107671428Y-72828571D02*
X107271428Y-72828571D01*
X107385714Y-72828571D02*
X107328571Y-72857142D01*
X107300000Y-72885714D01*
X107271428Y-72942857D01*
X107271428Y-73000000D01*
X107671428Y-73742857D02*
X107642857Y-73685714D01*
X107614285Y-73657142D01*
X107557142Y-73628571D01*
X107385714Y-73628571D01*
X107328571Y-73657142D01*
X107300000Y-73685714D01*
X107271428Y-73742857D01*
X107271428Y-73828571D01*
X107300000Y-73885714D01*
X107328571Y-73914285D01*
X107385714Y-73942857D01*
X107557142Y-73942857D01*
X107614285Y-73914285D01*
X107642857Y-73885714D01*
X107671428Y-73828571D01*
X107671428Y-73742857D01*
X107271428Y-74200000D02*
X107871428Y-74200000D01*
X107300000Y-74200000D02*
X107271428Y-74257142D01*
X107271428Y-74371428D01*
X107300000Y-74428571D01*
X107328571Y-74457142D01*
X107385714Y-74485714D01*
X107557142Y-74485714D01*
X107614285Y-74457142D01*
X107642857Y-74428571D01*
X107671428Y-74371428D01*
X107671428Y-74257142D01*
X107642857Y-74200000D01*
X107671428Y-74742857D02*
X107271428Y-74742857D01*
X107071428Y-74742857D02*
X107100000Y-74714285D01*
X107128571Y-74742857D01*
X107100000Y-74771428D01*
X107071428Y-74742857D01*
X107128571Y-74742857D01*
X107271428Y-75285714D02*
X107671428Y-75285714D01*
X107042857Y-75142857D02*
X107471428Y-75000000D01*
X107471428Y-75371428D01*
X107271428Y-76000000D02*
X107671428Y-76142857D01*
X107271428Y-76285714D01*
X107071428Y-76628571D02*
X107071428Y-76685714D01*
X107100000Y-76742857D01*
X107128571Y-76771428D01*
X107185714Y-76800000D01*
X107300000Y-76828571D01*
X107442857Y-76828571D01*
X107557142Y-76800000D01*
X107614285Y-76771428D01*
X107642857Y-76742857D01*
X107671428Y-76685714D01*
X107671428Y-76628571D01*
X107642857Y-76571428D01*
X107614285Y-76542857D01*
X107557142Y-76514285D01*
X107442857Y-76485714D01*
X107300000Y-76485714D01*
X107185714Y-76514285D01*
X107128571Y-76542857D01*
X107100000Y-76571428D01*
X107071428Y-76628571D01*
X107614285Y-77085714D02*
X107642857Y-77114285D01*
X107671428Y-77085714D01*
X107642857Y-77057142D01*
X107614285Y-77085714D01*
X107671428Y-77085714D01*
X107671428Y-77685714D02*
X107671428Y-77342857D01*
X107671428Y-77514285D02*
X107071428Y-77514285D01*
X107157142Y-77457142D01*
X107214285Y-77400000D01*
X107242857Y-77342857D01*
X104978571Y-71414285D02*
X106478571Y-71771428D01*
X105407142Y-72057142D01*
X106478571Y-72342857D01*
X104978571Y-72700000D01*
X106478571Y-73271428D02*
X105478571Y-73271428D01*
X104978571Y-73271428D02*
X105050000Y-73200000D01*
X105121428Y-73271428D01*
X105050000Y-73342857D01*
X104978571Y-73271428D01*
X105121428Y-73271428D01*
X105907142Y-73985714D02*
X105907142Y-75128571D01*
X106407142Y-75771428D02*
X106478571Y-75985714D01*
X106478571Y-76342857D01*
X106407142Y-76485714D01*
X106335714Y-76557142D01*
X106192857Y-76628571D01*
X106050000Y-76628571D01*
X105907142Y-76557142D01*
X105835714Y-76485714D01*
X105764285Y-76342857D01*
X105692857Y-76057142D01*
X105621428Y-75914285D01*
X105550000Y-75842857D01*
X105407142Y-75771428D01*
X105264285Y-75771428D01*
X105121428Y-75842857D01*
X105050000Y-75914285D01*
X104978571Y-76057142D01*
X104978571Y-76414285D01*
X105050000Y-76628571D01*
X106407142Y-77842857D02*
X106478571Y-77700000D01*
X106478571Y-77414285D01*
X106407142Y-77271428D01*
X106264285Y-77200000D01*
X105692857Y-77200000D01*
X105550000Y-77271428D01*
X105478571Y-77414285D01*
X105478571Y-77700000D01*
X105550000Y-77842857D01*
X105692857Y-77914285D01*
X105835714Y-77914285D01*
X105978571Y-77200000D01*
D11*
X109854952Y-86125809D02*
X109569238Y-86125809D01*
X109712095Y-85625809D02*
X109712095Y-86125809D01*
X109450190Y-86125809D02*
X109116857Y-85625809D01*
X109116857Y-86125809D02*
X109450190Y-85625809D01*
D12*
%TO.C,REF\u002A\u002A*%
X109184000Y-78598500D02*
X109352065Y-78353593D01*
X109876907Y-78746504D02*
X109674243Y-78659603D01*
X109273145Y-77675167D02*
X109353574Y-77478672D01*
X109391959Y-76985909D02*
X109411545Y-76984103D01*
X109392059Y-78824314D02*
X109185806Y-78618070D01*
X109876827Y-77063714D02*
X109891257Y-77046939D01*
X109674143Y-77150608D02*
X109876827Y-77063714D01*
X109944043Y-79046703D02*
X109891337Y-78763279D01*
X109256659Y-78120618D02*
X108963508Y-78066050D01*
X109652328Y-78660986D02*
X109411646Y-78826120D01*
X109183900Y-77211766D02*
X109185706Y-77192180D01*
X109353574Y-77478672D02*
X109351965Y-77456656D01*
X109674243Y-78659603D02*
X109652328Y-78660986D01*
X108950843Y-77759303D02*
X108963410Y-77744198D01*
X109891337Y-78763279D02*
X109876907Y-78746504D01*
X109411646Y-78826120D02*
X109392059Y-78824314D01*
X108963508Y-78066050D02*
X108950940Y-78050931D01*
X109959101Y-76750963D02*
X110250801Y-76750980D01*
X109273245Y-78135099D02*
X109256659Y-78120618D01*
X109353674Y-78331577D02*
X109273245Y-78135099D01*
X109411545Y-76984103D02*
X109652228Y-77149254D01*
X110378370Y-77731419D02*
X110106635Y-77582544D01*
X110106635Y-77582544D02*
X109878524Y-77677035D01*
X109878524Y-77677035D02*
X109784040Y-77905139D01*
X110265939Y-76763550D02*
X110317386Y-77040008D01*
X109352065Y-78353593D02*
X109353674Y-78331577D01*
X109256558Y-77689648D02*
X109273145Y-77675167D01*
X109943962Y-76763533D02*
X109959101Y-76750963D01*
X109784040Y-77905139D02*
X109878524Y-78133235D01*
X109878524Y-78133235D02*
X110106635Y-78227717D01*
X110106635Y-78227717D02*
X110378370Y-78078842D01*
X109351965Y-77456656D02*
X109183900Y-77211766D01*
X109185706Y-77192180D02*
X109391959Y-76985909D01*
X110547518Y-77142730D02*
X110569534Y-77141094D01*
X110569534Y-77141094D02*
X110798373Y-76984063D01*
X111024229Y-77192157D02*
X111026036Y-77211743D01*
X111026036Y-77211743D02*
X110871748Y-77436530D01*
X109652228Y-77149254D02*
X109674143Y-77150608D01*
X110424042Y-77777918D02*
X110405576Y-77771918D01*
X110405576Y-77771918D02*
X110390387Y-77747108D01*
X110390387Y-77747108D02*
X110378370Y-77731419D01*
X110378370Y-78078842D02*
X110390387Y-78063187D01*
X110390387Y-78063187D02*
X110405576Y-78038377D01*
X110405576Y-78038377D02*
X110424042Y-78032377D01*
X110424042Y-78032377D02*
X110917960Y-78236768D01*
X110871748Y-77436530D02*
X110871013Y-77458080D01*
X110871013Y-77458080D02*
X110923943Y-77557216D01*
X110317386Y-77040008D02*
X110331920Y-77056422D01*
X109185806Y-78618070D02*
X109184000Y-78598500D01*
X110250801Y-76750980D02*
X110265939Y-76763550D01*
X108950940Y-78050931D02*
X108950843Y-77759303D01*
X110923943Y-77557216D02*
X110917943Y-77573509D01*
X110917943Y-77573509D02*
X110424042Y-77777918D01*
X108963410Y-77744198D02*
X109256558Y-77689648D01*
X109891257Y-77046939D02*
X109943962Y-76763533D01*
X110917960Y-78236768D02*
X110923960Y-78253061D01*
X110923960Y-78253061D02*
X110871030Y-78352196D01*
X110871030Y-78352196D02*
X110871765Y-78373747D01*
X110871765Y-78373747D02*
X111026053Y-78598551D01*
X111026053Y-78598551D02*
X111024247Y-78618120D01*
X111024247Y-78618120D02*
X110817995Y-78824408D01*
X110817995Y-78824408D02*
X110798391Y-78826214D01*
X110798391Y-78826214D02*
X110569644Y-78669103D01*
X110569644Y-78669103D02*
X110547627Y-78667494D01*
X110547627Y-78667494D02*
X110332029Y-78753803D01*
X110332029Y-78753803D02*
X110317494Y-78770200D01*
X110317494Y-78770200D02*
X110266048Y-79046658D01*
X110266048Y-79046658D02*
X110250909Y-79059228D01*
X110250909Y-79059228D02*
X109959209Y-79059262D01*
X109959209Y-79059262D02*
X109944054Y-79046729D01*
X110798373Y-76984063D02*
X110817976Y-76985869D01*
X110817976Y-76985869D02*
X111024229Y-77192157D01*
X110331920Y-77056422D02*
X110547518Y-77142730D01*
D13*
%TO.C,C2*%
X101758160Y-85714892D02*
X101758160Y-84292388D01*
X99938160Y-85714892D02*
X99938160Y-84292388D01*
%TO.C,J2*%
X98260000Y-92580000D02*
X98260000Y-89920000D01*
X108480000Y-92580000D02*
X98260000Y-92580000D01*
X108480000Y-89920000D02*
X98260000Y-89920000D01*
X108480000Y-92580000D02*
X108480000Y-89920000D01*
X109750000Y-92580000D02*
X111080000Y-92580000D01*
X111080000Y-92580000D02*
X111080000Y-91250000D01*
D14*
%TO.C,Q1*%
X100626200Y-74081561D02*
G75*
G03*
X100626200Y-74081561I-76200J0D01*
G01*
X100883260Y-77294060D02*
X99874400Y-77294060D01*
X99874400Y-77294060D02*
X99874400Y-75643060D01*
X103125600Y-77294060D02*
X102116740Y-77294060D01*
X103125600Y-75643060D02*
X103125600Y-77294060D01*
X101166739Y-75643060D02*
X101833261Y-75643060D01*
D13*
%TO.C,J1*%
X108570000Y-69630000D02*
X108570000Y-66970000D01*
X108570000Y-69630000D02*
X103430000Y-69630000D01*
X103430000Y-69630000D02*
X103430000Y-66970000D01*
X108570000Y-66970000D02*
X103430000Y-66970000D01*
X111170000Y-66970000D02*
X109840000Y-66970000D01*
X111170000Y-68300000D02*
X111170000Y-66970000D01*
D14*
%TO.C,Q2*%
X97166739Y-75674500D02*
X97833261Y-75674500D01*
X99125600Y-75674500D02*
X99125600Y-77325500D01*
X99125600Y-77325500D02*
X98116740Y-77325500D01*
X95874400Y-77325500D02*
X95874400Y-75674500D01*
X96883260Y-77325500D02*
X95874400Y-77325500D01*
X96626200Y-74113001D02*
G75*
G03*
X96626200Y-74113001I-76200J0D01*
G01*
D13*
%TO.C,SW2*%
X98119820Y-65898760D02*
X98619820Y-66278760D01*
X98619820Y-66278760D02*
X98619820Y-66598760D01*
X98119820Y-65898760D02*
X97119820Y-65898760D01*
X97119820Y-65898760D02*
X96619820Y-66278760D01*
X96619820Y-66278760D02*
X96619820Y-66598760D01*
X99269820Y-69388760D02*
X98269820Y-69388760D01*
X99269820Y-69098760D02*
X99269820Y-69388760D01*
X95969820Y-69388760D02*
X96969820Y-69388760D01*
X95969820Y-69388760D02*
X95969820Y-69098760D01*
X99269820Y-66888760D02*
X99269820Y-66598760D01*
X99269820Y-66598760D02*
X95969820Y-66598760D01*
X95969820Y-66598760D02*
X95969820Y-66888760D01*
%TO.C,C5*%
X97382920Y-85704732D02*
X97382920Y-84282228D01*
X99202920Y-85704732D02*
X99202920Y-84282228D01*
%TO.C,C6*%
X95700120Y-85951940D02*
X95700120Y-85670780D01*
X96720120Y-85951940D02*
X96720120Y-85670780D01*
%TO.C,C7*%
X98723564Y-71903000D02*
X98939236Y-71903000D01*
X98723564Y-72623000D02*
X98939236Y-72623000D01*
%TO.C,C8*%
X100857836Y-71903000D02*
X100642164Y-71903000D01*
X100857836Y-72623000D02*
X100642164Y-72623000D01*
%TO.C,C9*%
X102590164Y-71858000D02*
X102805836Y-71858000D01*
X102590164Y-72578000D02*
X102805836Y-72578000D01*
%TO.C,R1*%
X109596359Y-73026000D02*
X109903641Y-73026000D01*
X109596359Y-73786000D02*
X109903641Y-73786000D01*
%TO.C,R2*%
X109574359Y-74802000D02*
X109881641Y-74802000D01*
X109574359Y-74042000D02*
X109881641Y-74042000D01*
%TO.C,R3*%
X103250000Y-85345241D02*
X103250000Y-85037959D01*
X102490000Y-85345241D02*
X102490000Y-85037959D01*
%TO.C,R4*%
X102236000Y-86968359D02*
X102236000Y-87275641D01*
X102996000Y-86968359D02*
X102996000Y-87275641D01*
%TO.C,R5*%
X98959641Y-72870000D02*
X98652359Y-72870000D01*
X98959641Y-73630000D02*
X98652359Y-73630000D01*
%TO.C,R6*%
X100596359Y-72870000D02*
X100903641Y-72870000D01*
X100596359Y-73630000D02*
X100903641Y-73630000D01*
%TO.C,R7*%
X102851641Y-73659000D02*
X102544359Y-73659000D01*
X102851641Y-72899000D02*
X102544359Y-72899000D01*
%TO.C,R8*%
X97346359Y-79630000D02*
X97653641Y-79630000D01*
X97346359Y-78870000D02*
X97653641Y-78870000D01*
%TO.C,R9*%
X101653641Y-79630000D02*
X101346359Y-79630000D01*
X101653641Y-78870000D02*
X101346359Y-78870000D01*
%TO.C,R11*%
X101728000Y-68227641D02*
X101728000Y-67920359D01*
X102488000Y-68227641D02*
X102488000Y-67920359D01*
%TO.C,R12*%
X100712000Y-68225641D02*
X100712000Y-67918359D01*
X101472000Y-68225641D02*
X101472000Y-67918359D01*
%TO.C,U1*%
X104159000Y-80888400D02*
X104159000Y-86898400D01*
X110979000Y-83138400D02*
X110979000Y-86898400D01*
X104159000Y-86898400D02*
X105419000Y-86898400D01*
X110979000Y-86898400D02*
X109719000Y-86898400D01*
%TO.C,C2*%
D10*
X100300000Y-87914285D02*
X100328571Y-87942857D01*
X100414285Y-87971428D01*
X100471428Y-87971428D01*
X100557142Y-87942857D01*
X100614285Y-87885714D01*
X100642857Y-87828571D01*
X100671428Y-87714285D01*
X100671428Y-87628571D01*
X100642857Y-87514285D01*
X100614285Y-87457142D01*
X100557142Y-87400000D01*
X100471428Y-87371428D01*
X100414285Y-87371428D01*
X100328571Y-87400000D01*
X100300000Y-87428571D01*
X100071428Y-87428571D02*
X100042857Y-87400000D01*
X99985714Y-87371428D01*
X99842857Y-87371428D01*
X99785714Y-87400000D01*
X99757142Y-87428571D01*
X99728571Y-87485714D01*
X99728571Y-87542857D01*
X99757142Y-87628571D01*
X100100000Y-87971428D01*
X99728571Y-87971428D01*
%TO.C,Q1*%
X101595238Y-77016179D02*
X101690476Y-76968560D01*
X101785714Y-76873321D01*
X101928571Y-76730464D01*
X102023809Y-76682845D01*
X102119047Y-76682845D01*
X102071428Y-76920940D02*
X102166666Y-76873321D01*
X102261904Y-76778083D01*
X102309523Y-76587607D01*
X102309523Y-76254274D01*
X102261904Y-76063798D01*
X102166666Y-75968560D01*
X102071428Y-75920940D01*
X101880952Y-75920940D01*
X101785714Y-75968560D01*
X101690476Y-76063798D01*
X101642857Y-76254274D01*
X101642857Y-76587607D01*
X101690476Y-76778083D01*
X101785714Y-76873321D01*
X101880952Y-76920940D01*
X102071428Y-76920940D01*
X100690476Y-76920940D02*
X101261904Y-76920940D01*
X100976190Y-76920940D02*
X100976190Y-75920940D01*
X101071428Y-76063798D01*
X101166666Y-76159036D01*
X101261904Y-76206655D01*
%TO.C,J1*%
X108633333Y-69016666D02*
X108633333Y-69516666D01*
X108666666Y-69616666D01*
X108733333Y-69683333D01*
X108833333Y-69716666D01*
X108900000Y-69716666D01*
X107933333Y-69716666D02*
X108333333Y-69716666D01*
X108133333Y-69716666D02*
X108133333Y-69016666D01*
X108200000Y-69116666D01*
X108266666Y-69183333D01*
X108333333Y-69216666D01*
%TO.C,Q2*%
X97595238Y-77047619D02*
X97690476Y-77000000D01*
X97785714Y-76904761D01*
X97928571Y-76761904D01*
X98023809Y-76714285D01*
X98119047Y-76714285D01*
X98071428Y-76952380D02*
X98166666Y-76904761D01*
X98261904Y-76809523D01*
X98309523Y-76619047D01*
X98309523Y-76285714D01*
X98261904Y-76095238D01*
X98166666Y-76000000D01*
X98071428Y-75952380D01*
X97880952Y-75952380D01*
X97785714Y-76000000D01*
X97690476Y-76095238D01*
X97642857Y-76285714D01*
X97642857Y-76619047D01*
X97690476Y-76809523D01*
X97785714Y-76904761D01*
X97880952Y-76952380D01*
X98071428Y-76952380D01*
X97261904Y-76047619D02*
X97214285Y-76000000D01*
X97119047Y-75952380D01*
X96880952Y-75952380D01*
X96785714Y-76000000D01*
X96738095Y-76047619D01*
X96690476Y-76142857D01*
X96690476Y-76238095D01*
X96738095Y-76380952D01*
X97309523Y-76952380D01*
X96690476Y-76952380D01*
%TO.C,SW2*%
X98596333Y-67593333D02*
X98496333Y-67626666D01*
X98329666Y-67626666D01*
X98263000Y-67593333D01*
X98229666Y-67560000D01*
X98196333Y-67493333D01*
X98196333Y-67426666D01*
X98229666Y-67360000D01*
X98263000Y-67326666D01*
X98329666Y-67293333D01*
X98463000Y-67260000D01*
X98529666Y-67226666D01*
X98563000Y-67193333D01*
X98596333Y-67126666D01*
X98596333Y-67060000D01*
X98563000Y-66993333D01*
X98529666Y-66960000D01*
X98463000Y-66926666D01*
X98296333Y-66926666D01*
X98196333Y-66960000D01*
X97963000Y-66926666D02*
X97796333Y-67626666D01*
X97663000Y-67126666D01*
X97529666Y-67626666D01*
X97363000Y-66926666D01*
X97129666Y-66993333D02*
X97096333Y-66960000D01*
X97029666Y-66926666D01*
X96863000Y-66926666D01*
X96796333Y-66960000D01*
X96763000Y-66993333D01*
X96729666Y-67060000D01*
X96729666Y-67126666D01*
X96763000Y-67226666D01*
X97163000Y-67626666D01*
X96729666Y-67626666D01*
%TO.C,C5*%
X98400000Y-87914285D02*
X98428571Y-87942857D01*
X98514285Y-87971428D01*
X98571428Y-87971428D01*
X98657142Y-87942857D01*
X98714285Y-87885714D01*
X98742857Y-87828571D01*
X98771428Y-87714285D01*
X98771428Y-87628571D01*
X98742857Y-87514285D01*
X98714285Y-87457142D01*
X98657142Y-87400000D01*
X98571428Y-87371428D01*
X98514285Y-87371428D01*
X98428571Y-87400000D01*
X98400000Y-87428571D01*
X97857142Y-87371428D02*
X98142857Y-87371428D01*
X98171428Y-87657142D01*
X98142857Y-87628571D01*
X98085714Y-87600000D01*
X97942857Y-87600000D01*
X97885714Y-87628571D01*
X97857142Y-87657142D01*
X97828571Y-87714285D01*
X97828571Y-87857142D01*
X97857142Y-87914285D01*
X97885714Y-87942857D01*
X97942857Y-87971428D01*
X98085714Y-87971428D01*
X98142857Y-87942857D01*
X98171428Y-87914285D01*
%TO.C,C6*%
X95800000Y-84214285D02*
X95828571Y-84242857D01*
X95914285Y-84271428D01*
X95971428Y-84271428D01*
X96057142Y-84242857D01*
X96114285Y-84185714D01*
X96142857Y-84128571D01*
X96171428Y-84014285D01*
X96171428Y-83928571D01*
X96142857Y-83814285D01*
X96114285Y-83757142D01*
X96057142Y-83700000D01*
X95971428Y-83671428D01*
X95914285Y-83671428D01*
X95828571Y-83700000D01*
X95800000Y-83728571D01*
X95285714Y-83671428D02*
X95400000Y-83671428D01*
X95457142Y-83700000D01*
X95485714Y-83728571D01*
X95542857Y-83814285D01*
X95571428Y-83928571D01*
X95571428Y-84157142D01*
X95542857Y-84214285D01*
X95514285Y-84242857D01*
X95457142Y-84271428D01*
X95342857Y-84271428D01*
X95285714Y-84242857D01*
X95257142Y-84214285D01*
X95228571Y-84157142D01*
X95228571Y-84014285D01*
X95257142Y-83957142D01*
X95285714Y-83928571D01*
X95342857Y-83900000D01*
X95457142Y-83900000D01*
X95514285Y-83928571D01*
X95542857Y-83957142D01*
X95571428Y-84014285D01*
%TO.C,C7*%
X98931400Y-71614285D02*
X98959971Y-71642857D01*
X99045685Y-71671428D01*
X99102828Y-71671428D01*
X99188542Y-71642857D01*
X99245685Y-71585714D01*
X99274257Y-71528571D01*
X99302828Y-71414285D01*
X99302828Y-71328571D01*
X99274257Y-71214285D01*
X99245685Y-71157142D01*
X99188542Y-71100000D01*
X99102828Y-71071428D01*
X99045685Y-71071428D01*
X98959971Y-71100000D01*
X98931400Y-71128571D01*
X98731400Y-71071428D02*
X98331400Y-71071428D01*
X98588542Y-71671428D01*
%TO.C,C8*%
X100900000Y-71614285D02*
X100928571Y-71642857D01*
X101014285Y-71671428D01*
X101071428Y-71671428D01*
X101157142Y-71642857D01*
X101214285Y-71585714D01*
X101242857Y-71528571D01*
X101271428Y-71414285D01*
X101271428Y-71328571D01*
X101242857Y-71214285D01*
X101214285Y-71157142D01*
X101157142Y-71100000D01*
X101071428Y-71071428D01*
X101014285Y-71071428D01*
X100928571Y-71100000D01*
X100900000Y-71128571D01*
X100557142Y-71328571D02*
X100614285Y-71300000D01*
X100642857Y-71271428D01*
X100671428Y-71214285D01*
X100671428Y-71185714D01*
X100642857Y-71128571D01*
X100614285Y-71100000D01*
X100557142Y-71071428D01*
X100442857Y-71071428D01*
X100385714Y-71100000D01*
X100357142Y-71128571D01*
X100328571Y-71185714D01*
X100328571Y-71214285D01*
X100357142Y-71271428D01*
X100385714Y-71300000D01*
X100442857Y-71328571D01*
X100557142Y-71328571D01*
X100614285Y-71357142D01*
X100642857Y-71385714D01*
X100671428Y-71442857D01*
X100671428Y-71557142D01*
X100642857Y-71614285D01*
X100614285Y-71642857D01*
X100557142Y-71671428D01*
X100442857Y-71671428D01*
X100385714Y-71642857D01*
X100357142Y-71614285D01*
X100328571Y-71557142D01*
X100328571Y-71442857D01*
X100357142Y-71385714D01*
X100385714Y-71357142D01*
X100442857Y-71328571D01*
%TO.C,C9*%
X102798000Y-71614285D02*
X102826571Y-71642857D01*
X102912285Y-71671428D01*
X102969428Y-71671428D01*
X103055142Y-71642857D01*
X103112285Y-71585714D01*
X103140857Y-71528571D01*
X103169428Y-71414285D01*
X103169428Y-71328571D01*
X103140857Y-71214285D01*
X103112285Y-71157142D01*
X103055142Y-71100000D01*
X102969428Y-71071428D01*
X102912285Y-71071428D01*
X102826571Y-71100000D01*
X102798000Y-71128571D01*
X102512285Y-71671428D02*
X102398000Y-71671428D01*
X102340857Y-71642857D01*
X102312285Y-71614285D01*
X102255142Y-71528571D01*
X102226571Y-71414285D01*
X102226571Y-71185714D01*
X102255142Y-71128571D01*
X102283714Y-71100000D01*
X102340857Y-71071428D01*
X102455142Y-71071428D01*
X102512285Y-71100000D01*
X102540857Y-71128571D01*
X102569428Y-71185714D01*
X102569428Y-71328571D01*
X102540857Y-71385714D01*
X102512285Y-71414285D01*
X102455142Y-71442857D01*
X102340857Y-71442857D01*
X102283714Y-71414285D01*
X102255142Y-71385714D01*
X102226571Y-71328571D01*
%TO.C,R1*%
X111471428Y-73200000D02*
X111185714Y-73000000D01*
X111471428Y-72857142D02*
X110871428Y-72857142D01*
X110871428Y-73085714D01*
X110900000Y-73142857D01*
X110928571Y-73171428D01*
X110985714Y-73200000D01*
X111071428Y-73200000D01*
X111128571Y-73171428D01*
X111157142Y-73142857D01*
X111185714Y-73085714D01*
X111185714Y-72857142D01*
X111471428Y-73771428D02*
X111471428Y-73428571D01*
X111471428Y-73600000D02*
X110871428Y-73600000D01*
X110957142Y-73542857D01*
X111014285Y-73485714D01*
X111042857Y-73428571D01*
%TO.C,R2*%
X111471428Y-74500000D02*
X111185714Y-74300000D01*
X111471428Y-74157142D02*
X110871428Y-74157142D01*
X110871428Y-74385714D01*
X110900000Y-74442857D01*
X110928571Y-74471428D01*
X110985714Y-74500000D01*
X111071428Y-74500000D01*
X111128571Y-74471428D01*
X111157142Y-74442857D01*
X111185714Y-74385714D01*
X111185714Y-74157142D01*
X110928571Y-74728571D02*
X110900000Y-74757142D01*
X110871428Y-74814285D01*
X110871428Y-74957142D01*
X110900000Y-75014285D01*
X110928571Y-75042857D01*
X110985714Y-75071428D01*
X111042857Y-75071428D01*
X111128571Y-75042857D01*
X111471428Y-74700000D01*
X111471428Y-75071428D01*
%TO.C,R3*%
X103171428Y-83500000D02*
X102885714Y-83300000D01*
X103171428Y-83157142D02*
X102571428Y-83157142D01*
X102571428Y-83385714D01*
X102600000Y-83442857D01*
X102628571Y-83471428D01*
X102685714Y-83500000D01*
X102771428Y-83500000D01*
X102828571Y-83471428D01*
X102857142Y-83442857D01*
X102885714Y-83385714D01*
X102885714Y-83157142D01*
X102571428Y-83700000D02*
X102571428Y-84071428D01*
X102800000Y-83871428D01*
X102800000Y-83957142D01*
X102828571Y-84014285D01*
X102857142Y-84042857D01*
X102914285Y-84071428D01*
X103057142Y-84071428D01*
X103114285Y-84042857D01*
X103142857Y-84014285D01*
X103171428Y-83957142D01*
X103171428Y-83785714D01*
X103142857Y-83728571D01*
X103114285Y-83700000D01*
%TO.C,R4*%
X102871428Y-88500000D02*
X102585714Y-88300000D01*
X102871428Y-88157142D02*
X102271428Y-88157142D01*
X102271428Y-88385714D01*
X102300000Y-88442857D01*
X102328571Y-88471428D01*
X102385714Y-88500000D01*
X102471428Y-88500000D01*
X102528571Y-88471428D01*
X102557142Y-88442857D01*
X102585714Y-88385714D01*
X102585714Y-88157142D01*
X102471428Y-89014285D02*
X102871428Y-89014285D01*
X102242857Y-88871428D02*
X102671428Y-88728571D01*
X102671428Y-89100000D01*
%TO.C,R5*%
X98900000Y-74471428D02*
X99100000Y-74185714D01*
X99242857Y-74471428D02*
X99242857Y-73871428D01*
X99014285Y-73871428D01*
X98957142Y-73900000D01*
X98928571Y-73928571D01*
X98900000Y-73985714D01*
X98900000Y-74071428D01*
X98928571Y-74128571D01*
X98957142Y-74157142D01*
X99014285Y-74185714D01*
X99242857Y-74185714D01*
X98357142Y-73871428D02*
X98642857Y-73871428D01*
X98671428Y-74157142D01*
X98642857Y-74128571D01*
X98585714Y-74100000D01*
X98442857Y-74100000D01*
X98385714Y-74128571D01*
X98357142Y-74157142D01*
X98328571Y-74214285D01*
X98328571Y-74357142D01*
X98357142Y-74414285D01*
X98385714Y-74442857D01*
X98442857Y-74471428D01*
X98585714Y-74471428D01*
X98642857Y-74442857D01*
X98671428Y-74414285D01*
%TO.C,R6*%
X101400000Y-74371428D02*
X101600000Y-74085714D01*
X101742857Y-74371428D02*
X101742857Y-73771428D01*
X101514285Y-73771428D01*
X101457142Y-73800000D01*
X101428571Y-73828571D01*
X101400000Y-73885714D01*
X101400000Y-73971428D01*
X101428571Y-74028571D01*
X101457142Y-74057142D01*
X101514285Y-74085714D01*
X101742857Y-74085714D01*
X100885714Y-73771428D02*
X101000000Y-73771428D01*
X101057142Y-73800000D01*
X101085714Y-73828571D01*
X101142857Y-73914285D01*
X101171428Y-74028571D01*
X101171428Y-74257142D01*
X101142857Y-74314285D01*
X101114285Y-74342857D01*
X101057142Y-74371428D01*
X100942857Y-74371428D01*
X100885714Y-74342857D01*
X100857142Y-74314285D01*
X100828571Y-74257142D01*
X100828571Y-74114285D01*
X100857142Y-74057142D01*
X100885714Y-74028571D01*
X100942857Y-74000000D01*
X101057142Y-74000000D01*
X101114285Y-74028571D01*
X101142857Y-74057142D01*
X101171428Y-74114285D01*
%TO.C,R7*%
X103400000Y-74471428D02*
X103600000Y-74185714D01*
X103742857Y-74471428D02*
X103742857Y-73871428D01*
X103514285Y-73871428D01*
X103457142Y-73900000D01*
X103428571Y-73928571D01*
X103400000Y-73985714D01*
X103400000Y-74071428D01*
X103428571Y-74128571D01*
X103457142Y-74157142D01*
X103514285Y-74185714D01*
X103742857Y-74185714D01*
X103200000Y-73871428D02*
X102800000Y-73871428D01*
X103057142Y-74471428D01*
%TO.C,R8*%
X97600000Y-80471428D02*
X97800000Y-80185714D01*
X97942857Y-80471428D02*
X97942857Y-79871428D01*
X97714285Y-79871428D01*
X97657142Y-79900000D01*
X97628571Y-79928571D01*
X97600000Y-79985714D01*
X97600000Y-80071428D01*
X97628571Y-80128571D01*
X97657142Y-80157142D01*
X97714285Y-80185714D01*
X97942857Y-80185714D01*
X97257142Y-80128571D02*
X97314285Y-80100000D01*
X97342857Y-80071428D01*
X97371428Y-80014285D01*
X97371428Y-79985714D01*
X97342857Y-79928571D01*
X97314285Y-79900000D01*
X97257142Y-79871428D01*
X97142857Y-79871428D01*
X97085714Y-79900000D01*
X97057142Y-79928571D01*
X97028571Y-79985714D01*
X97028571Y-80014285D01*
X97057142Y-80071428D01*
X97085714Y-80100000D01*
X97142857Y-80128571D01*
X97257142Y-80128571D01*
X97314285Y-80157142D01*
X97342857Y-80185714D01*
X97371428Y-80242857D01*
X97371428Y-80357142D01*
X97342857Y-80414285D01*
X97314285Y-80442857D01*
X97257142Y-80471428D01*
X97142857Y-80471428D01*
X97085714Y-80442857D01*
X97057142Y-80414285D01*
X97028571Y-80357142D01*
X97028571Y-80242857D01*
X97057142Y-80185714D01*
X97085714Y-80157142D01*
X97142857Y-80128571D01*
%TO.C,R9*%
X101600000Y-80471428D02*
X101800000Y-80185714D01*
X101942857Y-80471428D02*
X101942857Y-79871428D01*
X101714285Y-79871428D01*
X101657142Y-79900000D01*
X101628571Y-79928571D01*
X101600000Y-79985714D01*
X101600000Y-80071428D01*
X101628571Y-80128571D01*
X101657142Y-80157142D01*
X101714285Y-80185714D01*
X101942857Y-80185714D01*
X101314285Y-80471428D02*
X101200000Y-80471428D01*
X101142857Y-80442857D01*
X101114285Y-80414285D01*
X101057142Y-80328571D01*
X101028571Y-80214285D01*
X101028571Y-79985714D01*
X101057142Y-79928571D01*
X101085714Y-79900000D01*
X101142857Y-79871428D01*
X101257142Y-79871428D01*
X101314285Y-79900000D01*
X101342857Y-79928571D01*
X101371428Y-79985714D01*
X101371428Y-80128571D01*
X101342857Y-80185714D01*
X101314285Y-80214285D01*
X101257142Y-80242857D01*
X101142857Y-80242857D01*
X101085714Y-80214285D01*
X101057142Y-80185714D01*
X101028571Y-80128571D01*
%TO.C,R11*%
X103271428Y-67714285D02*
X102985714Y-67514285D01*
X103271428Y-67371428D02*
X102671428Y-67371428D01*
X102671428Y-67600000D01*
X102700000Y-67657142D01*
X102728571Y-67685714D01*
X102785714Y-67714285D01*
X102871428Y-67714285D01*
X102928571Y-67685714D01*
X102957142Y-67657142D01*
X102985714Y-67600000D01*
X102985714Y-67371428D01*
X103271428Y-68285714D02*
X103271428Y-67942857D01*
X103271428Y-68114285D02*
X102671428Y-68114285D01*
X102757142Y-68057142D01*
X102814285Y-68000000D01*
X102842857Y-67942857D01*
X103271428Y-68857142D02*
X103271428Y-68514285D01*
X103271428Y-68685714D02*
X102671428Y-68685714D01*
X102757142Y-68628571D01*
X102814285Y-68571428D01*
X102842857Y-68514285D01*
%TO.C,R12*%
X100571428Y-67714285D02*
X100285714Y-67514285D01*
X100571428Y-67371428D02*
X99971428Y-67371428D01*
X99971428Y-67600000D01*
X100000000Y-67657142D01*
X100028571Y-67685714D01*
X100085714Y-67714285D01*
X100171428Y-67714285D01*
X100228571Y-67685714D01*
X100257142Y-67657142D01*
X100285714Y-67600000D01*
X100285714Y-67371428D01*
X100571428Y-68285714D02*
X100571428Y-67942857D01*
X100571428Y-68114285D02*
X99971428Y-68114285D01*
X100057142Y-68057142D01*
X100114285Y-68000000D01*
X100142857Y-67942857D01*
X100028571Y-68514285D02*
X100000000Y-68542857D01*
X99971428Y-68600000D01*
X99971428Y-68742857D01*
X100000000Y-68800000D01*
X100028571Y-68828571D01*
X100085714Y-68857142D01*
X100142857Y-68857142D01*
X100228571Y-68828571D01*
X100571428Y-68485714D01*
X100571428Y-68857142D01*
%TO.C,U1*%
X108161904Y-85252380D02*
X108161904Y-86061904D01*
X108114285Y-86157142D01*
X108066666Y-86204761D01*
X107971428Y-86252380D01*
X107780952Y-86252380D01*
X107685714Y-86204761D01*
X107638095Y-86157142D01*
X107590476Y-86061904D01*
X107590476Y-85252380D01*
X106590476Y-86252380D02*
X107161904Y-86252380D01*
X106876190Y-86252380D02*
X106876190Y-85252380D01*
X106971428Y-85395238D01*
X107066666Y-85490476D01*
X107161904Y-85538095D01*
%TD*%
M02*
