%TF.GenerationSoftware,KiCad,Pcbnew,5.1.9*%
%TF.CreationDate,2021-01-18T01:27:37+01:00*%
%TF.ProjectId,wi-se-rpi,77692d73-652d-4727-9069-2e6b69636164,v0.1*%
%TF.SameCoordinates,Original*%
%TF.FileFunction,Legend,Bot*%
%TF.FilePolarity,Positive*%
%FSLAX46Y46*%
G04 Gerber Fmt 4.6, Leading zero omitted, Abs format (unit mm)*
G04 Created by KiCad (PCBNEW 5.1.9) date 2021-01-18 01:27:37*
%MOMM*%
%LPD*%
G01*
G04 APERTURE LIST*
%ADD10C,0.150000*%
%ADD11C,0.120000*%
%ADD12C,0.152400*%
G04 APERTURE END LIST*
D10*
X76661904Y-6247619D02*
X75861904Y-6247619D01*
X76623809Y-6247619D02*
X76661904Y-6171428D01*
X76661904Y-6019047D01*
X76623809Y-5942857D01*
X76585714Y-5904761D01*
X76509523Y-5866666D01*
X76280952Y-5866666D01*
X76204761Y-5904761D01*
X76166666Y-5942857D01*
X76128571Y-6019047D01*
X76128571Y-6171428D01*
X76166666Y-6247619D01*
X76623809Y-6933333D02*
X76661904Y-6857142D01*
X76661904Y-6704761D01*
X76623809Y-6628571D01*
X76547619Y-6590476D01*
X76242857Y-6590476D01*
X76166666Y-6628571D01*
X76128571Y-6704761D01*
X76128571Y-6857142D01*
X76166666Y-6933333D01*
X76242857Y-6971428D01*
X76319047Y-6971428D01*
X76395238Y-6590476D01*
X76128571Y-7314285D02*
X76928571Y-7314285D01*
X76166666Y-7314285D02*
X76128571Y-7390476D01*
X76128571Y-7542857D01*
X76166666Y-7619047D01*
X76204761Y-7657142D01*
X76280952Y-7695238D01*
X76509523Y-7695238D01*
X76585714Y-7657142D01*
X76623809Y-7619047D01*
X76661904Y-7542857D01*
X76661904Y-7390476D01*
X76623809Y-7314285D01*
X76661904Y-8380952D02*
X76242857Y-8380952D01*
X76166666Y-8342857D01*
X76128571Y-8266666D01*
X76128571Y-8114285D01*
X76166666Y-8038095D01*
X76623809Y-8380952D02*
X76661904Y-8304761D01*
X76661904Y-8114285D01*
X76623809Y-8038095D01*
X76547619Y-8000000D01*
X76471428Y-8000000D01*
X76395238Y-8038095D01*
X76357142Y-8114285D01*
X76357142Y-8304761D01*
X76319047Y-8380952D01*
X76128571Y-9104761D02*
X76661904Y-9104761D01*
X76128571Y-8761904D02*
X76547619Y-8761904D01*
X76623809Y-8800000D01*
X76661904Y-8876190D01*
X76661904Y-8990476D01*
X76623809Y-9066666D01*
X76585714Y-9104761D01*
X76585714Y-9485714D02*
X76623809Y-9523809D01*
X76661904Y-9485714D01*
X76623809Y-9447619D01*
X76585714Y-9485714D01*
X76661904Y-9485714D01*
X76623809Y-10171428D02*
X76661904Y-10095238D01*
X76661904Y-9942857D01*
X76623809Y-9866666D01*
X76547619Y-9828571D01*
X76242857Y-9828571D01*
X76166666Y-9866666D01*
X76128571Y-9942857D01*
X76128571Y-10095238D01*
X76166666Y-10171428D01*
X76242857Y-10209523D01*
X76319047Y-10209523D01*
X76395238Y-9828571D01*
X76128571Y-10895238D02*
X76661904Y-10895238D01*
X76128571Y-10552380D02*
X76547619Y-10552380D01*
X76623809Y-10590476D01*
X76661904Y-10666666D01*
X76661904Y-10780952D01*
X76623809Y-10857142D01*
X76585714Y-10895238D01*
X74046428Y-7442857D02*
X74446428Y-7585714D01*
X74046428Y-7728571D01*
X73846428Y-8071428D02*
X73846428Y-8128571D01*
X73875000Y-8185714D01*
X73903571Y-8214285D01*
X73960714Y-8242857D01*
X74075000Y-8271428D01*
X74217857Y-8271428D01*
X74332142Y-8242857D01*
X74389285Y-8214285D01*
X74417857Y-8185714D01*
X74446428Y-8128571D01*
X74446428Y-8071428D01*
X74417857Y-8014285D01*
X74389285Y-7985714D01*
X74332142Y-7957142D01*
X74217857Y-7928571D01*
X74075000Y-7928571D01*
X73960714Y-7957142D01*
X73903571Y-7985714D01*
X73875000Y-8014285D01*
X73846428Y-8071428D01*
X74389285Y-8528571D02*
X74417857Y-8557142D01*
X74446428Y-8528571D01*
X74417857Y-8500000D01*
X74389285Y-8528571D01*
X74446428Y-8528571D01*
X74446428Y-9128571D02*
X74446428Y-8785714D01*
X74446428Y-8957142D02*
X73846428Y-8957142D01*
X73932142Y-8900000D01*
X73989285Y-8842857D01*
X74017857Y-8785714D01*
X75096428Y-6900000D02*
X75096428Y-7128571D01*
X75496428Y-6985714D02*
X74982142Y-6985714D01*
X74925000Y-7014285D01*
X74896428Y-7071428D01*
X74896428Y-7128571D01*
X75496428Y-7414285D02*
X75467857Y-7357142D01*
X75439285Y-7328571D01*
X75382142Y-7300000D01*
X75210714Y-7300000D01*
X75153571Y-7328571D01*
X75125000Y-7357142D01*
X75096428Y-7414285D01*
X75096428Y-7500000D01*
X75125000Y-7557142D01*
X75153571Y-7585714D01*
X75210714Y-7614285D01*
X75382142Y-7614285D01*
X75439285Y-7585714D01*
X75467857Y-7557142D01*
X75496428Y-7500000D01*
X75496428Y-7414285D01*
X75496428Y-7871428D02*
X75096428Y-7871428D01*
X75210714Y-7871428D02*
X75153571Y-7900000D01*
X75125000Y-7928571D01*
X75096428Y-7985714D01*
X75096428Y-8042857D01*
X75496428Y-8700000D02*
X75096428Y-8700000D01*
X75210714Y-8700000D02*
X75153571Y-8728571D01*
X75125000Y-8757142D01*
X75096428Y-8814285D01*
X75096428Y-8871428D01*
X75096428Y-9071428D02*
X75696428Y-9071428D01*
X75125000Y-9071428D02*
X75096428Y-9128571D01*
X75096428Y-9242857D01*
X75125000Y-9300000D01*
X75153571Y-9328571D01*
X75210714Y-9357142D01*
X75382142Y-9357142D01*
X75439285Y-9328571D01*
X75467857Y-9300000D01*
X75496428Y-9242857D01*
X75496428Y-9128571D01*
X75467857Y-9071428D01*
X75496428Y-9614285D02*
X75096428Y-9614285D01*
X74896428Y-9614285D02*
X74925000Y-9585714D01*
X74953571Y-9614285D01*
X74925000Y-9642857D01*
X74896428Y-9614285D01*
X74953571Y-9614285D01*
X73747619Y-1590476D02*
X74847619Y-1852380D01*
X74061904Y-2061904D01*
X74847619Y-2271428D01*
X73747619Y-2533333D01*
X74847619Y-2952380D02*
X74114285Y-2952380D01*
X73747619Y-2952380D02*
X73800000Y-2900000D01*
X73852380Y-2952380D01*
X73800000Y-3004761D01*
X73747619Y-2952380D01*
X73852380Y-2952380D01*
X74428571Y-3476190D02*
X74428571Y-4314285D01*
X74795238Y-4785714D02*
X74847619Y-4942857D01*
X74847619Y-5204761D01*
X74795238Y-5309523D01*
X74742857Y-5361904D01*
X74638095Y-5414285D01*
X74533333Y-5414285D01*
X74428571Y-5361904D01*
X74376190Y-5309523D01*
X74323809Y-5204761D01*
X74271428Y-4995238D01*
X74219047Y-4890476D01*
X74166666Y-4838095D01*
X74061904Y-4785714D01*
X73957142Y-4785714D01*
X73852380Y-4838095D01*
X73800000Y-4890476D01*
X73747619Y-4995238D01*
X73747619Y-5257142D01*
X73800000Y-5414285D01*
X74795238Y-6304761D02*
X74847619Y-6200000D01*
X74847619Y-5990476D01*
X74795238Y-5885714D01*
X74690476Y-5833333D01*
X74271428Y-5833333D01*
X74166666Y-5885714D01*
X74114285Y-5990476D01*
X74114285Y-6200000D01*
X74166666Y-6304761D01*
X74271428Y-6357142D01*
X74376190Y-6357142D01*
X74480952Y-5833333D01*
X81678571Y-12771428D02*
X81878571Y-12485714D01*
X82021428Y-12771428D02*
X82021428Y-12171428D01*
X81792857Y-12171428D01*
X81735714Y-12200000D01*
X81707142Y-12228571D01*
X81678571Y-12285714D01*
X81678571Y-12371428D01*
X81707142Y-12428571D01*
X81735714Y-12457142D01*
X81792857Y-12485714D01*
X82021428Y-12485714D01*
X81450000Y-12742857D02*
X81364285Y-12771428D01*
X81221428Y-12771428D01*
X81164285Y-12742857D01*
X81135714Y-12714285D01*
X81107142Y-12657142D01*
X81107142Y-12600000D01*
X81135714Y-12542857D01*
X81164285Y-12514285D01*
X81221428Y-12485714D01*
X81335714Y-12457142D01*
X81392857Y-12428571D01*
X81421428Y-12400000D01*
X81450000Y-12342857D01*
X81450000Y-12285714D01*
X81421428Y-12228571D01*
X81392857Y-12200000D01*
X81335714Y-12171428D01*
X81192857Y-12171428D01*
X81107142Y-12200000D01*
X80935714Y-12171428D02*
X80592857Y-12171428D01*
X80764285Y-12771428D02*
X80764285Y-12171428D01*
X86550000Y-12721428D02*
X86550000Y-12121428D01*
X86150000Y-12121428D02*
X86035714Y-12121428D01*
X85978571Y-12150000D01*
X85921428Y-12207142D01*
X85892857Y-12321428D01*
X85892857Y-12521428D01*
X85921428Y-12635714D01*
X85978571Y-12692857D01*
X86035714Y-12721428D01*
X86150000Y-12721428D01*
X86207142Y-12692857D01*
X86264285Y-12635714D01*
X86292857Y-12521428D01*
X86292857Y-12321428D01*
X86264285Y-12207142D01*
X86207142Y-12150000D01*
X86150000Y-12121428D01*
X85521428Y-12121428D02*
X85464285Y-12121428D01*
X85407142Y-12150000D01*
X85378571Y-12178571D01*
X85350000Y-12235714D01*
X85321428Y-12350000D01*
X85321428Y-12492857D01*
X85350000Y-12607142D01*
X85378571Y-12664285D01*
X85407142Y-12692857D01*
X85464285Y-12721428D01*
X85521428Y-12721428D01*
X85578571Y-12692857D01*
X85607142Y-12664285D01*
X85635714Y-12607142D01*
X85664285Y-12492857D01*
X85664285Y-12350000D01*
X85635714Y-12235714D01*
X85607142Y-12178571D01*
X85578571Y-12150000D01*
X85521428Y-12121428D01*
D11*
%TO.C,SW1*%
X81650000Y-15970000D02*
X81650000Y-15680000D01*
X78350000Y-15970000D02*
X81650000Y-15970000D01*
X78350000Y-15680000D02*
X78350000Y-15970000D01*
X81000000Y-16290000D02*
X81000000Y-15970000D01*
X80500000Y-16670000D02*
X81000000Y-16290000D01*
X79500000Y-16670000D02*
X80500000Y-16670000D01*
X79000000Y-16290000D02*
X79000000Y-15970000D01*
X79500000Y-16670000D02*
X79000000Y-16290000D01*
X78350000Y-13180000D02*
X78350000Y-13470000D01*
X78350000Y-13180000D02*
X79350000Y-13180000D01*
%TO.C,SW2*%
X86450000Y-15940000D02*
X86450000Y-15650000D01*
X83150000Y-15940000D02*
X86450000Y-15940000D01*
X83150000Y-15650000D02*
X83150000Y-15940000D01*
X85800000Y-16260000D02*
X85800000Y-15940000D01*
X85300000Y-16640000D02*
X85800000Y-16260000D01*
X84300000Y-16640000D02*
X85300000Y-16640000D01*
X83800000Y-16260000D02*
X83800000Y-15940000D01*
X84300000Y-16640000D02*
X83800000Y-16260000D01*
X83150000Y-13150000D02*
X83150000Y-13440000D01*
X83150000Y-13150000D02*
X84150000Y-13150000D01*
%TO.C,J1*%
X90750000Y3080000D02*
X89420000Y3080000D01*
X89420000Y3080000D02*
X89420000Y1750000D01*
X92020000Y3080000D02*
X92020000Y480000D01*
X92020000Y480000D02*
X89420000Y480000D01*
X89420000Y480000D02*
X89420000Y-7200000D01*
X94620000Y-7200000D02*
X89420000Y-7200000D01*
X94620000Y3080000D02*
X94620000Y-7200000D01*
X94620000Y3080000D02*
X92020000Y3080000D01*
%TO.C,C1*%
X86840000Y313748D02*
X86840000Y1736252D01*
X88660000Y313748D02*
X88660000Y1736252D01*
%TO.C,C2*%
X76910000Y288748D02*
X76910000Y1711252D01*
X75090000Y288748D02*
X75090000Y1711252D01*
%TO.C,C5*%
X73840000Y-13711252D02*
X73840000Y-12288748D01*
X75660000Y-13711252D02*
X75660000Y-12288748D01*
%TO.C,C6*%
X76190000Y-13940580D02*
X76190000Y-13659420D01*
X77210000Y-13940580D02*
X77210000Y-13659420D01*
%TO.C,C7*%
X78357836Y-7760000D02*
X78142164Y-7760000D01*
X78357836Y-7040000D02*
X78142164Y-7040000D01*
%TO.C,C8*%
X78357836Y-8290000D02*
X78142164Y-8290000D01*
X78357836Y-9010000D02*
X78142164Y-9010000D01*
%TO.C,C9*%
X78142164Y-4040000D02*
X78357836Y-4040000D01*
X78142164Y-4760000D02*
X78357836Y-4760000D01*
D12*
%TO.C,Q1*%
X87463199Y-8550000D02*
G75*
G03*
X87463199Y-8550000I-76200J0D01*
G01*
X84174500Y-8883260D02*
X84174500Y-7874400D01*
X84174500Y-7874400D02*
X85825500Y-7874400D01*
X84174500Y-11125600D02*
X84174500Y-10116740D01*
X85825500Y-11125600D02*
X84174500Y-11125600D01*
X85825500Y-9166739D02*
X85825500Y-9833261D01*
%TO.C,Q2*%
X85825500Y-5416739D02*
X85825500Y-6083261D01*
X85825500Y-7375600D02*
X84174500Y-7375600D01*
X84174500Y-7375600D02*
X84174500Y-6366740D01*
X84174500Y-4124400D02*
X85825500Y-4124400D01*
X84174500Y-5133260D02*
X84174500Y-4124400D01*
X87463199Y-4800000D02*
G75*
G03*
X87463199Y-4800000I-76200J0D01*
G01*
D11*
%TO.C,Q3*%
X80240000Y-11030000D02*
X81700000Y-11030000D01*
X80240000Y-7870000D02*
X82400000Y-7870000D01*
X80240000Y-7870000D02*
X80240000Y-8800000D01*
X80240000Y-11030000D02*
X80240000Y-10100000D01*
%TO.C,Q4*%
X80240000Y-7330000D02*
X80240000Y-6400000D01*
X80240000Y-4170000D02*
X80240000Y-5100000D01*
X80240000Y-4170000D02*
X82400000Y-4170000D01*
X80240000Y-7330000D02*
X81700000Y-7330000D01*
%TO.C,R1*%
X88103641Y-2430000D02*
X87796359Y-2430000D01*
X88103641Y-1670000D02*
X87796359Y-1670000D01*
%TO.C,R2*%
X87796359Y-2670000D02*
X88103641Y-2670000D01*
X87796359Y-3430000D02*
X88103641Y-3430000D01*
%TO.C,R3*%
X88080000Y-14246359D02*
X88080000Y-14553641D01*
X87320000Y-14246359D02*
X87320000Y-14553641D01*
%TO.C,R4*%
X88080000Y-12553641D02*
X88080000Y-12246359D01*
X87320000Y-12553641D02*
X87320000Y-12246359D01*
%TO.C,R5*%
X76206359Y-3780000D02*
X76513641Y-3780000D01*
X76206359Y-3020000D02*
X76513641Y-3020000D01*
%TO.C,R6*%
X78096359Y-10270000D02*
X78403641Y-10270000D01*
X78096359Y-11030000D02*
X78403641Y-11030000D01*
%TO.C,R7*%
X76196359Y-4780000D02*
X76503641Y-4780000D01*
X76196359Y-4020000D02*
X76503641Y-4020000D01*
%TO.C,R8*%
X87796359Y-5120000D02*
X88103641Y-5120000D01*
X87796359Y-5880000D02*
X88103641Y-5880000D01*
%TO.C,R9*%
X88103641Y-6880000D02*
X87796359Y-6880000D01*
X88103641Y-6120000D02*
X87796359Y-6120000D01*
%TO.C,R10*%
X78096359Y-12030000D02*
X78403641Y-12030000D01*
X78096359Y-11270000D02*
X78403641Y-11270000D01*
%TO.C,R11*%
X88080000Y-10553641D02*
X88080000Y-10246359D01*
X87320000Y-10553641D02*
X87320000Y-10246359D01*
%TO.C,R12*%
X87320000Y-8553641D02*
X87320000Y-8246359D01*
X88080000Y-8553641D02*
X88080000Y-8246359D01*
%TO.C,R13*%
X78403641Y-5780000D02*
X78096359Y-5780000D01*
X78403641Y-5020000D02*
X78096359Y-5020000D01*
%TO.C,R14*%
X82870000Y-10846359D02*
X82870000Y-11153641D01*
X83630000Y-10846359D02*
X83630000Y-11153641D01*
%TO.C,R15*%
X82920000Y-7446359D02*
X82920000Y-7753641D01*
X83680000Y-7446359D02*
X83680000Y-7753641D01*
%TO.C,R16*%
X78403641Y-9270000D02*
X78096359Y-9270000D01*
X78403641Y-10030000D02*
X78096359Y-10030000D01*
%TO.C,R17*%
X78403641Y-6780000D02*
X78096359Y-6780000D01*
X78403641Y-6020000D02*
X78096359Y-6020000D01*
%TO.C,R18*%
X88103641Y-3670000D02*
X87796359Y-3670000D01*
X88103641Y-4430000D02*
X87796359Y-4430000D01*
%TO.C,U1*%
X85850000Y3160000D02*
X79840000Y3160000D01*
X83600000Y-3660000D02*
X79840000Y-3660000D01*
X79840000Y3160000D02*
X79840000Y1900000D01*
X79840000Y-3660000D02*
X79840000Y-2400000D01*
D10*
X81252380Y311904D02*
X82061904Y311904D01*
X82157142Y264285D01*
X82204761Y216666D01*
X82252380Y121428D01*
X82252380Y-69047D01*
X82204761Y-164285D01*
X82157142Y-211904D01*
X82061904Y-259523D01*
X81252380Y-259523D01*
X82252380Y-1259523D02*
X82252380Y-688095D01*
X82252380Y-973809D02*
X81252380Y-973809D01*
X81395238Y-878571D01*
X81490476Y-783333D01*
X81538095Y-688095D01*
%TD*%
M02*
