M48
; DRILL file {KiCad 5.1.9} date Mon Jan 18 01:27:34 2021
; FORMAT={-:-/ absolute / metric / decimal}
; #@! TF.CreationDate,2021-01-18T01:27:34+01:00
; #@! TF.GenerationSoftware,Kicad,Pcbnew,5.1.9
; #@! TF.FileFunction,Plated,1,4,PTH
FMAT,2
METRIC
T1C0.300
T2C0.400
T3C0.800
T4C1.000
%
G90
G05
T1
X75.6Y-5.55
X80.05Y0.952
X80.95Y0.35
X82.311Y-1.789
X83.3Y-1.15
X83.34Y-11.24
X83.374Y0.344
X84.225Y-11.133
X85.65Y-11.184
X86.15Y0.906
X86.742Y-11.236
X86.948Y-9.147
X88.5Y-2.85
X89.105Y-0.322
T2
X74.6Y-9.45
X74.65Y-12.75
X74.9Y-1.55
X75.1Y0.35
X75.15Y1.45
X75.4Y-10.15
X76.05Y1.4
X76.35Y-12.2
X76.75Y-5.45
X76.8Y-1.5
X76.965Y-8.385
X77.15Y-10.1
X77.2Y-6.45
X78.074Y-12.674
X79.7Y-7.75
X79.7Y-10.5
X79.75Y-4.4
X80.857Y1.626
X81.834Y-11.922
X84.3Y-8.1
X84.55Y-14.15
X85.55Y-14.15
X86.1Y-9.434
X86.6Y-3.916
X86.715Y-2.923
X86.75Y-0.55
X86.8Y-12.084
X87.8Y-15.375
T3
X74.025Y-13.4
X74.05Y1.45
X74.25Y-10.3
X74.4Y-0.5
X80.9Y-2.15
T4
X90.75Y1.75
X90.75Y-0.79
X90.75Y-3.33
X90.75Y-5.87
X93.29Y1.75
X93.29Y-0.79
X93.29Y-3.33
X93.29Y-5.87
T0
M30
