%TF.GenerationSoftware,KiCad,Pcbnew,5.1.9*%
%TF.CreationDate,2021-01-18T01:27:37+01:00*%
%TF.ProjectId,wi-se-rpi,77692d73-652d-4727-9069-2e6b69636164,v0.1*%
%TF.SameCoordinates,Original*%
%TF.FileFunction,Copper,L3,Inr*%
%TF.FilePolarity,Positive*%
%FSLAX46Y46*%
G04 Gerber Fmt 4.6, Leading zero omitted, Abs format (unit mm)*
G04 Created by KiCad (PCBNEW 5.1.9) date 2021-01-18 01:27:37*
%MOMM*%
%LPD*%
G01*
G04 APERTURE LIST*
%TA.AperFunction,ComponentPad*%
%ADD10R,1.700000X1.700000*%
%TD*%
%TA.AperFunction,ComponentPad*%
%ADD11O,1.700000X1.700000*%
%TD*%
%TA.AperFunction,ViaPad*%
%ADD12C,1.000000*%
%TD*%
%TA.AperFunction,ViaPad*%
%ADD13C,0.800000*%
%TD*%
%TA.AperFunction,ViaPad*%
%ADD14C,0.500000*%
%TD*%
%TA.AperFunction,Conductor*%
%ADD15C,0.254000*%
%TD*%
%TA.AperFunction,Conductor*%
%ADD16C,0.100000*%
%TD*%
G04 APERTURE END LIST*
D10*
%TO.N,Net-(J1-Pad1)*%
%TO.C,J1*%
X90750000Y1750000D03*
D11*
%TO.N,VCC*%
X93290000Y1750000D03*
%TO.N,DTR*%
X90750000Y-790000D03*
%TO.N,GND*%
X93290000Y-790000D03*
%TO.N,RTS*%
X90750000Y-3330000D03*
%TO.N,RXD*%
X93290000Y-3330000D03*
%TO.N,GND*%
X90750000Y-5870000D03*
%TO.N,TXD*%
X93290000Y-5870000D03*
%TD*%
D12*
%TO.N,GND*%
X80900000Y-2150000D03*
D13*
%TO.N,VCC*%
X86750002Y-550000D03*
%TO.N,GND*%
X79750000Y-4400000D03*
X76964668Y-8385332D03*
D12*
X74250000Y-10300000D03*
X74050000Y1450000D03*
D13*
X75150000Y1450000D03*
X76050000Y1400000D03*
X80856598Y1625742D03*
X86714711Y-2922596D03*
X85550000Y-14149999D03*
X74600000Y-9450000D03*
X76350000Y-12200000D03*
X78073775Y-12673775D03*
D12*
%TO.N,+3V3*%
X74025000Y-13400000D03*
D13*
X77200000Y-6450000D03*
X77150000Y-10100000D03*
D12*
X74400000Y-500000D03*
D13*
X76800000Y-1500000D03*
X74900000Y-1550000D03*
X75100000Y350000D03*
D14*
X83339712Y-11239712D03*
D13*
X84299989Y-8100000D03*
X74650000Y-12750000D03*
%TO.N,BOOT0*%
X79700000Y-7750000D03*
X81833867Y-11922064D03*
D14*
%TO.N,RST*%
X75600000Y-5550000D03*
%TO.N,LED_WIFI*%
X86150002Y906318D03*
X80050002Y951787D03*
%TO.N,Net-(D1-Pad1)*%
X89105407Y-322189D03*
%TO.N,Net-(D2-Pad1)*%
X88500000Y-2850000D03*
%TO.N,LED_STATUS*%
X83374265Y343749D03*
X80950000Y350000D03*
D13*
%TO.N,Net-(D3-Pad1)*%
X87800000Y-15375000D03*
%TO.N,Net-(D4-Pad1)*%
X86800000Y-12084001D03*
D14*
%TO.N,LED_RX*%
X84224655Y-11132588D03*
X85650000Y-11184003D03*
D13*
%TO.N,RXD*%
X86100000Y-9434001D03*
%TO.N,Net-(R10-Pad1)*%
X75400000Y-10150000D03*
D14*
%TO.N,Net-(R11-Pad1)*%
X83300000Y-1150000D03*
X82311091Y-1788909D03*
X86742232Y-11235965D03*
%TO.N,Net-(R12-Pad1)*%
X86948447Y-9146861D03*
D13*
%TO.N,Net-(R13-Pad2)*%
X76750000Y-5450000D03*
X84550000Y-14150000D03*
X79700000Y-10500000D03*
%TO.N,FLASH_EN*%
X86600000Y-3915997D03*
%TD*%
D15*
%TO.N,+3V3*%
X88179347Y3356284D02*
X88182752Y3350654D01*
X88212987Y3299043D01*
X88218451Y3291622D01*
X88266612Y3227157D01*
X88306943Y3182932D01*
X88346613Y3138193D01*
X88353414Y3131975D01*
X88413180Y3078093D01*
X88461295Y3042572D01*
X88508933Y3006366D01*
X88516812Y3001587D01*
X88585906Y2960340D01*
X88640006Y2934842D01*
X88693756Y2908583D01*
X88702413Y2905426D01*
X88732081Y2894840D01*
X88746207Y2887290D01*
X88870617Y2849550D01*
X88967581Y2840000D01*
X89309230Y2840000D01*
X89274188Y2724482D01*
X89261928Y2600000D01*
X89261928Y900000D01*
X89274188Y775518D01*
X89310498Y655820D01*
X89369463Y545506D01*
X89393277Y516489D01*
X89363552Y528801D01*
X89192572Y562811D01*
X89018242Y562811D01*
X88847262Y528801D01*
X88686202Y462088D01*
X88541252Y365235D01*
X88417983Y241966D01*
X88321130Y97016D01*
X88254417Y-64044D01*
X88220407Y-235024D01*
X88220407Y-409354D01*
X88254417Y-580334D01*
X88321130Y-741394D01*
X88417983Y-886344D01*
X88541252Y-1009613D01*
X88686202Y-1106466D01*
X88847262Y-1173179D01*
X89018242Y-1207189D01*
X89192572Y-1207189D01*
X89314084Y-1183019D01*
X89322068Y-1223158D01*
X89434010Y-1493411D01*
X89596525Y-1736632D01*
X89803368Y-1943475D01*
X89977760Y-2060000D01*
X89803368Y-2176525D01*
X89596525Y-2383368D01*
X89434010Y-2626589D01*
X89382591Y-2750725D01*
X89350990Y-2591855D01*
X89284277Y-2430795D01*
X89187424Y-2285845D01*
X89064155Y-2162576D01*
X88919205Y-2065723D01*
X88758145Y-1999010D01*
X88587165Y-1965000D01*
X88412835Y-1965000D01*
X88241855Y-1999010D01*
X88080795Y-2065723D01*
X87935845Y-2162576D01*
X87812576Y-2285845D01*
X87715723Y-2430795D01*
X87673500Y-2532731D01*
X87631916Y-2432340D01*
X87518648Y-2262822D01*
X87374485Y-2118659D01*
X87204967Y-2005391D01*
X87016609Y-1927370D01*
X86816650Y-1887596D01*
X86612772Y-1887596D01*
X86412813Y-1927370D01*
X86224455Y-2005391D01*
X86054937Y-2118659D01*
X85910774Y-2262822D01*
X85797506Y-2432340D01*
X85719485Y-2620698D01*
X85679711Y-2820657D01*
X85679711Y-3024535D01*
X85719485Y-3224494D01*
X85756903Y-3314830D01*
X85682795Y-3425741D01*
X85604774Y-3614099D01*
X85565000Y-3814058D01*
X85565000Y-4017936D01*
X85604774Y-4217895D01*
X85682795Y-4406253D01*
X85796063Y-4575771D01*
X85940226Y-4719934D01*
X86109744Y-4833202D01*
X86298102Y-4911223D01*
X86498061Y-4950997D01*
X86701939Y-4950997D01*
X86901898Y-4911223D01*
X87090256Y-4833202D01*
X87259774Y-4719934D01*
X87403937Y-4575771D01*
X87517205Y-4406253D01*
X87595226Y-4217895D01*
X87635000Y-4017936D01*
X87635000Y-3814058D01*
X87595226Y-3614099D01*
X87557808Y-3523763D01*
X87631916Y-3412852D01*
X87703570Y-3239865D01*
X87715723Y-3269205D01*
X87812576Y-3414155D01*
X87935845Y-3537424D01*
X88080795Y-3634277D01*
X88241855Y-3700990D01*
X88412835Y-3735000D01*
X88587165Y-3735000D01*
X88758145Y-3700990D01*
X88919205Y-3634277D01*
X89064155Y-3537424D01*
X89187424Y-3414155D01*
X89265000Y-3298055D01*
X89265000Y-3476260D01*
X89322068Y-3763158D01*
X89434010Y-4033411D01*
X89596525Y-4276632D01*
X89803368Y-4483475D01*
X89977760Y-4600000D01*
X89803368Y-4716525D01*
X89596525Y-4923368D01*
X89434010Y-5166589D01*
X89322068Y-5436842D01*
X89265000Y-5723740D01*
X89265000Y-6016260D01*
X89322068Y-6303158D01*
X89434010Y-6573411D01*
X89596525Y-6816632D01*
X89619893Y-6840000D01*
X89567581Y-6840000D01*
X89539499Y-6842766D01*
X89534943Y-6842734D01*
X89525772Y-6843634D01*
X89380200Y-6858935D01*
X89321617Y-6870961D01*
X89262848Y-6882171D01*
X89254026Y-6884835D01*
X89114197Y-6928119D01*
X89059067Y-6951294D01*
X89003588Y-6973708D01*
X88995451Y-6978035D01*
X88866694Y-7047654D01*
X88817137Y-7081081D01*
X88767047Y-7113858D01*
X88759906Y-7119683D01*
X88647123Y-7212985D01*
X88605001Y-7255402D01*
X88562232Y-7297284D01*
X88556359Y-7304385D01*
X88463846Y-7417816D01*
X88430754Y-7467625D01*
X88396947Y-7516997D01*
X88392564Y-7525103D01*
X88323845Y-7654345D01*
X88301055Y-7709638D01*
X88277483Y-7764636D01*
X88274758Y-7773440D01*
X88232452Y-7913566D01*
X88220836Y-7972232D01*
X88208397Y-8030753D01*
X88207434Y-8039917D01*
X88193150Y-8185594D01*
X88193150Y-8185608D01*
X88190001Y-8217581D01*
X88190000Y-14416267D01*
X88101898Y-14379774D01*
X87901939Y-14340000D01*
X87698061Y-14340000D01*
X87498102Y-14379774D01*
X87309744Y-14457795D01*
X87140226Y-14571063D01*
X86996063Y-14715226D01*
X86882795Y-14884744D01*
X86804774Y-15073102D01*
X86765000Y-15273061D01*
X86765000Y-15340000D01*
X73960000Y-15340000D01*
X73960000Y-14048061D01*
X83515000Y-14048061D01*
X83515000Y-14251939D01*
X83554774Y-14451898D01*
X83632795Y-14640256D01*
X83746063Y-14809774D01*
X83890226Y-14953937D01*
X84059744Y-15067205D01*
X84248102Y-15145226D01*
X84448061Y-15185000D01*
X84651939Y-15185000D01*
X84851898Y-15145226D01*
X85040256Y-15067205D01*
X85050001Y-15060694D01*
X85059744Y-15067204D01*
X85248102Y-15145225D01*
X85448061Y-15184999D01*
X85651939Y-15184999D01*
X85851898Y-15145225D01*
X86040256Y-15067204D01*
X86209774Y-14953936D01*
X86353937Y-14809773D01*
X86467205Y-14640255D01*
X86545226Y-14451897D01*
X86585000Y-14251938D01*
X86585000Y-14048060D01*
X86545226Y-13848101D01*
X86467205Y-13659743D01*
X86353937Y-13490225D01*
X86209774Y-13346062D01*
X86040256Y-13232794D01*
X85851898Y-13154773D01*
X85651939Y-13114999D01*
X85448061Y-13114999D01*
X85248102Y-13154773D01*
X85059744Y-13232794D01*
X85049999Y-13239305D01*
X85040256Y-13232795D01*
X84851898Y-13154774D01*
X84651939Y-13115000D01*
X84448061Y-13115000D01*
X84248102Y-13154774D01*
X84059744Y-13232795D01*
X83890226Y-13346063D01*
X83746063Y-13490226D01*
X83632795Y-13659744D01*
X83554774Y-13848102D01*
X83515000Y-14048061D01*
X73960000Y-14048061D01*
X73960000Y-12098061D01*
X75315000Y-12098061D01*
X75315000Y-12301939D01*
X75354774Y-12501898D01*
X75432795Y-12690256D01*
X75546063Y-12859774D01*
X75690226Y-13003937D01*
X75859744Y-13117205D01*
X76048102Y-13195226D01*
X76248061Y-13235000D01*
X76451939Y-13235000D01*
X76651898Y-13195226D01*
X76840256Y-13117205D01*
X77009774Y-13003937D01*
X77071828Y-12941883D01*
X77078549Y-12975673D01*
X77156570Y-13164031D01*
X77269838Y-13333549D01*
X77414001Y-13477712D01*
X77583519Y-13590980D01*
X77771877Y-13669001D01*
X77971836Y-13708775D01*
X78175714Y-13708775D01*
X78375673Y-13669001D01*
X78564031Y-13590980D01*
X78733549Y-13477712D01*
X78877712Y-13333549D01*
X78990980Y-13164031D01*
X79069001Y-12975673D01*
X79108775Y-12775714D01*
X79108775Y-12571836D01*
X79069001Y-12371877D01*
X78990980Y-12183519D01*
X78877712Y-12014001D01*
X78733549Y-11869838D01*
X78659149Y-11820125D01*
X80798867Y-11820125D01*
X80798867Y-12024003D01*
X80838641Y-12223962D01*
X80916662Y-12412320D01*
X81029930Y-12581838D01*
X81174093Y-12726001D01*
X81343611Y-12839269D01*
X81531969Y-12917290D01*
X81731928Y-12957064D01*
X81935806Y-12957064D01*
X82135765Y-12917290D01*
X82324123Y-12839269D01*
X82493641Y-12726001D01*
X82637804Y-12581838D01*
X82751072Y-12412320D01*
X82829093Y-12223962D01*
X82868867Y-12024003D01*
X82868867Y-11820125D01*
X82829093Y-11620166D01*
X82751072Y-11431808D01*
X82637804Y-11262290D01*
X82493641Y-11118127D01*
X82384832Y-11045423D01*
X83339655Y-11045423D01*
X83339655Y-11219753D01*
X83373665Y-11390733D01*
X83440378Y-11551793D01*
X83537231Y-11696743D01*
X83660500Y-11820012D01*
X83805450Y-11916865D01*
X83966510Y-11983578D01*
X84137490Y-12017588D01*
X84311820Y-12017588D01*
X84482800Y-11983578D01*
X84643860Y-11916865D01*
X84788810Y-11820012D01*
X84912079Y-11696743D01*
X84920150Y-11684664D01*
X84962576Y-11748158D01*
X85085845Y-11871427D01*
X85230795Y-11968280D01*
X85391855Y-12034993D01*
X85562835Y-12069003D01*
X85737165Y-12069003D01*
X85765000Y-12063466D01*
X85765000Y-12185940D01*
X85804774Y-12385899D01*
X85882795Y-12574257D01*
X85996063Y-12743775D01*
X86140226Y-12887938D01*
X86309744Y-13001206D01*
X86498102Y-13079227D01*
X86698061Y-13119001D01*
X86901939Y-13119001D01*
X87101898Y-13079227D01*
X87290256Y-13001206D01*
X87459774Y-12887938D01*
X87603937Y-12743775D01*
X87717205Y-12574257D01*
X87795226Y-12385899D01*
X87835000Y-12185940D01*
X87835000Y-11982062D01*
X87795226Y-11782103D01*
X87717205Y-11593745D01*
X87606392Y-11427901D01*
X87627232Y-11323130D01*
X87627232Y-11148800D01*
X87593222Y-10977820D01*
X87526509Y-10816760D01*
X87429656Y-10671810D01*
X87306387Y-10548541D01*
X87161437Y-10451688D01*
X87000377Y-10384975D01*
X86829397Y-10350965D01*
X86655067Y-10350965D01*
X86531499Y-10375544D01*
X86590256Y-10351206D01*
X86759774Y-10237938D01*
X86903937Y-10093775D01*
X86945307Y-10031861D01*
X87035612Y-10031861D01*
X87206592Y-9997851D01*
X87367652Y-9931138D01*
X87512602Y-9834285D01*
X87635871Y-9711016D01*
X87732724Y-9566066D01*
X87799437Y-9405006D01*
X87833447Y-9234026D01*
X87833447Y-9059696D01*
X87799437Y-8888716D01*
X87732724Y-8727656D01*
X87635871Y-8582706D01*
X87512602Y-8459437D01*
X87367652Y-8362584D01*
X87206592Y-8295871D01*
X87035612Y-8261861D01*
X86861282Y-8261861D01*
X86690302Y-8295871D01*
X86529242Y-8362584D01*
X86410119Y-8442180D01*
X86401898Y-8438775D01*
X86201939Y-8399001D01*
X85998061Y-8399001D01*
X85798102Y-8438775D01*
X85609744Y-8516796D01*
X85440226Y-8630064D01*
X85296063Y-8774227D01*
X85182795Y-8943745D01*
X85104774Y-9132103D01*
X85065000Y-9332062D01*
X85065000Y-9535940D01*
X85104774Y-9735899D01*
X85182795Y-9924257D01*
X85296063Y-10093775D01*
X85440226Y-10237938D01*
X85538778Y-10303788D01*
X85391855Y-10333013D01*
X85230795Y-10399726D01*
X85085845Y-10496579D01*
X84962576Y-10619848D01*
X84954505Y-10631927D01*
X84912079Y-10568433D01*
X84788810Y-10445164D01*
X84643860Y-10348311D01*
X84482800Y-10281598D01*
X84311820Y-10247588D01*
X84137490Y-10247588D01*
X83966510Y-10281598D01*
X83805450Y-10348311D01*
X83660500Y-10445164D01*
X83537231Y-10568433D01*
X83440378Y-10713383D01*
X83373665Y-10874443D01*
X83339655Y-11045423D01*
X82384832Y-11045423D01*
X82324123Y-11004859D01*
X82135765Y-10926838D01*
X81935806Y-10887064D01*
X81731928Y-10887064D01*
X81531969Y-10926838D01*
X81343611Y-11004859D01*
X81174093Y-11118127D01*
X81029930Y-11262290D01*
X80916662Y-11431808D01*
X80838641Y-11620166D01*
X80798867Y-11820125D01*
X78659149Y-11820125D01*
X78564031Y-11756570D01*
X78375673Y-11678549D01*
X78175714Y-11638775D01*
X77971836Y-11638775D01*
X77771877Y-11678549D01*
X77583519Y-11756570D01*
X77414001Y-11869838D01*
X77351947Y-11931892D01*
X77345226Y-11898102D01*
X77267205Y-11709744D01*
X77153937Y-11540226D01*
X77009774Y-11396063D01*
X76840256Y-11282795D01*
X76651898Y-11204774D01*
X76451939Y-11165000D01*
X76248061Y-11165000D01*
X76048102Y-11204774D01*
X75859744Y-11282795D01*
X75690226Y-11396063D01*
X75546063Y-11540226D01*
X75432795Y-11709744D01*
X75354774Y-11898102D01*
X75315000Y-12098061D01*
X73960000Y-12098061D01*
X73960000Y-11399552D01*
X74138212Y-11435000D01*
X74361788Y-11435000D01*
X74581067Y-11391383D01*
X74787624Y-11305824D01*
X74973520Y-11181612D01*
X75035738Y-11119394D01*
X75098102Y-11145226D01*
X75298061Y-11185000D01*
X75501939Y-11185000D01*
X75701898Y-11145226D01*
X75890256Y-11067205D01*
X76059774Y-10953937D01*
X76203937Y-10809774D01*
X76317205Y-10640256D01*
X76395226Y-10451898D01*
X76405934Y-10398061D01*
X78665000Y-10398061D01*
X78665000Y-10601939D01*
X78704774Y-10801898D01*
X78782795Y-10990256D01*
X78896063Y-11159774D01*
X79040226Y-11303937D01*
X79209744Y-11417205D01*
X79398102Y-11495226D01*
X79598061Y-11535000D01*
X79801939Y-11535000D01*
X80001898Y-11495226D01*
X80190256Y-11417205D01*
X80359774Y-11303937D01*
X80503937Y-11159774D01*
X80617205Y-10990256D01*
X80695226Y-10801898D01*
X80735000Y-10601939D01*
X80735000Y-10398061D01*
X80695226Y-10198102D01*
X80617205Y-10009744D01*
X80503937Y-9840226D01*
X80359774Y-9696063D01*
X80190256Y-9582795D01*
X80001898Y-9504774D01*
X79801939Y-9465000D01*
X79598061Y-9465000D01*
X79398102Y-9504774D01*
X79209744Y-9582795D01*
X79040226Y-9696063D01*
X78896063Y-9840226D01*
X78782795Y-10009744D01*
X78704774Y-10198102D01*
X78665000Y-10398061D01*
X76405934Y-10398061D01*
X76435000Y-10251939D01*
X76435000Y-10048061D01*
X76395226Y-9848102D01*
X76317205Y-9659744D01*
X76203937Y-9490226D01*
X76059774Y-9346063D01*
X75890256Y-9232795D01*
X75701898Y-9154774D01*
X75588660Y-9132250D01*
X75517205Y-8959744D01*
X75403937Y-8790226D01*
X75259774Y-8646063D01*
X75090256Y-8532795D01*
X74901898Y-8454774D01*
X74701939Y-8415000D01*
X74498061Y-8415000D01*
X74298102Y-8454774D01*
X74109744Y-8532795D01*
X73960000Y-8632850D01*
X73960000Y-8283393D01*
X75929668Y-8283393D01*
X75929668Y-8487271D01*
X75969442Y-8687230D01*
X76047463Y-8875588D01*
X76160731Y-9045106D01*
X76304894Y-9189269D01*
X76474412Y-9302537D01*
X76662770Y-9380558D01*
X76862729Y-9420332D01*
X77066607Y-9420332D01*
X77266566Y-9380558D01*
X77454924Y-9302537D01*
X77624442Y-9189269D01*
X77768605Y-9045106D01*
X77881873Y-8875588D01*
X77959894Y-8687230D01*
X77999668Y-8487271D01*
X77999668Y-8283393D01*
X77959894Y-8083434D01*
X77881873Y-7895076D01*
X77768605Y-7725558D01*
X77691108Y-7648061D01*
X78665000Y-7648061D01*
X78665000Y-7851939D01*
X78704774Y-8051898D01*
X78782795Y-8240256D01*
X78896063Y-8409774D01*
X79040226Y-8553937D01*
X79209744Y-8667205D01*
X79398102Y-8745226D01*
X79598061Y-8785000D01*
X79801939Y-8785000D01*
X80001898Y-8745226D01*
X80190256Y-8667205D01*
X80359774Y-8553937D01*
X80503937Y-8409774D01*
X80617205Y-8240256D01*
X80695226Y-8051898D01*
X80735000Y-7851939D01*
X80735000Y-7648061D01*
X80695226Y-7448102D01*
X80617205Y-7259744D01*
X80503937Y-7090226D01*
X80359774Y-6946063D01*
X80190256Y-6832795D01*
X80001898Y-6754774D01*
X79801939Y-6715000D01*
X79598061Y-6715000D01*
X79398102Y-6754774D01*
X79209744Y-6832795D01*
X79040226Y-6946063D01*
X78896063Y-7090226D01*
X78782795Y-7259744D01*
X78704774Y-7448102D01*
X78665000Y-7648061D01*
X77691108Y-7648061D01*
X77624442Y-7581395D01*
X77454924Y-7468127D01*
X77266566Y-7390106D01*
X77066607Y-7350332D01*
X76862729Y-7350332D01*
X76662770Y-7390106D01*
X76474412Y-7468127D01*
X76304894Y-7581395D01*
X76160731Y-7725558D01*
X76047463Y-7895076D01*
X75969442Y-8083434D01*
X75929668Y-8283393D01*
X73960000Y-8283393D01*
X73960000Y-5462835D01*
X74715000Y-5462835D01*
X74715000Y-5637165D01*
X74749010Y-5808145D01*
X74815723Y-5969205D01*
X74912576Y-6114155D01*
X75035845Y-6237424D01*
X75180795Y-6334277D01*
X75341855Y-6400990D01*
X75512835Y-6435000D01*
X75687165Y-6435000D01*
X75858145Y-6400990D01*
X76019205Y-6334277D01*
X76114834Y-6270379D01*
X76259744Y-6367205D01*
X76448102Y-6445226D01*
X76648061Y-6485000D01*
X76851939Y-6485000D01*
X77051898Y-6445226D01*
X77240256Y-6367205D01*
X77409774Y-6253937D01*
X77553937Y-6109774D01*
X77667205Y-5940256D01*
X77745226Y-5751898D01*
X77785000Y-5551939D01*
X77785000Y-5348061D01*
X77745226Y-5148102D01*
X77667205Y-4959744D01*
X77553937Y-4790226D01*
X77409774Y-4646063D01*
X77240256Y-4532795D01*
X77051898Y-4454774D01*
X76851939Y-4415000D01*
X76648061Y-4415000D01*
X76448102Y-4454774D01*
X76259744Y-4532795D01*
X76090226Y-4646063D01*
X75984812Y-4751477D01*
X75858145Y-4699010D01*
X75687165Y-4665000D01*
X75512835Y-4665000D01*
X75341855Y-4699010D01*
X75180795Y-4765723D01*
X75035845Y-4862576D01*
X74912576Y-4985845D01*
X74815723Y-5130795D01*
X74749010Y-5291855D01*
X74715000Y-5462835D01*
X73960000Y-5462835D01*
X73960000Y-4298061D01*
X78715000Y-4298061D01*
X78715000Y-4501939D01*
X78754774Y-4701898D01*
X78832795Y-4890256D01*
X78946063Y-5059774D01*
X79090226Y-5203937D01*
X79259744Y-5317205D01*
X79448102Y-5395226D01*
X79648061Y-5435000D01*
X79851939Y-5435000D01*
X80051898Y-5395226D01*
X80240256Y-5317205D01*
X80409774Y-5203937D01*
X80553937Y-5059774D01*
X80667205Y-4890256D01*
X80745226Y-4701898D01*
X80785000Y-4501939D01*
X80785000Y-4298061D01*
X80745226Y-4098102D01*
X80667205Y-3909744D01*
X80553937Y-3740226D01*
X80409774Y-3596063D01*
X80240256Y-3482795D01*
X80051898Y-3404774D01*
X79851939Y-3365000D01*
X79648061Y-3365000D01*
X79448102Y-3404774D01*
X79259744Y-3482795D01*
X79090226Y-3596063D01*
X78946063Y-3740226D01*
X78832795Y-3909744D01*
X78754774Y-4098102D01*
X78715000Y-4298061D01*
X73960000Y-4298061D01*
X73960000Y-2038212D01*
X79765000Y-2038212D01*
X79765000Y-2261788D01*
X79808617Y-2481067D01*
X79894176Y-2687624D01*
X80018388Y-2873520D01*
X80176480Y-3031612D01*
X80362376Y-3155824D01*
X80568933Y-3241383D01*
X80788212Y-3285000D01*
X81011788Y-3285000D01*
X81231067Y-3241383D01*
X81437624Y-3155824D01*
X81623520Y-3031612D01*
X81781612Y-2873520D01*
X81905824Y-2687624D01*
X81944243Y-2594873D01*
X82052946Y-2639899D01*
X82223926Y-2673909D01*
X82398256Y-2673909D01*
X82569236Y-2639899D01*
X82730296Y-2573186D01*
X82875246Y-2476333D01*
X82998515Y-2353064D01*
X83095368Y-2208114D01*
X83162081Y-2047054D01*
X83166319Y-2025747D01*
X83212835Y-2035000D01*
X83387165Y-2035000D01*
X83558145Y-2000990D01*
X83719205Y-1934277D01*
X83864155Y-1837424D01*
X83987424Y-1714155D01*
X84084277Y-1569205D01*
X84150990Y-1408145D01*
X84185000Y-1237165D01*
X84185000Y-1062835D01*
X84150990Y-891855D01*
X84084277Y-730795D01*
X83987424Y-585845D01*
X83864155Y-462576D01*
X83812314Y-427937D01*
X83938420Y-343675D01*
X84061689Y-220406D01*
X84158542Y-75456D01*
X84225255Y85604D01*
X84259265Y256584D01*
X84259265Y430914D01*
X84225255Y601894D01*
X84158542Y762954D01*
X84061689Y907904D01*
X83976110Y993483D01*
X85265002Y993483D01*
X85265002Y819153D01*
X85299012Y648173D01*
X85365725Y487113D01*
X85462578Y342163D01*
X85585847Y218894D01*
X85730797Y122041D01*
X85891857Y55328D01*
X85907594Y52198D01*
X85832797Y-59744D01*
X85754776Y-248102D01*
X85715002Y-448061D01*
X85715002Y-651939D01*
X85754776Y-851898D01*
X85832797Y-1040256D01*
X85946065Y-1209774D01*
X86090228Y-1353937D01*
X86259746Y-1467205D01*
X86448104Y-1545226D01*
X86648063Y-1585000D01*
X86851941Y-1585000D01*
X87051900Y-1545226D01*
X87240258Y-1467205D01*
X87409776Y-1353937D01*
X87553939Y-1209774D01*
X87667207Y-1040256D01*
X87745228Y-851898D01*
X87785002Y-651939D01*
X87785002Y-448061D01*
X87745228Y-248102D01*
X87667207Y-59744D01*
X87553939Y109774D01*
X87409776Y253937D01*
X87240258Y367205D01*
X87051900Y445226D01*
X86923373Y470791D01*
X86934279Y487113D01*
X87000992Y648173D01*
X87035002Y819153D01*
X87035002Y993483D01*
X87000992Y1164463D01*
X86934279Y1325523D01*
X86837426Y1470473D01*
X86714157Y1593742D01*
X86569207Y1690595D01*
X86408147Y1757308D01*
X86237167Y1791318D01*
X86062837Y1791318D01*
X85891857Y1757308D01*
X85730797Y1690595D01*
X85585847Y1593742D01*
X85462578Y1470473D01*
X85365725Y1325523D01*
X85299012Y1164463D01*
X85265002Y993483D01*
X83976110Y993483D01*
X83938420Y1031173D01*
X83793470Y1128026D01*
X83632410Y1194739D01*
X83461430Y1228749D01*
X83287100Y1228749D01*
X83116120Y1194739D01*
X82955060Y1128026D01*
X82810110Y1031173D01*
X82686841Y907904D01*
X82589988Y762954D01*
X82523275Y601894D01*
X82489265Y430914D01*
X82489265Y256584D01*
X82523275Y85604D01*
X82589988Y-75456D01*
X82686841Y-220406D01*
X82810110Y-343675D01*
X82861951Y-378314D01*
X82735845Y-462576D01*
X82612576Y-585845D01*
X82515723Y-730795D01*
X82449010Y-891855D01*
X82444772Y-913162D01*
X82398256Y-903909D01*
X82223926Y-903909D01*
X82052946Y-937919D01*
X81891886Y-1004632D01*
X81746936Y-1101485D01*
X81623667Y-1224754D01*
X81603465Y-1254988D01*
X81437624Y-1144176D01*
X81231067Y-1058617D01*
X81011788Y-1015000D01*
X80788212Y-1015000D01*
X80568933Y-1058617D01*
X80362376Y-1144176D01*
X80176480Y-1268388D01*
X80018388Y-1426480D01*
X79894176Y-1612376D01*
X79808617Y-1818933D01*
X79765000Y-2038212D01*
X73960000Y-2038212D01*
X73960000Y315000D01*
X74161788Y315000D01*
X74381067Y358617D01*
X74587624Y444176D01*
X74697096Y517323D01*
X74848102Y454774D01*
X75048061Y415000D01*
X75251939Y415000D01*
X75451898Y454774D01*
X75544361Y493074D01*
X75559744Y482795D01*
X75748102Y404774D01*
X75948061Y365000D01*
X76151939Y365000D01*
X76351898Y404774D01*
X76540256Y482795D01*
X76709774Y596063D01*
X76853937Y740226D01*
X76967205Y909744D01*
X77020725Y1038952D01*
X79165002Y1038952D01*
X79165002Y864622D01*
X79199012Y693642D01*
X79265725Y532582D01*
X79362578Y387632D01*
X79485847Y264363D01*
X79630797Y167510D01*
X79791857Y100797D01*
X79962837Y66787D01*
X80109393Y66787D01*
X80165723Y-69205D01*
X80262576Y-214155D01*
X80385845Y-337424D01*
X80530795Y-434277D01*
X80691855Y-500990D01*
X80862835Y-535000D01*
X81037165Y-535000D01*
X81208145Y-500990D01*
X81369205Y-434277D01*
X81514155Y-337424D01*
X81637424Y-214155D01*
X81734277Y-69205D01*
X81800990Y91855D01*
X81835000Y262835D01*
X81835000Y437165D01*
X81800990Y608145D01*
X81734277Y769205D01*
X81637424Y914155D01*
X81623073Y928506D01*
X81660535Y965968D01*
X81773803Y1135486D01*
X81851824Y1323844D01*
X81891598Y1523803D01*
X81891598Y1727681D01*
X81851824Y1927640D01*
X81773803Y2115998D01*
X81660535Y2285516D01*
X81516372Y2429679D01*
X81346854Y2542947D01*
X81158496Y2620968D01*
X80958537Y2660742D01*
X80754659Y2660742D01*
X80554700Y2620968D01*
X80366342Y2542947D01*
X80196824Y2429679D01*
X80052661Y2285516D01*
X79939393Y2115998D01*
X79861372Y1927640D01*
X79838376Y1812030D01*
X79791857Y1802777D01*
X79630797Y1736064D01*
X79485847Y1639211D01*
X79362578Y1515942D01*
X79265725Y1370992D01*
X79199012Y1209932D01*
X79165002Y1038952D01*
X77020725Y1038952D01*
X77045226Y1098102D01*
X77085000Y1298061D01*
X77085000Y1501939D01*
X77045226Y1701898D01*
X76967205Y1890256D01*
X76853937Y2059774D01*
X76709774Y2203937D01*
X76540256Y2317205D01*
X76351898Y2395226D01*
X76151939Y2435000D01*
X75948061Y2435000D01*
X75748102Y2395226D01*
X75655639Y2356926D01*
X75640256Y2367205D01*
X75451898Y2445226D01*
X75251939Y2485000D01*
X75048061Y2485000D01*
X74848102Y2445226D01*
X74697096Y2382677D01*
X74587624Y2455824D01*
X74381067Y2541383D01*
X74161788Y2585000D01*
X73960000Y2585000D01*
X73960000Y3359959D01*
X88179347Y3356284D01*
%TA.AperFunction,Conductor*%
D16*
G36*
X88179347Y3356284D02*
G01*
X88182752Y3350654D01*
X88212987Y3299043D01*
X88218451Y3291622D01*
X88266612Y3227157D01*
X88306943Y3182932D01*
X88346613Y3138193D01*
X88353414Y3131975D01*
X88413180Y3078093D01*
X88461295Y3042572D01*
X88508933Y3006366D01*
X88516812Y3001587D01*
X88585906Y2960340D01*
X88640006Y2934842D01*
X88693756Y2908583D01*
X88702413Y2905426D01*
X88732081Y2894840D01*
X88746207Y2887290D01*
X88870617Y2849550D01*
X88967581Y2840000D01*
X89309230Y2840000D01*
X89274188Y2724482D01*
X89261928Y2600000D01*
X89261928Y900000D01*
X89274188Y775518D01*
X89310498Y655820D01*
X89369463Y545506D01*
X89393277Y516489D01*
X89363552Y528801D01*
X89192572Y562811D01*
X89018242Y562811D01*
X88847262Y528801D01*
X88686202Y462088D01*
X88541252Y365235D01*
X88417983Y241966D01*
X88321130Y97016D01*
X88254417Y-64044D01*
X88220407Y-235024D01*
X88220407Y-409354D01*
X88254417Y-580334D01*
X88321130Y-741394D01*
X88417983Y-886344D01*
X88541252Y-1009613D01*
X88686202Y-1106466D01*
X88847262Y-1173179D01*
X89018242Y-1207189D01*
X89192572Y-1207189D01*
X89314084Y-1183019D01*
X89322068Y-1223158D01*
X89434010Y-1493411D01*
X89596525Y-1736632D01*
X89803368Y-1943475D01*
X89977760Y-2060000D01*
X89803368Y-2176525D01*
X89596525Y-2383368D01*
X89434010Y-2626589D01*
X89382591Y-2750725D01*
X89350990Y-2591855D01*
X89284277Y-2430795D01*
X89187424Y-2285845D01*
X89064155Y-2162576D01*
X88919205Y-2065723D01*
X88758145Y-1999010D01*
X88587165Y-1965000D01*
X88412835Y-1965000D01*
X88241855Y-1999010D01*
X88080795Y-2065723D01*
X87935845Y-2162576D01*
X87812576Y-2285845D01*
X87715723Y-2430795D01*
X87673500Y-2532731D01*
X87631916Y-2432340D01*
X87518648Y-2262822D01*
X87374485Y-2118659D01*
X87204967Y-2005391D01*
X87016609Y-1927370D01*
X86816650Y-1887596D01*
X86612772Y-1887596D01*
X86412813Y-1927370D01*
X86224455Y-2005391D01*
X86054937Y-2118659D01*
X85910774Y-2262822D01*
X85797506Y-2432340D01*
X85719485Y-2620698D01*
X85679711Y-2820657D01*
X85679711Y-3024535D01*
X85719485Y-3224494D01*
X85756903Y-3314830D01*
X85682795Y-3425741D01*
X85604774Y-3614099D01*
X85565000Y-3814058D01*
X85565000Y-4017936D01*
X85604774Y-4217895D01*
X85682795Y-4406253D01*
X85796063Y-4575771D01*
X85940226Y-4719934D01*
X86109744Y-4833202D01*
X86298102Y-4911223D01*
X86498061Y-4950997D01*
X86701939Y-4950997D01*
X86901898Y-4911223D01*
X87090256Y-4833202D01*
X87259774Y-4719934D01*
X87403937Y-4575771D01*
X87517205Y-4406253D01*
X87595226Y-4217895D01*
X87635000Y-4017936D01*
X87635000Y-3814058D01*
X87595226Y-3614099D01*
X87557808Y-3523763D01*
X87631916Y-3412852D01*
X87703570Y-3239865D01*
X87715723Y-3269205D01*
X87812576Y-3414155D01*
X87935845Y-3537424D01*
X88080795Y-3634277D01*
X88241855Y-3700990D01*
X88412835Y-3735000D01*
X88587165Y-3735000D01*
X88758145Y-3700990D01*
X88919205Y-3634277D01*
X89064155Y-3537424D01*
X89187424Y-3414155D01*
X89265000Y-3298055D01*
X89265000Y-3476260D01*
X89322068Y-3763158D01*
X89434010Y-4033411D01*
X89596525Y-4276632D01*
X89803368Y-4483475D01*
X89977760Y-4600000D01*
X89803368Y-4716525D01*
X89596525Y-4923368D01*
X89434010Y-5166589D01*
X89322068Y-5436842D01*
X89265000Y-5723740D01*
X89265000Y-6016260D01*
X89322068Y-6303158D01*
X89434010Y-6573411D01*
X89596525Y-6816632D01*
X89619893Y-6840000D01*
X89567581Y-6840000D01*
X89539499Y-6842766D01*
X89534943Y-6842734D01*
X89525772Y-6843634D01*
X89380200Y-6858935D01*
X89321617Y-6870961D01*
X89262848Y-6882171D01*
X89254026Y-6884835D01*
X89114197Y-6928119D01*
X89059067Y-6951294D01*
X89003588Y-6973708D01*
X88995451Y-6978035D01*
X88866694Y-7047654D01*
X88817137Y-7081081D01*
X88767047Y-7113858D01*
X88759906Y-7119683D01*
X88647123Y-7212985D01*
X88605001Y-7255402D01*
X88562232Y-7297284D01*
X88556359Y-7304385D01*
X88463846Y-7417816D01*
X88430754Y-7467625D01*
X88396947Y-7516997D01*
X88392564Y-7525103D01*
X88323845Y-7654345D01*
X88301055Y-7709638D01*
X88277483Y-7764636D01*
X88274758Y-7773440D01*
X88232452Y-7913566D01*
X88220836Y-7972232D01*
X88208397Y-8030753D01*
X88207434Y-8039917D01*
X88193150Y-8185594D01*
X88193150Y-8185608D01*
X88190001Y-8217581D01*
X88190000Y-14416267D01*
X88101898Y-14379774D01*
X87901939Y-14340000D01*
X87698061Y-14340000D01*
X87498102Y-14379774D01*
X87309744Y-14457795D01*
X87140226Y-14571063D01*
X86996063Y-14715226D01*
X86882795Y-14884744D01*
X86804774Y-15073102D01*
X86765000Y-15273061D01*
X86765000Y-15340000D01*
X73960000Y-15340000D01*
X73960000Y-14048061D01*
X83515000Y-14048061D01*
X83515000Y-14251939D01*
X83554774Y-14451898D01*
X83632795Y-14640256D01*
X83746063Y-14809774D01*
X83890226Y-14953937D01*
X84059744Y-15067205D01*
X84248102Y-15145226D01*
X84448061Y-15185000D01*
X84651939Y-15185000D01*
X84851898Y-15145226D01*
X85040256Y-15067205D01*
X85050001Y-15060694D01*
X85059744Y-15067204D01*
X85248102Y-15145225D01*
X85448061Y-15184999D01*
X85651939Y-15184999D01*
X85851898Y-15145225D01*
X86040256Y-15067204D01*
X86209774Y-14953936D01*
X86353937Y-14809773D01*
X86467205Y-14640255D01*
X86545226Y-14451897D01*
X86585000Y-14251938D01*
X86585000Y-14048060D01*
X86545226Y-13848101D01*
X86467205Y-13659743D01*
X86353937Y-13490225D01*
X86209774Y-13346062D01*
X86040256Y-13232794D01*
X85851898Y-13154773D01*
X85651939Y-13114999D01*
X85448061Y-13114999D01*
X85248102Y-13154773D01*
X85059744Y-13232794D01*
X85049999Y-13239305D01*
X85040256Y-13232795D01*
X84851898Y-13154774D01*
X84651939Y-13115000D01*
X84448061Y-13115000D01*
X84248102Y-13154774D01*
X84059744Y-13232795D01*
X83890226Y-13346063D01*
X83746063Y-13490226D01*
X83632795Y-13659744D01*
X83554774Y-13848102D01*
X83515000Y-14048061D01*
X73960000Y-14048061D01*
X73960000Y-12098061D01*
X75315000Y-12098061D01*
X75315000Y-12301939D01*
X75354774Y-12501898D01*
X75432795Y-12690256D01*
X75546063Y-12859774D01*
X75690226Y-13003937D01*
X75859744Y-13117205D01*
X76048102Y-13195226D01*
X76248061Y-13235000D01*
X76451939Y-13235000D01*
X76651898Y-13195226D01*
X76840256Y-13117205D01*
X77009774Y-13003937D01*
X77071828Y-12941883D01*
X77078549Y-12975673D01*
X77156570Y-13164031D01*
X77269838Y-13333549D01*
X77414001Y-13477712D01*
X77583519Y-13590980D01*
X77771877Y-13669001D01*
X77971836Y-13708775D01*
X78175714Y-13708775D01*
X78375673Y-13669001D01*
X78564031Y-13590980D01*
X78733549Y-13477712D01*
X78877712Y-13333549D01*
X78990980Y-13164031D01*
X79069001Y-12975673D01*
X79108775Y-12775714D01*
X79108775Y-12571836D01*
X79069001Y-12371877D01*
X78990980Y-12183519D01*
X78877712Y-12014001D01*
X78733549Y-11869838D01*
X78659149Y-11820125D01*
X80798867Y-11820125D01*
X80798867Y-12024003D01*
X80838641Y-12223962D01*
X80916662Y-12412320D01*
X81029930Y-12581838D01*
X81174093Y-12726001D01*
X81343611Y-12839269D01*
X81531969Y-12917290D01*
X81731928Y-12957064D01*
X81935806Y-12957064D01*
X82135765Y-12917290D01*
X82324123Y-12839269D01*
X82493641Y-12726001D01*
X82637804Y-12581838D01*
X82751072Y-12412320D01*
X82829093Y-12223962D01*
X82868867Y-12024003D01*
X82868867Y-11820125D01*
X82829093Y-11620166D01*
X82751072Y-11431808D01*
X82637804Y-11262290D01*
X82493641Y-11118127D01*
X82384832Y-11045423D01*
X83339655Y-11045423D01*
X83339655Y-11219753D01*
X83373665Y-11390733D01*
X83440378Y-11551793D01*
X83537231Y-11696743D01*
X83660500Y-11820012D01*
X83805450Y-11916865D01*
X83966510Y-11983578D01*
X84137490Y-12017588D01*
X84311820Y-12017588D01*
X84482800Y-11983578D01*
X84643860Y-11916865D01*
X84788810Y-11820012D01*
X84912079Y-11696743D01*
X84920150Y-11684664D01*
X84962576Y-11748158D01*
X85085845Y-11871427D01*
X85230795Y-11968280D01*
X85391855Y-12034993D01*
X85562835Y-12069003D01*
X85737165Y-12069003D01*
X85765000Y-12063466D01*
X85765000Y-12185940D01*
X85804774Y-12385899D01*
X85882795Y-12574257D01*
X85996063Y-12743775D01*
X86140226Y-12887938D01*
X86309744Y-13001206D01*
X86498102Y-13079227D01*
X86698061Y-13119001D01*
X86901939Y-13119001D01*
X87101898Y-13079227D01*
X87290256Y-13001206D01*
X87459774Y-12887938D01*
X87603937Y-12743775D01*
X87717205Y-12574257D01*
X87795226Y-12385899D01*
X87835000Y-12185940D01*
X87835000Y-11982062D01*
X87795226Y-11782103D01*
X87717205Y-11593745D01*
X87606392Y-11427901D01*
X87627232Y-11323130D01*
X87627232Y-11148800D01*
X87593222Y-10977820D01*
X87526509Y-10816760D01*
X87429656Y-10671810D01*
X87306387Y-10548541D01*
X87161437Y-10451688D01*
X87000377Y-10384975D01*
X86829397Y-10350965D01*
X86655067Y-10350965D01*
X86531499Y-10375544D01*
X86590256Y-10351206D01*
X86759774Y-10237938D01*
X86903937Y-10093775D01*
X86945307Y-10031861D01*
X87035612Y-10031861D01*
X87206592Y-9997851D01*
X87367652Y-9931138D01*
X87512602Y-9834285D01*
X87635871Y-9711016D01*
X87732724Y-9566066D01*
X87799437Y-9405006D01*
X87833447Y-9234026D01*
X87833447Y-9059696D01*
X87799437Y-8888716D01*
X87732724Y-8727656D01*
X87635871Y-8582706D01*
X87512602Y-8459437D01*
X87367652Y-8362584D01*
X87206592Y-8295871D01*
X87035612Y-8261861D01*
X86861282Y-8261861D01*
X86690302Y-8295871D01*
X86529242Y-8362584D01*
X86410119Y-8442180D01*
X86401898Y-8438775D01*
X86201939Y-8399001D01*
X85998061Y-8399001D01*
X85798102Y-8438775D01*
X85609744Y-8516796D01*
X85440226Y-8630064D01*
X85296063Y-8774227D01*
X85182795Y-8943745D01*
X85104774Y-9132103D01*
X85065000Y-9332062D01*
X85065000Y-9535940D01*
X85104774Y-9735899D01*
X85182795Y-9924257D01*
X85296063Y-10093775D01*
X85440226Y-10237938D01*
X85538778Y-10303788D01*
X85391855Y-10333013D01*
X85230795Y-10399726D01*
X85085845Y-10496579D01*
X84962576Y-10619848D01*
X84954505Y-10631927D01*
X84912079Y-10568433D01*
X84788810Y-10445164D01*
X84643860Y-10348311D01*
X84482800Y-10281598D01*
X84311820Y-10247588D01*
X84137490Y-10247588D01*
X83966510Y-10281598D01*
X83805450Y-10348311D01*
X83660500Y-10445164D01*
X83537231Y-10568433D01*
X83440378Y-10713383D01*
X83373665Y-10874443D01*
X83339655Y-11045423D01*
X82384832Y-11045423D01*
X82324123Y-11004859D01*
X82135765Y-10926838D01*
X81935806Y-10887064D01*
X81731928Y-10887064D01*
X81531969Y-10926838D01*
X81343611Y-11004859D01*
X81174093Y-11118127D01*
X81029930Y-11262290D01*
X80916662Y-11431808D01*
X80838641Y-11620166D01*
X80798867Y-11820125D01*
X78659149Y-11820125D01*
X78564031Y-11756570D01*
X78375673Y-11678549D01*
X78175714Y-11638775D01*
X77971836Y-11638775D01*
X77771877Y-11678549D01*
X77583519Y-11756570D01*
X77414001Y-11869838D01*
X77351947Y-11931892D01*
X77345226Y-11898102D01*
X77267205Y-11709744D01*
X77153937Y-11540226D01*
X77009774Y-11396063D01*
X76840256Y-11282795D01*
X76651898Y-11204774D01*
X76451939Y-11165000D01*
X76248061Y-11165000D01*
X76048102Y-11204774D01*
X75859744Y-11282795D01*
X75690226Y-11396063D01*
X75546063Y-11540226D01*
X75432795Y-11709744D01*
X75354774Y-11898102D01*
X75315000Y-12098061D01*
X73960000Y-12098061D01*
X73960000Y-11399552D01*
X74138212Y-11435000D01*
X74361788Y-11435000D01*
X74581067Y-11391383D01*
X74787624Y-11305824D01*
X74973520Y-11181612D01*
X75035738Y-11119394D01*
X75098102Y-11145226D01*
X75298061Y-11185000D01*
X75501939Y-11185000D01*
X75701898Y-11145226D01*
X75890256Y-11067205D01*
X76059774Y-10953937D01*
X76203937Y-10809774D01*
X76317205Y-10640256D01*
X76395226Y-10451898D01*
X76405934Y-10398061D01*
X78665000Y-10398061D01*
X78665000Y-10601939D01*
X78704774Y-10801898D01*
X78782795Y-10990256D01*
X78896063Y-11159774D01*
X79040226Y-11303937D01*
X79209744Y-11417205D01*
X79398102Y-11495226D01*
X79598061Y-11535000D01*
X79801939Y-11535000D01*
X80001898Y-11495226D01*
X80190256Y-11417205D01*
X80359774Y-11303937D01*
X80503937Y-11159774D01*
X80617205Y-10990256D01*
X80695226Y-10801898D01*
X80735000Y-10601939D01*
X80735000Y-10398061D01*
X80695226Y-10198102D01*
X80617205Y-10009744D01*
X80503937Y-9840226D01*
X80359774Y-9696063D01*
X80190256Y-9582795D01*
X80001898Y-9504774D01*
X79801939Y-9465000D01*
X79598061Y-9465000D01*
X79398102Y-9504774D01*
X79209744Y-9582795D01*
X79040226Y-9696063D01*
X78896063Y-9840226D01*
X78782795Y-10009744D01*
X78704774Y-10198102D01*
X78665000Y-10398061D01*
X76405934Y-10398061D01*
X76435000Y-10251939D01*
X76435000Y-10048061D01*
X76395226Y-9848102D01*
X76317205Y-9659744D01*
X76203937Y-9490226D01*
X76059774Y-9346063D01*
X75890256Y-9232795D01*
X75701898Y-9154774D01*
X75588660Y-9132250D01*
X75517205Y-8959744D01*
X75403937Y-8790226D01*
X75259774Y-8646063D01*
X75090256Y-8532795D01*
X74901898Y-8454774D01*
X74701939Y-8415000D01*
X74498061Y-8415000D01*
X74298102Y-8454774D01*
X74109744Y-8532795D01*
X73960000Y-8632850D01*
X73960000Y-8283393D01*
X75929668Y-8283393D01*
X75929668Y-8487271D01*
X75969442Y-8687230D01*
X76047463Y-8875588D01*
X76160731Y-9045106D01*
X76304894Y-9189269D01*
X76474412Y-9302537D01*
X76662770Y-9380558D01*
X76862729Y-9420332D01*
X77066607Y-9420332D01*
X77266566Y-9380558D01*
X77454924Y-9302537D01*
X77624442Y-9189269D01*
X77768605Y-9045106D01*
X77881873Y-8875588D01*
X77959894Y-8687230D01*
X77999668Y-8487271D01*
X77999668Y-8283393D01*
X77959894Y-8083434D01*
X77881873Y-7895076D01*
X77768605Y-7725558D01*
X77691108Y-7648061D01*
X78665000Y-7648061D01*
X78665000Y-7851939D01*
X78704774Y-8051898D01*
X78782795Y-8240256D01*
X78896063Y-8409774D01*
X79040226Y-8553937D01*
X79209744Y-8667205D01*
X79398102Y-8745226D01*
X79598061Y-8785000D01*
X79801939Y-8785000D01*
X80001898Y-8745226D01*
X80190256Y-8667205D01*
X80359774Y-8553937D01*
X80503937Y-8409774D01*
X80617205Y-8240256D01*
X80695226Y-8051898D01*
X80735000Y-7851939D01*
X80735000Y-7648061D01*
X80695226Y-7448102D01*
X80617205Y-7259744D01*
X80503937Y-7090226D01*
X80359774Y-6946063D01*
X80190256Y-6832795D01*
X80001898Y-6754774D01*
X79801939Y-6715000D01*
X79598061Y-6715000D01*
X79398102Y-6754774D01*
X79209744Y-6832795D01*
X79040226Y-6946063D01*
X78896063Y-7090226D01*
X78782795Y-7259744D01*
X78704774Y-7448102D01*
X78665000Y-7648061D01*
X77691108Y-7648061D01*
X77624442Y-7581395D01*
X77454924Y-7468127D01*
X77266566Y-7390106D01*
X77066607Y-7350332D01*
X76862729Y-7350332D01*
X76662770Y-7390106D01*
X76474412Y-7468127D01*
X76304894Y-7581395D01*
X76160731Y-7725558D01*
X76047463Y-7895076D01*
X75969442Y-8083434D01*
X75929668Y-8283393D01*
X73960000Y-8283393D01*
X73960000Y-5462835D01*
X74715000Y-5462835D01*
X74715000Y-5637165D01*
X74749010Y-5808145D01*
X74815723Y-5969205D01*
X74912576Y-6114155D01*
X75035845Y-6237424D01*
X75180795Y-6334277D01*
X75341855Y-6400990D01*
X75512835Y-6435000D01*
X75687165Y-6435000D01*
X75858145Y-6400990D01*
X76019205Y-6334277D01*
X76114834Y-6270379D01*
X76259744Y-6367205D01*
X76448102Y-6445226D01*
X76648061Y-6485000D01*
X76851939Y-6485000D01*
X77051898Y-6445226D01*
X77240256Y-6367205D01*
X77409774Y-6253937D01*
X77553937Y-6109774D01*
X77667205Y-5940256D01*
X77745226Y-5751898D01*
X77785000Y-5551939D01*
X77785000Y-5348061D01*
X77745226Y-5148102D01*
X77667205Y-4959744D01*
X77553937Y-4790226D01*
X77409774Y-4646063D01*
X77240256Y-4532795D01*
X77051898Y-4454774D01*
X76851939Y-4415000D01*
X76648061Y-4415000D01*
X76448102Y-4454774D01*
X76259744Y-4532795D01*
X76090226Y-4646063D01*
X75984812Y-4751477D01*
X75858145Y-4699010D01*
X75687165Y-4665000D01*
X75512835Y-4665000D01*
X75341855Y-4699010D01*
X75180795Y-4765723D01*
X75035845Y-4862576D01*
X74912576Y-4985845D01*
X74815723Y-5130795D01*
X74749010Y-5291855D01*
X74715000Y-5462835D01*
X73960000Y-5462835D01*
X73960000Y-4298061D01*
X78715000Y-4298061D01*
X78715000Y-4501939D01*
X78754774Y-4701898D01*
X78832795Y-4890256D01*
X78946063Y-5059774D01*
X79090226Y-5203937D01*
X79259744Y-5317205D01*
X79448102Y-5395226D01*
X79648061Y-5435000D01*
X79851939Y-5435000D01*
X80051898Y-5395226D01*
X80240256Y-5317205D01*
X80409774Y-5203937D01*
X80553937Y-5059774D01*
X80667205Y-4890256D01*
X80745226Y-4701898D01*
X80785000Y-4501939D01*
X80785000Y-4298061D01*
X80745226Y-4098102D01*
X80667205Y-3909744D01*
X80553937Y-3740226D01*
X80409774Y-3596063D01*
X80240256Y-3482795D01*
X80051898Y-3404774D01*
X79851939Y-3365000D01*
X79648061Y-3365000D01*
X79448102Y-3404774D01*
X79259744Y-3482795D01*
X79090226Y-3596063D01*
X78946063Y-3740226D01*
X78832795Y-3909744D01*
X78754774Y-4098102D01*
X78715000Y-4298061D01*
X73960000Y-4298061D01*
X73960000Y-2038212D01*
X79765000Y-2038212D01*
X79765000Y-2261788D01*
X79808617Y-2481067D01*
X79894176Y-2687624D01*
X80018388Y-2873520D01*
X80176480Y-3031612D01*
X80362376Y-3155824D01*
X80568933Y-3241383D01*
X80788212Y-3285000D01*
X81011788Y-3285000D01*
X81231067Y-3241383D01*
X81437624Y-3155824D01*
X81623520Y-3031612D01*
X81781612Y-2873520D01*
X81905824Y-2687624D01*
X81944243Y-2594873D01*
X82052946Y-2639899D01*
X82223926Y-2673909D01*
X82398256Y-2673909D01*
X82569236Y-2639899D01*
X82730296Y-2573186D01*
X82875246Y-2476333D01*
X82998515Y-2353064D01*
X83095368Y-2208114D01*
X83162081Y-2047054D01*
X83166319Y-2025747D01*
X83212835Y-2035000D01*
X83387165Y-2035000D01*
X83558145Y-2000990D01*
X83719205Y-1934277D01*
X83864155Y-1837424D01*
X83987424Y-1714155D01*
X84084277Y-1569205D01*
X84150990Y-1408145D01*
X84185000Y-1237165D01*
X84185000Y-1062835D01*
X84150990Y-891855D01*
X84084277Y-730795D01*
X83987424Y-585845D01*
X83864155Y-462576D01*
X83812314Y-427937D01*
X83938420Y-343675D01*
X84061689Y-220406D01*
X84158542Y-75456D01*
X84225255Y85604D01*
X84259265Y256584D01*
X84259265Y430914D01*
X84225255Y601894D01*
X84158542Y762954D01*
X84061689Y907904D01*
X83976110Y993483D01*
X85265002Y993483D01*
X85265002Y819153D01*
X85299012Y648173D01*
X85365725Y487113D01*
X85462578Y342163D01*
X85585847Y218894D01*
X85730797Y122041D01*
X85891857Y55328D01*
X85907594Y52198D01*
X85832797Y-59744D01*
X85754776Y-248102D01*
X85715002Y-448061D01*
X85715002Y-651939D01*
X85754776Y-851898D01*
X85832797Y-1040256D01*
X85946065Y-1209774D01*
X86090228Y-1353937D01*
X86259746Y-1467205D01*
X86448104Y-1545226D01*
X86648063Y-1585000D01*
X86851941Y-1585000D01*
X87051900Y-1545226D01*
X87240258Y-1467205D01*
X87409776Y-1353937D01*
X87553939Y-1209774D01*
X87667207Y-1040256D01*
X87745228Y-851898D01*
X87785002Y-651939D01*
X87785002Y-448061D01*
X87745228Y-248102D01*
X87667207Y-59744D01*
X87553939Y109774D01*
X87409776Y253937D01*
X87240258Y367205D01*
X87051900Y445226D01*
X86923373Y470791D01*
X86934279Y487113D01*
X87000992Y648173D01*
X87035002Y819153D01*
X87035002Y993483D01*
X87000992Y1164463D01*
X86934279Y1325523D01*
X86837426Y1470473D01*
X86714157Y1593742D01*
X86569207Y1690595D01*
X86408147Y1757308D01*
X86237167Y1791318D01*
X86062837Y1791318D01*
X85891857Y1757308D01*
X85730797Y1690595D01*
X85585847Y1593742D01*
X85462578Y1470473D01*
X85365725Y1325523D01*
X85299012Y1164463D01*
X85265002Y993483D01*
X83976110Y993483D01*
X83938420Y1031173D01*
X83793470Y1128026D01*
X83632410Y1194739D01*
X83461430Y1228749D01*
X83287100Y1228749D01*
X83116120Y1194739D01*
X82955060Y1128026D01*
X82810110Y1031173D01*
X82686841Y907904D01*
X82589988Y762954D01*
X82523275Y601894D01*
X82489265Y430914D01*
X82489265Y256584D01*
X82523275Y85604D01*
X82589988Y-75456D01*
X82686841Y-220406D01*
X82810110Y-343675D01*
X82861951Y-378314D01*
X82735845Y-462576D01*
X82612576Y-585845D01*
X82515723Y-730795D01*
X82449010Y-891855D01*
X82444772Y-913162D01*
X82398256Y-903909D01*
X82223926Y-903909D01*
X82052946Y-937919D01*
X81891886Y-1004632D01*
X81746936Y-1101485D01*
X81623667Y-1224754D01*
X81603465Y-1254988D01*
X81437624Y-1144176D01*
X81231067Y-1058617D01*
X81011788Y-1015000D01*
X80788212Y-1015000D01*
X80568933Y-1058617D01*
X80362376Y-1144176D01*
X80176480Y-1268388D01*
X80018388Y-1426480D01*
X79894176Y-1612376D01*
X79808617Y-1818933D01*
X79765000Y-2038212D01*
X73960000Y-2038212D01*
X73960000Y315000D01*
X74161788Y315000D01*
X74381067Y358617D01*
X74587624Y444176D01*
X74697096Y517323D01*
X74848102Y454774D01*
X75048061Y415000D01*
X75251939Y415000D01*
X75451898Y454774D01*
X75544361Y493074D01*
X75559744Y482795D01*
X75748102Y404774D01*
X75948061Y365000D01*
X76151939Y365000D01*
X76351898Y404774D01*
X76540256Y482795D01*
X76709774Y596063D01*
X76853937Y740226D01*
X76967205Y909744D01*
X77020725Y1038952D01*
X79165002Y1038952D01*
X79165002Y864622D01*
X79199012Y693642D01*
X79265725Y532582D01*
X79362578Y387632D01*
X79485847Y264363D01*
X79630797Y167510D01*
X79791857Y100797D01*
X79962837Y66787D01*
X80109393Y66787D01*
X80165723Y-69205D01*
X80262576Y-214155D01*
X80385845Y-337424D01*
X80530795Y-434277D01*
X80691855Y-500990D01*
X80862835Y-535000D01*
X81037165Y-535000D01*
X81208145Y-500990D01*
X81369205Y-434277D01*
X81514155Y-337424D01*
X81637424Y-214155D01*
X81734277Y-69205D01*
X81800990Y91855D01*
X81835000Y262835D01*
X81835000Y437165D01*
X81800990Y608145D01*
X81734277Y769205D01*
X81637424Y914155D01*
X81623073Y928506D01*
X81660535Y965968D01*
X81773803Y1135486D01*
X81851824Y1323844D01*
X81891598Y1523803D01*
X81891598Y1727681D01*
X81851824Y1927640D01*
X81773803Y2115998D01*
X81660535Y2285516D01*
X81516372Y2429679D01*
X81346854Y2542947D01*
X81158496Y2620968D01*
X80958537Y2660742D01*
X80754659Y2660742D01*
X80554700Y2620968D01*
X80366342Y2542947D01*
X80196824Y2429679D01*
X80052661Y2285516D01*
X79939393Y2115998D01*
X79861372Y1927640D01*
X79838376Y1812030D01*
X79791857Y1802777D01*
X79630797Y1736064D01*
X79485847Y1639211D01*
X79362578Y1515942D01*
X79265725Y1370992D01*
X79199012Y1209932D01*
X79165002Y1038952D01*
X77020725Y1038952D01*
X77045226Y1098102D01*
X77085000Y1298061D01*
X77085000Y1501939D01*
X77045226Y1701898D01*
X76967205Y1890256D01*
X76853937Y2059774D01*
X76709774Y2203937D01*
X76540256Y2317205D01*
X76351898Y2395226D01*
X76151939Y2435000D01*
X75948061Y2435000D01*
X75748102Y2395226D01*
X75655639Y2356926D01*
X75640256Y2367205D01*
X75451898Y2445226D01*
X75251939Y2485000D01*
X75048061Y2485000D01*
X74848102Y2445226D01*
X74697096Y2382677D01*
X74587624Y2455824D01*
X74381067Y2541383D01*
X74161788Y2585000D01*
X73960000Y2585000D01*
X73960000Y3359959D01*
X88179347Y3356284D01*
G37*
%TD.AperFunction*%
%TD*%
M02*
