%TF.GenerationSoftware,KiCad,Pcbnew,5.1.9*%
%TF.CreationDate,2021-01-20T22:59:12+01:00*%
%TF.ProjectId,wi-se-rpi,77692d73-652d-4727-9069-2e6b69636164,v0.1*%
%TF.SameCoordinates,Original*%
%TF.FileFunction,Legend,Bot*%
%TF.FilePolarity,Positive*%
%FSLAX46Y46*%
G04 Gerber Fmt 4.6, Leading zero omitted, Abs format (unit mm)*
G04 Created by KiCad (PCBNEW 5.1.9) date 2021-01-20 22:59:12*
%MOMM*%
%LPD*%
G01*
G04 APERTURE LIST*
%ADD10C,0.150000*%
%ADD11C,0.120000*%
%ADD12C,0.152400*%
G04 APERTURE END LIST*
D10*
X78302380Y3163095D02*
X78302380Y3963095D01*
X78302380Y3201190D02*
X78378571Y3163095D01*
X78530952Y3163095D01*
X78607142Y3201190D01*
X78645238Y3239285D01*
X78683333Y3315476D01*
X78683333Y3544047D01*
X78645238Y3620238D01*
X78607142Y3658333D01*
X78530952Y3696428D01*
X78378571Y3696428D01*
X78302380Y3658333D01*
X77616666Y3201190D02*
X77692857Y3163095D01*
X77845238Y3163095D01*
X77921428Y3201190D01*
X77959523Y3277380D01*
X77959523Y3582142D01*
X77921428Y3658333D01*
X77845238Y3696428D01*
X77692857Y3696428D01*
X77616666Y3658333D01*
X77578571Y3582142D01*
X77578571Y3505952D01*
X77959523Y3429761D01*
X77235714Y3696428D02*
X77235714Y2896428D01*
X77235714Y3658333D02*
X77159523Y3696428D01*
X77007142Y3696428D01*
X76930952Y3658333D01*
X76892857Y3620238D01*
X76854761Y3544047D01*
X76854761Y3315476D01*
X76892857Y3239285D01*
X76930952Y3201190D01*
X77007142Y3163095D01*
X77159523Y3163095D01*
X77235714Y3201190D01*
X76169047Y3163095D02*
X76169047Y3582142D01*
X76207142Y3658333D01*
X76283333Y3696428D01*
X76435714Y3696428D01*
X76511904Y3658333D01*
X76169047Y3201190D02*
X76245238Y3163095D01*
X76435714Y3163095D01*
X76511904Y3201190D01*
X76550000Y3277380D01*
X76550000Y3353571D01*
X76511904Y3429761D01*
X76435714Y3467857D01*
X76245238Y3467857D01*
X76169047Y3505952D01*
X75445238Y3696428D02*
X75445238Y3163095D01*
X75788095Y3696428D02*
X75788095Y3277380D01*
X75750000Y3201190D01*
X75673809Y3163095D01*
X75559523Y3163095D01*
X75483333Y3201190D01*
X75445238Y3239285D01*
X75064285Y3239285D02*
X75026190Y3201190D01*
X75064285Y3163095D01*
X75102380Y3201190D01*
X75064285Y3239285D01*
X75064285Y3163095D01*
X74378571Y3201190D02*
X74454761Y3163095D01*
X74607142Y3163095D01*
X74683333Y3201190D01*
X74721428Y3277380D01*
X74721428Y3582142D01*
X74683333Y3658333D01*
X74607142Y3696428D01*
X74454761Y3696428D01*
X74378571Y3658333D01*
X74340476Y3582142D01*
X74340476Y3505952D01*
X74721428Y3429761D01*
X73654761Y3696428D02*
X73654761Y3163095D01*
X73997619Y3696428D02*
X73997619Y3277380D01*
X73959523Y3201190D01*
X73883333Y3163095D01*
X73769047Y3163095D01*
X73692857Y3201190D01*
X73654761Y3239285D01*
X74671428Y-7252500D02*
X75071428Y-7395357D01*
X74671428Y-7538214D01*
X74471428Y-7881071D02*
X74471428Y-7938214D01*
X74500000Y-7995357D01*
X74528571Y-8023928D01*
X74585714Y-8052500D01*
X74700000Y-8081071D01*
X74842857Y-8081071D01*
X74957142Y-8052500D01*
X75014285Y-8023928D01*
X75042857Y-7995357D01*
X75071428Y-7938214D01*
X75071428Y-7881071D01*
X75042857Y-7823928D01*
X75014285Y-7795357D01*
X74957142Y-7766785D01*
X74842857Y-7738214D01*
X74700000Y-7738214D01*
X74585714Y-7766785D01*
X74528571Y-7795357D01*
X74500000Y-7823928D01*
X74471428Y-7881071D01*
X75014285Y-8338214D02*
X75042857Y-8366785D01*
X75071428Y-8338214D01*
X75042857Y-8309642D01*
X75014285Y-8338214D01*
X75071428Y-8338214D01*
X75071428Y-8938214D02*
X75071428Y-8595357D01*
X75071428Y-8766785D02*
X74471428Y-8766785D01*
X74557142Y-8709642D01*
X74614285Y-8652500D01*
X74642857Y-8595357D01*
X75721428Y-6195357D02*
X75721428Y-6423928D01*
X76121428Y-6281071D02*
X75607142Y-6281071D01*
X75550000Y-6309642D01*
X75521428Y-6366785D01*
X75521428Y-6423928D01*
X76121428Y-6709642D02*
X76092857Y-6652500D01*
X76064285Y-6623928D01*
X76007142Y-6595357D01*
X75835714Y-6595357D01*
X75778571Y-6623928D01*
X75750000Y-6652500D01*
X75721428Y-6709642D01*
X75721428Y-6795357D01*
X75750000Y-6852500D01*
X75778571Y-6881071D01*
X75835714Y-6909642D01*
X76007142Y-6909642D01*
X76064285Y-6881071D01*
X76092857Y-6852500D01*
X76121428Y-6795357D01*
X76121428Y-6709642D01*
X76121428Y-7166785D02*
X75721428Y-7166785D01*
X75835714Y-7166785D02*
X75778571Y-7195357D01*
X75750000Y-7223928D01*
X75721428Y-7281071D01*
X75721428Y-7338214D01*
X76121428Y-7995357D02*
X75721428Y-7995357D01*
X75835714Y-7995357D02*
X75778571Y-8023928D01*
X75750000Y-8052500D01*
X75721428Y-8109642D01*
X75721428Y-8166785D01*
X75721428Y-8366785D02*
X76321428Y-8366785D01*
X75750000Y-8366785D02*
X75721428Y-8423928D01*
X75721428Y-8538214D01*
X75750000Y-8595357D01*
X75778571Y-8623928D01*
X75835714Y-8652500D01*
X76007142Y-8652500D01*
X76064285Y-8623928D01*
X76092857Y-8595357D01*
X76121428Y-8538214D01*
X76121428Y-8423928D01*
X76092857Y-8366785D01*
X76121428Y-8909642D02*
X75721428Y-8909642D01*
X75521428Y-8909642D02*
X75550000Y-8881071D01*
X75578571Y-8909642D01*
X75550000Y-8938214D01*
X75521428Y-8909642D01*
X75578571Y-8909642D01*
X73522619Y-1290476D02*
X74622619Y-1552380D01*
X73836904Y-1761904D01*
X74622619Y-1971428D01*
X73522619Y-2233333D01*
X74622619Y-2652380D02*
X73889285Y-2652380D01*
X73522619Y-2652380D02*
X73575000Y-2600000D01*
X73627380Y-2652380D01*
X73575000Y-2704761D01*
X73522619Y-2652380D01*
X73627380Y-2652380D01*
X74203571Y-3176190D02*
X74203571Y-4014285D01*
X74570238Y-4485714D02*
X74622619Y-4642857D01*
X74622619Y-4904761D01*
X74570238Y-5009523D01*
X74517857Y-5061904D01*
X74413095Y-5114285D01*
X74308333Y-5114285D01*
X74203571Y-5061904D01*
X74151190Y-5009523D01*
X74098809Y-4904761D01*
X74046428Y-4695238D01*
X73994047Y-4590476D01*
X73941666Y-4538095D01*
X73836904Y-4485714D01*
X73732142Y-4485714D01*
X73627380Y-4538095D01*
X73575000Y-4590476D01*
X73522619Y-4695238D01*
X73522619Y-4957142D01*
X73575000Y-5114285D01*
X74570238Y-6004761D02*
X74622619Y-5900000D01*
X74622619Y-5690476D01*
X74570238Y-5585714D01*
X74465476Y-5533333D01*
X74046428Y-5533333D01*
X73941666Y-5585714D01*
X73889285Y-5690476D01*
X73889285Y-5900000D01*
X73941666Y-6004761D01*
X74046428Y-6057142D01*
X74151190Y-6057142D01*
X74255952Y-5533333D01*
X77778571Y-12421428D02*
X77978571Y-12135714D01*
X78121428Y-12421428D02*
X78121428Y-11821428D01*
X77892857Y-11821428D01*
X77835714Y-11850000D01*
X77807142Y-11878571D01*
X77778571Y-11935714D01*
X77778571Y-12021428D01*
X77807142Y-12078571D01*
X77835714Y-12107142D01*
X77892857Y-12135714D01*
X78121428Y-12135714D01*
X77550000Y-12392857D02*
X77464285Y-12421428D01*
X77321428Y-12421428D01*
X77264285Y-12392857D01*
X77235714Y-12364285D01*
X77207142Y-12307142D01*
X77207142Y-12250000D01*
X77235714Y-12192857D01*
X77264285Y-12164285D01*
X77321428Y-12135714D01*
X77435714Y-12107142D01*
X77492857Y-12078571D01*
X77521428Y-12050000D01*
X77550000Y-11992857D01*
X77550000Y-11935714D01*
X77521428Y-11878571D01*
X77492857Y-11850000D01*
X77435714Y-11821428D01*
X77292857Y-11821428D01*
X77207142Y-11850000D01*
X77035714Y-11821428D02*
X76692857Y-11821428D01*
X76864285Y-12421428D02*
X76864285Y-11821428D01*
X86625000Y-12421428D02*
X86625000Y-11821428D01*
X86225000Y-11821428D02*
X86110714Y-11821428D01*
X86053571Y-11850000D01*
X85996428Y-11907142D01*
X85967857Y-12021428D01*
X85967857Y-12221428D01*
X85996428Y-12335714D01*
X86053571Y-12392857D01*
X86110714Y-12421428D01*
X86225000Y-12421428D01*
X86282142Y-12392857D01*
X86339285Y-12335714D01*
X86367857Y-12221428D01*
X86367857Y-12021428D01*
X86339285Y-11907142D01*
X86282142Y-11850000D01*
X86225000Y-11821428D01*
X85596428Y-11821428D02*
X85539285Y-11821428D01*
X85482142Y-11850000D01*
X85453571Y-11878571D01*
X85425000Y-11935714D01*
X85396428Y-12050000D01*
X85396428Y-12192857D01*
X85425000Y-12307142D01*
X85453571Y-12364285D01*
X85482142Y-12392857D01*
X85539285Y-12421428D01*
X85596428Y-12421428D01*
X85653571Y-12392857D01*
X85682142Y-12364285D01*
X85710714Y-12307142D01*
X85739285Y-12192857D01*
X85739285Y-12050000D01*
X85710714Y-11935714D01*
X85682142Y-11878571D01*
X85653571Y-11850000D01*
X85596428Y-11821428D01*
%TO.C,SW2*%
X85975000Y-15650000D02*
X82975000Y-15650000D01*
X85975000Y-12650000D02*
X82975000Y-12650000D01*
X82975000Y-15650000D02*
X82975000Y-12650000D01*
X85975000Y-12650000D02*
X85975000Y-15650000D01*
D11*
%TO.C,J1*%
X90750000Y3080000D02*
X89420000Y3080000D01*
X89420000Y3080000D02*
X89420000Y1750000D01*
X92020000Y3080000D02*
X92020000Y480000D01*
X92020000Y480000D02*
X89420000Y480000D01*
X89420000Y480000D02*
X89420000Y-7200000D01*
X94620000Y-7200000D02*
X89420000Y-7200000D01*
X94620000Y3080000D02*
X94620000Y-7200000D01*
X94620000Y3080000D02*
X92020000Y3080000D01*
%TO.C,C1*%
X86840000Y313748D02*
X86840000Y1736252D01*
X88660000Y313748D02*
X88660000Y1736252D01*
%TO.C,C2*%
X76910000Y288748D02*
X76910000Y1711252D01*
X75090000Y288748D02*
X75090000Y1711252D01*
%TO.C,C5*%
X73640000Y-13736252D02*
X73640000Y-12313748D01*
X75460000Y-13736252D02*
X75460000Y-12313748D01*
%TO.C,C6*%
X74990580Y-10460000D02*
X74709420Y-10460000D01*
X74990580Y-9440000D02*
X74709420Y-9440000D01*
%TO.C,C7*%
X78357836Y-7760000D02*
X78142164Y-7760000D01*
X78357836Y-7040000D02*
X78142164Y-7040000D01*
%TO.C,C8*%
X78357836Y-8290000D02*
X78142164Y-8290000D01*
X78357836Y-9010000D02*
X78142164Y-9010000D01*
%TO.C,C9*%
X78142164Y-4040000D02*
X78357836Y-4040000D01*
X78142164Y-4760000D02*
X78357836Y-4760000D01*
D12*
%TO.C,Q1*%
X87463199Y-8550000D02*
G75*
G03*
X87463199Y-8550000I-76200J0D01*
G01*
X84174500Y-8883260D02*
X84174500Y-7874400D01*
X84174500Y-7874400D02*
X85825500Y-7874400D01*
X84174500Y-11125600D02*
X84174500Y-10116740D01*
X85825500Y-11125600D02*
X84174500Y-11125600D01*
X85825500Y-9166739D02*
X85825500Y-9833261D01*
%TO.C,Q2*%
X85825500Y-5416739D02*
X85825500Y-6083261D01*
X85825500Y-7375600D02*
X84174500Y-7375600D01*
X84174500Y-7375600D02*
X84174500Y-6366740D01*
X84174500Y-4124400D02*
X85825500Y-4124400D01*
X84174500Y-5133260D02*
X84174500Y-4124400D01*
X87463199Y-4800000D02*
G75*
G03*
X87463199Y-4800000I-76200J0D01*
G01*
D11*
%TO.C,Q3*%
X80240000Y-11030000D02*
X81700000Y-11030000D01*
X80240000Y-7870000D02*
X82400000Y-7870000D01*
X80240000Y-7870000D02*
X80240000Y-8800000D01*
X80240000Y-11030000D02*
X80240000Y-10100000D01*
%TO.C,Q4*%
X80240000Y-7330000D02*
X80240000Y-6400000D01*
X80240000Y-4170000D02*
X80240000Y-5100000D01*
X80240000Y-4170000D02*
X82400000Y-4170000D01*
X80240000Y-7330000D02*
X81700000Y-7330000D01*
%TO.C,R1*%
X88103641Y-2430000D02*
X87796359Y-2430000D01*
X88103641Y-1670000D02*
X87796359Y-1670000D01*
%TO.C,R2*%
X87796359Y-2670000D02*
X88103641Y-2670000D01*
X87796359Y-3430000D02*
X88103641Y-3430000D01*
%TO.C,R3*%
X88080000Y-14246359D02*
X88080000Y-14553641D01*
X87320000Y-14246359D02*
X87320000Y-14553641D01*
%TO.C,R4*%
X88080000Y-12553641D02*
X88080000Y-12246359D01*
X87320000Y-12553641D02*
X87320000Y-12246359D01*
%TO.C,R5*%
X76206359Y-3780000D02*
X76513641Y-3780000D01*
X76206359Y-3020000D02*
X76513641Y-3020000D01*
%TO.C,R6*%
X78096359Y-10270000D02*
X78403641Y-10270000D01*
X78096359Y-11030000D02*
X78403641Y-11030000D01*
%TO.C,R7*%
X76196359Y-4780000D02*
X76503641Y-4780000D01*
X76196359Y-4020000D02*
X76503641Y-4020000D01*
%TO.C,R8*%
X87796359Y-5120000D02*
X88103641Y-5120000D01*
X87796359Y-5880000D02*
X88103641Y-5880000D01*
%TO.C,R9*%
X88103641Y-6880000D02*
X87796359Y-6880000D01*
X88103641Y-6120000D02*
X87796359Y-6120000D01*
%TO.C,R10*%
X79428641Y-11320000D02*
X79121359Y-11320000D01*
X79428641Y-12080000D02*
X79121359Y-12080000D01*
%TO.C,R11*%
X88080000Y-10553641D02*
X88080000Y-10246359D01*
X87320000Y-10553641D02*
X87320000Y-10246359D01*
%TO.C,R12*%
X87320000Y-8553641D02*
X87320000Y-8246359D01*
X88080000Y-8553641D02*
X88080000Y-8246359D01*
%TO.C,R13*%
X78403641Y-5780000D02*
X78096359Y-5780000D01*
X78403641Y-5020000D02*
X78096359Y-5020000D01*
%TO.C,R14*%
X82870000Y-10846359D02*
X82870000Y-11153641D01*
X83630000Y-10846359D02*
X83630000Y-11153641D01*
%TO.C,R15*%
X82920000Y-7446359D02*
X82920000Y-7753641D01*
X83680000Y-7446359D02*
X83680000Y-7753641D01*
%TO.C,R16*%
X78403641Y-9270000D02*
X78096359Y-9270000D01*
X78403641Y-10030000D02*
X78096359Y-10030000D01*
%TO.C,R17*%
X78403641Y-6780000D02*
X78096359Y-6780000D01*
X78403641Y-6020000D02*
X78096359Y-6020000D01*
%TO.C,R18*%
X88103641Y-3670000D02*
X87796359Y-3670000D01*
X88103641Y-4430000D02*
X87796359Y-4430000D01*
%TO.C,U1*%
X85850000Y3160000D02*
X79840000Y3160000D01*
X83600000Y-3660000D02*
X79840000Y-3660000D01*
X79840000Y3160000D02*
X79840000Y1900000D01*
X79840000Y-3660000D02*
X79840000Y-2400000D01*
D10*
%TO.C,SW1*%
X77500000Y-15650000D02*
X77500000Y-12650000D01*
X80500000Y-12650000D02*
X80500000Y-15650000D01*
X77500000Y-15650000D02*
X80500000Y-15650000D01*
X77500000Y-12650000D02*
X80500000Y-12650000D01*
%TO.C,SW2*%
X85275000Y-15167857D02*
X85189285Y-15196428D01*
X85046428Y-15196428D01*
X84989285Y-15167857D01*
X84960714Y-15139285D01*
X84932142Y-15082142D01*
X84932142Y-15025000D01*
X84960714Y-14967857D01*
X84989285Y-14939285D01*
X85046428Y-14910714D01*
X85160714Y-14882142D01*
X85217857Y-14853571D01*
X85246428Y-14825000D01*
X85275000Y-14767857D01*
X85275000Y-14710714D01*
X85246428Y-14653571D01*
X85217857Y-14625000D01*
X85160714Y-14596428D01*
X85017857Y-14596428D01*
X84932142Y-14625000D01*
X84732142Y-14596428D02*
X84589285Y-15196428D01*
X84475000Y-14767857D01*
X84360714Y-15196428D01*
X84217857Y-14596428D01*
X84017857Y-14653571D02*
X83989285Y-14625000D01*
X83932142Y-14596428D01*
X83789285Y-14596428D01*
X83732142Y-14625000D01*
X83703571Y-14653571D01*
X83675000Y-14710714D01*
X83675000Y-14767857D01*
X83703571Y-14853571D01*
X84046428Y-15196428D01*
X83675000Y-15196428D01*
%TO.C,U1*%
X81252380Y311904D02*
X82061904Y311904D01*
X82157142Y264285D01*
X82204761Y216666D01*
X82252380Y121428D01*
X82252380Y-69047D01*
X82204761Y-164285D01*
X82157142Y-211904D01*
X82061904Y-259523D01*
X81252380Y-259523D01*
X82252380Y-1259523D02*
X82252380Y-688095D01*
X82252380Y-973809D02*
X81252380Y-973809D01*
X81395238Y-878571D01*
X81490476Y-783333D01*
X81538095Y-688095D01*
%TO.C,SW1*%
X79875000Y-14667857D02*
X79789285Y-14696428D01*
X79646428Y-14696428D01*
X79589285Y-14667857D01*
X79560714Y-14639285D01*
X79532142Y-14582142D01*
X79532142Y-14525000D01*
X79560714Y-14467857D01*
X79589285Y-14439285D01*
X79646428Y-14410714D01*
X79760714Y-14382142D01*
X79817857Y-14353571D01*
X79846428Y-14325000D01*
X79875000Y-14267857D01*
X79875000Y-14210714D01*
X79846428Y-14153571D01*
X79817857Y-14125000D01*
X79760714Y-14096428D01*
X79617857Y-14096428D01*
X79532142Y-14125000D01*
X79332142Y-14096428D02*
X79189285Y-14696428D01*
X79075000Y-14267857D01*
X78960714Y-14696428D01*
X78817857Y-14096428D01*
X78275000Y-14696428D02*
X78617857Y-14696428D01*
X78446428Y-14696428D02*
X78446428Y-14096428D01*
X78503571Y-14182142D01*
X78560714Y-14239285D01*
X78617857Y-14267857D01*
%TD*%
M02*
