%TF.GenerationSoftware,KiCad,Pcbnew,5.1.9*%
%TF.CreationDate,2021-01-20T22:59:12+01:00*%
%TF.ProjectId,wi-se-rpi,77692d73-652d-4727-9069-2e6b69636164,v0.1*%
%TF.SameCoordinates,Original*%
%TF.FileFunction,Copper,L3,Inr*%
%TF.FilePolarity,Positive*%
%FSLAX46Y46*%
G04 Gerber Fmt 4.6, Leading zero omitted, Abs format (unit mm)*
G04 Created by KiCad (PCBNEW 5.1.9) date 2021-01-20 22:59:12*
%MOMM*%
%LPD*%
G01*
G04 APERTURE LIST*
%TA.AperFunction,ComponentPad*%
%ADD10R,1.700000X1.700000*%
%TD*%
%TA.AperFunction,ComponentPad*%
%ADD11O,1.700000X1.700000*%
%TD*%
%TA.AperFunction,ViaPad*%
%ADD12C,0.800000*%
%TD*%
%TA.AperFunction,ViaPad*%
%ADD13C,1.000000*%
%TD*%
%TA.AperFunction,ViaPad*%
%ADD14C,0.500000*%
%TD*%
%TA.AperFunction,Conductor*%
%ADD15C,0.254000*%
%TD*%
%TA.AperFunction,Conductor*%
%ADD16C,0.100000*%
%TD*%
G04 APERTURE END LIST*
D10*
%TO.N,Net-(J1-Pad1)*%
%TO.C,J1*%
X90750000Y1750000D03*
D11*
%TO.N,VCC*%
X93290000Y1750000D03*
%TO.N,DTR*%
X90750000Y-790000D03*
%TO.N,GND*%
X93290000Y-790000D03*
%TO.N,RTS*%
X90750000Y-3330000D03*
%TO.N,RXD*%
X93290000Y-3330000D03*
%TO.N,GND*%
X90750000Y-5870000D03*
%TO.N,TXD*%
X93290000Y-5870000D03*
%TD*%
D12*
%TO.N,VCC*%
X86750002Y-550000D03*
D13*
%TO.N,GND*%
X80900000Y-2150000D03*
D12*
X79750000Y-4400000D03*
D13*
X74050000Y1450000D03*
D12*
X75150000Y1450000D03*
X76050000Y1400000D03*
X80856598Y1625742D03*
X86714711Y-2922596D03*
X76340000Y-2440000D03*
D13*
X74225000Y-7000000D03*
X76893958Y-8456042D03*
D12*
X85533828Y-14150000D03*
%TO.N,+3V3*%
X77200000Y-6450000D03*
X77150000Y-10100000D03*
D13*
X74400000Y-500000D03*
D12*
X76800000Y-1500000D03*
X74900000Y-1550000D03*
X75100000Y350000D03*
D14*
X83339712Y-11239712D03*
D12*
X84299989Y-8100000D03*
D13*
X74025000Y-13175000D03*
X75245872Y-12995872D03*
D12*
%TO.N,BOOT0*%
X79700000Y-7750000D03*
X81833867Y-11922064D03*
D14*
%TO.N,RST*%
X75600000Y-5550000D03*
%TO.N,LED_WIFI*%
X86150002Y906318D03*
X80050002Y951787D03*
%TO.N,Net-(D1-Pad1)*%
X89105407Y-322189D03*
%TO.N,Net-(D2-Pad1)*%
X88500000Y-2850000D03*
%TO.N,LED_STATUS*%
X83374265Y343749D03*
X80950000Y350000D03*
D12*
%TO.N,Net-(D3-Pad1)*%
X87800000Y-15375000D03*
D14*
%TO.N,Net-(D4-Pad1)*%
X86923338Y-11912133D03*
%TO.N,LED_RX*%
X84224655Y-11132588D03*
X85650000Y-11184003D03*
D12*
%TO.N,RXD*%
X86100000Y-9434001D03*
D14*
%TO.N,Net-(R10-Pad1)*%
X79469866Y-11318255D03*
%TO.N,Net-(R11-Pad1)*%
X83300000Y-1150000D03*
X82311091Y-1788909D03*
X86742232Y-11235965D03*
%TO.N,Net-(R12-Pad1)*%
X86948447Y-9146861D03*
D12*
%TO.N,Net-(R13-Pad2)*%
X76750000Y-5450000D03*
X79700000Y-10500000D03*
D14*
X80950000Y-11525000D03*
X78907659Y-13607659D03*
X84550000Y-14025000D03*
D12*
%TO.N,FLASH_EN*%
X86600000Y-3915997D03*
%TD*%
D15*
%TO.N,+3V3*%
X88179347Y3356284D02*
X88182752Y3350654D01*
X88212987Y3299043D01*
X88218451Y3291622D01*
X88266612Y3227157D01*
X88306943Y3182932D01*
X88346613Y3138193D01*
X88353414Y3131975D01*
X88413180Y3078093D01*
X88461295Y3042572D01*
X88508933Y3006366D01*
X88516812Y3001587D01*
X88585906Y2960340D01*
X88640006Y2934842D01*
X88693756Y2908583D01*
X88702413Y2905426D01*
X88732081Y2894840D01*
X88746207Y2887290D01*
X88870617Y2849550D01*
X88967581Y2840000D01*
X89309230Y2840000D01*
X89274188Y2724482D01*
X89261928Y2600000D01*
X89261928Y900000D01*
X89274188Y775518D01*
X89310498Y655820D01*
X89369463Y545506D01*
X89393277Y516489D01*
X89363552Y528801D01*
X89192572Y562811D01*
X89018242Y562811D01*
X88847262Y528801D01*
X88686202Y462088D01*
X88541252Y365235D01*
X88417983Y241966D01*
X88321130Y97016D01*
X88254417Y-64044D01*
X88220407Y-235024D01*
X88220407Y-409354D01*
X88254417Y-580334D01*
X88321130Y-741394D01*
X88417983Y-886344D01*
X88541252Y-1009613D01*
X88686202Y-1106466D01*
X88847262Y-1173179D01*
X89018242Y-1207189D01*
X89192572Y-1207189D01*
X89314084Y-1183019D01*
X89322068Y-1223158D01*
X89434010Y-1493411D01*
X89596525Y-1736632D01*
X89803368Y-1943475D01*
X89977760Y-2060000D01*
X89803368Y-2176525D01*
X89596525Y-2383368D01*
X89434010Y-2626589D01*
X89382591Y-2750725D01*
X89350990Y-2591855D01*
X89284277Y-2430795D01*
X89187424Y-2285845D01*
X89064155Y-2162576D01*
X88919205Y-2065723D01*
X88758145Y-1999010D01*
X88587165Y-1965000D01*
X88412835Y-1965000D01*
X88241855Y-1999010D01*
X88080795Y-2065723D01*
X87935845Y-2162576D01*
X87812576Y-2285845D01*
X87715723Y-2430795D01*
X87673500Y-2532731D01*
X87631916Y-2432340D01*
X87518648Y-2262822D01*
X87374485Y-2118659D01*
X87204967Y-2005391D01*
X87016609Y-1927370D01*
X86816650Y-1887596D01*
X86612772Y-1887596D01*
X86412813Y-1927370D01*
X86224455Y-2005391D01*
X86054937Y-2118659D01*
X85910774Y-2262822D01*
X85797506Y-2432340D01*
X85719485Y-2620698D01*
X85679711Y-2820657D01*
X85679711Y-3024535D01*
X85719485Y-3224494D01*
X85756903Y-3314830D01*
X85682795Y-3425741D01*
X85604774Y-3614099D01*
X85565000Y-3814058D01*
X85565000Y-4017936D01*
X85604774Y-4217895D01*
X85682795Y-4406253D01*
X85796063Y-4575771D01*
X85940226Y-4719934D01*
X86109744Y-4833202D01*
X86298102Y-4911223D01*
X86498061Y-4950997D01*
X86701939Y-4950997D01*
X86901898Y-4911223D01*
X87090256Y-4833202D01*
X87259774Y-4719934D01*
X87403937Y-4575771D01*
X87517205Y-4406253D01*
X87595226Y-4217895D01*
X87635000Y-4017936D01*
X87635000Y-3814058D01*
X87595226Y-3614099D01*
X87557808Y-3523763D01*
X87631916Y-3412852D01*
X87703570Y-3239865D01*
X87715723Y-3269205D01*
X87812576Y-3414155D01*
X87935845Y-3537424D01*
X88080795Y-3634277D01*
X88241855Y-3700990D01*
X88412835Y-3735000D01*
X88587165Y-3735000D01*
X88758145Y-3700990D01*
X88919205Y-3634277D01*
X89064155Y-3537424D01*
X89187424Y-3414155D01*
X89265000Y-3298055D01*
X89265000Y-3476260D01*
X89322068Y-3763158D01*
X89434010Y-4033411D01*
X89596525Y-4276632D01*
X89803368Y-4483475D01*
X89977760Y-4600000D01*
X89803368Y-4716525D01*
X89596525Y-4923368D01*
X89434010Y-5166589D01*
X89322068Y-5436842D01*
X89265000Y-5723740D01*
X89265000Y-6016260D01*
X89322068Y-6303158D01*
X89434010Y-6573411D01*
X89596525Y-6816632D01*
X89619893Y-6840000D01*
X89567581Y-6840000D01*
X89539499Y-6842766D01*
X89534943Y-6842734D01*
X89525772Y-6843634D01*
X89380200Y-6858935D01*
X89321617Y-6870961D01*
X89262848Y-6882171D01*
X89254026Y-6884835D01*
X89114197Y-6928119D01*
X89059067Y-6951294D01*
X89003588Y-6973708D01*
X88995451Y-6978035D01*
X88866694Y-7047654D01*
X88817137Y-7081081D01*
X88767047Y-7113858D01*
X88759906Y-7119683D01*
X88647123Y-7212985D01*
X88605001Y-7255402D01*
X88562232Y-7297284D01*
X88556359Y-7304385D01*
X88463846Y-7417816D01*
X88430754Y-7467625D01*
X88396947Y-7516997D01*
X88392564Y-7525103D01*
X88323845Y-7654345D01*
X88301055Y-7709638D01*
X88277483Y-7764636D01*
X88274758Y-7773440D01*
X88232452Y-7913566D01*
X88220836Y-7972232D01*
X88208397Y-8030753D01*
X88207434Y-8039917D01*
X88193150Y-8185594D01*
X88193150Y-8185608D01*
X88190001Y-8217581D01*
X88190000Y-14416267D01*
X88101898Y-14379774D01*
X87901939Y-14340000D01*
X87698061Y-14340000D01*
X87498102Y-14379774D01*
X87309744Y-14457795D01*
X87140226Y-14571063D01*
X86996063Y-14715226D01*
X86882795Y-14884744D01*
X86804774Y-15073102D01*
X86765000Y-15273061D01*
X86765000Y-15340000D01*
X73960000Y-15340000D01*
X73960000Y-13520494D01*
X78022659Y-13520494D01*
X78022659Y-13694824D01*
X78056669Y-13865804D01*
X78123382Y-14026864D01*
X78220235Y-14171814D01*
X78343504Y-14295083D01*
X78488454Y-14391936D01*
X78649514Y-14458649D01*
X78820494Y-14492659D01*
X78994824Y-14492659D01*
X79165804Y-14458649D01*
X79326864Y-14391936D01*
X79471814Y-14295083D01*
X79595083Y-14171814D01*
X79691936Y-14026864D01*
X79728812Y-13937835D01*
X83665000Y-13937835D01*
X83665000Y-14112165D01*
X83699010Y-14283145D01*
X83765723Y-14444205D01*
X83862576Y-14589155D01*
X83985845Y-14712424D01*
X84130795Y-14809277D01*
X84291855Y-14875990D01*
X84462835Y-14910000D01*
X84637165Y-14910000D01*
X84798104Y-14877987D01*
X84874054Y-14953937D01*
X85043572Y-15067205D01*
X85231930Y-15145226D01*
X85431889Y-15185000D01*
X85635767Y-15185000D01*
X85835726Y-15145226D01*
X86024084Y-15067205D01*
X86193602Y-14953937D01*
X86337765Y-14809774D01*
X86451033Y-14640256D01*
X86529054Y-14451898D01*
X86568828Y-14251939D01*
X86568828Y-14048061D01*
X86529054Y-13848102D01*
X86451033Y-13659744D01*
X86337765Y-13490226D01*
X86193602Y-13346063D01*
X86024084Y-13232795D01*
X85835726Y-13154774D01*
X85635767Y-13115000D01*
X85431889Y-13115000D01*
X85231930Y-13154774D01*
X85043572Y-13232795D01*
X85000456Y-13261604D01*
X84969205Y-13240723D01*
X84808145Y-13174010D01*
X84637165Y-13140000D01*
X84462835Y-13140000D01*
X84291855Y-13174010D01*
X84130795Y-13240723D01*
X83985845Y-13337576D01*
X83862576Y-13460845D01*
X83765723Y-13605795D01*
X83699010Y-13766855D01*
X83665000Y-13937835D01*
X79728812Y-13937835D01*
X79758649Y-13865804D01*
X79792659Y-13694824D01*
X79792659Y-13520494D01*
X79758649Y-13349514D01*
X79691936Y-13188454D01*
X79595083Y-13043504D01*
X79471814Y-12920235D01*
X79326864Y-12823382D01*
X79165804Y-12756669D01*
X78994824Y-12722659D01*
X78820494Y-12722659D01*
X78649514Y-12756669D01*
X78488454Y-12823382D01*
X78343504Y-12920235D01*
X78220235Y-13043504D01*
X78123382Y-13188454D01*
X78056669Y-13349514D01*
X78022659Y-13520494D01*
X73960000Y-13520494D01*
X73960000Y-11231090D01*
X78584866Y-11231090D01*
X78584866Y-11405420D01*
X78618876Y-11576400D01*
X78685589Y-11737460D01*
X78782442Y-11882410D01*
X78905711Y-12005679D01*
X79050661Y-12102532D01*
X79211721Y-12169245D01*
X79382701Y-12203255D01*
X79557031Y-12203255D01*
X79728011Y-12169245D01*
X79889071Y-12102532D01*
X80034021Y-12005679D01*
X80145154Y-11894546D01*
X80165723Y-11944205D01*
X80262576Y-12089155D01*
X80385845Y-12212424D01*
X80530795Y-12309277D01*
X80691855Y-12375990D01*
X80862835Y-12410000D01*
X80915701Y-12410000D01*
X80916662Y-12412320D01*
X81029930Y-12581838D01*
X81174093Y-12726001D01*
X81343611Y-12839269D01*
X81531969Y-12917290D01*
X81731928Y-12957064D01*
X81935806Y-12957064D01*
X82135765Y-12917290D01*
X82324123Y-12839269D01*
X82493641Y-12726001D01*
X82637804Y-12581838D01*
X82751072Y-12412320D01*
X82829093Y-12223962D01*
X82868867Y-12024003D01*
X82868867Y-11820125D01*
X82829093Y-11620166D01*
X82751072Y-11431808D01*
X82637804Y-11262290D01*
X82493641Y-11118127D01*
X82384832Y-11045423D01*
X83339655Y-11045423D01*
X83339655Y-11219753D01*
X83373665Y-11390733D01*
X83440378Y-11551793D01*
X83537231Y-11696743D01*
X83660500Y-11820012D01*
X83805450Y-11916865D01*
X83966510Y-11983578D01*
X84137490Y-12017588D01*
X84311820Y-12017588D01*
X84482800Y-11983578D01*
X84643860Y-11916865D01*
X84788810Y-11820012D01*
X84912079Y-11696743D01*
X84920150Y-11684664D01*
X84962576Y-11748158D01*
X85085845Y-11871427D01*
X85230795Y-11968280D01*
X85391855Y-12034993D01*
X85562835Y-12069003D01*
X85737165Y-12069003D01*
X85908145Y-12034993D01*
X86038338Y-11981065D01*
X86038338Y-11999298D01*
X86072348Y-12170278D01*
X86139061Y-12331338D01*
X86235914Y-12476288D01*
X86359183Y-12599557D01*
X86504133Y-12696410D01*
X86665193Y-12763123D01*
X86836173Y-12797133D01*
X87010503Y-12797133D01*
X87181483Y-12763123D01*
X87342543Y-12696410D01*
X87487493Y-12599557D01*
X87610762Y-12476288D01*
X87707615Y-12331338D01*
X87774328Y-12170278D01*
X87808338Y-11999298D01*
X87808338Y-11824968D01*
X87774328Y-11653988D01*
X87707615Y-11492928D01*
X87619645Y-11361272D01*
X87627232Y-11323130D01*
X87627232Y-11148800D01*
X87593222Y-10977820D01*
X87526509Y-10816760D01*
X87429656Y-10671810D01*
X87306387Y-10548541D01*
X87161437Y-10451688D01*
X87000377Y-10384975D01*
X86829397Y-10350965D01*
X86655067Y-10350965D01*
X86531499Y-10375544D01*
X86590256Y-10351206D01*
X86759774Y-10237938D01*
X86903937Y-10093775D01*
X86945307Y-10031861D01*
X87035612Y-10031861D01*
X87206592Y-9997851D01*
X87367652Y-9931138D01*
X87512602Y-9834285D01*
X87635871Y-9711016D01*
X87732724Y-9566066D01*
X87799437Y-9405006D01*
X87833447Y-9234026D01*
X87833447Y-9059696D01*
X87799437Y-8888716D01*
X87732724Y-8727656D01*
X87635871Y-8582706D01*
X87512602Y-8459437D01*
X87367652Y-8362584D01*
X87206592Y-8295871D01*
X87035612Y-8261861D01*
X86861282Y-8261861D01*
X86690302Y-8295871D01*
X86529242Y-8362584D01*
X86410119Y-8442180D01*
X86401898Y-8438775D01*
X86201939Y-8399001D01*
X85998061Y-8399001D01*
X85798102Y-8438775D01*
X85609744Y-8516796D01*
X85440226Y-8630064D01*
X85296063Y-8774227D01*
X85182795Y-8943745D01*
X85104774Y-9132103D01*
X85065000Y-9332062D01*
X85065000Y-9535940D01*
X85104774Y-9735899D01*
X85182795Y-9924257D01*
X85296063Y-10093775D01*
X85440226Y-10237938D01*
X85538778Y-10303788D01*
X85391855Y-10333013D01*
X85230795Y-10399726D01*
X85085845Y-10496579D01*
X84962576Y-10619848D01*
X84954505Y-10631927D01*
X84912079Y-10568433D01*
X84788810Y-10445164D01*
X84643860Y-10348311D01*
X84482800Y-10281598D01*
X84311820Y-10247588D01*
X84137490Y-10247588D01*
X83966510Y-10281598D01*
X83805450Y-10348311D01*
X83660500Y-10445164D01*
X83537231Y-10568433D01*
X83440378Y-10713383D01*
X83373665Y-10874443D01*
X83339655Y-11045423D01*
X82384832Y-11045423D01*
X82324123Y-11004859D01*
X82135765Y-10926838D01*
X81935806Y-10887064D01*
X81731928Y-10887064D01*
X81591563Y-10914984D01*
X81514155Y-10837576D01*
X81369205Y-10740723D01*
X81208145Y-10674010D01*
X81037165Y-10640000D01*
X80862835Y-10640000D01*
X80721851Y-10668043D01*
X80735000Y-10601939D01*
X80735000Y-10398061D01*
X80695226Y-10198102D01*
X80617205Y-10009744D01*
X80503937Y-9840226D01*
X80359774Y-9696063D01*
X80190256Y-9582795D01*
X80001898Y-9504774D01*
X79801939Y-9465000D01*
X79598061Y-9465000D01*
X79398102Y-9504774D01*
X79209744Y-9582795D01*
X79040226Y-9696063D01*
X78896063Y-9840226D01*
X78782795Y-10009744D01*
X78704774Y-10198102D01*
X78665000Y-10398061D01*
X78665000Y-10601939D01*
X78704774Y-10801898D01*
X78722274Y-10844147D01*
X78685589Y-10899050D01*
X78618876Y-11060110D01*
X78584866Y-11231090D01*
X73960000Y-11231090D01*
X73960000Y-8344254D01*
X75758958Y-8344254D01*
X75758958Y-8567830D01*
X75802575Y-8787109D01*
X75888134Y-8993666D01*
X76012346Y-9179562D01*
X76170438Y-9337654D01*
X76356334Y-9461866D01*
X76562891Y-9547425D01*
X76782170Y-9591042D01*
X77005746Y-9591042D01*
X77225025Y-9547425D01*
X77431582Y-9461866D01*
X77617478Y-9337654D01*
X77775570Y-9179562D01*
X77899782Y-8993666D01*
X77985341Y-8787109D01*
X78028958Y-8567830D01*
X78028958Y-8344254D01*
X77985341Y-8124975D01*
X77899782Y-7918418D01*
X77775570Y-7732522D01*
X77691109Y-7648061D01*
X78665000Y-7648061D01*
X78665000Y-7851939D01*
X78704774Y-8051898D01*
X78782795Y-8240256D01*
X78896063Y-8409774D01*
X79040226Y-8553937D01*
X79209744Y-8667205D01*
X79398102Y-8745226D01*
X79598061Y-8785000D01*
X79801939Y-8785000D01*
X80001898Y-8745226D01*
X80190256Y-8667205D01*
X80359774Y-8553937D01*
X80503937Y-8409774D01*
X80617205Y-8240256D01*
X80695226Y-8051898D01*
X80735000Y-7851939D01*
X80735000Y-7648061D01*
X80695226Y-7448102D01*
X80617205Y-7259744D01*
X80503937Y-7090226D01*
X80359774Y-6946063D01*
X80190256Y-6832795D01*
X80001898Y-6754774D01*
X79801939Y-6715000D01*
X79598061Y-6715000D01*
X79398102Y-6754774D01*
X79209744Y-6832795D01*
X79040226Y-6946063D01*
X78896063Y-7090226D01*
X78782795Y-7259744D01*
X78704774Y-7448102D01*
X78665000Y-7648061D01*
X77691109Y-7648061D01*
X77617478Y-7574430D01*
X77431582Y-7450218D01*
X77225025Y-7364659D01*
X77005746Y-7321042D01*
X76782170Y-7321042D01*
X76562891Y-7364659D01*
X76356334Y-7450218D01*
X76170438Y-7574430D01*
X76012346Y-7732522D01*
X75888134Y-7918418D01*
X75802575Y-8124975D01*
X75758958Y-8344254D01*
X73960000Y-8344254D01*
X73960000Y-8104524D01*
X74113212Y-8135000D01*
X74336788Y-8135000D01*
X74556067Y-8091383D01*
X74762624Y-8005824D01*
X74948520Y-7881612D01*
X75106612Y-7723520D01*
X75230824Y-7537624D01*
X75316383Y-7331067D01*
X75360000Y-7111788D01*
X75360000Y-6888212D01*
X75316383Y-6668933D01*
X75230824Y-6462376D01*
X75116546Y-6291347D01*
X75180795Y-6334277D01*
X75341855Y-6400990D01*
X75512835Y-6435000D01*
X75687165Y-6435000D01*
X75858145Y-6400990D01*
X76019205Y-6334277D01*
X76114834Y-6270379D01*
X76259744Y-6367205D01*
X76448102Y-6445226D01*
X76648061Y-6485000D01*
X76851939Y-6485000D01*
X77051898Y-6445226D01*
X77240256Y-6367205D01*
X77409774Y-6253937D01*
X77553937Y-6109774D01*
X77667205Y-5940256D01*
X77745226Y-5751898D01*
X77785000Y-5551939D01*
X77785000Y-5348061D01*
X77745226Y-5148102D01*
X77667205Y-4959744D01*
X77553937Y-4790226D01*
X77409774Y-4646063D01*
X77240256Y-4532795D01*
X77051898Y-4454774D01*
X76851939Y-4415000D01*
X76648061Y-4415000D01*
X76448102Y-4454774D01*
X76259744Y-4532795D01*
X76090226Y-4646063D01*
X75984812Y-4751477D01*
X75858145Y-4699010D01*
X75687165Y-4665000D01*
X75512835Y-4665000D01*
X75341855Y-4699010D01*
X75180795Y-4765723D01*
X75035845Y-4862576D01*
X74912576Y-4985845D01*
X74815723Y-5130795D01*
X74749010Y-5291855D01*
X74715000Y-5462835D01*
X74715000Y-5637165D01*
X74749010Y-5808145D01*
X74815723Y-5969205D01*
X74888694Y-6078414D01*
X74762624Y-5994176D01*
X74556067Y-5908617D01*
X74336788Y-5865000D01*
X74113212Y-5865000D01*
X73960000Y-5895476D01*
X73960000Y-4298061D01*
X78715000Y-4298061D01*
X78715000Y-4501939D01*
X78754774Y-4701898D01*
X78832795Y-4890256D01*
X78946063Y-5059774D01*
X79090226Y-5203937D01*
X79259744Y-5317205D01*
X79448102Y-5395226D01*
X79648061Y-5435000D01*
X79851939Y-5435000D01*
X80051898Y-5395226D01*
X80240256Y-5317205D01*
X80409774Y-5203937D01*
X80553937Y-5059774D01*
X80667205Y-4890256D01*
X80745226Y-4701898D01*
X80785000Y-4501939D01*
X80785000Y-4298061D01*
X80745226Y-4098102D01*
X80667205Y-3909744D01*
X80553937Y-3740226D01*
X80409774Y-3596063D01*
X80240256Y-3482795D01*
X80051898Y-3404774D01*
X79851939Y-3365000D01*
X79648061Y-3365000D01*
X79448102Y-3404774D01*
X79259744Y-3482795D01*
X79090226Y-3596063D01*
X78946063Y-3740226D01*
X78832795Y-3909744D01*
X78754774Y-4098102D01*
X78715000Y-4298061D01*
X73960000Y-4298061D01*
X73960000Y-2338061D01*
X75305000Y-2338061D01*
X75305000Y-2541939D01*
X75344774Y-2741898D01*
X75422795Y-2930256D01*
X75536063Y-3099774D01*
X75680226Y-3243937D01*
X75849744Y-3357205D01*
X76038102Y-3435226D01*
X76238061Y-3475000D01*
X76441939Y-3475000D01*
X76641898Y-3435226D01*
X76830256Y-3357205D01*
X76999774Y-3243937D01*
X77143937Y-3099774D01*
X77257205Y-2930256D01*
X77335226Y-2741898D01*
X77375000Y-2541939D01*
X77375000Y-2338061D01*
X77335226Y-2138102D01*
X77293850Y-2038212D01*
X79765000Y-2038212D01*
X79765000Y-2261788D01*
X79808617Y-2481067D01*
X79894176Y-2687624D01*
X80018388Y-2873520D01*
X80176480Y-3031612D01*
X80362376Y-3155824D01*
X80568933Y-3241383D01*
X80788212Y-3285000D01*
X81011788Y-3285000D01*
X81231067Y-3241383D01*
X81437624Y-3155824D01*
X81623520Y-3031612D01*
X81781612Y-2873520D01*
X81905824Y-2687624D01*
X81944243Y-2594873D01*
X82052946Y-2639899D01*
X82223926Y-2673909D01*
X82398256Y-2673909D01*
X82569236Y-2639899D01*
X82730296Y-2573186D01*
X82875246Y-2476333D01*
X82998515Y-2353064D01*
X83095368Y-2208114D01*
X83162081Y-2047054D01*
X83166319Y-2025747D01*
X83212835Y-2035000D01*
X83387165Y-2035000D01*
X83558145Y-2000990D01*
X83719205Y-1934277D01*
X83864155Y-1837424D01*
X83987424Y-1714155D01*
X84084277Y-1569205D01*
X84150990Y-1408145D01*
X84185000Y-1237165D01*
X84185000Y-1062835D01*
X84150990Y-891855D01*
X84084277Y-730795D01*
X83987424Y-585845D01*
X83864155Y-462576D01*
X83812314Y-427937D01*
X83938420Y-343675D01*
X84061689Y-220406D01*
X84158542Y-75456D01*
X84225255Y85604D01*
X84259265Y256584D01*
X84259265Y430914D01*
X84225255Y601894D01*
X84158542Y762954D01*
X84061689Y907904D01*
X83976110Y993483D01*
X85265002Y993483D01*
X85265002Y819153D01*
X85299012Y648173D01*
X85365725Y487113D01*
X85462578Y342163D01*
X85585847Y218894D01*
X85730797Y122041D01*
X85891857Y55328D01*
X85907594Y52198D01*
X85832797Y-59744D01*
X85754776Y-248102D01*
X85715002Y-448061D01*
X85715002Y-651939D01*
X85754776Y-851898D01*
X85832797Y-1040256D01*
X85946065Y-1209774D01*
X86090228Y-1353937D01*
X86259746Y-1467205D01*
X86448104Y-1545226D01*
X86648063Y-1585000D01*
X86851941Y-1585000D01*
X87051900Y-1545226D01*
X87240258Y-1467205D01*
X87409776Y-1353937D01*
X87553939Y-1209774D01*
X87667207Y-1040256D01*
X87745228Y-851898D01*
X87785002Y-651939D01*
X87785002Y-448061D01*
X87745228Y-248102D01*
X87667207Y-59744D01*
X87553939Y109774D01*
X87409776Y253937D01*
X87240258Y367205D01*
X87051900Y445226D01*
X86923373Y470791D01*
X86934279Y487113D01*
X87000992Y648173D01*
X87035002Y819153D01*
X87035002Y993483D01*
X87000992Y1164463D01*
X86934279Y1325523D01*
X86837426Y1470473D01*
X86714157Y1593742D01*
X86569207Y1690595D01*
X86408147Y1757308D01*
X86237167Y1791318D01*
X86062837Y1791318D01*
X85891857Y1757308D01*
X85730797Y1690595D01*
X85585847Y1593742D01*
X85462578Y1470473D01*
X85365725Y1325523D01*
X85299012Y1164463D01*
X85265002Y993483D01*
X83976110Y993483D01*
X83938420Y1031173D01*
X83793470Y1128026D01*
X83632410Y1194739D01*
X83461430Y1228749D01*
X83287100Y1228749D01*
X83116120Y1194739D01*
X82955060Y1128026D01*
X82810110Y1031173D01*
X82686841Y907904D01*
X82589988Y762954D01*
X82523275Y601894D01*
X82489265Y430914D01*
X82489265Y256584D01*
X82523275Y85604D01*
X82589988Y-75456D01*
X82686841Y-220406D01*
X82810110Y-343675D01*
X82861951Y-378314D01*
X82735845Y-462576D01*
X82612576Y-585845D01*
X82515723Y-730795D01*
X82449010Y-891855D01*
X82444772Y-913162D01*
X82398256Y-903909D01*
X82223926Y-903909D01*
X82052946Y-937919D01*
X81891886Y-1004632D01*
X81746936Y-1101485D01*
X81623667Y-1224754D01*
X81603465Y-1254988D01*
X81437624Y-1144176D01*
X81231067Y-1058617D01*
X81011788Y-1015000D01*
X80788212Y-1015000D01*
X80568933Y-1058617D01*
X80362376Y-1144176D01*
X80176480Y-1268388D01*
X80018388Y-1426480D01*
X79894176Y-1612376D01*
X79808617Y-1818933D01*
X79765000Y-2038212D01*
X77293850Y-2038212D01*
X77257205Y-1949744D01*
X77143937Y-1780226D01*
X76999774Y-1636063D01*
X76830256Y-1522795D01*
X76641898Y-1444774D01*
X76441939Y-1405000D01*
X76238061Y-1405000D01*
X76038102Y-1444774D01*
X75849744Y-1522795D01*
X75680226Y-1636063D01*
X75536063Y-1780226D01*
X75422795Y-1949744D01*
X75344774Y-2138102D01*
X75305000Y-2338061D01*
X73960000Y-2338061D01*
X73960000Y315000D01*
X74161788Y315000D01*
X74381067Y358617D01*
X74587624Y444176D01*
X74697096Y517323D01*
X74848102Y454774D01*
X75048061Y415000D01*
X75251939Y415000D01*
X75451898Y454774D01*
X75544361Y493074D01*
X75559744Y482795D01*
X75748102Y404774D01*
X75948061Y365000D01*
X76151939Y365000D01*
X76351898Y404774D01*
X76540256Y482795D01*
X76709774Y596063D01*
X76853937Y740226D01*
X76967205Y909744D01*
X77020725Y1038952D01*
X79165002Y1038952D01*
X79165002Y864622D01*
X79199012Y693642D01*
X79265725Y532582D01*
X79362578Y387632D01*
X79485847Y264363D01*
X79630797Y167510D01*
X79791857Y100797D01*
X79962837Y66787D01*
X80109393Y66787D01*
X80165723Y-69205D01*
X80262576Y-214155D01*
X80385845Y-337424D01*
X80530795Y-434277D01*
X80691855Y-500990D01*
X80862835Y-535000D01*
X81037165Y-535000D01*
X81208145Y-500990D01*
X81369205Y-434277D01*
X81514155Y-337424D01*
X81637424Y-214155D01*
X81734277Y-69205D01*
X81800990Y91855D01*
X81835000Y262835D01*
X81835000Y437165D01*
X81800990Y608145D01*
X81734277Y769205D01*
X81637424Y914155D01*
X81623073Y928506D01*
X81660535Y965968D01*
X81773803Y1135486D01*
X81851824Y1323844D01*
X81891598Y1523803D01*
X81891598Y1727681D01*
X81851824Y1927640D01*
X81773803Y2115998D01*
X81660535Y2285516D01*
X81516372Y2429679D01*
X81346854Y2542947D01*
X81158496Y2620968D01*
X80958537Y2660742D01*
X80754659Y2660742D01*
X80554700Y2620968D01*
X80366342Y2542947D01*
X80196824Y2429679D01*
X80052661Y2285516D01*
X79939393Y2115998D01*
X79861372Y1927640D01*
X79838376Y1812030D01*
X79791857Y1802777D01*
X79630797Y1736064D01*
X79485847Y1639211D01*
X79362578Y1515942D01*
X79265725Y1370992D01*
X79199012Y1209932D01*
X79165002Y1038952D01*
X77020725Y1038952D01*
X77045226Y1098102D01*
X77085000Y1298061D01*
X77085000Y1501939D01*
X77045226Y1701898D01*
X76967205Y1890256D01*
X76853937Y2059774D01*
X76709774Y2203937D01*
X76540256Y2317205D01*
X76351898Y2395226D01*
X76151939Y2435000D01*
X75948061Y2435000D01*
X75748102Y2395226D01*
X75655639Y2356926D01*
X75640256Y2367205D01*
X75451898Y2445226D01*
X75251939Y2485000D01*
X75048061Y2485000D01*
X74848102Y2445226D01*
X74697096Y2382677D01*
X74587624Y2455824D01*
X74381067Y2541383D01*
X74161788Y2585000D01*
X73960000Y2585000D01*
X73960000Y3359959D01*
X88179347Y3356284D01*
%TA.AperFunction,Conductor*%
D16*
G36*
X88179347Y3356284D02*
G01*
X88182752Y3350654D01*
X88212987Y3299043D01*
X88218451Y3291622D01*
X88266612Y3227157D01*
X88306943Y3182932D01*
X88346613Y3138193D01*
X88353414Y3131975D01*
X88413180Y3078093D01*
X88461295Y3042572D01*
X88508933Y3006366D01*
X88516812Y3001587D01*
X88585906Y2960340D01*
X88640006Y2934842D01*
X88693756Y2908583D01*
X88702413Y2905426D01*
X88732081Y2894840D01*
X88746207Y2887290D01*
X88870617Y2849550D01*
X88967581Y2840000D01*
X89309230Y2840000D01*
X89274188Y2724482D01*
X89261928Y2600000D01*
X89261928Y900000D01*
X89274188Y775518D01*
X89310498Y655820D01*
X89369463Y545506D01*
X89393277Y516489D01*
X89363552Y528801D01*
X89192572Y562811D01*
X89018242Y562811D01*
X88847262Y528801D01*
X88686202Y462088D01*
X88541252Y365235D01*
X88417983Y241966D01*
X88321130Y97016D01*
X88254417Y-64044D01*
X88220407Y-235024D01*
X88220407Y-409354D01*
X88254417Y-580334D01*
X88321130Y-741394D01*
X88417983Y-886344D01*
X88541252Y-1009613D01*
X88686202Y-1106466D01*
X88847262Y-1173179D01*
X89018242Y-1207189D01*
X89192572Y-1207189D01*
X89314084Y-1183019D01*
X89322068Y-1223158D01*
X89434010Y-1493411D01*
X89596525Y-1736632D01*
X89803368Y-1943475D01*
X89977760Y-2060000D01*
X89803368Y-2176525D01*
X89596525Y-2383368D01*
X89434010Y-2626589D01*
X89382591Y-2750725D01*
X89350990Y-2591855D01*
X89284277Y-2430795D01*
X89187424Y-2285845D01*
X89064155Y-2162576D01*
X88919205Y-2065723D01*
X88758145Y-1999010D01*
X88587165Y-1965000D01*
X88412835Y-1965000D01*
X88241855Y-1999010D01*
X88080795Y-2065723D01*
X87935845Y-2162576D01*
X87812576Y-2285845D01*
X87715723Y-2430795D01*
X87673500Y-2532731D01*
X87631916Y-2432340D01*
X87518648Y-2262822D01*
X87374485Y-2118659D01*
X87204967Y-2005391D01*
X87016609Y-1927370D01*
X86816650Y-1887596D01*
X86612772Y-1887596D01*
X86412813Y-1927370D01*
X86224455Y-2005391D01*
X86054937Y-2118659D01*
X85910774Y-2262822D01*
X85797506Y-2432340D01*
X85719485Y-2620698D01*
X85679711Y-2820657D01*
X85679711Y-3024535D01*
X85719485Y-3224494D01*
X85756903Y-3314830D01*
X85682795Y-3425741D01*
X85604774Y-3614099D01*
X85565000Y-3814058D01*
X85565000Y-4017936D01*
X85604774Y-4217895D01*
X85682795Y-4406253D01*
X85796063Y-4575771D01*
X85940226Y-4719934D01*
X86109744Y-4833202D01*
X86298102Y-4911223D01*
X86498061Y-4950997D01*
X86701939Y-4950997D01*
X86901898Y-4911223D01*
X87090256Y-4833202D01*
X87259774Y-4719934D01*
X87403937Y-4575771D01*
X87517205Y-4406253D01*
X87595226Y-4217895D01*
X87635000Y-4017936D01*
X87635000Y-3814058D01*
X87595226Y-3614099D01*
X87557808Y-3523763D01*
X87631916Y-3412852D01*
X87703570Y-3239865D01*
X87715723Y-3269205D01*
X87812576Y-3414155D01*
X87935845Y-3537424D01*
X88080795Y-3634277D01*
X88241855Y-3700990D01*
X88412835Y-3735000D01*
X88587165Y-3735000D01*
X88758145Y-3700990D01*
X88919205Y-3634277D01*
X89064155Y-3537424D01*
X89187424Y-3414155D01*
X89265000Y-3298055D01*
X89265000Y-3476260D01*
X89322068Y-3763158D01*
X89434010Y-4033411D01*
X89596525Y-4276632D01*
X89803368Y-4483475D01*
X89977760Y-4600000D01*
X89803368Y-4716525D01*
X89596525Y-4923368D01*
X89434010Y-5166589D01*
X89322068Y-5436842D01*
X89265000Y-5723740D01*
X89265000Y-6016260D01*
X89322068Y-6303158D01*
X89434010Y-6573411D01*
X89596525Y-6816632D01*
X89619893Y-6840000D01*
X89567581Y-6840000D01*
X89539499Y-6842766D01*
X89534943Y-6842734D01*
X89525772Y-6843634D01*
X89380200Y-6858935D01*
X89321617Y-6870961D01*
X89262848Y-6882171D01*
X89254026Y-6884835D01*
X89114197Y-6928119D01*
X89059067Y-6951294D01*
X89003588Y-6973708D01*
X88995451Y-6978035D01*
X88866694Y-7047654D01*
X88817137Y-7081081D01*
X88767047Y-7113858D01*
X88759906Y-7119683D01*
X88647123Y-7212985D01*
X88605001Y-7255402D01*
X88562232Y-7297284D01*
X88556359Y-7304385D01*
X88463846Y-7417816D01*
X88430754Y-7467625D01*
X88396947Y-7516997D01*
X88392564Y-7525103D01*
X88323845Y-7654345D01*
X88301055Y-7709638D01*
X88277483Y-7764636D01*
X88274758Y-7773440D01*
X88232452Y-7913566D01*
X88220836Y-7972232D01*
X88208397Y-8030753D01*
X88207434Y-8039917D01*
X88193150Y-8185594D01*
X88193150Y-8185608D01*
X88190001Y-8217581D01*
X88190000Y-14416267D01*
X88101898Y-14379774D01*
X87901939Y-14340000D01*
X87698061Y-14340000D01*
X87498102Y-14379774D01*
X87309744Y-14457795D01*
X87140226Y-14571063D01*
X86996063Y-14715226D01*
X86882795Y-14884744D01*
X86804774Y-15073102D01*
X86765000Y-15273061D01*
X86765000Y-15340000D01*
X73960000Y-15340000D01*
X73960000Y-13520494D01*
X78022659Y-13520494D01*
X78022659Y-13694824D01*
X78056669Y-13865804D01*
X78123382Y-14026864D01*
X78220235Y-14171814D01*
X78343504Y-14295083D01*
X78488454Y-14391936D01*
X78649514Y-14458649D01*
X78820494Y-14492659D01*
X78994824Y-14492659D01*
X79165804Y-14458649D01*
X79326864Y-14391936D01*
X79471814Y-14295083D01*
X79595083Y-14171814D01*
X79691936Y-14026864D01*
X79728812Y-13937835D01*
X83665000Y-13937835D01*
X83665000Y-14112165D01*
X83699010Y-14283145D01*
X83765723Y-14444205D01*
X83862576Y-14589155D01*
X83985845Y-14712424D01*
X84130795Y-14809277D01*
X84291855Y-14875990D01*
X84462835Y-14910000D01*
X84637165Y-14910000D01*
X84798104Y-14877987D01*
X84874054Y-14953937D01*
X85043572Y-15067205D01*
X85231930Y-15145226D01*
X85431889Y-15185000D01*
X85635767Y-15185000D01*
X85835726Y-15145226D01*
X86024084Y-15067205D01*
X86193602Y-14953937D01*
X86337765Y-14809774D01*
X86451033Y-14640256D01*
X86529054Y-14451898D01*
X86568828Y-14251939D01*
X86568828Y-14048061D01*
X86529054Y-13848102D01*
X86451033Y-13659744D01*
X86337765Y-13490226D01*
X86193602Y-13346063D01*
X86024084Y-13232795D01*
X85835726Y-13154774D01*
X85635767Y-13115000D01*
X85431889Y-13115000D01*
X85231930Y-13154774D01*
X85043572Y-13232795D01*
X85000456Y-13261604D01*
X84969205Y-13240723D01*
X84808145Y-13174010D01*
X84637165Y-13140000D01*
X84462835Y-13140000D01*
X84291855Y-13174010D01*
X84130795Y-13240723D01*
X83985845Y-13337576D01*
X83862576Y-13460845D01*
X83765723Y-13605795D01*
X83699010Y-13766855D01*
X83665000Y-13937835D01*
X79728812Y-13937835D01*
X79758649Y-13865804D01*
X79792659Y-13694824D01*
X79792659Y-13520494D01*
X79758649Y-13349514D01*
X79691936Y-13188454D01*
X79595083Y-13043504D01*
X79471814Y-12920235D01*
X79326864Y-12823382D01*
X79165804Y-12756669D01*
X78994824Y-12722659D01*
X78820494Y-12722659D01*
X78649514Y-12756669D01*
X78488454Y-12823382D01*
X78343504Y-12920235D01*
X78220235Y-13043504D01*
X78123382Y-13188454D01*
X78056669Y-13349514D01*
X78022659Y-13520494D01*
X73960000Y-13520494D01*
X73960000Y-11231090D01*
X78584866Y-11231090D01*
X78584866Y-11405420D01*
X78618876Y-11576400D01*
X78685589Y-11737460D01*
X78782442Y-11882410D01*
X78905711Y-12005679D01*
X79050661Y-12102532D01*
X79211721Y-12169245D01*
X79382701Y-12203255D01*
X79557031Y-12203255D01*
X79728011Y-12169245D01*
X79889071Y-12102532D01*
X80034021Y-12005679D01*
X80145154Y-11894546D01*
X80165723Y-11944205D01*
X80262576Y-12089155D01*
X80385845Y-12212424D01*
X80530795Y-12309277D01*
X80691855Y-12375990D01*
X80862835Y-12410000D01*
X80915701Y-12410000D01*
X80916662Y-12412320D01*
X81029930Y-12581838D01*
X81174093Y-12726001D01*
X81343611Y-12839269D01*
X81531969Y-12917290D01*
X81731928Y-12957064D01*
X81935806Y-12957064D01*
X82135765Y-12917290D01*
X82324123Y-12839269D01*
X82493641Y-12726001D01*
X82637804Y-12581838D01*
X82751072Y-12412320D01*
X82829093Y-12223962D01*
X82868867Y-12024003D01*
X82868867Y-11820125D01*
X82829093Y-11620166D01*
X82751072Y-11431808D01*
X82637804Y-11262290D01*
X82493641Y-11118127D01*
X82384832Y-11045423D01*
X83339655Y-11045423D01*
X83339655Y-11219753D01*
X83373665Y-11390733D01*
X83440378Y-11551793D01*
X83537231Y-11696743D01*
X83660500Y-11820012D01*
X83805450Y-11916865D01*
X83966510Y-11983578D01*
X84137490Y-12017588D01*
X84311820Y-12017588D01*
X84482800Y-11983578D01*
X84643860Y-11916865D01*
X84788810Y-11820012D01*
X84912079Y-11696743D01*
X84920150Y-11684664D01*
X84962576Y-11748158D01*
X85085845Y-11871427D01*
X85230795Y-11968280D01*
X85391855Y-12034993D01*
X85562835Y-12069003D01*
X85737165Y-12069003D01*
X85908145Y-12034993D01*
X86038338Y-11981065D01*
X86038338Y-11999298D01*
X86072348Y-12170278D01*
X86139061Y-12331338D01*
X86235914Y-12476288D01*
X86359183Y-12599557D01*
X86504133Y-12696410D01*
X86665193Y-12763123D01*
X86836173Y-12797133D01*
X87010503Y-12797133D01*
X87181483Y-12763123D01*
X87342543Y-12696410D01*
X87487493Y-12599557D01*
X87610762Y-12476288D01*
X87707615Y-12331338D01*
X87774328Y-12170278D01*
X87808338Y-11999298D01*
X87808338Y-11824968D01*
X87774328Y-11653988D01*
X87707615Y-11492928D01*
X87619645Y-11361272D01*
X87627232Y-11323130D01*
X87627232Y-11148800D01*
X87593222Y-10977820D01*
X87526509Y-10816760D01*
X87429656Y-10671810D01*
X87306387Y-10548541D01*
X87161437Y-10451688D01*
X87000377Y-10384975D01*
X86829397Y-10350965D01*
X86655067Y-10350965D01*
X86531499Y-10375544D01*
X86590256Y-10351206D01*
X86759774Y-10237938D01*
X86903937Y-10093775D01*
X86945307Y-10031861D01*
X87035612Y-10031861D01*
X87206592Y-9997851D01*
X87367652Y-9931138D01*
X87512602Y-9834285D01*
X87635871Y-9711016D01*
X87732724Y-9566066D01*
X87799437Y-9405006D01*
X87833447Y-9234026D01*
X87833447Y-9059696D01*
X87799437Y-8888716D01*
X87732724Y-8727656D01*
X87635871Y-8582706D01*
X87512602Y-8459437D01*
X87367652Y-8362584D01*
X87206592Y-8295871D01*
X87035612Y-8261861D01*
X86861282Y-8261861D01*
X86690302Y-8295871D01*
X86529242Y-8362584D01*
X86410119Y-8442180D01*
X86401898Y-8438775D01*
X86201939Y-8399001D01*
X85998061Y-8399001D01*
X85798102Y-8438775D01*
X85609744Y-8516796D01*
X85440226Y-8630064D01*
X85296063Y-8774227D01*
X85182795Y-8943745D01*
X85104774Y-9132103D01*
X85065000Y-9332062D01*
X85065000Y-9535940D01*
X85104774Y-9735899D01*
X85182795Y-9924257D01*
X85296063Y-10093775D01*
X85440226Y-10237938D01*
X85538778Y-10303788D01*
X85391855Y-10333013D01*
X85230795Y-10399726D01*
X85085845Y-10496579D01*
X84962576Y-10619848D01*
X84954505Y-10631927D01*
X84912079Y-10568433D01*
X84788810Y-10445164D01*
X84643860Y-10348311D01*
X84482800Y-10281598D01*
X84311820Y-10247588D01*
X84137490Y-10247588D01*
X83966510Y-10281598D01*
X83805450Y-10348311D01*
X83660500Y-10445164D01*
X83537231Y-10568433D01*
X83440378Y-10713383D01*
X83373665Y-10874443D01*
X83339655Y-11045423D01*
X82384832Y-11045423D01*
X82324123Y-11004859D01*
X82135765Y-10926838D01*
X81935806Y-10887064D01*
X81731928Y-10887064D01*
X81591563Y-10914984D01*
X81514155Y-10837576D01*
X81369205Y-10740723D01*
X81208145Y-10674010D01*
X81037165Y-10640000D01*
X80862835Y-10640000D01*
X80721851Y-10668043D01*
X80735000Y-10601939D01*
X80735000Y-10398061D01*
X80695226Y-10198102D01*
X80617205Y-10009744D01*
X80503937Y-9840226D01*
X80359774Y-9696063D01*
X80190256Y-9582795D01*
X80001898Y-9504774D01*
X79801939Y-9465000D01*
X79598061Y-9465000D01*
X79398102Y-9504774D01*
X79209744Y-9582795D01*
X79040226Y-9696063D01*
X78896063Y-9840226D01*
X78782795Y-10009744D01*
X78704774Y-10198102D01*
X78665000Y-10398061D01*
X78665000Y-10601939D01*
X78704774Y-10801898D01*
X78722274Y-10844147D01*
X78685589Y-10899050D01*
X78618876Y-11060110D01*
X78584866Y-11231090D01*
X73960000Y-11231090D01*
X73960000Y-8344254D01*
X75758958Y-8344254D01*
X75758958Y-8567830D01*
X75802575Y-8787109D01*
X75888134Y-8993666D01*
X76012346Y-9179562D01*
X76170438Y-9337654D01*
X76356334Y-9461866D01*
X76562891Y-9547425D01*
X76782170Y-9591042D01*
X77005746Y-9591042D01*
X77225025Y-9547425D01*
X77431582Y-9461866D01*
X77617478Y-9337654D01*
X77775570Y-9179562D01*
X77899782Y-8993666D01*
X77985341Y-8787109D01*
X78028958Y-8567830D01*
X78028958Y-8344254D01*
X77985341Y-8124975D01*
X77899782Y-7918418D01*
X77775570Y-7732522D01*
X77691109Y-7648061D01*
X78665000Y-7648061D01*
X78665000Y-7851939D01*
X78704774Y-8051898D01*
X78782795Y-8240256D01*
X78896063Y-8409774D01*
X79040226Y-8553937D01*
X79209744Y-8667205D01*
X79398102Y-8745226D01*
X79598061Y-8785000D01*
X79801939Y-8785000D01*
X80001898Y-8745226D01*
X80190256Y-8667205D01*
X80359774Y-8553937D01*
X80503937Y-8409774D01*
X80617205Y-8240256D01*
X80695226Y-8051898D01*
X80735000Y-7851939D01*
X80735000Y-7648061D01*
X80695226Y-7448102D01*
X80617205Y-7259744D01*
X80503937Y-7090226D01*
X80359774Y-6946063D01*
X80190256Y-6832795D01*
X80001898Y-6754774D01*
X79801939Y-6715000D01*
X79598061Y-6715000D01*
X79398102Y-6754774D01*
X79209744Y-6832795D01*
X79040226Y-6946063D01*
X78896063Y-7090226D01*
X78782795Y-7259744D01*
X78704774Y-7448102D01*
X78665000Y-7648061D01*
X77691109Y-7648061D01*
X77617478Y-7574430D01*
X77431582Y-7450218D01*
X77225025Y-7364659D01*
X77005746Y-7321042D01*
X76782170Y-7321042D01*
X76562891Y-7364659D01*
X76356334Y-7450218D01*
X76170438Y-7574430D01*
X76012346Y-7732522D01*
X75888134Y-7918418D01*
X75802575Y-8124975D01*
X75758958Y-8344254D01*
X73960000Y-8344254D01*
X73960000Y-8104524D01*
X74113212Y-8135000D01*
X74336788Y-8135000D01*
X74556067Y-8091383D01*
X74762624Y-8005824D01*
X74948520Y-7881612D01*
X75106612Y-7723520D01*
X75230824Y-7537624D01*
X75316383Y-7331067D01*
X75360000Y-7111788D01*
X75360000Y-6888212D01*
X75316383Y-6668933D01*
X75230824Y-6462376D01*
X75116546Y-6291347D01*
X75180795Y-6334277D01*
X75341855Y-6400990D01*
X75512835Y-6435000D01*
X75687165Y-6435000D01*
X75858145Y-6400990D01*
X76019205Y-6334277D01*
X76114834Y-6270379D01*
X76259744Y-6367205D01*
X76448102Y-6445226D01*
X76648061Y-6485000D01*
X76851939Y-6485000D01*
X77051898Y-6445226D01*
X77240256Y-6367205D01*
X77409774Y-6253937D01*
X77553937Y-6109774D01*
X77667205Y-5940256D01*
X77745226Y-5751898D01*
X77785000Y-5551939D01*
X77785000Y-5348061D01*
X77745226Y-5148102D01*
X77667205Y-4959744D01*
X77553937Y-4790226D01*
X77409774Y-4646063D01*
X77240256Y-4532795D01*
X77051898Y-4454774D01*
X76851939Y-4415000D01*
X76648061Y-4415000D01*
X76448102Y-4454774D01*
X76259744Y-4532795D01*
X76090226Y-4646063D01*
X75984812Y-4751477D01*
X75858145Y-4699010D01*
X75687165Y-4665000D01*
X75512835Y-4665000D01*
X75341855Y-4699010D01*
X75180795Y-4765723D01*
X75035845Y-4862576D01*
X74912576Y-4985845D01*
X74815723Y-5130795D01*
X74749010Y-5291855D01*
X74715000Y-5462835D01*
X74715000Y-5637165D01*
X74749010Y-5808145D01*
X74815723Y-5969205D01*
X74888694Y-6078414D01*
X74762624Y-5994176D01*
X74556067Y-5908617D01*
X74336788Y-5865000D01*
X74113212Y-5865000D01*
X73960000Y-5895476D01*
X73960000Y-4298061D01*
X78715000Y-4298061D01*
X78715000Y-4501939D01*
X78754774Y-4701898D01*
X78832795Y-4890256D01*
X78946063Y-5059774D01*
X79090226Y-5203937D01*
X79259744Y-5317205D01*
X79448102Y-5395226D01*
X79648061Y-5435000D01*
X79851939Y-5435000D01*
X80051898Y-5395226D01*
X80240256Y-5317205D01*
X80409774Y-5203937D01*
X80553937Y-5059774D01*
X80667205Y-4890256D01*
X80745226Y-4701898D01*
X80785000Y-4501939D01*
X80785000Y-4298061D01*
X80745226Y-4098102D01*
X80667205Y-3909744D01*
X80553937Y-3740226D01*
X80409774Y-3596063D01*
X80240256Y-3482795D01*
X80051898Y-3404774D01*
X79851939Y-3365000D01*
X79648061Y-3365000D01*
X79448102Y-3404774D01*
X79259744Y-3482795D01*
X79090226Y-3596063D01*
X78946063Y-3740226D01*
X78832795Y-3909744D01*
X78754774Y-4098102D01*
X78715000Y-4298061D01*
X73960000Y-4298061D01*
X73960000Y-2338061D01*
X75305000Y-2338061D01*
X75305000Y-2541939D01*
X75344774Y-2741898D01*
X75422795Y-2930256D01*
X75536063Y-3099774D01*
X75680226Y-3243937D01*
X75849744Y-3357205D01*
X76038102Y-3435226D01*
X76238061Y-3475000D01*
X76441939Y-3475000D01*
X76641898Y-3435226D01*
X76830256Y-3357205D01*
X76999774Y-3243937D01*
X77143937Y-3099774D01*
X77257205Y-2930256D01*
X77335226Y-2741898D01*
X77375000Y-2541939D01*
X77375000Y-2338061D01*
X77335226Y-2138102D01*
X77293850Y-2038212D01*
X79765000Y-2038212D01*
X79765000Y-2261788D01*
X79808617Y-2481067D01*
X79894176Y-2687624D01*
X80018388Y-2873520D01*
X80176480Y-3031612D01*
X80362376Y-3155824D01*
X80568933Y-3241383D01*
X80788212Y-3285000D01*
X81011788Y-3285000D01*
X81231067Y-3241383D01*
X81437624Y-3155824D01*
X81623520Y-3031612D01*
X81781612Y-2873520D01*
X81905824Y-2687624D01*
X81944243Y-2594873D01*
X82052946Y-2639899D01*
X82223926Y-2673909D01*
X82398256Y-2673909D01*
X82569236Y-2639899D01*
X82730296Y-2573186D01*
X82875246Y-2476333D01*
X82998515Y-2353064D01*
X83095368Y-2208114D01*
X83162081Y-2047054D01*
X83166319Y-2025747D01*
X83212835Y-2035000D01*
X83387165Y-2035000D01*
X83558145Y-2000990D01*
X83719205Y-1934277D01*
X83864155Y-1837424D01*
X83987424Y-1714155D01*
X84084277Y-1569205D01*
X84150990Y-1408145D01*
X84185000Y-1237165D01*
X84185000Y-1062835D01*
X84150990Y-891855D01*
X84084277Y-730795D01*
X83987424Y-585845D01*
X83864155Y-462576D01*
X83812314Y-427937D01*
X83938420Y-343675D01*
X84061689Y-220406D01*
X84158542Y-75456D01*
X84225255Y85604D01*
X84259265Y256584D01*
X84259265Y430914D01*
X84225255Y601894D01*
X84158542Y762954D01*
X84061689Y907904D01*
X83976110Y993483D01*
X85265002Y993483D01*
X85265002Y819153D01*
X85299012Y648173D01*
X85365725Y487113D01*
X85462578Y342163D01*
X85585847Y218894D01*
X85730797Y122041D01*
X85891857Y55328D01*
X85907594Y52198D01*
X85832797Y-59744D01*
X85754776Y-248102D01*
X85715002Y-448061D01*
X85715002Y-651939D01*
X85754776Y-851898D01*
X85832797Y-1040256D01*
X85946065Y-1209774D01*
X86090228Y-1353937D01*
X86259746Y-1467205D01*
X86448104Y-1545226D01*
X86648063Y-1585000D01*
X86851941Y-1585000D01*
X87051900Y-1545226D01*
X87240258Y-1467205D01*
X87409776Y-1353937D01*
X87553939Y-1209774D01*
X87667207Y-1040256D01*
X87745228Y-851898D01*
X87785002Y-651939D01*
X87785002Y-448061D01*
X87745228Y-248102D01*
X87667207Y-59744D01*
X87553939Y109774D01*
X87409776Y253937D01*
X87240258Y367205D01*
X87051900Y445226D01*
X86923373Y470791D01*
X86934279Y487113D01*
X87000992Y648173D01*
X87035002Y819153D01*
X87035002Y993483D01*
X87000992Y1164463D01*
X86934279Y1325523D01*
X86837426Y1470473D01*
X86714157Y1593742D01*
X86569207Y1690595D01*
X86408147Y1757308D01*
X86237167Y1791318D01*
X86062837Y1791318D01*
X85891857Y1757308D01*
X85730797Y1690595D01*
X85585847Y1593742D01*
X85462578Y1470473D01*
X85365725Y1325523D01*
X85299012Y1164463D01*
X85265002Y993483D01*
X83976110Y993483D01*
X83938420Y1031173D01*
X83793470Y1128026D01*
X83632410Y1194739D01*
X83461430Y1228749D01*
X83287100Y1228749D01*
X83116120Y1194739D01*
X82955060Y1128026D01*
X82810110Y1031173D01*
X82686841Y907904D01*
X82589988Y762954D01*
X82523275Y601894D01*
X82489265Y430914D01*
X82489265Y256584D01*
X82523275Y85604D01*
X82589988Y-75456D01*
X82686841Y-220406D01*
X82810110Y-343675D01*
X82861951Y-378314D01*
X82735845Y-462576D01*
X82612576Y-585845D01*
X82515723Y-730795D01*
X82449010Y-891855D01*
X82444772Y-913162D01*
X82398256Y-903909D01*
X82223926Y-903909D01*
X82052946Y-937919D01*
X81891886Y-1004632D01*
X81746936Y-1101485D01*
X81623667Y-1224754D01*
X81603465Y-1254988D01*
X81437624Y-1144176D01*
X81231067Y-1058617D01*
X81011788Y-1015000D01*
X80788212Y-1015000D01*
X80568933Y-1058617D01*
X80362376Y-1144176D01*
X80176480Y-1268388D01*
X80018388Y-1426480D01*
X79894176Y-1612376D01*
X79808617Y-1818933D01*
X79765000Y-2038212D01*
X77293850Y-2038212D01*
X77257205Y-1949744D01*
X77143937Y-1780226D01*
X76999774Y-1636063D01*
X76830256Y-1522795D01*
X76641898Y-1444774D01*
X76441939Y-1405000D01*
X76238061Y-1405000D01*
X76038102Y-1444774D01*
X75849744Y-1522795D01*
X75680226Y-1636063D01*
X75536063Y-1780226D01*
X75422795Y-1949744D01*
X75344774Y-2138102D01*
X75305000Y-2338061D01*
X73960000Y-2338061D01*
X73960000Y315000D01*
X74161788Y315000D01*
X74381067Y358617D01*
X74587624Y444176D01*
X74697096Y517323D01*
X74848102Y454774D01*
X75048061Y415000D01*
X75251939Y415000D01*
X75451898Y454774D01*
X75544361Y493074D01*
X75559744Y482795D01*
X75748102Y404774D01*
X75948061Y365000D01*
X76151939Y365000D01*
X76351898Y404774D01*
X76540256Y482795D01*
X76709774Y596063D01*
X76853937Y740226D01*
X76967205Y909744D01*
X77020725Y1038952D01*
X79165002Y1038952D01*
X79165002Y864622D01*
X79199012Y693642D01*
X79265725Y532582D01*
X79362578Y387632D01*
X79485847Y264363D01*
X79630797Y167510D01*
X79791857Y100797D01*
X79962837Y66787D01*
X80109393Y66787D01*
X80165723Y-69205D01*
X80262576Y-214155D01*
X80385845Y-337424D01*
X80530795Y-434277D01*
X80691855Y-500990D01*
X80862835Y-535000D01*
X81037165Y-535000D01*
X81208145Y-500990D01*
X81369205Y-434277D01*
X81514155Y-337424D01*
X81637424Y-214155D01*
X81734277Y-69205D01*
X81800990Y91855D01*
X81835000Y262835D01*
X81835000Y437165D01*
X81800990Y608145D01*
X81734277Y769205D01*
X81637424Y914155D01*
X81623073Y928506D01*
X81660535Y965968D01*
X81773803Y1135486D01*
X81851824Y1323844D01*
X81891598Y1523803D01*
X81891598Y1727681D01*
X81851824Y1927640D01*
X81773803Y2115998D01*
X81660535Y2285516D01*
X81516372Y2429679D01*
X81346854Y2542947D01*
X81158496Y2620968D01*
X80958537Y2660742D01*
X80754659Y2660742D01*
X80554700Y2620968D01*
X80366342Y2542947D01*
X80196824Y2429679D01*
X80052661Y2285516D01*
X79939393Y2115998D01*
X79861372Y1927640D01*
X79838376Y1812030D01*
X79791857Y1802777D01*
X79630797Y1736064D01*
X79485847Y1639211D01*
X79362578Y1515942D01*
X79265725Y1370992D01*
X79199012Y1209932D01*
X79165002Y1038952D01*
X77020725Y1038952D01*
X77045226Y1098102D01*
X77085000Y1298061D01*
X77085000Y1501939D01*
X77045226Y1701898D01*
X76967205Y1890256D01*
X76853937Y2059774D01*
X76709774Y2203937D01*
X76540256Y2317205D01*
X76351898Y2395226D01*
X76151939Y2435000D01*
X75948061Y2435000D01*
X75748102Y2395226D01*
X75655639Y2356926D01*
X75640256Y2367205D01*
X75451898Y2445226D01*
X75251939Y2485000D01*
X75048061Y2485000D01*
X74848102Y2445226D01*
X74697096Y2382677D01*
X74587624Y2455824D01*
X74381067Y2541383D01*
X74161788Y2585000D01*
X73960000Y2585000D01*
X73960000Y3359959D01*
X88179347Y3356284D01*
G37*
%TD.AperFunction*%
%TD*%
M02*
