%TF.GenerationSoftware,KiCad,Pcbnew,5.1.9*%
%TF.CreationDate,2021-01-18T13:43:30+01:00*%
%TF.ProjectId,wi-se-rpi,77692d73-652d-4727-9069-2e6b69636164,v0.1*%
%TF.SameCoordinates,Original*%
%TF.FileFunction,Legend,Top*%
%TF.FilePolarity,Positive*%
%FSLAX46Y46*%
G04 Gerber Fmt 4.6, Leading zero omitted, Abs format (unit mm)*
G04 Created by KiCad (PCBNEW 5.1.9) date 2021-01-18 13:43:30*
%MOMM*%
%LPD*%
G01*
G04 APERTURE LIST*
%ADD10C,0.120000*%
%ADD11C,0.150000*%
%ADD12C,0.100000*%
G04 APERTURE END LIST*
D10*
X87050000Y-12500000D02*
X87500000Y-12500000D01*
X87050000Y-9050000D02*
X87050000Y-12500000D01*
X88700000Y-9250000D02*
X88500000Y-9250000D01*
X88700000Y-8700000D02*
X88700000Y-9250000D01*
X89400000Y-1900000D02*
X88750000Y-1900000D01*
X89400000Y-1600000D02*
X89400000Y-1900000D01*
X89400000Y1450000D02*
X88750000Y1450000D01*
X89400000Y1200000D02*
X89400000Y1450000D01*
D11*
X89071428Y-1371428D02*
X89671428Y-1228571D01*
X89242857Y-1114285D01*
X89671428Y-1000000D01*
X89071428Y-857142D01*
X89671428Y-628571D02*
X89271428Y-628571D01*
X89071428Y-628571D02*
X89100000Y-657142D01*
X89128571Y-628571D01*
X89100000Y-600000D01*
X89071428Y-628571D01*
X89128571Y-628571D01*
X89442857Y-342857D02*
X89442857Y114285D01*
X89357142Y600000D02*
X89357142Y400000D01*
X89671428Y400000D02*
X89071428Y400000D01*
X89071428Y685714D01*
X89671428Y914285D02*
X89271428Y914285D01*
X89071428Y914285D02*
X89100000Y885714D01*
X89128571Y914285D01*
X89100000Y942857D01*
X89071428Y914285D01*
X89128571Y914285D01*
X88671428Y-8100000D02*
X88385714Y-8300000D01*
X88671428Y-8442857D02*
X88071428Y-8442857D01*
X88071428Y-8214285D01*
X88100000Y-8157142D01*
X88128571Y-8128571D01*
X88185714Y-8100000D01*
X88271428Y-8100000D01*
X88328571Y-8128571D01*
X88357142Y-8157142D01*
X88385714Y-8214285D01*
X88385714Y-8442857D01*
X88071428Y-7900000D02*
X88671428Y-7500000D01*
X88071428Y-7500000D02*
X88671428Y-7900000D01*
X87121428Y-8857142D02*
X87121428Y-8514285D01*
X87721428Y-8685714D02*
X87121428Y-8685714D01*
X87121428Y-8371428D02*
X87721428Y-7971428D01*
X87121428Y-7971428D02*
X87721428Y-8371428D01*
D10*
X88800000Y-6250000D02*
X89050000Y-6200000D01*
X88800000Y-6500000D02*
X88800000Y-6250000D01*
X88800000Y-6250000D02*
X88800000Y-6500000D01*
X89550000Y-6800000D02*
X88800000Y-6250000D01*
D11*
X90078571Y-7057142D02*
X89878571Y-7057142D01*
X89878571Y-7371428D02*
X89878571Y-6771428D01*
X90164285Y-6771428D01*
X90678571Y-7371428D02*
X90392857Y-7371428D01*
X90392857Y-6771428D01*
X90878571Y-7057142D02*
X91078571Y-7057142D01*
X91164285Y-7371428D02*
X90878571Y-7371428D01*
X90878571Y-6771428D01*
X91164285Y-6771428D01*
X91421428Y-7371428D02*
X91421428Y-6771428D01*
X91764285Y-7371428D01*
X91764285Y-6771428D01*
X92764285Y-7371428D02*
X92764285Y-6771428D01*
X92764285Y-7342857D02*
X92707142Y-7371428D01*
X92592857Y-7371428D01*
X92535714Y-7342857D01*
X92507142Y-7314285D01*
X92478571Y-7257142D01*
X92478571Y-7085714D01*
X92507142Y-7028571D01*
X92535714Y-7000000D01*
X92592857Y-6971428D01*
X92707142Y-6971428D01*
X92764285Y-7000000D01*
X93050000Y-7371428D02*
X93050000Y-6971428D01*
X93050000Y-6771428D02*
X93021428Y-6800000D01*
X93050000Y-6828571D01*
X93078571Y-6800000D01*
X93050000Y-6771428D01*
X93050000Y-6828571D01*
X93307142Y-7342857D02*
X93364285Y-7371428D01*
X93478571Y-7371428D01*
X93535714Y-7342857D01*
X93564285Y-7285714D01*
X93564285Y-7257142D01*
X93535714Y-7200000D01*
X93478571Y-7171428D01*
X93392857Y-7171428D01*
X93335714Y-7142857D01*
X93307142Y-7085714D01*
X93307142Y-7057142D01*
X93335714Y-7000000D01*
X93392857Y-6971428D01*
X93478571Y-6971428D01*
X93535714Y-7000000D01*
X94078571Y-7371428D02*
X94078571Y-7057142D01*
X94050000Y-7000000D01*
X93992857Y-6971428D01*
X93878571Y-6971428D01*
X93821428Y-7000000D01*
X94078571Y-7342857D02*
X94021428Y-7371428D01*
X93878571Y-7371428D01*
X93821428Y-7342857D01*
X93792857Y-7285714D01*
X93792857Y-7228571D01*
X93821428Y-7171428D01*
X93878571Y-7142857D01*
X94021428Y-7142857D01*
X94078571Y-7114285D01*
X94364285Y-7371428D02*
X94364285Y-6771428D01*
X94364285Y-7000000D02*
X94421428Y-6971428D01*
X94535714Y-6971428D01*
X94592857Y-7000000D01*
X94621428Y-7028571D01*
X94650000Y-7085714D01*
X94650000Y-7257142D01*
X94621428Y-7314285D01*
X94592857Y-7342857D01*
X94535714Y-7371428D01*
X94421428Y-7371428D01*
X94364285Y-7342857D01*
X90292857Y-4400000D02*
X90235714Y-4371428D01*
X90150000Y-4371428D01*
X90064285Y-4400000D01*
X90007142Y-4457142D01*
X89978571Y-4514285D01*
X89950000Y-4628571D01*
X89950000Y-4714285D01*
X89978571Y-4828571D01*
X90007142Y-4885714D01*
X90064285Y-4942857D01*
X90150000Y-4971428D01*
X90207142Y-4971428D01*
X90292857Y-4942857D01*
X90321428Y-4914285D01*
X90321428Y-4714285D01*
X90207142Y-4714285D01*
X90578571Y-4971428D02*
X90578571Y-4371428D01*
X90921428Y-4971428D01*
X90921428Y-4371428D01*
X91207142Y-4971428D02*
X91207142Y-4371428D01*
X91350000Y-4371428D01*
X91435714Y-4400000D01*
X91492857Y-4457142D01*
X91521428Y-4514285D01*
X91550000Y-4628571D01*
X91550000Y-4714285D01*
X91521428Y-4828571D01*
X91492857Y-4885714D01*
X91435714Y-4942857D01*
X91350000Y-4971428D01*
X91207142Y-4971428D01*
X92542857Y-4371428D02*
X92885714Y-4371428D01*
X92714285Y-4971428D02*
X92714285Y-4371428D01*
X93028571Y-4371428D02*
X93428571Y-4971428D01*
X93428571Y-4371428D02*
X93028571Y-4971428D01*
X93657142Y-4971428D02*
X93657142Y-4371428D01*
X93800000Y-4371428D01*
X93885714Y-4400000D01*
X93942857Y-4457142D01*
X93971428Y-4514285D01*
X94000000Y-4628571D01*
X94000000Y-4714285D01*
X93971428Y-4828571D01*
X93942857Y-4885714D01*
X93885714Y-4942857D01*
X93800000Y-4971428D01*
X93657142Y-4971428D01*
X92900000Y-2421428D02*
X92700000Y-2135714D01*
X92557142Y-2421428D02*
X92557142Y-1821428D01*
X92785714Y-1821428D01*
X92842857Y-1850000D01*
X92871428Y-1878571D01*
X92900000Y-1935714D01*
X92900000Y-2021428D01*
X92871428Y-2078571D01*
X92842857Y-2107142D01*
X92785714Y-2135714D01*
X92557142Y-2135714D01*
X93100000Y-1821428D02*
X93500000Y-2421428D01*
X93500000Y-1821428D02*
X93100000Y-2421428D01*
X93728571Y-2421428D02*
X93728571Y-1821428D01*
X93871428Y-1821428D01*
X93957142Y-1850000D01*
X94014285Y-1907142D01*
X94042857Y-1964285D01*
X94071428Y-2078571D01*
X94071428Y-2164285D01*
X94042857Y-2278571D01*
X94014285Y-2335714D01*
X93957142Y-2392857D01*
X93871428Y-2421428D01*
X93728571Y-2421428D01*
X90421428Y-2421428D02*
X90221428Y-2135714D01*
X90078571Y-2421428D02*
X90078571Y-1821428D01*
X90307142Y-1821428D01*
X90364285Y-1850000D01*
X90392857Y-1878571D01*
X90421428Y-1935714D01*
X90421428Y-2021428D01*
X90392857Y-2078571D01*
X90364285Y-2107142D01*
X90307142Y-2135714D01*
X90078571Y-2135714D01*
X90592857Y-1821428D02*
X90935714Y-1821428D01*
X90764285Y-2421428D02*
X90764285Y-1821428D01*
X91107142Y-2392857D02*
X91192857Y-2421428D01*
X91335714Y-2421428D01*
X91392857Y-2392857D01*
X91421428Y-2364285D01*
X91450000Y-2307142D01*
X91450000Y-2250000D01*
X91421428Y-2192857D01*
X91392857Y-2164285D01*
X91335714Y-2135714D01*
X91221428Y-2107142D01*
X91164285Y-2078571D01*
X91135714Y-2050000D01*
X91107142Y-1992857D01*
X91107142Y-1935714D01*
X91135714Y-1878571D01*
X91164285Y-1850000D01*
X91221428Y-1821428D01*
X91364285Y-1821428D01*
X91450000Y-1850000D01*
X92842857Y700000D02*
X92785714Y728571D01*
X92700000Y728571D01*
X92614285Y700000D01*
X92557142Y642857D01*
X92528571Y585714D01*
X92500000Y471428D01*
X92500000Y385714D01*
X92528571Y271428D01*
X92557142Y214285D01*
X92614285Y157142D01*
X92700000Y128571D01*
X92757142Y128571D01*
X92842857Y157142D01*
X92871428Y185714D01*
X92871428Y385714D01*
X92757142Y385714D01*
X93128571Y128571D02*
X93128571Y728571D01*
X93471428Y128571D01*
X93471428Y728571D01*
X93757142Y128571D02*
X93757142Y728571D01*
X93900000Y728571D01*
X93985714Y700000D01*
X94042857Y642857D01*
X94071428Y585714D01*
X94100000Y471428D01*
X94100000Y385714D01*
X94071428Y271428D01*
X94042857Y214285D01*
X93985714Y157142D01*
X93900000Y128571D01*
X93757142Y128571D01*
X90064285Y128571D02*
X90064285Y728571D01*
X90207142Y728571D01*
X90292857Y700000D01*
X90350000Y642857D01*
X90378571Y585714D01*
X90407142Y471428D01*
X90407142Y385714D01*
X90378571Y271428D01*
X90350000Y214285D01*
X90292857Y157142D01*
X90207142Y128571D01*
X90064285Y128571D01*
X90578571Y728571D02*
X90921428Y728571D01*
X90750000Y128571D02*
X90750000Y728571D01*
X91464285Y128571D02*
X91264285Y414285D01*
X91121428Y128571D02*
X91121428Y728571D01*
X91350000Y728571D01*
X91407142Y700000D01*
X91435714Y671428D01*
X91464285Y614285D01*
X91464285Y528571D01*
X91435714Y471428D01*
X91407142Y442857D01*
X91350000Y414285D01*
X91121428Y414285D01*
X92450000Y3278571D02*
X92650000Y2678571D01*
X92850000Y3278571D01*
X93392857Y2735714D02*
X93364285Y2707142D01*
X93278571Y2678571D01*
X93221428Y2678571D01*
X93135714Y2707142D01*
X93078571Y2764285D01*
X93050000Y2821428D01*
X93021428Y2935714D01*
X93021428Y3021428D01*
X93050000Y3135714D01*
X93078571Y3192857D01*
X93135714Y3250000D01*
X93221428Y3278571D01*
X93278571Y3278571D01*
X93364285Y3250000D01*
X93392857Y3221428D01*
X93992857Y2735714D02*
X93964285Y2707142D01*
X93878571Y2678571D01*
X93821428Y2678571D01*
X93735714Y2707142D01*
X93678571Y2764285D01*
X93650000Y2821428D01*
X93621428Y2935714D01*
X93621428Y3021428D01*
X93650000Y3135714D01*
X93678571Y3192857D01*
X93735714Y3250000D01*
X93821428Y3278571D01*
X93878571Y3278571D01*
X93964285Y3250000D01*
X93992857Y3221428D01*
X90007142Y2992857D02*
X89807142Y2992857D01*
X89807142Y2678571D02*
X89807142Y3278571D01*
X90092857Y3278571D01*
X90607142Y2678571D02*
X90321428Y2678571D01*
X90321428Y3278571D01*
X90807142Y2992857D02*
X91007142Y2992857D01*
X91092857Y2678571D02*
X90807142Y2678571D01*
X90807142Y3278571D01*
X91092857Y3278571D01*
X91350000Y2678571D02*
X91350000Y3278571D01*
X91692857Y2678571D01*
X91692857Y3278571D01*
X75792857Y42857D02*
X75792857Y-600000D01*
X75750000Y-728571D01*
X75664285Y-814285D01*
X75535714Y-857142D01*
X75450000Y-857142D01*
X76650000Y-857142D02*
X76221428Y-857142D01*
X76221428Y42857D01*
X77464285Y-771428D02*
X77421428Y-814285D01*
X77292857Y-857142D01*
X77207142Y-857142D01*
X77078571Y-814285D01*
X76992857Y-728571D01*
X76950000Y-642857D01*
X76907142Y-471428D01*
X76907142Y-342857D01*
X76950000Y-171428D01*
X76992857Y-85714D01*
X77078571Y0D01*
X77207142Y42857D01*
X77292857Y42857D01*
X77421428Y0D01*
X77464285Y-42857D01*
X78107142Y42857D02*
X78107142Y-600000D01*
X78064285Y-728571D01*
X77978571Y-814285D01*
X77850000Y-857142D01*
X77764285Y-857142D01*
X78964285Y-857142D02*
X78535714Y-857142D01*
X78535714Y42857D01*
X79778571Y-771428D02*
X79735714Y-814285D01*
X79607142Y-857142D01*
X79521428Y-857142D01*
X79392857Y-814285D01*
X79307142Y-728571D01*
X79264285Y-642857D01*
X79221428Y-471428D01*
X79221428Y-342857D01*
X79264285Y-171428D01*
X79307142Y-85714D01*
X79392857Y0D01*
X79521428Y42857D01*
X79607142Y42857D01*
X79735714Y0D01*
X79778571Y-42857D01*
X80421428Y42857D02*
X80421428Y-600000D01*
X80378571Y-728571D01*
X80292857Y-814285D01*
X80164285Y-857142D01*
X80078571Y-857142D01*
X81278571Y-857142D02*
X80850000Y-857142D01*
X80850000Y42857D01*
X82092857Y-771428D02*
X82050000Y-814285D01*
X81921428Y-857142D01*
X81835714Y-857142D01*
X81707142Y-814285D01*
X81621428Y-728571D01*
X81578571Y-642857D01*
X81535714Y-471428D01*
X81535714Y-342857D01*
X81578571Y-171428D01*
X81621428Y-85714D01*
X81707142Y0D01*
X81835714Y42857D01*
X81921428Y42857D01*
X82050000Y0D01*
X82092857Y-42857D01*
X82735714Y42857D02*
X82735714Y-600000D01*
X82692857Y-728571D01*
X82607142Y-814285D01*
X82478571Y-857142D01*
X82392857Y-857142D01*
X83592857Y-857142D02*
X83164285Y-857142D01*
X83164285Y42857D01*
X84407142Y-771428D02*
X84364285Y-814285D01*
X84235714Y-857142D01*
X84150000Y-857142D01*
X84021428Y-814285D01*
X83935714Y-728571D01*
X83892857Y-642857D01*
X83850000Y-471428D01*
X83850000Y-342857D01*
X83892857Y-171428D01*
X83935714Y-85714D01*
X84021428Y0D01*
X84150000Y42857D01*
X84235714Y42857D01*
X84364285Y0D01*
X84407142Y-42857D01*
D10*
X86650000Y-4600000D02*
X86350000Y-4900000D01*
X86650000Y-4600000D02*
X86350000Y-4300000D01*
X84950000Y-4600000D02*
X86650000Y-4600000D01*
D11*
X83596428Y-10500000D02*
X82996428Y-10500000D01*
X82996428Y-10357142D01*
X83025000Y-10271428D01*
X83082142Y-10214285D01*
X83139285Y-10185714D01*
X83253571Y-10157142D01*
X83339285Y-10157142D01*
X83453571Y-10185714D01*
X83510714Y-10214285D01*
X83567857Y-10271428D01*
X83596428Y-10357142D01*
X83596428Y-10500000D01*
X83567857Y-9671428D02*
X83596428Y-9728571D01*
X83596428Y-9842857D01*
X83567857Y-9900000D01*
X83510714Y-9928571D01*
X83282142Y-9928571D01*
X83225000Y-9900000D01*
X83196428Y-9842857D01*
X83196428Y-9728571D01*
X83225000Y-9671428D01*
X83282142Y-9642857D01*
X83339285Y-9642857D01*
X83396428Y-9928571D01*
X83367857Y-9385714D02*
X83367857Y-8928571D01*
X83567857Y-8671428D02*
X83596428Y-8614285D01*
X83596428Y-8500000D01*
X83567857Y-8442857D01*
X83510714Y-8414285D01*
X83482142Y-8414285D01*
X83425000Y-8442857D01*
X83396428Y-8500000D01*
X83396428Y-8585714D01*
X83367857Y-8642857D01*
X83310714Y-8671428D01*
X83282142Y-8671428D01*
X83225000Y-8642857D01*
X83196428Y-8585714D01*
X83196428Y-8500000D01*
X83225000Y-8442857D01*
X83596428Y-8071428D02*
X83567857Y-8128571D01*
X83539285Y-8157142D01*
X83482142Y-8185714D01*
X83310714Y-8185714D01*
X83253571Y-8157142D01*
X83225000Y-8128571D01*
X83196428Y-8071428D01*
X83196428Y-7985714D01*
X83225000Y-7928571D01*
X83253571Y-7900000D01*
X83310714Y-7871428D01*
X83482142Y-7871428D01*
X83539285Y-7900000D01*
X83567857Y-7928571D01*
X83596428Y-7985714D01*
X83596428Y-8071428D01*
X83596428Y-7528571D02*
X83567857Y-7585714D01*
X83510714Y-7614285D01*
X82996428Y-7614285D01*
X83596428Y-7042857D02*
X82996428Y-7042857D01*
X83567857Y-7042857D02*
X83596428Y-7100000D01*
X83596428Y-7214285D01*
X83567857Y-7271428D01*
X83539285Y-7300000D01*
X83482142Y-7328571D01*
X83310714Y-7328571D01*
X83253571Y-7300000D01*
X83225000Y-7271428D01*
X83196428Y-7214285D01*
X83196428Y-7100000D01*
X83225000Y-7042857D01*
X83567857Y-6528571D02*
X83596428Y-6585714D01*
X83596428Y-6700000D01*
X83567857Y-6757142D01*
X83510714Y-6785714D01*
X83282142Y-6785714D01*
X83225000Y-6757142D01*
X83196428Y-6700000D01*
X83196428Y-6585714D01*
X83225000Y-6528571D01*
X83282142Y-6500000D01*
X83339285Y-6500000D01*
X83396428Y-6785714D01*
X83596428Y-6242857D02*
X83196428Y-6242857D01*
X83310714Y-6242857D02*
X83253571Y-6214285D01*
X83225000Y-6185714D01*
X83196428Y-6128571D01*
X83196428Y-6071428D01*
X83596428Y-5414285D02*
X83196428Y-5414285D01*
X82996428Y-5414285D02*
X83025000Y-5442857D01*
X83053571Y-5414285D01*
X83025000Y-5385714D01*
X82996428Y-5414285D01*
X83053571Y-5414285D01*
X83196428Y-5214285D02*
X83196428Y-4985714D01*
X83596428Y-5128571D02*
X83082142Y-5128571D01*
X83025000Y-5100000D01*
X82996428Y-5042857D01*
X82996428Y-4985714D01*
X83596428Y-4328571D02*
X82996428Y-4328571D01*
X83596428Y-4071428D02*
X83282142Y-4071428D01*
X83225000Y-4100000D01*
X83196428Y-4157142D01*
X83196428Y-4242857D01*
X83225000Y-4300000D01*
X83253571Y-4328571D01*
X83596428Y-3528571D02*
X83282142Y-3528571D01*
X83225000Y-3557142D01*
X83196428Y-3614285D01*
X83196428Y-3728571D01*
X83225000Y-3785714D01*
X83567857Y-3528571D02*
X83596428Y-3585714D01*
X83596428Y-3728571D01*
X83567857Y-3785714D01*
X83510714Y-3814285D01*
X83453571Y-3814285D01*
X83396428Y-3785714D01*
X83367857Y-3728571D01*
X83367857Y-3585714D01*
X83339285Y-3528571D01*
X83196428Y-3300000D02*
X83596428Y-3157142D01*
X83196428Y-3014285D01*
X83596428Y-2785714D02*
X83196428Y-2785714D01*
X82996428Y-2785714D02*
X83025000Y-2814285D01*
X83053571Y-2785714D01*
X83025000Y-2757142D01*
X82996428Y-2785714D01*
X83053571Y-2785714D01*
X83196428Y-2500000D02*
X83596428Y-2500000D01*
X83253571Y-2500000D02*
X83225000Y-2471428D01*
X83196428Y-2414285D01*
X83196428Y-2328571D01*
X83225000Y-2271428D01*
X83282142Y-2242857D01*
X83596428Y-2242857D01*
X83196428Y-1700000D02*
X83682142Y-1700000D01*
X83739285Y-1728571D01*
X83767857Y-1757142D01*
X83796428Y-1814285D01*
X83796428Y-1900000D01*
X83767857Y-1957142D01*
X83567857Y-1700000D02*
X83596428Y-1757142D01*
X83596428Y-1871428D01*
X83567857Y-1928571D01*
X83539285Y-1957142D01*
X83482142Y-1985714D01*
X83310714Y-1985714D01*
X83253571Y-1957142D01*
X83225000Y-1928571D01*
X83196428Y-1871428D01*
X83196428Y-1757142D01*
X83225000Y-1700000D01*
X84646428Y-10457142D02*
X84246428Y-10457142D01*
X84046428Y-10457142D02*
X84075000Y-10485714D01*
X84103571Y-10457142D01*
X84075000Y-10428571D01*
X84046428Y-10457142D01*
X84103571Y-10457142D01*
X84617857Y-10200000D02*
X84646428Y-10142857D01*
X84646428Y-10028571D01*
X84617857Y-9971428D01*
X84560714Y-9942857D01*
X84532142Y-9942857D01*
X84475000Y-9971428D01*
X84446428Y-10028571D01*
X84446428Y-10114285D01*
X84417857Y-10171428D01*
X84360714Y-10200000D01*
X84332142Y-10200000D01*
X84275000Y-10171428D01*
X84246428Y-10114285D01*
X84246428Y-10028571D01*
X84275000Y-9971428D01*
X84617857Y-9714285D02*
X84646428Y-9657142D01*
X84646428Y-9542857D01*
X84617857Y-9485714D01*
X84560714Y-9457142D01*
X84532142Y-9457142D01*
X84475000Y-9485714D01*
X84446428Y-9542857D01*
X84446428Y-9628571D01*
X84417857Y-9685714D01*
X84360714Y-9714285D01*
X84332142Y-9714285D01*
X84275000Y-9685714D01*
X84246428Y-9628571D01*
X84246428Y-9542857D01*
X84275000Y-9485714D01*
X84246428Y-8942857D02*
X84646428Y-8942857D01*
X84246428Y-9200000D02*
X84560714Y-9200000D01*
X84617857Y-9171428D01*
X84646428Y-9114285D01*
X84646428Y-9028571D01*
X84617857Y-8971428D01*
X84589285Y-8942857D01*
X84617857Y-8428571D02*
X84646428Y-8485714D01*
X84646428Y-8600000D01*
X84617857Y-8657142D01*
X84560714Y-8685714D01*
X84332142Y-8685714D01*
X84275000Y-8657142D01*
X84246428Y-8600000D01*
X84246428Y-8485714D01*
X84275000Y-8428571D01*
X84332142Y-8400000D01*
X84389285Y-8400000D01*
X84446428Y-8685714D01*
X84617857Y-8171428D02*
X84646428Y-8114285D01*
X84646428Y-8000000D01*
X84617857Y-7942857D01*
X84560714Y-7914285D01*
X84532142Y-7914285D01*
X84475000Y-7942857D01*
X84446428Y-8000000D01*
X84446428Y-8085714D01*
X84417857Y-8142857D01*
X84360714Y-8171428D01*
X84332142Y-8171428D01*
X84275000Y-8142857D01*
X84246428Y-8085714D01*
X84246428Y-8000000D01*
X84275000Y-7942857D01*
X84646428Y-7114285D02*
X84617857Y-7171428D01*
X84589285Y-7200000D01*
X84532142Y-7228571D01*
X84360714Y-7228571D01*
X84303571Y-7200000D01*
X84275000Y-7171428D01*
X84246428Y-7114285D01*
X84246428Y-7028571D01*
X84275000Y-6971428D01*
X84303571Y-6942857D01*
X84360714Y-6914285D01*
X84532142Y-6914285D01*
X84589285Y-6942857D01*
X84617857Y-6971428D01*
X84646428Y-7028571D01*
X84646428Y-7114285D01*
X84246428Y-6657142D02*
X84646428Y-6657142D01*
X84303571Y-6657142D02*
X84275000Y-6628571D01*
X84246428Y-6571428D01*
X84246428Y-6485714D01*
X84275000Y-6428571D01*
X84332142Y-6400000D01*
X84646428Y-6400000D01*
X84617857Y-5685714D02*
X84646428Y-5600000D01*
X84646428Y-5457142D01*
X84617857Y-5400000D01*
X84589285Y-5371428D01*
X84532142Y-5342857D01*
X84475000Y-5342857D01*
X84417857Y-5371428D01*
X84389285Y-5400000D01*
X84360714Y-5457142D01*
X84332142Y-5571428D01*
X84303571Y-5628571D01*
X84275000Y-5657142D01*
X84217857Y-5685714D01*
X84160714Y-5685714D01*
X84103571Y-5657142D01*
X84075000Y-5628571D01*
X84046428Y-5571428D01*
X84046428Y-5428571D01*
X84075000Y-5342857D01*
X84332142Y-4885714D02*
X84360714Y-4800000D01*
X84389285Y-4771428D01*
X84446428Y-4742857D01*
X84532142Y-4742857D01*
X84589285Y-4771428D01*
X84617857Y-4800000D01*
X84646428Y-4857142D01*
X84646428Y-5085714D01*
X84046428Y-5085714D01*
X84046428Y-4885714D01*
X84075000Y-4828571D01*
X84103571Y-4800000D01*
X84160714Y-4771428D01*
X84217857Y-4771428D01*
X84275000Y-4800000D01*
X84303571Y-4828571D01*
X84332142Y-4885714D01*
X84332142Y-5085714D01*
X84589285Y-4142857D02*
X84617857Y-4171428D01*
X84646428Y-4257142D01*
X84646428Y-4314285D01*
X84617857Y-4400000D01*
X84560714Y-4457142D01*
X84503571Y-4485714D01*
X84389285Y-4514285D01*
X84303571Y-4514285D01*
X84189285Y-4485714D01*
X84132142Y-4457142D01*
X84075000Y-4400000D01*
X84046428Y-4314285D01*
X84046428Y-4257142D01*
X84075000Y-4171428D01*
X84103571Y-4142857D01*
X84646428Y-3428571D02*
X84046428Y-3428571D01*
X84275000Y-3428571D02*
X84246428Y-3371428D01*
X84246428Y-3257142D01*
X84275000Y-3200000D01*
X84303571Y-3171428D01*
X84360714Y-3142857D01*
X84532142Y-3142857D01*
X84589285Y-3171428D01*
X84617857Y-3200000D01*
X84646428Y-3257142D01*
X84646428Y-3371428D01*
X84617857Y-3428571D01*
X84646428Y-2800000D02*
X84617857Y-2857142D01*
X84589285Y-2885714D01*
X84532142Y-2914285D01*
X84360714Y-2914285D01*
X84303571Y-2885714D01*
X84275000Y-2857142D01*
X84246428Y-2800000D01*
X84246428Y-2714285D01*
X84275000Y-2657142D01*
X84303571Y-2628571D01*
X84360714Y-2600000D01*
X84532142Y-2600000D01*
X84589285Y-2628571D01*
X84617857Y-2657142D01*
X84646428Y-2714285D01*
X84646428Y-2800000D01*
X84646428Y-2257142D02*
X84617857Y-2314285D01*
X84589285Y-2342857D01*
X84532142Y-2371428D01*
X84360714Y-2371428D01*
X84303571Y-2342857D01*
X84275000Y-2314285D01*
X84246428Y-2257142D01*
X84246428Y-2171428D01*
X84275000Y-2114285D01*
X84303571Y-2085714D01*
X84360714Y-2057142D01*
X84532142Y-2057142D01*
X84589285Y-2085714D01*
X84617857Y-2114285D01*
X84646428Y-2171428D01*
X84646428Y-2257142D01*
X84246428Y-1885714D02*
X84246428Y-1657142D01*
X84046428Y-1800000D02*
X84560714Y-1800000D01*
X84617857Y-1771428D01*
X84646428Y-1714285D01*
X84646428Y-1657142D01*
D10*
%TO.C,D1*%
X88735000Y-35000D02*
X88735000Y2425000D01*
X87265000Y-35000D02*
X88735000Y-35000D01*
X87265000Y2425000D02*
X87265000Y-35000D01*
%TO.C,D2*%
X87265000Y-950000D02*
X87265000Y-3410000D01*
X87265000Y-3410000D02*
X88735000Y-3410000D01*
X88735000Y-3410000D02*
X88735000Y-950000D01*
%TO.C,D3*%
X88735000Y-15285000D02*
X88735000Y-12825000D01*
X87265000Y-15285000D02*
X88735000Y-15285000D01*
X87265000Y-12825000D02*
X87265000Y-15285000D01*
%TO.C,D4*%
X87265000Y-9450000D02*
X87265000Y-11910000D01*
X87265000Y-11910000D02*
X88735000Y-11910000D01*
X88735000Y-11910000D02*
X88735000Y-9450000D01*
%TO.C,R19*%
X88522500Y-5745276D02*
X88522500Y-6254724D01*
X87477500Y-5745276D02*
X87477500Y-6254724D01*
D12*
%TO.C,U2*%
X73100000Y-15120000D02*
X73100000Y-17000000D01*
X66780000Y-15120000D02*
X73100000Y-15120000D01*
X66780000Y3120000D02*
X73300000Y3120000D01*
X66780000Y-15120000D02*
X66780000Y3120000D01*
X87020000Y2000000D02*
X87020000Y3120000D01*
X86700000Y3120000D02*
X87000000Y3120000D01*
X87020000Y-15120000D02*
X87020000Y-14100000D01*
X86800000Y-15120000D02*
X87020000Y-15120000D01*
%TO.C,D1*%
D11*
X86502380Y511904D02*
X85502380Y511904D01*
X85502380Y750000D01*
X85550000Y892857D01*
X85645238Y988095D01*
X85740476Y1035714D01*
X85930952Y1083333D01*
X86073809Y1083333D01*
X86264285Y1035714D01*
X86359523Y988095D01*
X86454761Y892857D01*
X86502380Y750000D01*
X86502380Y511904D01*
X86502380Y2035714D02*
X86502380Y1464285D01*
X86502380Y1750000D02*
X85502380Y1750000D01*
X85645238Y1654761D01*
X85740476Y1559523D01*
X85788095Y1464285D01*
%TO.C,D2*%
X86702380Y-2538095D02*
X85702380Y-2538095D01*
X85702380Y-2300000D01*
X85750000Y-2157142D01*
X85845238Y-2061904D01*
X85940476Y-2014285D01*
X86130952Y-1966666D01*
X86273809Y-1966666D01*
X86464285Y-2014285D01*
X86559523Y-2061904D01*
X86654761Y-2157142D01*
X86702380Y-2300000D01*
X86702380Y-2538095D01*
X85797619Y-1585714D02*
X85750000Y-1538095D01*
X85702380Y-1442857D01*
X85702380Y-1204761D01*
X85750000Y-1109523D01*
X85797619Y-1061904D01*
X85892857Y-1014285D01*
X85988095Y-1014285D01*
X86130952Y-1061904D01*
X86702380Y-1633333D01*
X86702380Y-1014285D01*
%TO.C,D3*%
X86752380Y-14363095D02*
X85752380Y-14363095D01*
X85752380Y-14125000D01*
X85800000Y-13982142D01*
X85895238Y-13886904D01*
X85990476Y-13839285D01*
X86180952Y-13791666D01*
X86323809Y-13791666D01*
X86514285Y-13839285D01*
X86609523Y-13886904D01*
X86704761Y-13982142D01*
X86752380Y-14125000D01*
X86752380Y-14363095D01*
X85752380Y-13458333D02*
X85752380Y-12839285D01*
X86133333Y-13172619D01*
X86133333Y-13029761D01*
X86180952Y-12934523D01*
X86228571Y-12886904D01*
X86323809Y-12839285D01*
X86561904Y-12839285D01*
X86657142Y-12886904D01*
X86704761Y-12934523D01*
X86752380Y-13029761D01*
X86752380Y-13315476D01*
X86704761Y-13410714D01*
X86657142Y-13458333D01*
%TO.C,D4*%
X86802380Y-11288095D02*
X85802380Y-11288095D01*
X85802380Y-11050000D01*
X85850000Y-10907142D01*
X85945238Y-10811904D01*
X86040476Y-10764285D01*
X86230952Y-10716666D01*
X86373809Y-10716666D01*
X86564285Y-10764285D01*
X86659523Y-10811904D01*
X86754761Y-10907142D01*
X86802380Y-11050000D01*
X86802380Y-11288095D01*
X86135714Y-9859523D02*
X86802380Y-9859523D01*
X85754761Y-10097619D02*
X86469047Y-10335714D01*
X86469047Y-9716666D01*
%TO.C,R19*%
X86411904Y-6714285D02*
X86030952Y-6980952D01*
X86411904Y-7171428D02*
X85611904Y-7171428D01*
X85611904Y-6866666D01*
X85650000Y-6790476D01*
X85688095Y-6752380D01*
X85764285Y-6714285D01*
X85878571Y-6714285D01*
X85954761Y-6752380D01*
X85992857Y-6790476D01*
X86030952Y-6866666D01*
X86030952Y-7171428D01*
X86411904Y-5952380D02*
X86411904Y-6409523D01*
X86411904Y-6180952D02*
X85611904Y-6180952D01*
X85726190Y-6257142D01*
X85802380Y-6333333D01*
X85840476Y-6409523D01*
X86411904Y-5571428D02*
X86411904Y-5419047D01*
X86373809Y-5342857D01*
X86335714Y-5304761D01*
X86221428Y-5228571D01*
X86069047Y-5190476D01*
X85764285Y-5190476D01*
X85688095Y-5228571D01*
X85650000Y-5266666D01*
X85611904Y-5342857D01*
X85611904Y-5495238D01*
X85650000Y-5571428D01*
X85688095Y-5609523D01*
X85764285Y-5647619D01*
X85954761Y-5647619D01*
X86030952Y-5609523D01*
X86069047Y-5571428D01*
X86107142Y-5495238D01*
X86107142Y-5342857D01*
X86069047Y-5266666D01*
X86030952Y-5228571D01*
X85954761Y-5190476D01*
%TO.C,U2*%
X76752380Y-4861904D02*
X77561904Y-4861904D01*
X77657142Y-4814285D01*
X77704761Y-4766666D01*
X77752380Y-4671428D01*
X77752380Y-4480952D01*
X77704761Y-4385714D01*
X77657142Y-4338095D01*
X77561904Y-4290476D01*
X76752380Y-4290476D01*
X76847619Y-3861904D02*
X76800000Y-3814285D01*
X76752380Y-3719047D01*
X76752380Y-3480952D01*
X76800000Y-3385714D01*
X76847619Y-3338095D01*
X76942857Y-3290476D01*
X77038095Y-3290476D01*
X77180952Y-3338095D01*
X77752380Y-3909523D01*
X77752380Y-3290476D01*
%TD*%
M02*
