%TF.GenerationSoftware,KiCad,Pcbnew,5.1.9*%
%TF.CreationDate,2021-01-18T01:27:37+01:00*%
%TF.ProjectId,wi-se-rpi,77692d73-652d-4727-9069-2e6b69636164,v0.1*%
%TF.SameCoordinates,Original*%
%TF.FileFunction,Copper,L4,Bot*%
%TF.FilePolarity,Positive*%
%FSLAX46Y46*%
G04 Gerber Fmt 4.6, Leading zero omitted, Abs format (unit mm)*
G04 Created by KiCad (PCBNEW 5.1.9) date 2021-01-18 01:27:37*
%MOMM*%
%LPD*%
G01*
G04 APERTURE LIST*
%TA.AperFunction,SMDPad,CuDef*%
%ADD10R,0.900000X1.700000*%
%TD*%
%TA.AperFunction,SMDPad,CuDef*%
%ADD11R,0.800000X1.100000*%
%TD*%
%TA.AperFunction,ComponentPad*%
%ADD12R,1.700000X1.700000*%
%TD*%
%TA.AperFunction,ComponentPad*%
%ADD13O,1.700000X1.700000*%
%TD*%
%TA.AperFunction,SMDPad,CuDef*%
%ADD14R,1.207999X0.568000*%
%TD*%
%TA.AperFunction,SMDPad,CuDef*%
%ADD15R,0.900000X0.800000*%
%TD*%
%TA.AperFunction,SMDPad,CuDef*%
%ADD16R,2.000000X3.800000*%
%TD*%
%TA.AperFunction,SMDPad,CuDef*%
%ADD17R,2.000000X1.500000*%
%TD*%
%TA.AperFunction,ViaPad*%
%ADD18C,1.000000*%
%TD*%
%TA.AperFunction,ViaPad*%
%ADD19C,0.800000*%
%TD*%
%TA.AperFunction,ViaPad*%
%ADD20C,0.500000*%
%TD*%
%TA.AperFunction,Conductor*%
%ADD21C,0.300000*%
%TD*%
%TA.AperFunction,Conductor*%
%ADD22C,0.400000*%
%TD*%
%TA.AperFunction,Conductor*%
%ADD23C,0.500000*%
%TD*%
%TA.AperFunction,Conductor*%
%ADD24C,0.200000*%
%TD*%
G04 APERTURE END LIST*
D10*
%TO.P,SW1,1*%
%TO.N,GND*%
X78300000Y-14570000D03*
%TO.P,SW1,2*%
%TO.N,EN*%
X81700000Y-14570000D03*
D11*
%TO.P,SW1,3*%
%TO.N,N/C*%
X80000000Y-12930000D03*
%TD*%
D10*
%TO.P,SW2,1*%
%TO.N,BOOT0*%
X83100000Y-14540000D03*
%TO.P,SW2,2*%
%TO.N,GND*%
X86500000Y-14540000D03*
D11*
%TO.P,SW2,3*%
%TO.N,N/C*%
X84800000Y-12900000D03*
%TD*%
D12*
%TO.P,J1,1*%
%TO.N,Net-(J1-Pad1)*%
X90750000Y1750000D03*
D13*
%TO.P,J1,2*%
%TO.N,VCC*%
X93290000Y1750000D03*
%TO.P,J1,3*%
%TO.N,DTR*%
X90750000Y-790000D03*
%TO.P,J1,4*%
%TO.N,GND*%
X93290000Y-790000D03*
%TO.P,J1,5*%
%TO.N,RTS*%
X90750000Y-3330000D03*
%TO.P,J1,6*%
%TO.N,RXD*%
X93290000Y-3330000D03*
%TO.P,J1,7*%
%TO.N,GND*%
X90750000Y-5870000D03*
%TO.P,J1,8*%
%TO.N,TXD*%
X93290000Y-5870000D03*
%TD*%
%TO.P,C1,1*%
%TO.N,VCC*%
%TA.AperFunction,SMDPad,CuDef*%
G36*
G01*
X88400001Y-1025000D02*
X87099999Y-1025000D01*
G75*
G02*
X86850000Y-775001I0J249999D01*
G01*
X86850000Y-124999D01*
G75*
G02*
X87099999Y125000I249999J0D01*
G01*
X88400001Y125000D01*
G75*
G02*
X88650000Y-124999I0J-249999D01*
G01*
X88650000Y-775001D01*
G75*
G02*
X88400001Y-1025000I-249999J0D01*
G01*
G37*
%TD.AperFunction*%
%TO.P,C1,2*%
%TO.N,GND*%
%TA.AperFunction,SMDPad,CuDef*%
G36*
G01*
X88400001Y1925000D02*
X87099999Y1925000D01*
G75*
G02*
X86850000Y2174999I0J249999D01*
G01*
X86850000Y2825001D01*
G75*
G02*
X87099999Y3075000I249999J0D01*
G01*
X88400001Y3075000D01*
G75*
G02*
X88650000Y2825001I0J-249999D01*
G01*
X88650000Y2174999D01*
G75*
G02*
X88400001Y1925000I-249999J0D01*
G01*
G37*
%TD.AperFunction*%
%TD*%
%TO.P,C2,2*%
%TO.N,GND*%
%TA.AperFunction,SMDPad,CuDef*%
G36*
G01*
X76650001Y1900000D02*
X75349999Y1900000D01*
G75*
G02*
X75100000Y2149999I0J249999D01*
G01*
X75100000Y2800001D01*
G75*
G02*
X75349999Y3050000I249999J0D01*
G01*
X76650001Y3050000D01*
G75*
G02*
X76900000Y2800001I0J-249999D01*
G01*
X76900000Y2149999D01*
G75*
G02*
X76650001Y1900000I-249999J0D01*
G01*
G37*
%TD.AperFunction*%
%TO.P,C2,1*%
%TO.N,+3V3*%
%TA.AperFunction,SMDPad,CuDef*%
G36*
G01*
X76650001Y-1050000D02*
X75349999Y-1050000D01*
G75*
G02*
X75100000Y-800001I0J249999D01*
G01*
X75100000Y-149999D01*
G75*
G02*
X75349999Y100000I249999J0D01*
G01*
X76650001Y100000D01*
G75*
G02*
X76900000Y-149999I0J-249999D01*
G01*
X76900000Y-800001D01*
G75*
G02*
X76650001Y-1050000I-249999J0D01*
G01*
G37*
%TD.AperFunction*%
%TD*%
%TO.P,C5,1*%
%TO.N,+3V3*%
%TA.AperFunction,SMDPad,CuDef*%
G36*
G01*
X75400001Y-15050000D02*
X74099999Y-15050000D01*
G75*
G02*
X73850000Y-14800001I0J249999D01*
G01*
X73850000Y-14149999D01*
G75*
G02*
X74099999Y-13900000I249999J0D01*
G01*
X75400001Y-13900000D01*
G75*
G02*
X75650000Y-14149999I0J-249999D01*
G01*
X75650000Y-14800001D01*
G75*
G02*
X75400001Y-15050000I-249999J0D01*
G01*
G37*
%TD.AperFunction*%
%TO.P,C5,2*%
%TO.N,GND*%
%TA.AperFunction,SMDPad,CuDef*%
G36*
G01*
X75400001Y-12100000D02*
X74099999Y-12100000D01*
G75*
G02*
X73850000Y-11850001I0J249999D01*
G01*
X73850000Y-11199999D01*
G75*
G02*
X74099999Y-10950000I249999J0D01*
G01*
X75400001Y-10950000D01*
G75*
G02*
X75650000Y-11199999I0J-249999D01*
G01*
X75650000Y-11850001D01*
G75*
G02*
X75400001Y-12100000I-249999J0D01*
G01*
G37*
%TD.AperFunction*%
%TD*%
%TO.P,C6,1*%
%TO.N,+3V3*%
%TA.AperFunction,SMDPad,CuDef*%
G36*
G01*
X76950000Y-15025000D02*
X76450000Y-15025000D01*
G75*
G02*
X76225000Y-14800000I0J225000D01*
G01*
X76225000Y-14350000D01*
G75*
G02*
X76450000Y-14125000I225000J0D01*
G01*
X76950000Y-14125000D01*
G75*
G02*
X77175000Y-14350000I0J-225000D01*
G01*
X77175000Y-14800000D01*
G75*
G02*
X76950000Y-15025000I-225000J0D01*
G01*
G37*
%TD.AperFunction*%
%TO.P,C6,2*%
%TO.N,GND*%
%TA.AperFunction,SMDPad,CuDef*%
G36*
G01*
X76950000Y-13475000D02*
X76450000Y-13475000D01*
G75*
G02*
X76225000Y-13250000I0J225000D01*
G01*
X76225000Y-12800000D01*
G75*
G02*
X76450000Y-12575000I225000J0D01*
G01*
X76950000Y-12575000D01*
G75*
G02*
X77175000Y-12800000I0J-225000D01*
G01*
X77175000Y-13250000D01*
G75*
G02*
X76950000Y-13475000I-225000J0D01*
G01*
G37*
%TD.AperFunction*%
%TD*%
%TO.P,C7,1*%
%TO.N,BOOT0*%
%TA.AperFunction,SMDPad,CuDef*%
G36*
G01*
X79010000Y-7230000D02*
X79010000Y-7570000D01*
G75*
G02*
X78870000Y-7710000I-140000J0D01*
G01*
X78590000Y-7710000D01*
G75*
G02*
X78450000Y-7570000I0J140000D01*
G01*
X78450000Y-7230000D01*
G75*
G02*
X78590000Y-7090000I140000J0D01*
G01*
X78870000Y-7090000D01*
G75*
G02*
X79010000Y-7230000I0J-140000D01*
G01*
G37*
%TD.AperFunction*%
%TO.P,C7,2*%
%TO.N,GND*%
%TA.AperFunction,SMDPad,CuDef*%
G36*
G01*
X78050000Y-7230000D02*
X78050000Y-7570000D01*
G75*
G02*
X77910000Y-7710000I-140000J0D01*
G01*
X77630000Y-7710000D01*
G75*
G02*
X77490000Y-7570000I0J140000D01*
G01*
X77490000Y-7230000D01*
G75*
G02*
X77630000Y-7090000I140000J0D01*
G01*
X77910000Y-7090000D01*
G75*
G02*
X78050000Y-7230000I0J-140000D01*
G01*
G37*
%TD.AperFunction*%
%TD*%
%TO.P,C8,2*%
%TO.N,GND*%
%TA.AperFunction,SMDPad,CuDef*%
G36*
G01*
X78050000Y-8480000D02*
X78050000Y-8820000D01*
G75*
G02*
X77910000Y-8960000I-140000J0D01*
G01*
X77630000Y-8960000D01*
G75*
G02*
X77490000Y-8820000I0J140000D01*
G01*
X77490000Y-8480000D01*
G75*
G02*
X77630000Y-8340000I140000J0D01*
G01*
X77910000Y-8340000D01*
G75*
G02*
X78050000Y-8480000I0J-140000D01*
G01*
G37*
%TD.AperFunction*%
%TO.P,C8,1*%
%TO.N,EN*%
%TA.AperFunction,SMDPad,CuDef*%
G36*
G01*
X79010000Y-8480000D02*
X79010000Y-8820000D01*
G75*
G02*
X78870000Y-8960000I-140000J0D01*
G01*
X78590000Y-8960000D01*
G75*
G02*
X78450000Y-8820000I0J140000D01*
G01*
X78450000Y-8480000D01*
G75*
G02*
X78590000Y-8340000I140000J0D01*
G01*
X78870000Y-8340000D01*
G75*
G02*
X79010000Y-8480000I0J-140000D01*
G01*
G37*
%TD.AperFunction*%
%TD*%
%TO.P,C9,1*%
%TO.N,RST*%
%TA.AperFunction,SMDPad,CuDef*%
G36*
G01*
X77490000Y-4570000D02*
X77490000Y-4230000D01*
G75*
G02*
X77630000Y-4090000I140000J0D01*
G01*
X77910000Y-4090000D01*
G75*
G02*
X78050000Y-4230000I0J-140000D01*
G01*
X78050000Y-4570000D01*
G75*
G02*
X77910000Y-4710000I-140000J0D01*
G01*
X77630000Y-4710000D01*
G75*
G02*
X77490000Y-4570000I0J140000D01*
G01*
G37*
%TD.AperFunction*%
%TO.P,C9,2*%
%TO.N,GND*%
%TA.AperFunction,SMDPad,CuDef*%
G36*
G01*
X78450000Y-4570000D02*
X78450000Y-4230000D01*
G75*
G02*
X78590000Y-4090000I140000J0D01*
G01*
X78870000Y-4090000D01*
G75*
G02*
X79010000Y-4230000I0J-140000D01*
G01*
X79010000Y-4570000D01*
G75*
G02*
X78870000Y-4710000I-140000J0D01*
G01*
X78590000Y-4710000D01*
G75*
G02*
X78450000Y-4570000I0J140000D01*
G01*
G37*
%TD.AperFunction*%
%TD*%
D14*
%TO.P,Q1,1*%
%TO.N,RTS*%
X86020999Y-8549999D03*
%TO.P,Q1,2*%
%TO.N,Net-(Q1-Pad2)*%
X86020999Y-10450001D03*
%TO.P,Q1,3*%
%TO.N,Net-(Q1-Pad3)*%
X83979000Y-9500000D03*
%TD*%
%TO.P,Q2,3*%
%TO.N,Net-(Q2-Pad3)*%
X83979000Y-5750000D03*
%TO.P,Q2,2*%
%TO.N,Net-(Q2-Pad2)*%
X86020999Y-6700001D03*
%TO.P,Q2,1*%
%TO.N,DTR*%
X86020999Y-4799999D03*
%TD*%
D15*
%TO.P,Q3,1*%
%TO.N,FLASH_EN*%
X82000000Y-8500000D03*
%TO.P,Q3,2*%
%TO.N,Net-(Q1-Pad3)*%
X82000000Y-10400000D03*
%TO.P,Q3,3*%
%TO.N,EN*%
X80000000Y-9450000D03*
%TD*%
%TO.P,Q4,3*%
%TO.N,BOOT0*%
X80000000Y-5750000D03*
%TO.P,Q4,2*%
%TO.N,Net-(Q2-Pad3)*%
X82000000Y-6700000D03*
%TO.P,Q4,1*%
%TO.N,FLASH_EN*%
X82000000Y-4800000D03*
%TD*%
%TO.P,R1,1*%
%TO.N,GND*%
%TA.AperFunction,SMDPad,CuDef*%
G36*
G01*
X88730000Y-1865000D02*
X88730000Y-2235000D01*
G75*
G02*
X88595000Y-2370000I-135000J0D01*
G01*
X88325000Y-2370000D01*
G75*
G02*
X88190000Y-2235000I0J135000D01*
G01*
X88190000Y-1865000D01*
G75*
G02*
X88325000Y-1730000I135000J0D01*
G01*
X88595000Y-1730000D01*
G75*
G02*
X88730000Y-1865000I0J-135000D01*
G01*
G37*
%TD.AperFunction*%
%TO.P,R1,2*%
%TO.N,Net-(D1-Pad1)*%
%TA.AperFunction,SMDPad,CuDef*%
G36*
G01*
X87710000Y-1865000D02*
X87710000Y-2235000D01*
G75*
G02*
X87575000Y-2370000I-135000J0D01*
G01*
X87305000Y-2370000D01*
G75*
G02*
X87170000Y-2235000I0J135000D01*
G01*
X87170000Y-1865000D01*
G75*
G02*
X87305000Y-1730000I135000J0D01*
G01*
X87575000Y-1730000D01*
G75*
G02*
X87710000Y-1865000I0J-135000D01*
G01*
G37*
%TD.AperFunction*%
%TD*%
%TO.P,R2,1*%
%TO.N,GND*%
%TA.AperFunction,SMDPad,CuDef*%
G36*
G01*
X87170000Y-3235000D02*
X87170000Y-2865000D01*
G75*
G02*
X87305000Y-2730000I135000J0D01*
G01*
X87575000Y-2730000D01*
G75*
G02*
X87710000Y-2865000I0J-135000D01*
G01*
X87710000Y-3235000D01*
G75*
G02*
X87575000Y-3370000I-135000J0D01*
G01*
X87305000Y-3370000D01*
G75*
G02*
X87170000Y-3235000I0J135000D01*
G01*
G37*
%TD.AperFunction*%
%TO.P,R2,2*%
%TO.N,Net-(D2-Pad1)*%
%TA.AperFunction,SMDPad,CuDef*%
G36*
G01*
X88190000Y-3235000D02*
X88190000Y-2865000D01*
G75*
G02*
X88325000Y-2730000I135000J0D01*
G01*
X88595000Y-2730000D01*
G75*
G02*
X88730000Y-2865000I0J-135000D01*
G01*
X88730000Y-3235000D01*
G75*
G02*
X88595000Y-3370000I-135000J0D01*
G01*
X88325000Y-3370000D01*
G75*
G02*
X88190000Y-3235000I0J135000D01*
G01*
G37*
%TD.AperFunction*%
%TD*%
%TO.P,R3,1*%
%TO.N,GND*%
%TA.AperFunction,SMDPad,CuDef*%
G36*
G01*
X87515000Y-13620000D02*
X87885000Y-13620000D01*
G75*
G02*
X88020000Y-13755000I0J-135000D01*
G01*
X88020000Y-14025000D01*
G75*
G02*
X87885000Y-14160000I-135000J0D01*
G01*
X87515000Y-14160000D01*
G75*
G02*
X87380000Y-14025000I0J135000D01*
G01*
X87380000Y-13755000D01*
G75*
G02*
X87515000Y-13620000I135000J0D01*
G01*
G37*
%TD.AperFunction*%
%TO.P,R3,2*%
%TO.N,Net-(D3-Pad1)*%
%TA.AperFunction,SMDPad,CuDef*%
G36*
G01*
X87515000Y-14640000D02*
X87885000Y-14640000D01*
G75*
G02*
X88020000Y-14775000I0J-135000D01*
G01*
X88020000Y-15045000D01*
G75*
G02*
X87885000Y-15180000I-135000J0D01*
G01*
X87515000Y-15180000D01*
G75*
G02*
X87380000Y-15045000I0J135000D01*
G01*
X87380000Y-14775000D01*
G75*
G02*
X87515000Y-14640000I135000J0D01*
G01*
G37*
%TD.AperFunction*%
%TD*%
%TO.P,R4,2*%
%TO.N,Net-(D4-Pad1)*%
%TA.AperFunction,SMDPad,CuDef*%
G36*
G01*
X87885000Y-12160000D02*
X87515000Y-12160000D01*
G75*
G02*
X87380000Y-12025000I0J135000D01*
G01*
X87380000Y-11755000D01*
G75*
G02*
X87515000Y-11620000I135000J0D01*
G01*
X87885000Y-11620000D01*
G75*
G02*
X88020000Y-11755000I0J-135000D01*
G01*
X88020000Y-12025000D01*
G75*
G02*
X87885000Y-12160000I-135000J0D01*
G01*
G37*
%TD.AperFunction*%
%TO.P,R4,1*%
%TO.N,GND*%
%TA.AperFunction,SMDPad,CuDef*%
G36*
G01*
X87885000Y-13180000D02*
X87515000Y-13180000D01*
G75*
G02*
X87380000Y-13045000I0J135000D01*
G01*
X87380000Y-12775000D01*
G75*
G02*
X87515000Y-12640000I135000J0D01*
G01*
X87885000Y-12640000D01*
G75*
G02*
X88020000Y-12775000I0J-135000D01*
G01*
X88020000Y-13045000D01*
G75*
G02*
X87885000Y-13180000I-135000J0D01*
G01*
G37*
%TD.AperFunction*%
%TD*%
%TO.P,R5,2*%
%TO.N,BOOT0*%
%TA.AperFunction,SMDPad,CuDef*%
G36*
G01*
X76600000Y-3585000D02*
X76600000Y-3215000D01*
G75*
G02*
X76735000Y-3080000I135000J0D01*
G01*
X77005000Y-3080000D01*
G75*
G02*
X77140000Y-3215000I0J-135000D01*
G01*
X77140000Y-3585000D01*
G75*
G02*
X77005000Y-3720000I-135000J0D01*
G01*
X76735000Y-3720000D01*
G75*
G02*
X76600000Y-3585000I0J135000D01*
G01*
G37*
%TD.AperFunction*%
%TO.P,R5,1*%
%TO.N,+3V3*%
%TA.AperFunction,SMDPad,CuDef*%
G36*
G01*
X75580000Y-3585000D02*
X75580000Y-3215000D01*
G75*
G02*
X75715000Y-3080000I135000J0D01*
G01*
X75985000Y-3080000D01*
G75*
G02*
X76120000Y-3215000I0J-135000D01*
G01*
X76120000Y-3585000D01*
G75*
G02*
X75985000Y-3720000I-135000J0D01*
G01*
X75715000Y-3720000D01*
G75*
G02*
X75580000Y-3585000I0J135000D01*
G01*
G37*
%TD.AperFunction*%
%TD*%
%TO.P,R6,1*%
%TO.N,+3V3*%
%TA.AperFunction,SMDPad,CuDef*%
G36*
G01*
X77470000Y-10835000D02*
X77470000Y-10465000D01*
G75*
G02*
X77605000Y-10330000I135000J0D01*
G01*
X77875000Y-10330000D01*
G75*
G02*
X78010000Y-10465000I0J-135000D01*
G01*
X78010000Y-10835000D01*
G75*
G02*
X77875000Y-10970000I-135000J0D01*
G01*
X77605000Y-10970000D01*
G75*
G02*
X77470000Y-10835000I0J135000D01*
G01*
G37*
%TD.AperFunction*%
%TO.P,R6,2*%
%TO.N,EN*%
%TA.AperFunction,SMDPad,CuDef*%
G36*
G01*
X78490000Y-10835000D02*
X78490000Y-10465000D01*
G75*
G02*
X78625000Y-10330000I135000J0D01*
G01*
X78895000Y-10330000D01*
G75*
G02*
X79030000Y-10465000I0J-135000D01*
G01*
X79030000Y-10835000D01*
G75*
G02*
X78895000Y-10970000I-135000J0D01*
G01*
X78625000Y-10970000D01*
G75*
G02*
X78490000Y-10835000I0J135000D01*
G01*
G37*
%TD.AperFunction*%
%TD*%
%TO.P,R7,2*%
%TO.N,RST*%
%TA.AperFunction,SMDPad,CuDef*%
G36*
G01*
X76590000Y-4585000D02*
X76590000Y-4215000D01*
G75*
G02*
X76725000Y-4080000I135000J0D01*
G01*
X76995000Y-4080000D01*
G75*
G02*
X77130000Y-4215000I0J-135000D01*
G01*
X77130000Y-4585000D01*
G75*
G02*
X76995000Y-4720000I-135000J0D01*
G01*
X76725000Y-4720000D01*
G75*
G02*
X76590000Y-4585000I0J135000D01*
G01*
G37*
%TD.AperFunction*%
%TO.P,R7,1*%
%TO.N,+3V3*%
%TA.AperFunction,SMDPad,CuDef*%
G36*
G01*
X75570000Y-4585000D02*
X75570000Y-4215000D01*
G75*
G02*
X75705000Y-4080000I135000J0D01*
G01*
X75975000Y-4080000D01*
G75*
G02*
X76110000Y-4215000I0J-135000D01*
G01*
X76110000Y-4585000D01*
G75*
G02*
X75975000Y-4720000I-135000J0D01*
G01*
X75705000Y-4720000D01*
G75*
G02*
X75570000Y-4585000I0J135000D01*
G01*
G37*
%TD.AperFunction*%
%TD*%
%TO.P,R8,1*%
%TO.N,Net-(Q1-Pad2)*%
%TA.AperFunction,SMDPad,CuDef*%
G36*
G01*
X87170000Y-5685000D02*
X87170000Y-5315000D01*
G75*
G02*
X87305000Y-5180000I135000J0D01*
G01*
X87575000Y-5180000D01*
G75*
G02*
X87710000Y-5315000I0J-135000D01*
G01*
X87710000Y-5685000D01*
G75*
G02*
X87575000Y-5820000I-135000J0D01*
G01*
X87305000Y-5820000D01*
G75*
G02*
X87170000Y-5685000I0J135000D01*
G01*
G37*
%TD.AperFunction*%
%TO.P,R8,2*%
%TO.N,DTR*%
%TA.AperFunction,SMDPad,CuDef*%
G36*
G01*
X88190000Y-5685000D02*
X88190000Y-5315000D01*
G75*
G02*
X88325000Y-5180000I135000J0D01*
G01*
X88595000Y-5180000D01*
G75*
G02*
X88730000Y-5315000I0J-135000D01*
G01*
X88730000Y-5685000D01*
G75*
G02*
X88595000Y-5820000I-135000J0D01*
G01*
X88325000Y-5820000D01*
G75*
G02*
X88190000Y-5685000I0J135000D01*
G01*
G37*
%TD.AperFunction*%
%TD*%
%TO.P,R9,1*%
%TO.N,RTS*%
%TA.AperFunction,SMDPad,CuDef*%
G36*
G01*
X88730000Y-6315000D02*
X88730000Y-6685000D01*
G75*
G02*
X88595000Y-6820000I-135000J0D01*
G01*
X88325000Y-6820000D01*
G75*
G02*
X88190000Y-6685000I0J135000D01*
G01*
X88190000Y-6315000D01*
G75*
G02*
X88325000Y-6180000I135000J0D01*
G01*
X88595000Y-6180000D01*
G75*
G02*
X88730000Y-6315000I0J-135000D01*
G01*
G37*
%TD.AperFunction*%
%TO.P,R9,2*%
%TO.N,Net-(Q2-Pad2)*%
%TA.AperFunction,SMDPad,CuDef*%
G36*
G01*
X87710000Y-6315000D02*
X87710000Y-6685000D01*
G75*
G02*
X87575000Y-6820000I-135000J0D01*
G01*
X87305000Y-6820000D01*
G75*
G02*
X87170000Y-6685000I0J135000D01*
G01*
X87170000Y-6315000D01*
G75*
G02*
X87305000Y-6180000I135000J0D01*
G01*
X87575000Y-6180000D01*
G75*
G02*
X87710000Y-6315000I0J-135000D01*
G01*
G37*
%TD.AperFunction*%
%TD*%
%TO.P,R10,2*%
%TO.N,EN*%
%TA.AperFunction,SMDPad,CuDef*%
G36*
G01*
X78490000Y-11835000D02*
X78490000Y-11465000D01*
G75*
G02*
X78625000Y-11330000I135000J0D01*
G01*
X78895000Y-11330000D01*
G75*
G02*
X79030000Y-11465000I0J-135000D01*
G01*
X79030000Y-11835000D01*
G75*
G02*
X78895000Y-11970000I-135000J0D01*
G01*
X78625000Y-11970000D01*
G75*
G02*
X78490000Y-11835000I0J135000D01*
G01*
G37*
%TD.AperFunction*%
%TO.P,R10,1*%
%TO.N,Net-(R10-Pad1)*%
%TA.AperFunction,SMDPad,CuDef*%
G36*
G01*
X77470000Y-11835000D02*
X77470000Y-11465000D01*
G75*
G02*
X77605000Y-11330000I135000J0D01*
G01*
X77875000Y-11330000D01*
G75*
G02*
X78010000Y-11465000I0J-135000D01*
G01*
X78010000Y-11835000D01*
G75*
G02*
X77875000Y-11970000I-135000J0D01*
G01*
X77605000Y-11970000D01*
G75*
G02*
X77470000Y-11835000I0J135000D01*
G01*
G37*
%TD.AperFunction*%
%TD*%
%TO.P,R11,2*%
%TO.N,RXD*%
%TA.AperFunction,SMDPad,CuDef*%
G36*
G01*
X87885000Y-10160000D02*
X87515000Y-10160000D01*
G75*
G02*
X87380000Y-10025000I0J135000D01*
G01*
X87380000Y-9755000D01*
G75*
G02*
X87515000Y-9620000I135000J0D01*
G01*
X87885000Y-9620000D01*
G75*
G02*
X88020000Y-9755000I0J-135000D01*
G01*
X88020000Y-10025000D01*
G75*
G02*
X87885000Y-10160000I-135000J0D01*
G01*
G37*
%TD.AperFunction*%
%TO.P,R11,1*%
%TO.N,Net-(R11-Pad1)*%
%TA.AperFunction,SMDPad,CuDef*%
G36*
G01*
X87885000Y-11180000D02*
X87515000Y-11180000D01*
G75*
G02*
X87380000Y-11045000I0J135000D01*
G01*
X87380000Y-10775000D01*
G75*
G02*
X87515000Y-10640000I135000J0D01*
G01*
X87885000Y-10640000D01*
G75*
G02*
X88020000Y-10775000I0J-135000D01*
G01*
X88020000Y-11045000D01*
G75*
G02*
X87885000Y-11180000I-135000J0D01*
G01*
G37*
%TD.AperFunction*%
%TD*%
%TO.P,R12,1*%
%TO.N,Net-(R12-Pad1)*%
%TA.AperFunction,SMDPad,CuDef*%
G36*
G01*
X87885000Y-9180000D02*
X87515000Y-9180000D01*
G75*
G02*
X87380000Y-9045000I0J135000D01*
G01*
X87380000Y-8775000D01*
G75*
G02*
X87515000Y-8640000I135000J0D01*
G01*
X87885000Y-8640000D01*
G75*
G02*
X88020000Y-8775000I0J-135000D01*
G01*
X88020000Y-9045000D01*
G75*
G02*
X87885000Y-9180000I-135000J0D01*
G01*
G37*
%TD.AperFunction*%
%TO.P,R12,2*%
%TO.N,TXD*%
%TA.AperFunction,SMDPad,CuDef*%
G36*
G01*
X87885000Y-8160000D02*
X87515000Y-8160000D01*
G75*
G02*
X87380000Y-8025000I0J135000D01*
G01*
X87380000Y-7755000D01*
G75*
G02*
X87515000Y-7620000I135000J0D01*
G01*
X87885000Y-7620000D01*
G75*
G02*
X88020000Y-7755000I0J-135000D01*
G01*
X88020000Y-8025000D01*
G75*
G02*
X87885000Y-8160000I-135000J0D01*
G01*
G37*
%TD.AperFunction*%
%TD*%
%TO.P,R13,1*%
%TO.N,BOOT0*%
%TA.AperFunction,SMDPad,CuDef*%
G36*
G01*
X79030000Y-5215000D02*
X79030000Y-5585000D01*
G75*
G02*
X78895000Y-5720000I-135000J0D01*
G01*
X78625000Y-5720000D01*
G75*
G02*
X78490000Y-5585000I0J135000D01*
G01*
X78490000Y-5215000D01*
G75*
G02*
X78625000Y-5080000I135000J0D01*
G01*
X78895000Y-5080000D01*
G75*
G02*
X79030000Y-5215000I0J-135000D01*
G01*
G37*
%TD.AperFunction*%
%TO.P,R13,2*%
%TO.N,Net-(R13-Pad2)*%
%TA.AperFunction,SMDPad,CuDef*%
G36*
G01*
X78010000Y-5215000D02*
X78010000Y-5585000D01*
G75*
G02*
X77875000Y-5720000I-135000J0D01*
G01*
X77605000Y-5720000D01*
G75*
G02*
X77470000Y-5585000I0J135000D01*
G01*
X77470000Y-5215000D01*
G75*
G02*
X77605000Y-5080000I135000J0D01*
G01*
X77875000Y-5080000D01*
G75*
G02*
X78010000Y-5215000I0J-135000D01*
G01*
G37*
%TD.AperFunction*%
%TD*%
%TO.P,R14,2*%
%TO.N,+3V3*%
%TA.AperFunction,SMDPad,CuDef*%
G36*
G01*
X83065000Y-11240000D02*
X83435000Y-11240000D01*
G75*
G02*
X83570000Y-11375000I0J-135000D01*
G01*
X83570000Y-11645000D01*
G75*
G02*
X83435000Y-11780000I-135000J0D01*
G01*
X83065000Y-11780000D01*
G75*
G02*
X82930000Y-11645000I0J135000D01*
G01*
X82930000Y-11375000D01*
G75*
G02*
X83065000Y-11240000I135000J0D01*
G01*
G37*
%TD.AperFunction*%
%TO.P,R14,1*%
%TO.N,Net-(Q1-Pad3)*%
%TA.AperFunction,SMDPad,CuDef*%
G36*
G01*
X83065000Y-10220000D02*
X83435000Y-10220000D01*
G75*
G02*
X83570000Y-10355000I0J-135000D01*
G01*
X83570000Y-10625000D01*
G75*
G02*
X83435000Y-10760000I-135000J0D01*
G01*
X83065000Y-10760000D01*
G75*
G02*
X82930000Y-10625000I0J135000D01*
G01*
X82930000Y-10355000D01*
G75*
G02*
X83065000Y-10220000I135000J0D01*
G01*
G37*
%TD.AperFunction*%
%TD*%
%TO.P,R15,2*%
%TO.N,+3V3*%
%TA.AperFunction,SMDPad,CuDef*%
G36*
G01*
X83115000Y-7840000D02*
X83485000Y-7840000D01*
G75*
G02*
X83620000Y-7975000I0J-135000D01*
G01*
X83620000Y-8245000D01*
G75*
G02*
X83485000Y-8380000I-135000J0D01*
G01*
X83115000Y-8380000D01*
G75*
G02*
X82980000Y-8245000I0J135000D01*
G01*
X82980000Y-7975000D01*
G75*
G02*
X83115000Y-7840000I135000J0D01*
G01*
G37*
%TD.AperFunction*%
%TO.P,R15,1*%
%TO.N,Net-(Q2-Pad3)*%
%TA.AperFunction,SMDPad,CuDef*%
G36*
G01*
X83115000Y-6820000D02*
X83485000Y-6820000D01*
G75*
G02*
X83620000Y-6955000I0J-135000D01*
G01*
X83620000Y-7225000D01*
G75*
G02*
X83485000Y-7360000I-135000J0D01*
G01*
X83115000Y-7360000D01*
G75*
G02*
X82980000Y-7225000I0J135000D01*
G01*
X82980000Y-6955000D01*
G75*
G02*
X83115000Y-6820000I135000J0D01*
G01*
G37*
%TD.AperFunction*%
%TD*%
%TO.P,R16,2*%
%TO.N,+3V3*%
%TA.AperFunction,SMDPad,CuDef*%
G36*
G01*
X78010000Y-9465000D02*
X78010000Y-9835000D01*
G75*
G02*
X77875000Y-9970000I-135000J0D01*
G01*
X77605000Y-9970000D01*
G75*
G02*
X77470000Y-9835000I0J135000D01*
G01*
X77470000Y-9465000D01*
G75*
G02*
X77605000Y-9330000I135000J0D01*
G01*
X77875000Y-9330000D01*
G75*
G02*
X78010000Y-9465000I0J-135000D01*
G01*
G37*
%TD.AperFunction*%
%TO.P,R16,1*%
%TO.N,EN*%
%TA.AperFunction,SMDPad,CuDef*%
G36*
G01*
X79030000Y-9465000D02*
X79030000Y-9835000D01*
G75*
G02*
X78895000Y-9970000I-135000J0D01*
G01*
X78625000Y-9970000D01*
G75*
G02*
X78490000Y-9835000I0J135000D01*
G01*
X78490000Y-9465000D01*
G75*
G02*
X78625000Y-9330000I135000J0D01*
G01*
X78895000Y-9330000D01*
G75*
G02*
X79030000Y-9465000I0J-135000D01*
G01*
G37*
%TD.AperFunction*%
%TD*%
%TO.P,R17,1*%
%TO.N,BOOT0*%
%TA.AperFunction,SMDPad,CuDef*%
G36*
G01*
X79030000Y-6215000D02*
X79030000Y-6585000D01*
G75*
G02*
X78895000Y-6720000I-135000J0D01*
G01*
X78625000Y-6720000D01*
G75*
G02*
X78490000Y-6585000I0J135000D01*
G01*
X78490000Y-6215000D01*
G75*
G02*
X78625000Y-6080000I135000J0D01*
G01*
X78895000Y-6080000D01*
G75*
G02*
X79030000Y-6215000I0J-135000D01*
G01*
G37*
%TD.AperFunction*%
%TO.P,R17,2*%
%TO.N,+3V3*%
%TA.AperFunction,SMDPad,CuDef*%
G36*
G01*
X78010000Y-6215000D02*
X78010000Y-6585000D01*
G75*
G02*
X77875000Y-6720000I-135000J0D01*
G01*
X77605000Y-6720000D01*
G75*
G02*
X77470000Y-6585000I0J135000D01*
G01*
X77470000Y-6215000D01*
G75*
G02*
X77605000Y-6080000I135000J0D01*
G01*
X77875000Y-6080000D01*
G75*
G02*
X78010000Y-6215000I0J-135000D01*
G01*
G37*
%TD.AperFunction*%
%TD*%
%TO.P,R18,2*%
%TO.N,FLASH_EN*%
%TA.AperFunction,SMDPad,CuDef*%
G36*
G01*
X87710000Y-3865000D02*
X87710000Y-4235000D01*
G75*
G02*
X87575000Y-4370000I-135000J0D01*
G01*
X87305000Y-4370000D01*
G75*
G02*
X87170000Y-4235000I0J135000D01*
G01*
X87170000Y-3865000D01*
G75*
G02*
X87305000Y-3730000I135000J0D01*
G01*
X87575000Y-3730000D01*
G75*
G02*
X87710000Y-3865000I0J-135000D01*
G01*
G37*
%TD.AperFunction*%
%TO.P,R18,1*%
%TO.N,GND*%
%TA.AperFunction,SMDPad,CuDef*%
G36*
G01*
X88730000Y-3865000D02*
X88730000Y-4235000D01*
G75*
G02*
X88595000Y-4370000I-135000J0D01*
G01*
X88325000Y-4370000D01*
G75*
G02*
X88190000Y-4235000I0J135000D01*
G01*
X88190000Y-3865000D01*
G75*
G02*
X88325000Y-3730000I135000J0D01*
G01*
X88595000Y-3730000D01*
G75*
G02*
X88730000Y-3865000I0J-135000D01*
G01*
G37*
%TD.AperFunction*%
%TD*%
D16*
%TO.P,U1,2*%
%TO.N,+3V3*%
X78600000Y-250000D03*
D17*
X84900000Y-250000D03*
%TO.P,U1,3*%
%TO.N,VCC*%
X84900000Y-2550000D03*
%TO.P,U1,1*%
%TO.N,GND*%
X84900000Y2050000D03*
%TD*%
D18*
%TO.N,GND*%
X80900000Y-2150000D03*
D19*
%TO.N,VCC*%
X86750002Y-550000D03*
%TO.N,GND*%
X79750000Y-4400000D03*
X76964668Y-8385332D03*
D18*
X74250000Y-10300000D03*
X74050000Y1450000D03*
D19*
X75150000Y1450000D03*
X76050000Y1400000D03*
X80856598Y1625742D03*
X86714711Y-2922596D03*
X85550000Y-14149999D03*
X74600000Y-9450000D03*
X76350000Y-12200000D03*
X78073775Y-12673775D03*
D18*
%TO.N,+3V3*%
X74025000Y-13400000D03*
D19*
X77200000Y-6450000D03*
X77150000Y-10100000D03*
D18*
X74400000Y-500000D03*
D19*
X76800000Y-1500000D03*
X74900000Y-1550000D03*
X75100000Y350000D03*
D20*
X83339712Y-11239712D03*
D19*
X84299989Y-8100000D03*
X74650000Y-12750000D03*
%TO.N,BOOT0*%
X79700000Y-7750000D03*
X81833867Y-11922064D03*
D20*
%TO.N,RST*%
X75600000Y-5550000D03*
%TO.N,LED_WIFI*%
X86150002Y906318D03*
X80050002Y951787D03*
%TO.N,Net-(D1-Pad1)*%
X89105407Y-322189D03*
%TO.N,Net-(D2-Pad1)*%
X88500000Y-2850000D03*
%TO.N,LED_STATUS*%
X83374265Y343749D03*
X80950000Y350000D03*
D19*
%TO.N,Net-(D3-Pad1)*%
X87800000Y-15375000D03*
%TO.N,Net-(D4-Pad1)*%
X86800000Y-12084001D03*
D20*
%TO.N,LED_RX*%
X84224655Y-11132588D03*
X85650000Y-11184003D03*
D19*
%TO.N,RXD*%
X86100000Y-9434001D03*
%TO.N,Net-(R10-Pad1)*%
X75400000Y-10150000D03*
D20*
%TO.N,Net-(R11-Pad1)*%
X83300000Y-1150000D03*
X82311091Y-1788909D03*
X86742232Y-11235965D03*
%TO.N,Net-(R12-Pad1)*%
X86948447Y-9146861D03*
D19*
%TO.N,Net-(R13-Pad2)*%
X76750000Y-5450000D03*
X84550000Y-14150000D03*
X79700000Y-10500000D03*
%TO.N,FLASH_EN*%
X86600000Y-3915997D03*
%TD*%
D21*
%TO.N,VCC*%
X87650000Y-550000D02*
X87750000Y-450000D01*
X86750002Y-550000D02*
X87650000Y-550000D01*
D22*
X93290000Y1750000D02*
X92039999Y499999D01*
X88699999Y499999D02*
X87750000Y-450000D01*
X92039999Y499999D02*
X88699999Y499999D01*
D23*
X85315687Y-2550000D02*
X84900000Y-2550000D01*
X86750002Y-1115685D02*
X85315687Y-2550000D01*
X86750002Y-550000D02*
X86750002Y-1115685D01*
D22*
%TO.N,GND*%
X92000001Y-4619999D02*
X90750000Y-5870000D01*
X92000001Y-2079999D02*
X92000001Y-4619999D01*
X93290000Y-790000D02*
X92000001Y-2079999D01*
D21*
X94349999Y2950001D02*
X88200001Y2950001D01*
X94490001Y2809999D02*
X94349999Y2950001D01*
X94490001Y410001D02*
X94490001Y2809999D01*
X88200001Y2950001D02*
X87750000Y2500000D01*
X93290000Y-790000D02*
X94490001Y410001D01*
X79750000Y-4400000D02*
X78730000Y-4400000D01*
X87630000Y-13820000D02*
X87700000Y-13890000D01*
X86450000Y-13820000D02*
X87630000Y-13820000D01*
X87700000Y-13890000D02*
X87700000Y-12910000D01*
X87360000Y-12910000D02*
X86450000Y-13820000D01*
X87700000Y-12910000D02*
X87360000Y-12910000D01*
D23*
X78200000Y-13820000D02*
X77495000Y-13820000D01*
X76250000Y-13025000D02*
X74750000Y-11525000D01*
X76700000Y-13025000D02*
X76250000Y-13025000D01*
X85350000Y2500000D02*
X84900000Y2050000D01*
X87750000Y2500000D02*
X85350000Y2500000D01*
X84900000Y2050000D02*
X83900000Y2050000D01*
X83900000Y2050000D02*
X83500000Y1650000D01*
X80100000Y1650000D02*
X80050001Y1699999D01*
X79585002Y2475000D02*
X76000000Y2475000D01*
X80050001Y2010001D02*
X79585002Y2475000D01*
X80050001Y1699999D02*
X80050001Y2010001D01*
D24*
X87440000Y-3050000D02*
X88440000Y-4050000D01*
D23*
X77770000Y-8650000D02*
X77770000Y-7400000D01*
X77229336Y-8650000D02*
X76964668Y-8385332D01*
X77770000Y-8650000D02*
X77229336Y-8650000D01*
X74750000Y-10800000D02*
X74250000Y-10300000D01*
X74750000Y-11525000D02*
X74750000Y-10800000D01*
X75075000Y2475000D02*
X74050000Y1450000D01*
X76000000Y2475000D02*
X75075000Y2475000D01*
X76000000Y2300000D02*
X75150000Y1450000D01*
X76000000Y2475000D02*
X76000000Y2300000D01*
X76000000Y1450000D02*
X76050000Y1400000D01*
X76000000Y2475000D02*
X76000000Y1450000D01*
X80880856Y1650000D02*
X80856598Y1625742D01*
X81250000Y1650000D02*
X80880856Y1650000D01*
X83500000Y1650000D02*
X81250000Y1650000D01*
X81250000Y1650000D02*
X80100000Y1650000D01*
D21*
X88445908Y-2050000D02*
X88460000Y-2050000D01*
X87445908Y-3050000D02*
X88445908Y-2050000D01*
X87440000Y-3050000D02*
X87445908Y-3050000D01*
X88445908Y-4050000D02*
X88460000Y-4050000D01*
X87775898Y-3379990D02*
X88445908Y-4050000D01*
X87769990Y-3379990D02*
X87775898Y-3379990D01*
X87440000Y-3050000D02*
X87769990Y-3379990D01*
X86842115Y-3050000D02*
X86714711Y-2922596D01*
X87440000Y-3050000D02*
X86842115Y-3050000D01*
D23*
X85879999Y-13820000D02*
X85550000Y-14149999D01*
X86450000Y-13820000D02*
X85879999Y-13820000D01*
X74549999Y-9500001D02*
X74600000Y-9450000D01*
X74549999Y-10599999D02*
X74549999Y-9500001D01*
X74750000Y-10800000D02*
X74549999Y-10599999D01*
X76700000Y-12550000D02*
X76350000Y-12200000D01*
X76700000Y-13025000D02*
X76700000Y-12550000D01*
X78200000Y-12800000D02*
X78073775Y-12673775D01*
X78200000Y-13820000D02*
X78200000Y-12800000D01*
X77112500Y-13437500D02*
X77310050Y-13437500D01*
X77495000Y-13820000D02*
X77112500Y-13437500D01*
X77112500Y-13437500D02*
X76700000Y-13025000D01*
X78070000Y-13820000D02*
X77498775Y-13248775D01*
X78200000Y-13820000D02*
X78070000Y-13820000D01*
X77498775Y-13248775D02*
X78073775Y-12673775D01*
X77310050Y-13437500D02*
X77498775Y-13248775D01*
X78200000Y-13820000D02*
X78080000Y-13820000D01*
D21*
%TO.N,+3V3*%
X75850000Y-4390000D02*
X75840000Y-4400000D01*
X75850000Y-3400000D02*
X75850000Y-4390000D01*
X77740000Y-6400000D02*
X77740000Y-6340000D01*
D23*
X76600000Y-14475000D02*
X76700000Y-14575000D01*
X74750000Y-14475000D02*
X76600000Y-14475000D01*
X74750000Y-14125000D02*
X74025000Y-13400000D01*
X74750000Y-14475000D02*
X74750000Y-14125000D01*
X83908001Y-356251D02*
X78706251Y-356251D01*
X78706251Y-356251D02*
X78600000Y-250000D01*
X84014252Y-250000D02*
X83908001Y-356251D01*
X84900000Y-250000D02*
X84014252Y-250000D01*
X78375000Y-475000D02*
X78600000Y-250000D01*
X76000000Y-475000D02*
X78375000Y-475000D01*
X77250000Y-6400000D02*
X77200000Y-6450000D01*
X77740000Y-6400000D02*
X77250000Y-6400000D01*
X77190000Y-10060000D02*
X77150000Y-10100000D01*
X77740000Y-10060000D02*
X77190000Y-10060000D01*
X77740000Y-9650000D02*
X77740000Y-10060000D01*
X77740000Y-10060000D02*
X77740000Y-10650000D01*
X74425000Y-475000D02*
X74400000Y-500000D01*
X76000000Y-475000D02*
X74425000Y-475000D01*
X76000000Y-475000D02*
X76000000Y-700000D01*
X76000000Y-700000D02*
X76800000Y-1500000D01*
X75975000Y-475000D02*
X74900000Y-1550000D01*
X76000000Y-475000D02*
X75975000Y-475000D01*
X75925000Y-475000D02*
X75100000Y350000D01*
X76000000Y-475000D02*
X75925000Y-475000D01*
D24*
X83250000Y-11300000D02*
X83450000Y-11100000D01*
X83250000Y-11510000D02*
X83250000Y-11300000D01*
D23*
X84289989Y-8110000D02*
X84299989Y-8100000D01*
X83300000Y-8110000D02*
X84289989Y-8110000D01*
X74900000Y-2450000D02*
X75850000Y-3400000D01*
X74900000Y-1550000D02*
X74900000Y-2450000D01*
X74750000Y-12800000D02*
X74650000Y-12700000D01*
X74750000Y-14475000D02*
X74750000Y-12800000D01*
D21*
%TO.N,EN*%
X78730000Y-11620000D02*
X78760000Y-11650000D01*
X78730000Y-8650000D02*
X78730000Y-11620000D01*
X79800000Y-9650000D02*
X80000000Y-9450000D01*
X78760000Y-9650000D02*
X79800000Y-9650000D01*
X80059998Y-14570000D02*
X81700000Y-14570000D01*
X79100001Y-13610003D02*
X80059998Y-14570000D01*
X79100001Y-11990001D02*
X79100001Y-13610003D01*
X78760000Y-11650000D02*
X79100001Y-11990001D01*
%TO.N,BOOT0*%
X79110000Y-5750000D02*
X78760000Y-5400000D01*
X80000000Y-5750000D02*
X79110000Y-5750000D01*
X78760000Y-7370000D02*
X78730000Y-7400000D01*
X78760000Y-5400000D02*
X78760000Y-7370000D01*
X79860002Y-3400000D02*
X76870000Y-3400000D01*
X80500001Y-4039999D02*
X79860002Y-3400000D01*
X80500001Y-5249999D02*
X80500001Y-4039999D01*
X80000000Y-5750000D02*
X80500001Y-5249999D01*
X83050000Y-13339998D02*
X83050000Y-13820000D01*
X83050000Y-13820000D02*
X83050000Y-13369999D01*
X79080000Y-7750000D02*
X78730000Y-7400000D01*
X79700000Y-7750000D02*
X79080000Y-7750000D01*
X83050000Y-13138197D02*
X81833867Y-11922064D01*
X83050000Y-13820000D02*
X83050000Y-13138197D01*
%TO.N,RST*%
X77770000Y-4400000D02*
X76860000Y-4400000D01*
D24*
X76805198Y-4400000D02*
X76860000Y-4400000D01*
X75655198Y-5550000D02*
X76805198Y-4400000D01*
X75600000Y-5550000D02*
X75655198Y-5550000D01*
%TO.N,LED_WIFI*%
X80095471Y906318D02*
X80050002Y951787D01*
X86150002Y906318D02*
X80095471Y906318D01*
%TO.N,Net-(D1-Pad1)*%
X88950010Y-1002824D02*
X88950010Y-300000D01*
X88627824Y-1325010D02*
X88950010Y-1002824D01*
X88164990Y-1325010D02*
X88627824Y-1325010D01*
X87440000Y-2050000D02*
X88164990Y-1325010D01*
%TO.N,Net-(D2-Pad1)*%
X88460000Y-2890000D02*
X88500000Y-2850000D01*
X88460000Y-3050000D02*
X88460000Y-2890000D01*
%TO.N,LED_STATUS*%
X83374265Y343749D02*
X82000000Y343749D01*
X81993749Y350000D02*
X82000000Y343749D01*
X80950000Y350000D02*
X81993749Y350000D01*
D21*
%TO.N,Net-(D3-Pad1)*%
X87800000Y-15010000D02*
X87700000Y-14910000D01*
X87800000Y-15375000D02*
X87800000Y-15010000D01*
%TO.N,Net-(D4-Pad1)*%
X86994001Y-11890000D02*
X86800000Y-12084001D01*
X87700000Y-11890000D02*
X86994001Y-11890000D01*
D24*
%TO.N,LED_RX*%
X85598585Y-11132588D02*
X85650000Y-11184003D01*
X84224655Y-11132588D02*
X85598585Y-11132588D01*
D21*
%TO.N,TXD*%
X88075908Y-7890000D02*
X87700000Y-7890000D01*
X88895907Y-7070001D02*
X88075908Y-7890000D01*
X92089999Y-7070001D02*
X88895907Y-7070001D01*
X93290000Y-5870000D02*
X92089999Y-7070001D01*
%TO.N,RXD*%
X87700000Y-9890000D02*
X87610000Y-9890000D01*
X87610000Y-9890000D02*
X87520000Y-9800000D01*
X86150000Y-9816000D02*
X86150000Y-9484001D01*
X86150000Y-9484001D02*
X86100000Y-9434001D01*
X87626000Y-9816000D02*
X86150000Y-9816000D01*
X87700000Y-9890000D02*
X87626000Y-9816000D01*
%TO.N,DTR*%
X87759999Y-4799999D02*
X86020999Y-4799999D01*
X88460000Y-5500000D02*
X87759999Y-4799999D01*
X89080010Y-4879990D02*
X88460000Y-5500000D01*
X90750000Y-1473028D02*
X89080010Y-3143018D01*
X89080010Y-3143018D02*
X89080010Y-4879990D01*
X90750000Y-790000D02*
X90750000Y-1473028D01*
%TO.N,RTS*%
X88465908Y-6500000D02*
X88460000Y-6500000D01*
X89080010Y-5885898D02*
X88465908Y-6500000D01*
X89080010Y-5587110D02*
X89080010Y-5885898D01*
X90750000Y-3917120D02*
X89080010Y-5587110D01*
X90750000Y-3330000D02*
X90750000Y-3917120D01*
X87690010Y-7269990D02*
X87301008Y-7269990D01*
X87301008Y-7269990D02*
X86020999Y-8549999D01*
X88460000Y-6500000D02*
X87690010Y-7269990D01*
%TO.N,Net-(R10-Pad1)*%
X76900000Y-11650000D02*
X75400000Y-10150000D01*
X77740000Y-11650000D02*
X76900000Y-11650000D01*
D24*
%TO.N,Net-(R11-Pad1)*%
X82950000Y-1150000D02*
X82311091Y-1788909D01*
X83300000Y-1150000D02*
X82950000Y-1150000D01*
X87374035Y-11235965D02*
X87700000Y-10910000D01*
X86742232Y-11235965D02*
X87374035Y-11235965D01*
%TO.N,Net-(R12-Pad1)*%
X87185308Y-8910000D02*
X86948447Y-9146861D01*
X87700000Y-8910000D02*
X87185308Y-8910000D01*
D21*
%TO.N,Net-(R13-Pad2)*%
X77690000Y-5450000D02*
X77740000Y-5400000D01*
X76750000Y-5450000D02*
X77690000Y-5450000D01*
X81269999Y-11150001D02*
X80619998Y-10500000D01*
X82579990Y-11150001D02*
X81269999Y-11150001D01*
X82579990Y-11845898D02*
X82579990Y-11150001D01*
X82864102Y-12130010D02*
X82579990Y-11845898D01*
X83850001Y-12344113D02*
X83635898Y-12130010D01*
X83635898Y-12130010D02*
X82864102Y-12130010D01*
X83850001Y-13450001D02*
X83850001Y-12344113D01*
X80619998Y-10500000D02*
X79700000Y-10500000D01*
X84550000Y-14150000D02*
X83850001Y-13450001D01*
%TO.N,FLASH_EN*%
X81199999Y-5600001D02*
X82000000Y-4800000D01*
X81199999Y-7699999D02*
X81199999Y-5600001D01*
X82000000Y-8500000D02*
X81199999Y-7699999D01*
X82750000Y-4050000D02*
X82000000Y-4800000D01*
X87440000Y-4050000D02*
X82750000Y-4050000D01*
X84976512Y-4050000D02*
X84921907Y-3995395D01*
X87440000Y-4050000D02*
X84976512Y-4050000D01*
%TO.N,Net-(Q1-Pad2)*%
X85066999Y-9496001D02*
X86020999Y-10450001D01*
X85066999Y-6136000D02*
X85066999Y-9496001D01*
X85702999Y-5500000D02*
X85066999Y-6136000D01*
X87440000Y-5500000D02*
X85702999Y-5500000D01*
%TO.N,Net-(Q1-Pad3)*%
X83979000Y-9761000D02*
X83250000Y-10490000D01*
X83979000Y-9500000D02*
X83979000Y-9761000D01*
X82090000Y-10490000D02*
X82000000Y-10400000D01*
X83250000Y-10490000D02*
X82090000Y-10490000D01*
X82900000Y-9500000D02*
X82000000Y-10400000D01*
X83979000Y-9500000D02*
X82900000Y-9500000D01*
%TO.N,Net-(Q2-Pad3)*%
X83979000Y-6411000D02*
X83300000Y-7090000D01*
X83979000Y-5750000D02*
X83979000Y-6411000D01*
X82390000Y-7090000D02*
X82000000Y-6700000D01*
X83300000Y-7090000D02*
X82390000Y-7090000D01*
X83029000Y-6700000D02*
X83979000Y-5750000D01*
X82000000Y-6700000D02*
X83029000Y-6700000D01*
%TO.N,Net-(Q2-Pad2)*%
X86020999Y-6700001D02*
X87239999Y-6700001D01*
X87239999Y-6700001D02*
X87440000Y-6500000D01*
%TD*%
M02*
