M48
; DRILL file {KiCad 5.1.9} date Wed Jan 20 22:35:39 2021
; FORMAT={-:-/ absolute / metric / decimal}
; #@! TF.CreationDate,2021-01-20T22:35:39+01:00
; #@! TF.GenerationSoftware,Kicad,Pcbnew,5.1.9
; #@! TF.FileFunction,Plated,1,4,PTH
FMAT,2
METRIC
T1C0.300
T2C0.400
T3C0.800
T4C1.000
%
G90
G05
T1
X103.7Y-68.45
X104.8Y-70.521
X107.35Y-75.9
X107.793Y-70.518
X108.15Y-68.55
X108.25Y-69.75
X111.2Y-79.5
X111.571Y-80.179
X111.702Y-68.521
X112.419Y-79.331
X115.395Y-83.155
X117.85Y-70.4
X117.9Y-73.8
X120.45Y-70.4
X120.5Y-73.8
X123.1Y-70.4
X123.1Y-73.8
X125.75Y-70.4
X125.75Y-73.8
T2
X105.752Y-75.009
X106.6Y-77.02
X106.706Y-79.265
X106.75Y-74.95
X107.05Y-81.8
X108.0Y-80.85
X108.3Y-72.59
X110.466Y-67.7
X112.677Y-68.321
X114.05Y-68.55
X114.415Y-84.508
X116.5Y-85.3
X118.26Y-77.09
X119.7Y-85.25
X119.817Y-84.257
X120.784Y-77.101
X122.7Y-84.45
X123.49Y-77.09
X126.01Y-77.08
X127.025Y-83.1
T3
X103.375Y-74.86
X103.85Y-79.45
X103.85Y-82.25
X104.902Y-77.42
X111.02Y-78.25
X113.4Y-72.5
X113.85Y-74.85
X113.9Y-76.0
X114.4Y-71.75
X114.425Y-73.6
X115.479Y-84.229
X121.725Y-80.625
X123.1Y-80.625
T4
X104.75Y-65.0
X107.29Y-65.0
X117.92Y-65.0
X120.46Y-65.0
X123.0Y-65.0
X125.54Y-65.0
T0
M30
