%TF.GenerationSoftware,KiCad,Pcbnew,5.1.9*%
%TF.CreationDate,2021-01-20T22:35:35+01:00*%
%TF.ProjectId,wi-se-rewirable,77692d73-652d-4726-9577-697261626c65,rev?*%
%TF.SameCoordinates,Original*%
%TF.FileFunction,Copper,L1,Top*%
%TF.FilePolarity,Positive*%
%FSLAX46Y46*%
G04 Gerber Fmt 4.6, Leading zero omitted, Abs format (unit mm)*
G04 Created by KiCad (PCBNEW 5.1.9) date 2021-01-20 22:35:35*
%MOMM*%
%LPD*%
G01*
G04 APERTURE LIST*
%TA.AperFunction,SMDPad,CuDef*%
%ADD10R,1.000000X1.500000*%
%TD*%
%TA.AperFunction,ComponentPad*%
%ADD11R,1.700000X1.700000*%
%TD*%
%TA.AperFunction,ComponentPad*%
%ADD12O,1.700000X1.700000*%
%TD*%
%TA.AperFunction,SMDPad,CuDef*%
%ADD13C,0.100000*%
%TD*%
%TA.AperFunction,SMDPad,CuDef*%
%ADD14R,0.912500X0.850000*%
%TD*%
%TA.AperFunction,SMDPad,CuDef*%
%ADD15R,4.300000X4.300000*%
%TD*%
%TA.AperFunction,ViaPad*%
%ADD16C,1.000000*%
%TD*%
%TA.AperFunction,ViaPad*%
%ADD17C,0.800000*%
%TD*%
%TA.AperFunction,ViaPad*%
%ADD18C,0.500000*%
%TD*%
%TA.AperFunction,Conductor*%
%ADD19C,0.750000*%
%TD*%
%TA.AperFunction,Conductor*%
%ADD20C,0.500000*%
%TD*%
%TA.AperFunction,Conductor*%
%ADD21C,0.300000*%
%TD*%
%TA.AperFunction,Conductor*%
%ADD22C,0.200000*%
%TD*%
G04 APERTURE END LIST*
D10*
%TO.P,SW1,1*%
%TO.N,GND*%
X127025000Y-84950000D03*
%TO.P,SW1,2*%
%TO.N,EN*%
X124825000Y-84950000D03*
X124825000Y-81450000D03*
%TO.P,SW1,1*%
%TO.N,GND*%
X127025000Y-81450000D03*
%TD*%
%TO.P,D1,2*%
%TO.N,LED_WIFI*%
%TA.AperFunction,SMDPad,CuDef*%
G36*
G01*
X117637500Y-83850000D02*
X117162500Y-83850000D01*
G75*
G02*
X116925000Y-83612500I0J237500D01*
G01*
X116925000Y-83037500D01*
G75*
G02*
X117162500Y-82800000I237500J0D01*
G01*
X117637500Y-82800000D01*
G75*
G02*
X117875000Y-83037500I0J-237500D01*
G01*
X117875000Y-83612500D01*
G75*
G02*
X117637500Y-83850000I-237500J0D01*
G01*
G37*
%TD.AperFunction*%
%TO.P,D1,1*%
%TO.N,Net-(D1-Pad1)*%
%TA.AperFunction,SMDPad,CuDef*%
G36*
G01*
X117637500Y-85600000D02*
X117162500Y-85600000D01*
G75*
G02*
X116925000Y-85362500I0J237500D01*
G01*
X116925000Y-84787500D01*
G75*
G02*
X117162500Y-84550000I237500J0D01*
G01*
X117637500Y-84550000D01*
G75*
G02*
X117875000Y-84787500I0J-237500D01*
G01*
X117875000Y-85362500D01*
G75*
G02*
X117637500Y-85600000I-237500J0D01*
G01*
G37*
%TD.AperFunction*%
%TD*%
%TO.P,D2,1*%
%TO.N,Net-(D2-Pad1)*%
%TA.AperFunction,SMDPad,CuDef*%
G36*
G01*
X119137500Y-85600000D02*
X118662500Y-85600000D01*
G75*
G02*
X118425000Y-85362500I0J237500D01*
G01*
X118425000Y-84787500D01*
G75*
G02*
X118662500Y-84550000I237500J0D01*
G01*
X119137500Y-84550000D01*
G75*
G02*
X119375000Y-84787500I0J-237500D01*
G01*
X119375000Y-85362500D01*
G75*
G02*
X119137500Y-85600000I-237500J0D01*
G01*
G37*
%TD.AperFunction*%
%TO.P,D2,2*%
%TO.N,LED_STATUS*%
%TA.AperFunction,SMDPad,CuDef*%
G36*
G01*
X119137500Y-83850000D02*
X118662500Y-83850000D01*
G75*
G02*
X118425000Y-83612500I0J237500D01*
G01*
X118425000Y-83037500D01*
G75*
G02*
X118662500Y-82800000I237500J0D01*
G01*
X119137500Y-82800000D01*
G75*
G02*
X119375000Y-83037500I0J-237500D01*
G01*
X119375000Y-83612500D01*
G75*
G02*
X119137500Y-83850000I-237500J0D01*
G01*
G37*
%TD.AperFunction*%
%TD*%
%TO.P,D3,2*%
%TO.N,LED_TX*%
%TA.AperFunction,SMDPad,CuDef*%
G36*
G01*
X122537500Y-83850000D02*
X122062500Y-83850000D01*
G75*
G02*
X121825000Y-83612500I0J237500D01*
G01*
X121825000Y-83037500D01*
G75*
G02*
X122062500Y-82800000I237500J0D01*
G01*
X122537500Y-82800000D01*
G75*
G02*
X122775000Y-83037500I0J-237500D01*
G01*
X122775000Y-83612500D01*
G75*
G02*
X122537500Y-83850000I-237500J0D01*
G01*
G37*
%TD.AperFunction*%
%TO.P,D3,1*%
%TO.N,Net-(D3-Pad1)*%
%TA.AperFunction,SMDPad,CuDef*%
G36*
G01*
X122537500Y-85600000D02*
X122062500Y-85600000D01*
G75*
G02*
X121825000Y-85362500I0J237500D01*
G01*
X121825000Y-84787500D01*
G75*
G02*
X122062500Y-84550000I237500J0D01*
G01*
X122537500Y-84550000D01*
G75*
G02*
X122775000Y-84787500I0J-237500D01*
G01*
X122775000Y-85362500D01*
G75*
G02*
X122537500Y-85600000I-237500J0D01*
G01*
G37*
%TD.AperFunction*%
%TD*%
%TO.P,D4,1*%
%TO.N,Net-(D4-Pad1)*%
%TA.AperFunction,SMDPad,CuDef*%
G36*
G01*
X121037500Y-85600000D02*
X120562500Y-85600000D01*
G75*
G02*
X120325000Y-85362500I0J237500D01*
G01*
X120325000Y-84787500D01*
G75*
G02*
X120562500Y-84550000I237500J0D01*
G01*
X121037500Y-84550000D01*
G75*
G02*
X121275000Y-84787500I0J-237500D01*
G01*
X121275000Y-85362500D01*
G75*
G02*
X121037500Y-85600000I-237500J0D01*
G01*
G37*
%TD.AperFunction*%
%TO.P,D4,2*%
%TO.N,LED_RX*%
%TA.AperFunction,SMDPad,CuDef*%
G36*
G01*
X121037500Y-83850000D02*
X120562500Y-83850000D01*
G75*
G02*
X120325000Y-83612500I0J237500D01*
G01*
X120325000Y-83037500D01*
G75*
G02*
X120562500Y-82800000I237500J0D01*
G01*
X121037500Y-82800000D01*
G75*
G02*
X121275000Y-83037500I0J-237500D01*
G01*
X121275000Y-83612500D01*
G75*
G02*
X121037500Y-83850000I-237500J0D01*
G01*
G37*
%TD.AperFunction*%
%TD*%
D11*
%TO.P,J1,1*%
%TO.N,RTS*%
X104750000Y-65000000D03*
D12*
%TO.P,J1,2*%
%TO.N,DTR*%
X107290000Y-65000000D03*
%TD*%
D11*
%TO.P,J2,1*%
%TO.N,LINE1*%
X117920000Y-65000000D03*
D12*
%TO.P,J2,2*%
%TO.N,LINE2*%
X120460000Y-65000000D03*
%TO.P,J2,3*%
%TO.N,LINE3*%
X123000000Y-65000000D03*
%TO.P,J2,4*%
%TO.N,LINE4*%
X125540000Y-65000000D03*
%TD*%
%TA.AperFunction,SMDPad,CuDef*%
D13*
%TO.P,JP1,2*%
%TO.N,VCC*%
G36*
X118649398Y-79500000D02*
G01*
X118649398Y-79524534D01*
X118644588Y-79573365D01*
X118635016Y-79621490D01*
X118620772Y-79668445D01*
X118601995Y-79713778D01*
X118578864Y-79757051D01*
X118551604Y-79797850D01*
X118520476Y-79835779D01*
X118485779Y-79870476D01*
X118447850Y-79901604D01*
X118407051Y-79928864D01*
X118363778Y-79951995D01*
X118318445Y-79970772D01*
X118271490Y-79985016D01*
X118223365Y-79994588D01*
X118174534Y-79999398D01*
X118150000Y-79999398D01*
X118150000Y-80000000D01*
X117650000Y-80000000D01*
X117650000Y-79999398D01*
X117625466Y-79999398D01*
X117576635Y-79994588D01*
X117528510Y-79985016D01*
X117481555Y-79970772D01*
X117436222Y-79951995D01*
X117392949Y-79928864D01*
X117352150Y-79901604D01*
X117314221Y-79870476D01*
X117279524Y-79835779D01*
X117248396Y-79797850D01*
X117221136Y-79757051D01*
X117198005Y-79713778D01*
X117179228Y-79668445D01*
X117164984Y-79621490D01*
X117155412Y-79573365D01*
X117150602Y-79524534D01*
X117150602Y-79500000D01*
X117150000Y-79500000D01*
X117150000Y-79000000D01*
X118650000Y-79000000D01*
X118650000Y-79500000D01*
X118649398Y-79500000D01*
G37*
%TD.AperFunction*%
%TA.AperFunction,SMDPad,CuDef*%
%TO.P,JP1,1*%
%TO.N,LINE1*%
G36*
X117150000Y-78700000D02*
G01*
X117150000Y-78200000D01*
X117150602Y-78200000D01*
X117150602Y-78175466D01*
X117155412Y-78126635D01*
X117164984Y-78078510D01*
X117179228Y-78031555D01*
X117198005Y-77986222D01*
X117221136Y-77942949D01*
X117248396Y-77902150D01*
X117279524Y-77864221D01*
X117314221Y-77829524D01*
X117352150Y-77798396D01*
X117392949Y-77771136D01*
X117436222Y-77748005D01*
X117481555Y-77729228D01*
X117528510Y-77714984D01*
X117576635Y-77705412D01*
X117625466Y-77700602D01*
X117650000Y-77700602D01*
X117650000Y-77700000D01*
X118150000Y-77700000D01*
X118150000Y-77700602D01*
X118174534Y-77700602D01*
X118223365Y-77705412D01*
X118271490Y-77714984D01*
X118318445Y-77729228D01*
X118363778Y-77748005D01*
X118407051Y-77771136D01*
X118447850Y-77798396D01*
X118485779Y-77829524D01*
X118520476Y-77864221D01*
X118551604Y-77902150D01*
X118578864Y-77942949D01*
X118601995Y-77986222D01*
X118620772Y-78031555D01*
X118635016Y-78078510D01*
X118644588Y-78126635D01*
X118649398Y-78175466D01*
X118649398Y-78200000D01*
X118650000Y-78200000D01*
X118650000Y-78700000D01*
X117150000Y-78700000D01*
G37*
%TD.AperFunction*%
%TD*%
%TA.AperFunction,SMDPad,CuDef*%
%TO.P,JP2,1*%
%TO.N,LINE2*%
G36*
X119750000Y-78700000D02*
G01*
X119750000Y-78200000D01*
X119750602Y-78200000D01*
X119750602Y-78175466D01*
X119755412Y-78126635D01*
X119764984Y-78078510D01*
X119779228Y-78031555D01*
X119798005Y-77986222D01*
X119821136Y-77942949D01*
X119848396Y-77902150D01*
X119879524Y-77864221D01*
X119914221Y-77829524D01*
X119952150Y-77798396D01*
X119992949Y-77771136D01*
X120036222Y-77748005D01*
X120081555Y-77729228D01*
X120128510Y-77714984D01*
X120176635Y-77705412D01*
X120225466Y-77700602D01*
X120250000Y-77700602D01*
X120250000Y-77700000D01*
X120750000Y-77700000D01*
X120750000Y-77700602D01*
X120774534Y-77700602D01*
X120823365Y-77705412D01*
X120871490Y-77714984D01*
X120918445Y-77729228D01*
X120963778Y-77748005D01*
X121007051Y-77771136D01*
X121047850Y-77798396D01*
X121085779Y-77829524D01*
X121120476Y-77864221D01*
X121151604Y-77902150D01*
X121178864Y-77942949D01*
X121201995Y-77986222D01*
X121220772Y-78031555D01*
X121235016Y-78078510D01*
X121244588Y-78126635D01*
X121249398Y-78175466D01*
X121249398Y-78200000D01*
X121250000Y-78200000D01*
X121250000Y-78700000D01*
X119750000Y-78700000D01*
G37*
%TD.AperFunction*%
%TA.AperFunction,SMDPad,CuDef*%
%TO.P,JP2,2*%
%TO.N,VCC*%
G36*
X121249398Y-79500000D02*
G01*
X121249398Y-79524534D01*
X121244588Y-79573365D01*
X121235016Y-79621490D01*
X121220772Y-79668445D01*
X121201995Y-79713778D01*
X121178864Y-79757051D01*
X121151604Y-79797850D01*
X121120476Y-79835779D01*
X121085779Y-79870476D01*
X121047850Y-79901604D01*
X121007051Y-79928864D01*
X120963778Y-79951995D01*
X120918445Y-79970772D01*
X120871490Y-79985016D01*
X120823365Y-79994588D01*
X120774534Y-79999398D01*
X120750000Y-79999398D01*
X120750000Y-80000000D01*
X120250000Y-80000000D01*
X120250000Y-79999398D01*
X120225466Y-79999398D01*
X120176635Y-79994588D01*
X120128510Y-79985016D01*
X120081555Y-79970772D01*
X120036222Y-79951995D01*
X119992949Y-79928864D01*
X119952150Y-79901604D01*
X119914221Y-79870476D01*
X119879524Y-79835779D01*
X119848396Y-79797850D01*
X119821136Y-79757051D01*
X119798005Y-79713778D01*
X119779228Y-79668445D01*
X119764984Y-79621490D01*
X119755412Y-79573365D01*
X119750602Y-79524534D01*
X119750602Y-79500000D01*
X119750000Y-79500000D01*
X119750000Y-79000000D01*
X121250000Y-79000000D01*
X121250000Y-79500000D01*
X121249398Y-79500000D01*
G37*
%TD.AperFunction*%
%TD*%
%TA.AperFunction,SMDPad,CuDef*%
%TO.P,JP3,1*%
%TO.N,LINE3*%
G36*
X122350000Y-78700000D02*
G01*
X122350000Y-78200000D01*
X122350602Y-78200000D01*
X122350602Y-78175466D01*
X122355412Y-78126635D01*
X122364984Y-78078510D01*
X122379228Y-78031555D01*
X122398005Y-77986222D01*
X122421136Y-77942949D01*
X122448396Y-77902150D01*
X122479524Y-77864221D01*
X122514221Y-77829524D01*
X122552150Y-77798396D01*
X122592949Y-77771136D01*
X122636222Y-77748005D01*
X122681555Y-77729228D01*
X122728510Y-77714984D01*
X122776635Y-77705412D01*
X122825466Y-77700602D01*
X122850000Y-77700602D01*
X122850000Y-77700000D01*
X123350000Y-77700000D01*
X123350000Y-77700602D01*
X123374534Y-77700602D01*
X123423365Y-77705412D01*
X123471490Y-77714984D01*
X123518445Y-77729228D01*
X123563778Y-77748005D01*
X123607051Y-77771136D01*
X123647850Y-77798396D01*
X123685779Y-77829524D01*
X123720476Y-77864221D01*
X123751604Y-77902150D01*
X123778864Y-77942949D01*
X123801995Y-77986222D01*
X123820772Y-78031555D01*
X123835016Y-78078510D01*
X123844588Y-78126635D01*
X123849398Y-78175466D01*
X123849398Y-78200000D01*
X123850000Y-78200000D01*
X123850000Y-78700000D01*
X122350000Y-78700000D01*
G37*
%TD.AperFunction*%
%TA.AperFunction,SMDPad,CuDef*%
%TO.P,JP3,2*%
%TO.N,VCC*%
G36*
X123849398Y-79500000D02*
G01*
X123849398Y-79524534D01*
X123844588Y-79573365D01*
X123835016Y-79621490D01*
X123820772Y-79668445D01*
X123801995Y-79713778D01*
X123778864Y-79757051D01*
X123751604Y-79797850D01*
X123720476Y-79835779D01*
X123685779Y-79870476D01*
X123647850Y-79901604D01*
X123607051Y-79928864D01*
X123563778Y-79951995D01*
X123518445Y-79970772D01*
X123471490Y-79985016D01*
X123423365Y-79994588D01*
X123374534Y-79999398D01*
X123350000Y-79999398D01*
X123350000Y-80000000D01*
X122850000Y-80000000D01*
X122850000Y-79999398D01*
X122825466Y-79999398D01*
X122776635Y-79994588D01*
X122728510Y-79985016D01*
X122681555Y-79970772D01*
X122636222Y-79951995D01*
X122592949Y-79928864D01*
X122552150Y-79901604D01*
X122514221Y-79870476D01*
X122479524Y-79835779D01*
X122448396Y-79797850D01*
X122421136Y-79757051D01*
X122398005Y-79713778D01*
X122379228Y-79668445D01*
X122364984Y-79621490D01*
X122355412Y-79573365D01*
X122350602Y-79524534D01*
X122350602Y-79500000D01*
X122350000Y-79500000D01*
X122350000Y-79000000D01*
X123850000Y-79000000D01*
X123850000Y-79500000D01*
X123849398Y-79500000D01*
G37*
%TD.AperFunction*%
%TD*%
%TA.AperFunction,SMDPad,CuDef*%
%TO.P,JP4,2*%
%TO.N,VCC*%
G36*
X126449398Y-79500000D02*
G01*
X126449398Y-79524534D01*
X126444588Y-79573365D01*
X126435016Y-79621490D01*
X126420772Y-79668445D01*
X126401995Y-79713778D01*
X126378864Y-79757051D01*
X126351604Y-79797850D01*
X126320476Y-79835779D01*
X126285779Y-79870476D01*
X126247850Y-79901604D01*
X126207051Y-79928864D01*
X126163778Y-79951995D01*
X126118445Y-79970772D01*
X126071490Y-79985016D01*
X126023365Y-79994588D01*
X125974534Y-79999398D01*
X125950000Y-79999398D01*
X125950000Y-80000000D01*
X125450000Y-80000000D01*
X125450000Y-79999398D01*
X125425466Y-79999398D01*
X125376635Y-79994588D01*
X125328510Y-79985016D01*
X125281555Y-79970772D01*
X125236222Y-79951995D01*
X125192949Y-79928864D01*
X125152150Y-79901604D01*
X125114221Y-79870476D01*
X125079524Y-79835779D01*
X125048396Y-79797850D01*
X125021136Y-79757051D01*
X124998005Y-79713778D01*
X124979228Y-79668445D01*
X124964984Y-79621490D01*
X124955412Y-79573365D01*
X124950602Y-79524534D01*
X124950602Y-79500000D01*
X124950000Y-79500000D01*
X124950000Y-79000000D01*
X126450000Y-79000000D01*
X126450000Y-79500000D01*
X126449398Y-79500000D01*
G37*
%TD.AperFunction*%
%TA.AperFunction,SMDPad,CuDef*%
%TO.P,JP4,1*%
%TO.N,LINE4*%
G36*
X124950000Y-78700000D02*
G01*
X124950000Y-78200000D01*
X124950602Y-78200000D01*
X124950602Y-78175466D01*
X124955412Y-78126635D01*
X124964984Y-78078510D01*
X124979228Y-78031555D01*
X124998005Y-77986222D01*
X125021136Y-77942949D01*
X125048396Y-77902150D01*
X125079524Y-77864221D01*
X125114221Y-77829524D01*
X125152150Y-77798396D01*
X125192949Y-77771136D01*
X125236222Y-77748005D01*
X125281555Y-77729228D01*
X125328510Y-77714984D01*
X125376635Y-77705412D01*
X125425466Y-77700602D01*
X125450000Y-77700602D01*
X125450000Y-77700000D01*
X125950000Y-77700000D01*
X125950000Y-77700602D01*
X125974534Y-77700602D01*
X126023365Y-77705412D01*
X126071490Y-77714984D01*
X126118445Y-77729228D01*
X126163778Y-77748005D01*
X126207051Y-77771136D01*
X126247850Y-77798396D01*
X126285779Y-77829524D01*
X126320476Y-77864221D01*
X126351604Y-77902150D01*
X126378864Y-77942949D01*
X126401995Y-77986222D01*
X126420772Y-78031555D01*
X126435016Y-78078510D01*
X126444588Y-78126635D01*
X126449398Y-78175466D01*
X126449398Y-78200000D01*
X126450000Y-78200000D01*
X126450000Y-78700000D01*
X124950000Y-78700000D01*
G37*
%TD.AperFunction*%
%TD*%
%TA.AperFunction,SMDPad,CuDef*%
%TO.P,JP5,2*%
%TO.N,RXD*%
G36*
X118649398Y-69350000D02*
G01*
X118649398Y-69374534D01*
X118644588Y-69423365D01*
X118635016Y-69471490D01*
X118620772Y-69518445D01*
X118601995Y-69563778D01*
X118578864Y-69607051D01*
X118551604Y-69647850D01*
X118520476Y-69685779D01*
X118485779Y-69720476D01*
X118447850Y-69751604D01*
X118407051Y-69778864D01*
X118363778Y-69801995D01*
X118318445Y-69820772D01*
X118271490Y-69835016D01*
X118223365Y-69844588D01*
X118174534Y-69849398D01*
X118150000Y-69849398D01*
X118150000Y-69850000D01*
X117650000Y-69850000D01*
X117650000Y-69849398D01*
X117625466Y-69849398D01*
X117576635Y-69844588D01*
X117528510Y-69835016D01*
X117481555Y-69820772D01*
X117436222Y-69801995D01*
X117392949Y-69778864D01*
X117352150Y-69751604D01*
X117314221Y-69720476D01*
X117279524Y-69685779D01*
X117248396Y-69647850D01*
X117221136Y-69607051D01*
X117198005Y-69563778D01*
X117179228Y-69518445D01*
X117164984Y-69471490D01*
X117155412Y-69423365D01*
X117150602Y-69374534D01*
X117150602Y-69350000D01*
X117150000Y-69350000D01*
X117150000Y-68850000D01*
X118650000Y-68850000D01*
X118650000Y-69350000D01*
X118649398Y-69350000D01*
G37*
%TD.AperFunction*%
%TA.AperFunction,SMDPad,CuDef*%
%TO.P,JP5,1*%
%TO.N,LINE1*%
G36*
X117150000Y-68550000D02*
G01*
X117150000Y-68050000D01*
X117150602Y-68050000D01*
X117150602Y-68025466D01*
X117155412Y-67976635D01*
X117164984Y-67928510D01*
X117179228Y-67881555D01*
X117198005Y-67836222D01*
X117221136Y-67792949D01*
X117248396Y-67752150D01*
X117279524Y-67714221D01*
X117314221Y-67679524D01*
X117352150Y-67648396D01*
X117392949Y-67621136D01*
X117436222Y-67598005D01*
X117481555Y-67579228D01*
X117528510Y-67564984D01*
X117576635Y-67555412D01*
X117625466Y-67550602D01*
X117650000Y-67550602D01*
X117650000Y-67550000D01*
X118150000Y-67550000D01*
X118150000Y-67550602D01*
X118174534Y-67550602D01*
X118223365Y-67555412D01*
X118271490Y-67564984D01*
X118318445Y-67579228D01*
X118363778Y-67598005D01*
X118407051Y-67621136D01*
X118447850Y-67648396D01*
X118485779Y-67679524D01*
X118520476Y-67714221D01*
X118551604Y-67752150D01*
X118578864Y-67792949D01*
X118601995Y-67836222D01*
X118620772Y-67881555D01*
X118635016Y-67928510D01*
X118644588Y-67976635D01*
X118649398Y-68025466D01*
X118649398Y-68050000D01*
X118650000Y-68050000D01*
X118650000Y-68550000D01*
X117150000Y-68550000D01*
G37*
%TD.AperFunction*%
%TD*%
%TA.AperFunction,SMDPad,CuDef*%
%TO.P,JP6,2*%
%TO.N,RXD*%
G36*
X121249398Y-69350000D02*
G01*
X121249398Y-69374534D01*
X121244588Y-69423365D01*
X121235016Y-69471490D01*
X121220772Y-69518445D01*
X121201995Y-69563778D01*
X121178864Y-69607051D01*
X121151604Y-69647850D01*
X121120476Y-69685779D01*
X121085779Y-69720476D01*
X121047850Y-69751604D01*
X121007051Y-69778864D01*
X120963778Y-69801995D01*
X120918445Y-69820772D01*
X120871490Y-69835016D01*
X120823365Y-69844588D01*
X120774534Y-69849398D01*
X120750000Y-69849398D01*
X120750000Y-69850000D01*
X120250000Y-69850000D01*
X120250000Y-69849398D01*
X120225466Y-69849398D01*
X120176635Y-69844588D01*
X120128510Y-69835016D01*
X120081555Y-69820772D01*
X120036222Y-69801995D01*
X119992949Y-69778864D01*
X119952150Y-69751604D01*
X119914221Y-69720476D01*
X119879524Y-69685779D01*
X119848396Y-69647850D01*
X119821136Y-69607051D01*
X119798005Y-69563778D01*
X119779228Y-69518445D01*
X119764984Y-69471490D01*
X119755412Y-69423365D01*
X119750602Y-69374534D01*
X119750602Y-69350000D01*
X119750000Y-69350000D01*
X119750000Y-68850000D01*
X121250000Y-68850000D01*
X121250000Y-69350000D01*
X121249398Y-69350000D01*
G37*
%TD.AperFunction*%
%TA.AperFunction,SMDPad,CuDef*%
%TO.P,JP6,1*%
%TO.N,LINE2*%
G36*
X119750000Y-68550000D02*
G01*
X119750000Y-68050000D01*
X119750602Y-68050000D01*
X119750602Y-68025466D01*
X119755412Y-67976635D01*
X119764984Y-67928510D01*
X119779228Y-67881555D01*
X119798005Y-67836222D01*
X119821136Y-67792949D01*
X119848396Y-67752150D01*
X119879524Y-67714221D01*
X119914221Y-67679524D01*
X119952150Y-67648396D01*
X119992949Y-67621136D01*
X120036222Y-67598005D01*
X120081555Y-67579228D01*
X120128510Y-67564984D01*
X120176635Y-67555412D01*
X120225466Y-67550602D01*
X120250000Y-67550602D01*
X120250000Y-67550000D01*
X120750000Y-67550000D01*
X120750000Y-67550602D01*
X120774534Y-67550602D01*
X120823365Y-67555412D01*
X120871490Y-67564984D01*
X120918445Y-67579228D01*
X120963778Y-67598005D01*
X121007051Y-67621136D01*
X121047850Y-67648396D01*
X121085779Y-67679524D01*
X121120476Y-67714221D01*
X121151604Y-67752150D01*
X121178864Y-67792949D01*
X121201995Y-67836222D01*
X121220772Y-67881555D01*
X121235016Y-67928510D01*
X121244588Y-67976635D01*
X121249398Y-68025466D01*
X121249398Y-68050000D01*
X121250000Y-68050000D01*
X121250000Y-68550000D01*
X119750000Y-68550000D01*
G37*
%TD.AperFunction*%
%TD*%
%TA.AperFunction,SMDPad,CuDef*%
%TO.P,JP7,2*%
%TO.N,RXD*%
G36*
X123849398Y-69350000D02*
G01*
X123849398Y-69374534D01*
X123844588Y-69423365D01*
X123835016Y-69471490D01*
X123820772Y-69518445D01*
X123801995Y-69563778D01*
X123778864Y-69607051D01*
X123751604Y-69647850D01*
X123720476Y-69685779D01*
X123685779Y-69720476D01*
X123647850Y-69751604D01*
X123607051Y-69778864D01*
X123563778Y-69801995D01*
X123518445Y-69820772D01*
X123471490Y-69835016D01*
X123423365Y-69844588D01*
X123374534Y-69849398D01*
X123350000Y-69849398D01*
X123350000Y-69850000D01*
X122850000Y-69850000D01*
X122850000Y-69849398D01*
X122825466Y-69849398D01*
X122776635Y-69844588D01*
X122728510Y-69835016D01*
X122681555Y-69820772D01*
X122636222Y-69801995D01*
X122592949Y-69778864D01*
X122552150Y-69751604D01*
X122514221Y-69720476D01*
X122479524Y-69685779D01*
X122448396Y-69647850D01*
X122421136Y-69607051D01*
X122398005Y-69563778D01*
X122379228Y-69518445D01*
X122364984Y-69471490D01*
X122355412Y-69423365D01*
X122350602Y-69374534D01*
X122350602Y-69350000D01*
X122350000Y-69350000D01*
X122350000Y-68850000D01*
X123850000Y-68850000D01*
X123850000Y-69350000D01*
X123849398Y-69350000D01*
G37*
%TD.AperFunction*%
%TA.AperFunction,SMDPad,CuDef*%
%TO.P,JP7,1*%
%TO.N,LINE3*%
G36*
X122350000Y-68550000D02*
G01*
X122350000Y-68050000D01*
X122350602Y-68050000D01*
X122350602Y-68025466D01*
X122355412Y-67976635D01*
X122364984Y-67928510D01*
X122379228Y-67881555D01*
X122398005Y-67836222D01*
X122421136Y-67792949D01*
X122448396Y-67752150D01*
X122479524Y-67714221D01*
X122514221Y-67679524D01*
X122552150Y-67648396D01*
X122592949Y-67621136D01*
X122636222Y-67598005D01*
X122681555Y-67579228D01*
X122728510Y-67564984D01*
X122776635Y-67555412D01*
X122825466Y-67550602D01*
X122850000Y-67550602D01*
X122850000Y-67550000D01*
X123350000Y-67550000D01*
X123350000Y-67550602D01*
X123374534Y-67550602D01*
X123423365Y-67555412D01*
X123471490Y-67564984D01*
X123518445Y-67579228D01*
X123563778Y-67598005D01*
X123607051Y-67621136D01*
X123647850Y-67648396D01*
X123685779Y-67679524D01*
X123720476Y-67714221D01*
X123751604Y-67752150D01*
X123778864Y-67792949D01*
X123801995Y-67836222D01*
X123820772Y-67881555D01*
X123835016Y-67928510D01*
X123844588Y-67976635D01*
X123849398Y-68025466D01*
X123849398Y-68050000D01*
X123850000Y-68050000D01*
X123850000Y-68550000D01*
X122350000Y-68550000D01*
G37*
%TD.AperFunction*%
%TD*%
%TA.AperFunction,SMDPad,CuDef*%
%TO.P,JP8,1*%
%TO.N,LINE4*%
G36*
X124950000Y-68550000D02*
G01*
X124950000Y-68050000D01*
X124950602Y-68050000D01*
X124950602Y-68025466D01*
X124955412Y-67976635D01*
X124964984Y-67928510D01*
X124979228Y-67881555D01*
X124998005Y-67836222D01*
X125021136Y-67792949D01*
X125048396Y-67752150D01*
X125079524Y-67714221D01*
X125114221Y-67679524D01*
X125152150Y-67648396D01*
X125192949Y-67621136D01*
X125236222Y-67598005D01*
X125281555Y-67579228D01*
X125328510Y-67564984D01*
X125376635Y-67555412D01*
X125425466Y-67550602D01*
X125450000Y-67550602D01*
X125450000Y-67550000D01*
X125950000Y-67550000D01*
X125950000Y-67550602D01*
X125974534Y-67550602D01*
X126023365Y-67555412D01*
X126071490Y-67564984D01*
X126118445Y-67579228D01*
X126163778Y-67598005D01*
X126207051Y-67621136D01*
X126247850Y-67648396D01*
X126285779Y-67679524D01*
X126320476Y-67714221D01*
X126351604Y-67752150D01*
X126378864Y-67792949D01*
X126401995Y-67836222D01*
X126420772Y-67881555D01*
X126435016Y-67928510D01*
X126444588Y-67976635D01*
X126449398Y-68025466D01*
X126449398Y-68050000D01*
X126450000Y-68050000D01*
X126450000Y-68550000D01*
X124950000Y-68550000D01*
G37*
%TD.AperFunction*%
%TA.AperFunction,SMDPad,CuDef*%
%TO.P,JP8,2*%
%TO.N,RXD*%
G36*
X126449398Y-69350000D02*
G01*
X126449398Y-69374534D01*
X126444588Y-69423365D01*
X126435016Y-69471490D01*
X126420772Y-69518445D01*
X126401995Y-69563778D01*
X126378864Y-69607051D01*
X126351604Y-69647850D01*
X126320476Y-69685779D01*
X126285779Y-69720476D01*
X126247850Y-69751604D01*
X126207051Y-69778864D01*
X126163778Y-69801995D01*
X126118445Y-69820772D01*
X126071490Y-69835016D01*
X126023365Y-69844588D01*
X125974534Y-69849398D01*
X125950000Y-69849398D01*
X125950000Y-69850000D01*
X125450000Y-69850000D01*
X125450000Y-69849398D01*
X125425466Y-69849398D01*
X125376635Y-69844588D01*
X125328510Y-69835016D01*
X125281555Y-69820772D01*
X125236222Y-69801995D01*
X125192949Y-69778864D01*
X125152150Y-69751604D01*
X125114221Y-69720476D01*
X125079524Y-69685779D01*
X125048396Y-69647850D01*
X125021136Y-69607051D01*
X124998005Y-69563778D01*
X124979228Y-69518445D01*
X124964984Y-69471490D01*
X124955412Y-69423365D01*
X124950602Y-69374534D01*
X124950602Y-69350000D01*
X124950000Y-69350000D01*
X124950000Y-68850000D01*
X126450000Y-68850000D01*
X126450000Y-69350000D01*
X126449398Y-69350000D01*
G37*
%TD.AperFunction*%
%TD*%
%TA.AperFunction,SMDPad,CuDef*%
%TO.P,JP9,1*%
%TO.N,LINE1*%
G36*
X117150000Y-71950000D02*
G01*
X117150000Y-71450000D01*
X117150602Y-71450000D01*
X117150602Y-71425466D01*
X117155412Y-71376635D01*
X117164984Y-71328510D01*
X117179228Y-71281555D01*
X117198005Y-71236222D01*
X117221136Y-71192949D01*
X117248396Y-71152150D01*
X117279524Y-71114221D01*
X117314221Y-71079524D01*
X117352150Y-71048396D01*
X117392949Y-71021136D01*
X117436222Y-70998005D01*
X117481555Y-70979228D01*
X117528510Y-70964984D01*
X117576635Y-70955412D01*
X117625466Y-70950602D01*
X117650000Y-70950602D01*
X117650000Y-70950000D01*
X118150000Y-70950000D01*
X118150000Y-70950602D01*
X118174534Y-70950602D01*
X118223365Y-70955412D01*
X118271490Y-70964984D01*
X118318445Y-70979228D01*
X118363778Y-70998005D01*
X118407051Y-71021136D01*
X118447850Y-71048396D01*
X118485779Y-71079524D01*
X118520476Y-71114221D01*
X118551604Y-71152150D01*
X118578864Y-71192949D01*
X118601995Y-71236222D01*
X118620772Y-71281555D01*
X118635016Y-71328510D01*
X118644588Y-71376635D01*
X118649398Y-71425466D01*
X118649398Y-71450000D01*
X118650000Y-71450000D01*
X118650000Y-71950000D01*
X117150000Y-71950000D01*
G37*
%TD.AperFunction*%
%TA.AperFunction,SMDPad,CuDef*%
%TO.P,JP9,2*%
%TO.N,TXD*%
G36*
X118649398Y-72750000D02*
G01*
X118649398Y-72774534D01*
X118644588Y-72823365D01*
X118635016Y-72871490D01*
X118620772Y-72918445D01*
X118601995Y-72963778D01*
X118578864Y-73007051D01*
X118551604Y-73047850D01*
X118520476Y-73085779D01*
X118485779Y-73120476D01*
X118447850Y-73151604D01*
X118407051Y-73178864D01*
X118363778Y-73201995D01*
X118318445Y-73220772D01*
X118271490Y-73235016D01*
X118223365Y-73244588D01*
X118174534Y-73249398D01*
X118150000Y-73249398D01*
X118150000Y-73250000D01*
X117650000Y-73250000D01*
X117650000Y-73249398D01*
X117625466Y-73249398D01*
X117576635Y-73244588D01*
X117528510Y-73235016D01*
X117481555Y-73220772D01*
X117436222Y-73201995D01*
X117392949Y-73178864D01*
X117352150Y-73151604D01*
X117314221Y-73120476D01*
X117279524Y-73085779D01*
X117248396Y-73047850D01*
X117221136Y-73007051D01*
X117198005Y-72963778D01*
X117179228Y-72918445D01*
X117164984Y-72871490D01*
X117155412Y-72823365D01*
X117150602Y-72774534D01*
X117150602Y-72750000D01*
X117150000Y-72750000D01*
X117150000Y-72250000D01*
X118650000Y-72250000D01*
X118650000Y-72750000D01*
X118649398Y-72750000D01*
G37*
%TD.AperFunction*%
%TD*%
%TA.AperFunction,SMDPad,CuDef*%
%TO.P,JP10,1*%
%TO.N,LINE2*%
G36*
X119750000Y-71950000D02*
G01*
X119750000Y-71450000D01*
X119750602Y-71450000D01*
X119750602Y-71425466D01*
X119755412Y-71376635D01*
X119764984Y-71328510D01*
X119779228Y-71281555D01*
X119798005Y-71236222D01*
X119821136Y-71192949D01*
X119848396Y-71152150D01*
X119879524Y-71114221D01*
X119914221Y-71079524D01*
X119952150Y-71048396D01*
X119992949Y-71021136D01*
X120036222Y-70998005D01*
X120081555Y-70979228D01*
X120128510Y-70964984D01*
X120176635Y-70955412D01*
X120225466Y-70950602D01*
X120250000Y-70950602D01*
X120250000Y-70950000D01*
X120750000Y-70950000D01*
X120750000Y-70950602D01*
X120774534Y-70950602D01*
X120823365Y-70955412D01*
X120871490Y-70964984D01*
X120918445Y-70979228D01*
X120963778Y-70998005D01*
X121007051Y-71021136D01*
X121047850Y-71048396D01*
X121085779Y-71079524D01*
X121120476Y-71114221D01*
X121151604Y-71152150D01*
X121178864Y-71192949D01*
X121201995Y-71236222D01*
X121220772Y-71281555D01*
X121235016Y-71328510D01*
X121244588Y-71376635D01*
X121249398Y-71425466D01*
X121249398Y-71450000D01*
X121250000Y-71450000D01*
X121250000Y-71950000D01*
X119750000Y-71950000D01*
G37*
%TD.AperFunction*%
%TA.AperFunction,SMDPad,CuDef*%
%TO.P,JP10,2*%
%TO.N,TXD*%
G36*
X121249398Y-72750000D02*
G01*
X121249398Y-72774534D01*
X121244588Y-72823365D01*
X121235016Y-72871490D01*
X121220772Y-72918445D01*
X121201995Y-72963778D01*
X121178864Y-73007051D01*
X121151604Y-73047850D01*
X121120476Y-73085779D01*
X121085779Y-73120476D01*
X121047850Y-73151604D01*
X121007051Y-73178864D01*
X120963778Y-73201995D01*
X120918445Y-73220772D01*
X120871490Y-73235016D01*
X120823365Y-73244588D01*
X120774534Y-73249398D01*
X120750000Y-73249398D01*
X120750000Y-73250000D01*
X120250000Y-73250000D01*
X120250000Y-73249398D01*
X120225466Y-73249398D01*
X120176635Y-73244588D01*
X120128510Y-73235016D01*
X120081555Y-73220772D01*
X120036222Y-73201995D01*
X119992949Y-73178864D01*
X119952150Y-73151604D01*
X119914221Y-73120476D01*
X119879524Y-73085779D01*
X119848396Y-73047850D01*
X119821136Y-73007051D01*
X119798005Y-72963778D01*
X119779228Y-72918445D01*
X119764984Y-72871490D01*
X119755412Y-72823365D01*
X119750602Y-72774534D01*
X119750602Y-72750000D01*
X119750000Y-72750000D01*
X119750000Y-72250000D01*
X121250000Y-72250000D01*
X121250000Y-72750000D01*
X121249398Y-72750000D01*
G37*
%TD.AperFunction*%
%TD*%
%TA.AperFunction,SMDPad,CuDef*%
%TO.P,JP11,1*%
%TO.N,LINE3*%
G36*
X122350000Y-71950000D02*
G01*
X122350000Y-71450000D01*
X122350602Y-71450000D01*
X122350602Y-71425466D01*
X122355412Y-71376635D01*
X122364984Y-71328510D01*
X122379228Y-71281555D01*
X122398005Y-71236222D01*
X122421136Y-71192949D01*
X122448396Y-71152150D01*
X122479524Y-71114221D01*
X122514221Y-71079524D01*
X122552150Y-71048396D01*
X122592949Y-71021136D01*
X122636222Y-70998005D01*
X122681555Y-70979228D01*
X122728510Y-70964984D01*
X122776635Y-70955412D01*
X122825466Y-70950602D01*
X122850000Y-70950602D01*
X122850000Y-70950000D01*
X123350000Y-70950000D01*
X123350000Y-70950602D01*
X123374534Y-70950602D01*
X123423365Y-70955412D01*
X123471490Y-70964984D01*
X123518445Y-70979228D01*
X123563778Y-70998005D01*
X123607051Y-71021136D01*
X123647850Y-71048396D01*
X123685779Y-71079524D01*
X123720476Y-71114221D01*
X123751604Y-71152150D01*
X123778864Y-71192949D01*
X123801995Y-71236222D01*
X123820772Y-71281555D01*
X123835016Y-71328510D01*
X123844588Y-71376635D01*
X123849398Y-71425466D01*
X123849398Y-71450000D01*
X123850000Y-71450000D01*
X123850000Y-71950000D01*
X122350000Y-71950000D01*
G37*
%TD.AperFunction*%
%TA.AperFunction,SMDPad,CuDef*%
%TO.P,JP11,2*%
%TO.N,TXD*%
G36*
X123849398Y-72750000D02*
G01*
X123849398Y-72774534D01*
X123844588Y-72823365D01*
X123835016Y-72871490D01*
X123820772Y-72918445D01*
X123801995Y-72963778D01*
X123778864Y-73007051D01*
X123751604Y-73047850D01*
X123720476Y-73085779D01*
X123685779Y-73120476D01*
X123647850Y-73151604D01*
X123607051Y-73178864D01*
X123563778Y-73201995D01*
X123518445Y-73220772D01*
X123471490Y-73235016D01*
X123423365Y-73244588D01*
X123374534Y-73249398D01*
X123350000Y-73249398D01*
X123350000Y-73250000D01*
X122850000Y-73250000D01*
X122850000Y-73249398D01*
X122825466Y-73249398D01*
X122776635Y-73244588D01*
X122728510Y-73235016D01*
X122681555Y-73220772D01*
X122636222Y-73201995D01*
X122592949Y-73178864D01*
X122552150Y-73151604D01*
X122514221Y-73120476D01*
X122479524Y-73085779D01*
X122448396Y-73047850D01*
X122421136Y-73007051D01*
X122398005Y-72963778D01*
X122379228Y-72918445D01*
X122364984Y-72871490D01*
X122355412Y-72823365D01*
X122350602Y-72774534D01*
X122350602Y-72750000D01*
X122350000Y-72750000D01*
X122350000Y-72250000D01*
X123850000Y-72250000D01*
X123850000Y-72750000D01*
X123849398Y-72750000D01*
G37*
%TD.AperFunction*%
%TD*%
%TA.AperFunction,SMDPad,CuDef*%
%TO.P,JP12,2*%
%TO.N,TXD*%
G36*
X126449398Y-72750000D02*
G01*
X126449398Y-72774534D01*
X126444588Y-72823365D01*
X126435016Y-72871490D01*
X126420772Y-72918445D01*
X126401995Y-72963778D01*
X126378864Y-73007051D01*
X126351604Y-73047850D01*
X126320476Y-73085779D01*
X126285779Y-73120476D01*
X126247850Y-73151604D01*
X126207051Y-73178864D01*
X126163778Y-73201995D01*
X126118445Y-73220772D01*
X126071490Y-73235016D01*
X126023365Y-73244588D01*
X125974534Y-73249398D01*
X125950000Y-73249398D01*
X125950000Y-73250000D01*
X125450000Y-73250000D01*
X125450000Y-73249398D01*
X125425466Y-73249398D01*
X125376635Y-73244588D01*
X125328510Y-73235016D01*
X125281555Y-73220772D01*
X125236222Y-73201995D01*
X125192949Y-73178864D01*
X125152150Y-73151604D01*
X125114221Y-73120476D01*
X125079524Y-73085779D01*
X125048396Y-73047850D01*
X125021136Y-73007051D01*
X124998005Y-72963778D01*
X124979228Y-72918445D01*
X124964984Y-72871490D01*
X124955412Y-72823365D01*
X124950602Y-72774534D01*
X124950602Y-72750000D01*
X124950000Y-72750000D01*
X124950000Y-72250000D01*
X126450000Y-72250000D01*
X126450000Y-72750000D01*
X126449398Y-72750000D01*
G37*
%TD.AperFunction*%
%TA.AperFunction,SMDPad,CuDef*%
%TO.P,JP12,1*%
%TO.N,LINE4*%
G36*
X124950000Y-71950000D02*
G01*
X124950000Y-71450000D01*
X124950602Y-71450000D01*
X124950602Y-71425466D01*
X124955412Y-71376635D01*
X124964984Y-71328510D01*
X124979228Y-71281555D01*
X124998005Y-71236222D01*
X125021136Y-71192949D01*
X125048396Y-71152150D01*
X125079524Y-71114221D01*
X125114221Y-71079524D01*
X125152150Y-71048396D01*
X125192949Y-71021136D01*
X125236222Y-70998005D01*
X125281555Y-70979228D01*
X125328510Y-70964984D01*
X125376635Y-70955412D01*
X125425466Y-70950602D01*
X125450000Y-70950602D01*
X125450000Y-70950000D01*
X125950000Y-70950000D01*
X125950000Y-70950602D01*
X125974534Y-70950602D01*
X126023365Y-70955412D01*
X126071490Y-70964984D01*
X126118445Y-70979228D01*
X126163778Y-70998005D01*
X126207051Y-71021136D01*
X126247850Y-71048396D01*
X126285779Y-71079524D01*
X126320476Y-71114221D01*
X126351604Y-71152150D01*
X126378864Y-71192949D01*
X126401995Y-71236222D01*
X126420772Y-71281555D01*
X126435016Y-71328510D01*
X126444588Y-71376635D01*
X126449398Y-71425466D01*
X126449398Y-71450000D01*
X126450000Y-71450000D01*
X126450000Y-71950000D01*
X124950000Y-71950000D01*
G37*
%TD.AperFunction*%
%TD*%
%TA.AperFunction,SMDPad,CuDef*%
%TO.P,JP13,2*%
%TO.N,GND*%
G36*
X118649398Y-76150000D02*
G01*
X118649398Y-76174534D01*
X118644588Y-76223365D01*
X118635016Y-76271490D01*
X118620772Y-76318445D01*
X118601995Y-76363778D01*
X118578864Y-76407051D01*
X118551604Y-76447850D01*
X118520476Y-76485779D01*
X118485779Y-76520476D01*
X118447850Y-76551604D01*
X118407051Y-76578864D01*
X118363778Y-76601995D01*
X118318445Y-76620772D01*
X118271490Y-76635016D01*
X118223365Y-76644588D01*
X118174534Y-76649398D01*
X118150000Y-76649398D01*
X118150000Y-76650000D01*
X117650000Y-76650000D01*
X117650000Y-76649398D01*
X117625466Y-76649398D01*
X117576635Y-76644588D01*
X117528510Y-76635016D01*
X117481555Y-76620772D01*
X117436222Y-76601995D01*
X117392949Y-76578864D01*
X117352150Y-76551604D01*
X117314221Y-76520476D01*
X117279524Y-76485779D01*
X117248396Y-76447850D01*
X117221136Y-76407051D01*
X117198005Y-76363778D01*
X117179228Y-76318445D01*
X117164984Y-76271490D01*
X117155412Y-76223365D01*
X117150602Y-76174534D01*
X117150602Y-76150000D01*
X117150000Y-76150000D01*
X117150000Y-75650000D01*
X118650000Y-75650000D01*
X118650000Y-76150000D01*
X118649398Y-76150000D01*
G37*
%TD.AperFunction*%
%TA.AperFunction,SMDPad,CuDef*%
%TO.P,JP13,1*%
%TO.N,LINE1*%
G36*
X117150000Y-75350000D02*
G01*
X117150000Y-74850000D01*
X117150602Y-74850000D01*
X117150602Y-74825466D01*
X117155412Y-74776635D01*
X117164984Y-74728510D01*
X117179228Y-74681555D01*
X117198005Y-74636222D01*
X117221136Y-74592949D01*
X117248396Y-74552150D01*
X117279524Y-74514221D01*
X117314221Y-74479524D01*
X117352150Y-74448396D01*
X117392949Y-74421136D01*
X117436222Y-74398005D01*
X117481555Y-74379228D01*
X117528510Y-74364984D01*
X117576635Y-74355412D01*
X117625466Y-74350602D01*
X117650000Y-74350602D01*
X117650000Y-74350000D01*
X118150000Y-74350000D01*
X118150000Y-74350602D01*
X118174534Y-74350602D01*
X118223365Y-74355412D01*
X118271490Y-74364984D01*
X118318445Y-74379228D01*
X118363778Y-74398005D01*
X118407051Y-74421136D01*
X118447850Y-74448396D01*
X118485779Y-74479524D01*
X118520476Y-74514221D01*
X118551604Y-74552150D01*
X118578864Y-74592949D01*
X118601995Y-74636222D01*
X118620772Y-74681555D01*
X118635016Y-74728510D01*
X118644588Y-74776635D01*
X118649398Y-74825466D01*
X118649398Y-74850000D01*
X118650000Y-74850000D01*
X118650000Y-75350000D01*
X117150000Y-75350000D01*
G37*
%TD.AperFunction*%
%TD*%
%TA.AperFunction,SMDPad,CuDef*%
%TO.P,JP14,2*%
%TO.N,GND*%
G36*
X121249398Y-76150000D02*
G01*
X121249398Y-76174534D01*
X121244588Y-76223365D01*
X121235016Y-76271490D01*
X121220772Y-76318445D01*
X121201995Y-76363778D01*
X121178864Y-76407051D01*
X121151604Y-76447850D01*
X121120476Y-76485779D01*
X121085779Y-76520476D01*
X121047850Y-76551604D01*
X121007051Y-76578864D01*
X120963778Y-76601995D01*
X120918445Y-76620772D01*
X120871490Y-76635016D01*
X120823365Y-76644588D01*
X120774534Y-76649398D01*
X120750000Y-76649398D01*
X120750000Y-76650000D01*
X120250000Y-76650000D01*
X120250000Y-76649398D01*
X120225466Y-76649398D01*
X120176635Y-76644588D01*
X120128510Y-76635016D01*
X120081555Y-76620772D01*
X120036222Y-76601995D01*
X119992949Y-76578864D01*
X119952150Y-76551604D01*
X119914221Y-76520476D01*
X119879524Y-76485779D01*
X119848396Y-76447850D01*
X119821136Y-76407051D01*
X119798005Y-76363778D01*
X119779228Y-76318445D01*
X119764984Y-76271490D01*
X119755412Y-76223365D01*
X119750602Y-76174534D01*
X119750602Y-76150000D01*
X119750000Y-76150000D01*
X119750000Y-75650000D01*
X121250000Y-75650000D01*
X121250000Y-76150000D01*
X121249398Y-76150000D01*
G37*
%TD.AperFunction*%
%TA.AperFunction,SMDPad,CuDef*%
%TO.P,JP14,1*%
%TO.N,LINE2*%
G36*
X119750000Y-75350000D02*
G01*
X119750000Y-74850000D01*
X119750602Y-74850000D01*
X119750602Y-74825466D01*
X119755412Y-74776635D01*
X119764984Y-74728510D01*
X119779228Y-74681555D01*
X119798005Y-74636222D01*
X119821136Y-74592949D01*
X119848396Y-74552150D01*
X119879524Y-74514221D01*
X119914221Y-74479524D01*
X119952150Y-74448396D01*
X119992949Y-74421136D01*
X120036222Y-74398005D01*
X120081555Y-74379228D01*
X120128510Y-74364984D01*
X120176635Y-74355412D01*
X120225466Y-74350602D01*
X120250000Y-74350602D01*
X120250000Y-74350000D01*
X120750000Y-74350000D01*
X120750000Y-74350602D01*
X120774534Y-74350602D01*
X120823365Y-74355412D01*
X120871490Y-74364984D01*
X120918445Y-74379228D01*
X120963778Y-74398005D01*
X121007051Y-74421136D01*
X121047850Y-74448396D01*
X121085779Y-74479524D01*
X121120476Y-74514221D01*
X121151604Y-74552150D01*
X121178864Y-74592949D01*
X121201995Y-74636222D01*
X121220772Y-74681555D01*
X121235016Y-74728510D01*
X121244588Y-74776635D01*
X121249398Y-74825466D01*
X121249398Y-74850000D01*
X121250000Y-74850000D01*
X121250000Y-75350000D01*
X119750000Y-75350000D01*
G37*
%TD.AperFunction*%
%TD*%
%TA.AperFunction,SMDPad,CuDef*%
%TO.P,JP15,1*%
%TO.N,LINE3*%
G36*
X122350000Y-75350000D02*
G01*
X122350000Y-74850000D01*
X122350602Y-74850000D01*
X122350602Y-74825466D01*
X122355412Y-74776635D01*
X122364984Y-74728510D01*
X122379228Y-74681555D01*
X122398005Y-74636222D01*
X122421136Y-74592949D01*
X122448396Y-74552150D01*
X122479524Y-74514221D01*
X122514221Y-74479524D01*
X122552150Y-74448396D01*
X122592949Y-74421136D01*
X122636222Y-74398005D01*
X122681555Y-74379228D01*
X122728510Y-74364984D01*
X122776635Y-74355412D01*
X122825466Y-74350602D01*
X122850000Y-74350602D01*
X122850000Y-74350000D01*
X123350000Y-74350000D01*
X123350000Y-74350602D01*
X123374534Y-74350602D01*
X123423365Y-74355412D01*
X123471490Y-74364984D01*
X123518445Y-74379228D01*
X123563778Y-74398005D01*
X123607051Y-74421136D01*
X123647850Y-74448396D01*
X123685779Y-74479524D01*
X123720476Y-74514221D01*
X123751604Y-74552150D01*
X123778864Y-74592949D01*
X123801995Y-74636222D01*
X123820772Y-74681555D01*
X123835016Y-74728510D01*
X123844588Y-74776635D01*
X123849398Y-74825466D01*
X123849398Y-74850000D01*
X123850000Y-74850000D01*
X123850000Y-75350000D01*
X122350000Y-75350000D01*
G37*
%TD.AperFunction*%
%TA.AperFunction,SMDPad,CuDef*%
%TO.P,JP15,2*%
%TO.N,GND*%
G36*
X123849398Y-76150000D02*
G01*
X123849398Y-76174534D01*
X123844588Y-76223365D01*
X123835016Y-76271490D01*
X123820772Y-76318445D01*
X123801995Y-76363778D01*
X123778864Y-76407051D01*
X123751604Y-76447850D01*
X123720476Y-76485779D01*
X123685779Y-76520476D01*
X123647850Y-76551604D01*
X123607051Y-76578864D01*
X123563778Y-76601995D01*
X123518445Y-76620772D01*
X123471490Y-76635016D01*
X123423365Y-76644588D01*
X123374534Y-76649398D01*
X123350000Y-76649398D01*
X123350000Y-76650000D01*
X122850000Y-76650000D01*
X122850000Y-76649398D01*
X122825466Y-76649398D01*
X122776635Y-76644588D01*
X122728510Y-76635016D01*
X122681555Y-76620772D01*
X122636222Y-76601995D01*
X122592949Y-76578864D01*
X122552150Y-76551604D01*
X122514221Y-76520476D01*
X122479524Y-76485779D01*
X122448396Y-76447850D01*
X122421136Y-76407051D01*
X122398005Y-76363778D01*
X122379228Y-76318445D01*
X122364984Y-76271490D01*
X122355412Y-76223365D01*
X122350602Y-76174534D01*
X122350602Y-76150000D01*
X122350000Y-76150000D01*
X122350000Y-75650000D01*
X123850000Y-75650000D01*
X123850000Y-76150000D01*
X123849398Y-76150000D01*
G37*
%TD.AperFunction*%
%TD*%
%TA.AperFunction,SMDPad,CuDef*%
%TO.P,JP16,1*%
%TO.N,LINE4*%
G36*
X124950000Y-75350000D02*
G01*
X124950000Y-74850000D01*
X124950602Y-74850000D01*
X124950602Y-74825466D01*
X124955412Y-74776635D01*
X124964984Y-74728510D01*
X124979228Y-74681555D01*
X124998005Y-74636222D01*
X125021136Y-74592949D01*
X125048396Y-74552150D01*
X125079524Y-74514221D01*
X125114221Y-74479524D01*
X125152150Y-74448396D01*
X125192949Y-74421136D01*
X125236222Y-74398005D01*
X125281555Y-74379228D01*
X125328510Y-74364984D01*
X125376635Y-74355412D01*
X125425466Y-74350602D01*
X125450000Y-74350602D01*
X125450000Y-74350000D01*
X125950000Y-74350000D01*
X125950000Y-74350602D01*
X125974534Y-74350602D01*
X126023365Y-74355412D01*
X126071490Y-74364984D01*
X126118445Y-74379228D01*
X126163778Y-74398005D01*
X126207051Y-74421136D01*
X126247850Y-74448396D01*
X126285779Y-74479524D01*
X126320476Y-74514221D01*
X126351604Y-74552150D01*
X126378864Y-74592949D01*
X126401995Y-74636222D01*
X126420772Y-74681555D01*
X126435016Y-74728510D01*
X126444588Y-74776635D01*
X126449398Y-74825466D01*
X126449398Y-74850000D01*
X126450000Y-74850000D01*
X126450000Y-75350000D01*
X124950000Y-75350000D01*
G37*
%TD.AperFunction*%
%TA.AperFunction,SMDPad,CuDef*%
%TO.P,JP16,2*%
%TO.N,GND*%
G36*
X126449398Y-76150000D02*
G01*
X126449398Y-76174534D01*
X126444588Y-76223365D01*
X126435016Y-76271490D01*
X126420772Y-76318445D01*
X126401995Y-76363778D01*
X126378864Y-76407051D01*
X126351604Y-76447850D01*
X126320476Y-76485779D01*
X126285779Y-76520476D01*
X126247850Y-76551604D01*
X126207051Y-76578864D01*
X126163778Y-76601995D01*
X126118445Y-76620772D01*
X126071490Y-76635016D01*
X126023365Y-76644588D01*
X125974534Y-76649398D01*
X125950000Y-76649398D01*
X125950000Y-76650000D01*
X125450000Y-76650000D01*
X125450000Y-76649398D01*
X125425466Y-76649398D01*
X125376635Y-76644588D01*
X125328510Y-76635016D01*
X125281555Y-76620772D01*
X125236222Y-76601995D01*
X125192949Y-76578864D01*
X125152150Y-76551604D01*
X125114221Y-76520476D01*
X125079524Y-76485779D01*
X125048396Y-76447850D01*
X125021136Y-76407051D01*
X124998005Y-76363778D01*
X124979228Y-76318445D01*
X124964984Y-76271490D01*
X124955412Y-76223365D01*
X124950602Y-76174534D01*
X124950602Y-76150000D01*
X124950000Y-76150000D01*
X124950000Y-75650000D01*
X126450000Y-75650000D01*
X126450000Y-76150000D01*
X126449398Y-76150000D01*
G37*
%TD.AperFunction*%
%TD*%
D14*
%TO.P,U2,18*%
%TO.N,GND*%
X103410000Y-67722500D03*
%TO.P,U2,17*%
%TO.N,N/C*%
X104910000Y-67722500D03*
%TO.P,U2,16*%
X106410000Y-67722500D03*
%TO.P,U2,15*%
%TO.N,RST*%
X107910000Y-67722500D03*
%TO.P,U2,14*%
%TO.N,LED_WIFI*%
X109410000Y-67722500D03*
%TO.P,U2,13*%
%TO.N,GND*%
X110910000Y-67722500D03*
%TO.P,U2,12*%
%TO.N,Net-(R12-Pad1)*%
X112410000Y-67722500D03*
%TO.P,U2,11*%
%TO.N,Net-(R11-Pad1)*%
X113910000Y-67722500D03*
%TO.P,U2,10*%
%TO.N,N/C*%
X115410000Y-67722500D03*
%TO.P,U2,9*%
%TO.N,GND*%
X115410000Y-85197500D03*
%TO.P,U2,8*%
%TO.N,Net-(R13-Pad2)*%
X113910000Y-85197500D03*
%TO.P,U2,7*%
%TO.N,N/C*%
X112410000Y-85197500D03*
%TO.P,U2,6*%
X110910000Y-85197500D03*
%TO.P,U2,5*%
%TO.N,LED_STATUS*%
X109410000Y-85197500D03*
%TO.P,U2,4*%
%TO.N,LED_RX*%
X107910000Y-85197500D03*
%TO.P,U2,3*%
%TO.N,LED_TX*%
X106410000Y-85197500D03*
%TO.P,U2,2*%
%TO.N,Net-(R10-Pad1)*%
X104910000Y-85197500D03*
%TO.P,U2,1*%
%TO.N,+3V3*%
X103410000Y-85197500D03*
D15*
%TO.P,U2,19*%
%TO.N,GND*%
X109990000Y-75340000D03*
%TD*%
D16*
%TO.N,VCC*%
X123100000Y-80625000D03*
D17*
%TO.N,GND*%
X118260000Y-77090000D03*
X123490000Y-77090000D03*
X126010000Y-77080000D03*
D18*
X103700000Y-68450000D03*
D16*
X113850000Y-74850000D03*
X114425000Y-73600000D03*
D17*
X110466252Y-67700000D03*
X106750000Y-74950000D03*
D16*
X103850000Y-79450000D03*
X115479044Y-84229269D03*
D17*
X120784034Y-77100965D03*
X127025000Y-83100000D03*
D16*
X113900000Y-76000000D03*
%TO.N,+3V3*%
X103850000Y-82250000D03*
X113400000Y-72500000D03*
X103375000Y-74860000D03*
X114400000Y-71750010D03*
X121725000Y-80625000D03*
D17*
%TO.N,EN*%
X105751724Y-75008722D03*
X108000000Y-80850000D03*
%TO.N,BOOT0*%
X108300000Y-72589998D03*
D18*
X107350000Y-75900000D03*
X111570598Y-80179402D03*
X112419128Y-79330872D03*
%TO.N,RST*%
X111702357Y-68520734D03*
X108250000Y-69750000D03*
X108150000Y-68550000D03*
%TO.N,LED_WIFI*%
X115394863Y-83155137D03*
X111200000Y-79500000D03*
D17*
X106706295Y-79265037D03*
X106600000Y-77020000D03*
%TO.N,Net-(D1-Pad1)*%
X116500000Y-85300000D03*
%TO.N,Net-(D2-Pad1)*%
X119700000Y-85250000D03*
%TO.N,Net-(D3-Pad1)*%
X122700000Y-84450000D03*
%TO.N,Net-(D4-Pad1)*%
X119816841Y-84256848D03*
D18*
%TO.N,TXD*%
X120500000Y-73800000D03*
X117900000Y-73800000D03*
X123100000Y-73800000D03*
X125750000Y-73800000D03*
%TO.N,RXD*%
X117850000Y-70400000D03*
X120450000Y-70400000D03*
X123100000Y-70400000D03*
X125750000Y-70400000D03*
%TO.N,RTS*%
X107793316Y-70517571D03*
X104800001Y-70520818D03*
D17*
%TO.N,Net-(R10-Pad1)*%
X107050000Y-81800000D03*
%TO.N,Net-(R11-Pad1)*%
X114050000Y-68550000D03*
%TO.N,Net-(R12-Pad1)*%
X112677118Y-68321076D03*
%TO.N,Net-(R13-Pad2)*%
X114415030Y-84508335D03*
D16*
%TO.N,Net-(JP18-Pad1)*%
X104901724Y-77420000D03*
X111020000Y-78250000D03*
%TD*%
D19*
%TO.N,VCC*%
X117900000Y-79500000D02*
X120500000Y-79500000D01*
X120500000Y-79500000D02*
X123100000Y-79500000D01*
X124880000Y-79500000D02*
X125700000Y-79500000D01*
X124330000Y-79500000D02*
X124880000Y-79500000D01*
X123940000Y-79500000D02*
X124330000Y-79500000D01*
X123100000Y-79500000D02*
X123940000Y-79500000D01*
X123125000Y-79525000D02*
X123100000Y-79500000D01*
X123125000Y-80575000D02*
X123125000Y-79525000D01*
D20*
%TO.N,GND*%
X125700000Y-76750000D02*
X126000000Y-77050000D01*
X125700000Y-76150000D02*
X125700000Y-76750000D01*
X123100000Y-76650000D02*
X123600000Y-77150000D01*
X123100000Y-76150000D02*
X123100000Y-76650000D01*
X117900000Y-76730000D02*
X118260000Y-77090000D01*
X117900000Y-76150000D02*
X117900000Y-76730000D01*
D21*
X103410000Y-68160000D02*
X103700000Y-68450000D01*
X103410000Y-67722500D02*
X103410000Y-68160000D01*
D19*
X110580000Y-74750000D02*
X109990000Y-75340000D01*
X113800000Y-74750000D02*
X110580000Y-74750000D01*
X110650000Y-76000000D02*
X109990000Y-75340000D01*
X113900000Y-76000000D02*
X110650000Y-76000000D01*
X111630000Y-73700000D02*
X109990000Y-75340000D01*
X114450000Y-73700000D02*
X111630000Y-73700000D01*
D21*
X110887500Y-67700000D02*
X110910000Y-67722500D01*
X110466252Y-67700000D02*
X110887500Y-67700000D01*
D19*
X115410000Y-84298313D02*
X115479044Y-84229269D01*
X115410000Y-85197500D02*
X115410000Y-84298313D01*
D20*
X127120000Y-84500000D02*
X127150000Y-84470000D01*
X120500000Y-76816931D02*
X120784034Y-77100965D01*
X120500000Y-76150000D02*
X120500000Y-76816931D01*
X127025000Y-81450000D02*
X127025000Y-84950000D01*
D19*
%TO.N,+3V3*%
X103850000Y-82250000D02*
X103700000Y-82250000D01*
X103410000Y-82540000D02*
X103410000Y-85197500D01*
X103700000Y-82250000D02*
X103410000Y-82540000D01*
D22*
%TO.N,EN*%
X113590000Y-80850000D02*
X113770000Y-80850000D01*
D21*
X120387986Y-80850000D02*
X113375000Y-80850000D01*
X121012987Y-81475001D02*
X120387986Y-80850000D01*
X123508001Y-81475001D02*
X121012987Y-81475001D01*
X123533002Y-81450000D02*
X123508001Y-81475001D01*
X124825000Y-81450000D02*
X123533002Y-81450000D01*
X113375000Y-80850000D02*
X108000000Y-80850000D01*
X113590000Y-80850000D02*
X113375000Y-80850000D01*
X124825000Y-81450000D02*
X124825000Y-84950000D01*
D22*
%TO.N,BOOT0*%
X107900000Y-72589998D02*
X108300000Y-72589998D01*
X107539999Y-72949999D02*
X107900000Y-72589998D01*
X107539999Y-75660001D02*
X107539999Y-72949999D01*
X107350000Y-75850000D02*
X107539999Y-75660001D01*
X107350000Y-75900000D02*
X107350000Y-75850000D01*
X111570598Y-80179402D02*
X112419128Y-79330872D01*
%TO.N,RST*%
X111702357Y-68520734D02*
X111702357Y-70747643D01*
X111702357Y-70747643D02*
X111000000Y-71450000D01*
X109050000Y-71450000D02*
X108343317Y-70743317D01*
X111000000Y-71450000D02*
X109050000Y-71450000D01*
X108343317Y-69843317D02*
X108250000Y-69750000D01*
X108343317Y-70743317D02*
X108343317Y-69843317D01*
X108150000Y-67962500D02*
X107910000Y-67722500D01*
X108150000Y-68550000D02*
X108150000Y-67962500D01*
D21*
%TO.N,LED_WIFI*%
X115564726Y-83325000D02*
X115394863Y-83155137D01*
X117400000Y-83325000D02*
X115564726Y-83325000D01*
X111200000Y-79500000D02*
X109133000Y-79500000D01*
X106941258Y-79500000D02*
X106706295Y-79265037D01*
X109133000Y-79500000D02*
X106941258Y-79500000D01*
X109410000Y-68540000D02*
X109410000Y-67722500D01*
X105282817Y-69150000D02*
X108800000Y-69150000D01*
X104200000Y-70232817D02*
X105282817Y-69150000D01*
X104200000Y-74620000D02*
X104200000Y-70232817D01*
X108800000Y-69150000D02*
X109410000Y-68540000D01*
X106600000Y-77020000D02*
X104200000Y-74620000D01*
%TO.N,Net-(D1-Pad1)*%
X116725000Y-85075000D02*
X116500000Y-85300000D01*
X117400000Y-85075000D02*
X116725000Y-85075000D01*
%TO.N,Net-(D2-Pad1)*%
X119125000Y-85300000D02*
X118900000Y-85075000D01*
X119750000Y-85300000D02*
X119125000Y-85300000D01*
%TO.N,LED_STATUS*%
X112157510Y-82449990D02*
X109410000Y-85197500D01*
X118024990Y-82449990D02*
X112157510Y-82449990D01*
X118900000Y-83325000D02*
X118024990Y-82449990D01*
%TO.N,LED_TX*%
X110157530Y-81449970D02*
X106410000Y-85197500D01*
X122155866Y-83325000D02*
X122300000Y-83325000D01*
X120280836Y-81449970D02*
X122155866Y-83325000D01*
X110157530Y-81449970D02*
X120280836Y-81449970D01*
%TO.N,Net-(D3-Pad1)*%
X122700000Y-84675000D02*
X122300000Y-85075000D01*
X122700000Y-84450000D02*
X122700000Y-84675000D01*
%TO.N,Net-(D4-Pad1)*%
X120634993Y-85075000D02*
X119816841Y-84256848D01*
X120800000Y-85075000D02*
X120634993Y-85075000D01*
%TO.N,LED_RX*%
X111157520Y-81949980D02*
X107910000Y-85197500D01*
X119424980Y-81949980D02*
X111157520Y-81949980D01*
X120800000Y-83325000D02*
X119424980Y-81949980D01*
%TO.N,TXD*%
X123100000Y-72750000D02*
X123100000Y-73800000D01*
X120500000Y-72750000D02*
X120500000Y-73800000D01*
X117900000Y-72750000D02*
X117900000Y-73800000D01*
X125700000Y-73750000D02*
X125750000Y-73800000D01*
X125700000Y-72750000D02*
X125700000Y-73750000D01*
%TO.N,RXD*%
X117900000Y-70350000D02*
X117850000Y-70400000D01*
X117900000Y-69350000D02*
X117900000Y-70350000D01*
X120500000Y-69350000D02*
X120500000Y-70350000D01*
X120500000Y-70350000D02*
X120450000Y-70400000D01*
X123100000Y-69350000D02*
X123100000Y-70400000D01*
X125700000Y-70350000D02*
X125750000Y-70400000D01*
X125700000Y-69350000D02*
X125700000Y-70350000D01*
%TO.N,RTS*%
X104803248Y-70517571D02*
X104800001Y-70520818D01*
X107793316Y-70517571D02*
X104803248Y-70517571D01*
%TO.N,Net-(R10-Pad1)*%
X107050000Y-83057500D02*
X104910000Y-85197500D01*
X107050000Y-81800000D02*
X107050000Y-83057500D01*
%TO.N,Net-(R11-Pad1)*%
X114050000Y-67862500D02*
X113910000Y-67722500D01*
X114050000Y-68550000D02*
X114050000Y-67862500D01*
%TO.N,Net-(R12-Pad1)*%
X112677118Y-67989618D02*
X112410000Y-67722500D01*
X112677118Y-68321076D02*
X112677118Y-67989618D01*
%TO.N,Net-(R13-Pad2)*%
X114415030Y-84692470D02*
X113910000Y-85197500D01*
X114415030Y-84508335D02*
X114415030Y-84692470D01*
D20*
%TO.N,LINE1*%
X118150000Y-78200000D02*
X117900000Y-78200000D01*
X118100000Y-78400000D02*
X117900000Y-78200000D01*
X119250000Y-78400000D02*
X118100000Y-78400000D01*
X118000000Y-65000000D02*
X119250000Y-66250000D01*
X117920000Y-65000000D02*
X118000000Y-65000000D01*
X119200000Y-74850000D02*
X119250000Y-74800000D01*
X117900000Y-74850000D02*
X119200000Y-74850000D01*
X119250000Y-74800000D02*
X119250000Y-78400000D01*
X117900000Y-71450000D02*
X119250000Y-71450000D01*
X119250000Y-71450000D02*
X119250000Y-74800000D01*
X117900000Y-68050000D02*
X119250000Y-68050000D01*
X119250000Y-68050000D02*
X119250000Y-71450000D01*
X119250000Y-66250000D02*
X119250000Y-68050000D01*
%TO.N,LINE2*%
X120700000Y-78400000D02*
X120500000Y-78200000D01*
X121800000Y-78400000D02*
X120700000Y-78400000D01*
X120460000Y-65000000D02*
X121800000Y-66340000D01*
X120500000Y-74850000D02*
X121700000Y-74850000D01*
X121700000Y-74850000D02*
X121800000Y-74950000D01*
X121800000Y-74950000D02*
X121800000Y-78400000D01*
X120500000Y-71450000D02*
X121700000Y-71450000D01*
X121800000Y-71550000D02*
X121800000Y-74950000D01*
X121700000Y-71450000D02*
X121800000Y-71550000D01*
X120500000Y-68050000D02*
X121800000Y-68050000D01*
X121800000Y-68050000D02*
X121800000Y-71550000D01*
X121800000Y-66340000D02*
X121800000Y-68050000D01*
%TO.N,LINE3*%
X123300000Y-78400000D02*
X123100000Y-78200000D01*
X124450000Y-78400000D02*
X123300000Y-78400000D01*
X123000000Y-65000000D02*
X124450000Y-66450000D01*
X124350000Y-74850000D02*
X124450000Y-74750000D01*
X123100000Y-74850000D02*
X124350000Y-74850000D01*
X124450000Y-74750000D02*
X124450000Y-78400000D01*
X123100000Y-71450000D02*
X124350000Y-71450000D01*
X124350000Y-71450000D02*
X124450000Y-71350000D01*
X124450000Y-71350000D02*
X124450000Y-74750000D01*
X124350000Y-68050000D02*
X124450000Y-67950000D01*
X123100000Y-68050000D02*
X124350000Y-68050000D01*
X124450000Y-67950000D02*
X124450000Y-71350000D01*
X124450000Y-66450000D02*
X124450000Y-67950000D01*
%TO.N,LINE4*%
X125850000Y-78350000D02*
X125700000Y-78200000D01*
X127000000Y-78350000D02*
X125850000Y-78350000D01*
X125700000Y-74850000D02*
X127000000Y-74850000D01*
X127000000Y-74850000D02*
X127000000Y-78350000D01*
X126950000Y-71450000D02*
X127000000Y-71400000D01*
X125700000Y-71450000D02*
X126950000Y-71450000D01*
X127000000Y-71400000D02*
X127000000Y-74850000D01*
X125700000Y-68050000D02*
X126950000Y-68050000D01*
X126950000Y-68050000D02*
X127000000Y-68100000D01*
X127000000Y-68100000D02*
X127000000Y-71400000D01*
X127000000Y-67662081D02*
X127000000Y-68100000D01*
X125540000Y-66202081D02*
X127000000Y-67662081D01*
X125540000Y-65000000D02*
X125540000Y-66202081D01*
D19*
%TO.N,Net-(JP18-Pad1)*%
X105731724Y-78250000D02*
X111020000Y-78250000D01*
X104901724Y-77420000D02*
X105731724Y-78250000D01*
%TD*%
M02*
