%TF.GenerationSoftware,KiCad,Pcbnew,5.1.9*%
%TF.CreationDate,2021-01-20T22:35:35+01:00*%
%TF.ProjectId,wi-se-rewirable,77692d73-652d-4726-9577-697261626c65,rev?*%
%TF.SameCoordinates,Original*%
%TF.FileFunction,Soldermask,Bot*%
%TF.FilePolarity,Negative*%
%FSLAX46Y46*%
G04 Gerber Fmt 4.6, Leading zero omitted, Abs format (unit mm)*
G04 Created by KiCad (PCBNEW 5.1.9) date 2021-01-20 22:35:35*
%MOMM*%
%LPD*%
G01*
G04 APERTURE LIST*
%ADD10C,0.100000*%
%ADD11R,1.000000X1.500000*%
%ADD12R,1.700000X1.700000*%
%ADD13O,1.700000X1.700000*%
%ADD14R,0.568000X1.207999*%
%ADD15R,2.000000X3.800000*%
%ADD16R,2.000000X1.500000*%
G04 APERTURE END LIST*
D10*
%TO.C,JP17*%
G36*
X124370000Y-78710602D02*
G01*
X124394534Y-78710602D01*
X124443365Y-78715412D01*
X124491490Y-78724984D01*
X124538445Y-78739228D01*
X124583778Y-78758005D01*
X124627051Y-78781136D01*
X124667850Y-78808396D01*
X124705779Y-78839524D01*
X124740476Y-78874221D01*
X124771604Y-78912150D01*
X124798864Y-78952949D01*
X124821995Y-78996222D01*
X124840772Y-79041555D01*
X124855016Y-79088510D01*
X124864588Y-79136635D01*
X124869398Y-79185466D01*
X124869398Y-79210000D01*
X124870000Y-79210000D01*
X124870000Y-79710000D01*
X124869398Y-79710000D01*
X124869398Y-79734534D01*
X124864588Y-79783365D01*
X124855016Y-79831490D01*
X124840772Y-79878445D01*
X124821995Y-79923778D01*
X124798864Y-79967051D01*
X124771604Y-80007850D01*
X124740476Y-80045779D01*
X124705779Y-80080476D01*
X124667850Y-80111604D01*
X124627051Y-80138864D01*
X124583778Y-80161995D01*
X124538445Y-80180772D01*
X124491490Y-80195016D01*
X124443365Y-80204588D01*
X124394534Y-80209398D01*
X124370000Y-80209398D01*
X124370000Y-80210000D01*
X123820000Y-80210000D01*
X123820000Y-78710000D01*
X124370000Y-78710000D01*
X124370000Y-78710602D01*
G37*
D11*
X123070000Y-79460000D03*
D10*
G36*
X122320000Y-80210000D02*
G01*
X121770000Y-80210000D01*
X121770000Y-80209398D01*
X121745466Y-80209398D01*
X121696635Y-80204588D01*
X121648510Y-80195016D01*
X121601555Y-80180772D01*
X121556222Y-80161995D01*
X121512949Y-80138864D01*
X121472150Y-80111604D01*
X121434221Y-80080476D01*
X121399524Y-80045779D01*
X121368396Y-80007850D01*
X121341136Y-79967051D01*
X121318005Y-79923778D01*
X121299228Y-79878445D01*
X121284984Y-79831490D01*
X121275412Y-79783365D01*
X121270602Y-79734534D01*
X121270602Y-79710000D01*
X121270000Y-79710000D01*
X121270000Y-79210000D01*
X121270602Y-79210000D01*
X121270602Y-79185466D01*
X121275412Y-79136635D01*
X121284984Y-79088510D01*
X121299228Y-79041555D01*
X121318005Y-78996222D01*
X121341136Y-78952949D01*
X121368396Y-78912150D01*
X121399524Y-78874221D01*
X121434221Y-78839524D01*
X121472150Y-78808396D01*
X121512949Y-78781136D01*
X121556222Y-78758005D01*
X121601555Y-78739228D01*
X121648510Y-78724984D01*
X121696635Y-78715412D01*
X121745466Y-78710602D01*
X121770000Y-78710602D01*
X121770000Y-78710000D01*
X122320000Y-78710000D01*
X122320000Y-80210000D01*
G37*
%TD*%
%TO.C,C1*%
G36*
G01*
X127640002Y-76950000D02*
X126339998Y-76950000D01*
G75*
G02*
X126090000Y-76700002I0J249998D01*
G01*
X126090000Y-75874998D01*
G75*
G02*
X126339998Y-75625000I249998J0D01*
G01*
X127640002Y-75625000D01*
G75*
G02*
X127890000Y-75874998I0J-249998D01*
G01*
X127890000Y-76700002D01*
G75*
G02*
X127640002Y-76950000I-249998J0D01*
G01*
G37*
G36*
G01*
X127640002Y-80075000D02*
X126339998Y-80075000D01*
G75*
G02*
X126090000Y-79825002I0J249998D01*
G01*
X126090000Y-78999998D01*
G75*
G02*
X126339998Y-78750000I249998J0D01*
G01*
X127640002Y-78750000D01*
G75*
G02*
X127890000Y-78999998I0J-249998D01*
G01*
X127890000Y-79825002D01*
G75*
G02*
X127640002Y-80075000I-249998J0D01*
G01*
G37*
%TD*%
%TO.C,C2*%
G36*
G01*
X112150000Y-73150001D02*
X112150000Y-71849999D01*
G75*
G02*
X112399999Y-71600000I249999J0D01*
G01*
X113050001Y-71600000D01*
G75*
G02*
X113300000Y-71849999I0J-249999D01*
G01*
X113300000Y-73150001D01*
G75*
G02*
X113050001Y-73400000I-249999J0D01*
G01*
X112399999Y-73400000D01*
G75*
G02*
X112150000Y-73150001I0J249999D01*
G01*
G37*
G36*
G01*
X115100000Y-73150001D02*
X115100000Y-71849999D01*
G75*
G02*
X115349999Y-71600000I249999J0D01*
G01*
X116000001Y-71600000D01*
G75*
G02*
X116250000Y-71849999I0J-249999D01*
G01*
X116250000Y-73150001D01*
G75*
G02*
X116000001Y-73400000I-249999J0D01*
G01*
X115349999Y-73400000D01*
G75*
G02*
X115100000Y-73150001I0J249999D01*
G01*
G37*
%TD*%
%TO.C,C5*%
G36*
G01*
X104500001Y-81000000D02*
X103199999Y-81000000D01*
G75*
G02*
X102950000Y-80750001I0J249999D01*
G01*
X102950000Y-80099999D01*
G75*
G02*
X103199999Y-79850000I249999J0D01*
G01*
X104500001Y-79850000D01*
G75*
G02*
X104750000Y-80099999I0J-249999D01*
G01*
X104750000Y-80750001D01*
G75*
G02*
X104500001Y-81000000I-249999J0D01*
G01*
G37*
G36*
G01*
X104500001Y-83950000D02*
X103199999Y-83950000D01*
G75*
G02*
X102950000Y-83700001I0J249999D01*
G01*
X102950000Y-83049999D01*
G75*
G02*
X103199999Y-82800000I249999J0D01*
G01*
X104500001Y-82800000D01*
G75*
G02*
X104750000Y-83049999I0J-249999D01*
G01*
X104750000Y-83700001D01*
G75*
G02*
X104500001Y-83950000I-249999J0D01*
G01*
G37*
%TD*%
%TO.C,C6*%
G36*
G01*
X106050000Y-83925000D02*
X105550000Y-83925000D01*
G75*
G02*
X105325000Y-83700000I0J225000D01*
G01*
X105325000Y-83250000D01*
G75*
G02*
X105550000Y-83025000I225000J0D01*
G01*
X106050000Y-83025000D01*
G75*
G02*
X106275000Y-83250000I0J-225000D01*
G01*
X106275000Y-83700000D01*
G75*
G02*
X106050000Y-83925000I-225000J0D01*
G01*
G37*
G36*
G01*
X106050000Y-82375000D02*
X105550000Y-82375000D01*
G75*
G02*
X105325000Y-82150000I0J225000D01*
G01*
X105325000Y-81700000D01*
G75*
G02*
X105550000Y-81475000I225000J0D01*
G01*
X106050000Y-81475000D01*
G75*
G02*
X106275000Y-81700000I0J-225000D01*
G01*
X106275000Y-82150000D01*
G75*
G02*
X106050000Y-82375000I-225000J0D01*
G01*
G37*
%TD*%
%TO.C,C7*%
G36*
G01*
X112640000Y-83070000D02*
X112640000Y-82730000D01*
G75*
G02*
X112780000Y-82590000I140000J0D01*
G01*
X113060000Y-82590000D01*
G75*
G02*
X113200000Y-82730000I0J-140000D01*
G01*
X113200000Y-83070000D01*
G75*
G02*
X113060000Y-83210000I-140000J0D01*
G01*
X112780000Y-83210000D01*
G75*
G02*
X112640000Y-83070000I0J140000D01*
G01*
G37*
G36*
G01*
X113600000Y-83070000D02*
X113600000Y-82730000D01*
G75*
G02*
X113740000Y-82590000I140000J0D01*
G01*
X114020000Y-82590000D01*
G75*
G02*
X114160000Y-82730000I0J-140000D01*
G01*
X114160000Y-83070000D01*
G75*
G02*
X114020000Y-83210000I-140000J0D01*
G01*
X113740000Y-83210000D01*
G75*
G02*
X113600000Y-83070000I0J140000D01*
G01*
G37*
%TD*%
%TO.C,C8*%
G36*
G01*
X106500000Y-74270000D02*
X106500000Y-73930000D01*
G75*
G02*
X106640000Y-73790000I140000J0D01*
G01*
X106920000Y-73790000D01*
G75*
G02*
X107060000Y-73930000I0J-140000D01*
G01*
X107060000Y-74270000D01*
G75*
G02*
X106920000Y-74410000I-140000J0D01*
G01*
X106640000Y-74410000D01*
G75*
G02*
X106500000Y-74270000I0J140000D01*
G01*
G37*
G36*
G01*
X105540000Y-74270000D02*
X105540000Y-73930000D01*
G75*
G02*
X105680000Y-73790000I140000J0D01*
G01*
X105960000Y-73790000D01*
G75*
G02*
X106100000Y-73930000I0J-140000D01*
G01*
X106100000Y-74270000D01*
G75*
G02*
X105960000Y-74410000I-140000J0D01*
G01*
X105680000Y-74410000D01*
G75*
G02*
X105540000Y-74270000I0J140000D01*
G01*
G37*
%TD*%
%TO.C,C9*%
G36*
G01*
X111660000Y-67880000D02*
X111660000Y-68220000D01*
G75*
G02*
X111520000Y-68360000I-140000J0D01*
G01*
X111240000Y-68360000D01*
G75*
G02*
X111100000Y-68220000I0J140000D01*
G01*
X111100000Y-67880000D01*
G75*
G02*
X111240000Y-67740000I140000J0D01*
G01*
X111520000Y-67740000D01*
G75*
G02*
X111660000Y-67880000I0J-140000D01*
G01*
G37*
G36*
G01*
X110700000Y-67880000D02*
X110700000Y-68220000D01*
G75*
G02*
X110560000Y-68360000I-140000J0D01*
G01*
X110280000Y-68360000D01*
G75*
G02*
X110140000Y-68220000I0J140000D01*
G01*
X110140000Y-67880000D01*
G75*
G02*
X110280000Y-67740000I140000J0D01*
G01*
X110560000Y-67740000D01*
G75*
G02*
X110700000Y-67880000I0J-140000D01*
G01*
G37*
%TD*%
D12*
%TO.C,J1*%
X104750000Y-65000000D03*
D13*
X107290000Y-65000000D03*
%TD*%
D12*
%TO.C,J2*%
X117920000Y-65000000D03*
D13*
X120460000Y-65000000D03*
X123000000Y-65000000D03*
X125540000Y-65000000D03*
%TD*%
D14*
%TO.C,Q1*%
X104450000Y-71571000D03*
X105400001Y-69529001D03*
X103499999Y-69529001D03*
%TD*%
%TO.C,Q2*%
X107149999Y-69529001D03*
X109050001Y-69529001D03*
X108100000Y-71571000D03*
%TD*%
%TO.C,R1*%
G36*
G01*
X117515000Y-83330000D02*
X117885000Y-83330000D01*
G75*
G02*
X118020000Y-83465000I0J-135000D01*
G01*
X118020000Y-83735000D01*
G75*
G02*
X117885000Y-83870000I-135000J0D01*
G01*
X117515000Y-83870000D01*
G75*
G02*
X117380000Y-83735000I0J135000D01*
G01*
X117380000Y-83465000D01*
G75*
G02*
X117515000Y-83330000I135000J0D01*
G01*
G37*
G36*
G01*
X117515000Y-84350000D02*
X117885000Y-84350000D01*
G75*
G02*
X118020000Y-84485000I0J-135000D01*
G01*
X118020000Y-84755000D01*
G75*
G02*
X117885000Y-84890000I-135000J0D01*
G01*
X117515000Y-84890000D01*
G75*
G02*
X117380000Y-84755000I0J135000D01*
G01*
X117380000Y-84485000D01*
G75*
G02*
X117515000Y-84350000I135000J0D01*
G01*
G37*
%TD*%
%TO.C,R2*%
G36*
G01*
X118515000Y-84340000D02*
X118885000Y-84340000D01*
G75*
G02*
X119020000Y-84475000I0J-135000D01*
G01*
X119020000Y-84745000D01*
G75*
G02*
X118885000Y-84880000I-135000J0D01*
G01*
X118515000Y-84880000D01*
G75*
G02*
X118380000Y-84745000I0J135000D01*
G01*
X118380000Y-84475000D01*
G75*
G02*
X118515000Y-84340000I135000J0D01*
G01*
G37*
G36*
G01*
X118515000Y-83320000D02*
X118885000Y-83320000D01*
G75*
G02*
X119020000Y-83455000I0J-135000D01*
G01*
X119020000Y-83725000D01*
G75*
G02*
X118885000Y-83860000I-135000J0D01*
G01*
X118515000Y-83860000D01*
G75*
G02*
X118380000Y-83725000I0J135000D01*
G01*
X118380000Y-83455000D01*
G75*
G02*
X118515000Y-83320000I135000J0D01*
G01*
G37*
%TD*%
%TO.C,R3*%
G36*
G01*
X121915000Y-84350000D02*
X122285000Y-84350000D01*
G75*
G02*
X122420000Y-84485000I0J-135000D01*
G01*
X122420000Y-84755000D01*
G75*
G02*
X122285000Y-84890000I-135000J0D01*
G01*
X121915000Y-84890000D01*
G75*
G02*
X121780000Y-84755000I0J135000D01*
G01*
X121780000Y-84485000D01*
G75*
G02*
X121915000Y-84350000I135000J0D01*
G01*
G37*
G36*
G01*
X121915000Y-83330000D02*
X122285000Y-83330000D01*
G75*
G02*
X122420000Y-83465000I0J-135000D01*
G01*
X122420000Y-83735000D01*
G75*
G02*
X122285000Y-83870000I-135000J0D01*
G01*
X121915000Y-83870000D01*
G75*
G02*
X121780000Y-83735000I0J135000D01*
G01*
X121780000Y-83465000D01*
G75*
G02*
X121915000Y-83330000I135000J0D01*
G01*
G37*
%TD*%
%TO.C,R4*%
G36*
G01*
X120915000Y-84350000D02*
X121285000Y-84350000D01*
G75*
G02*
X121420000Y-84485000I0J-135000D01*
G01*
X121420000Y-84755000D01*
G75*
G02*
X121285000Y-84890000I-135000J0D01*
G01*
X120915000Y-84890000D01*
G75*
G02*
X120780000Y-84755000I0J135000D01*
G01*
X120780000Y-84485000D01*
G75*
G02*
X120915000Y-84350000I135000J0D01*
G01*
G37*
G36*
G01*
X120915000Y-83330000D02*
X121285000Y-83330000D01*
G75*
G02*
X121420000Y-83465000I0J-135000D01*
G01*
X121420000Y-83735000D01*
G75*
G02*
X121285000Y-83870000I-135000J0D01*
G01*
X120915000Y-83870000D01*
G75*
G02*
X120780000Y-83735000I0J135000D01*
G01*
X120780000Y-83465000D01*
G75*
G02*
X120915000Y-83330000I135000J0D01*
G01*
G37*
%TD*%
%TO.C,R5*%
G36*
G01*
X110430000Y-71915000D02*
X110430000Y-72285000D01*
G75*
G02*
X110295000Y-72420000I-135000J0D01*
G01*
X110025000Y-72420000D01*
G75*
G02*
X109890000Y-72285000I0J135000D01*
G01*
X109890000Y-71915000D01*
G75*
G02*
X110025000Y-71780000I135000J0D01*
G01*
X110295000Y-71780000D01*
G75*
G02*
X110430000Y-71915000I0J-135000D01*
G01*
G37*
G36*
G01*
X109410000Y-71915000D02*
X109410000Y-72285000D01*
G75*
G02*
X109275000Y-72420000I-135000J0D01*
G01*
X109005000Y-72420000D01*
G75*
G02*
X108870000Y-72285000I0J135000D01*
G01*
X108870000Y-71915000D01*
G75*
G02*
X109005000Y-71780000I135000J0D01*
G01*
X109275000Y-71780000D01*
G75*
G02*
X109410000Y-71915000I0J-135000D01*
G01*
G37*
%TD*%
%TO.C,R6*%
G36*
G01*
X106060000Y-72915000D02*
X106060000Y-73285000D01*
G75*
G02*
X105925000Y-73420000I-135000J0D01*
G01*
X105655000Y-73420000D01*
G75*
G02*
X105520000Y-73285000I0J135000D01*
G01*
X105520000Y-72915000D01*
G75*
G02*
X105655000Y-72780000I135000J0D01*
G01*
X105925000Y-72780000D01*
G75*
G02*
X106060000Y-72915000I0J-135000D01*
G01*
G37*
G36*
G01*
X107080000Y-72915000D02*
X107080000Y-73285000D01*
G75*
G02*
X106945000Y-73420000I-135000J0D01*
G01*
X106675000Y-73420000D01*
G75*
G02*
X106540000Y-73285000I0J135000D01*
G01*
X106540000Y-72915000D01*
G75*
G02*
X106675000Y-72780000I135000J0D01*
G01*
X106945000Y-72780000D01*
G75*
G02*
X107080000Y-72915000I0J-135000D01*
G01*
G37*
%TD*%
%TO.C,R7*%
G36*
G01*
X111635000Y-70280000D02*
X111265000Y-70280000D01*
G75*
G02*
X111130000Y-70145000I0J135000D01*
G01*
X111130000Y-69875000D01*
G75*
G02*
X111265000Y-69740000I135000J0D01*
G01*
X111635000Y-69740000D01*
G75*
G02*
X111770000Y-69875000I0J-135000D01*
G01*
X111770000Y-70145000D01*
G75*
G02*
X111635000Y-70280000I-135000J0D01*
G01*
G37*
G36*
G01*
X111635000Y-69260000D02*
X111265000Y-69260000D01*
G75*
G02*
X111130000Y-69125000I0J135000D01*
G01*
X111130000Y-68855000D01*
G75*
G02*
X111265000Y-68720000I135000J0D01*
G01*
X111635000Y-68720000D01*
G75*
G02*
X111770000Y-68855000I0J-135000D01*
G01*
X111770000Y-69125000D01*
G75*
G02*
X111635000Y-69260000I-135000J0D01*
G01*
G37*
%TD*%
%TO.C,R8*%
G36*
G01*
X106540000Y-72285000D02*
X106540000Y-71915000D01*
G75*
G02*
X106675000Y-71780000I135000J0D01*
G01*
X106945000Y-71780000D01*
G75*
G02*
X107080000Y-71915000I0J-135000D01*
G01*
X107080000Y-72285000D01*
G75*
G02*
X106945000Y-72420000I-135000J0D01*
G01*
X106675000Y-72420000D01*
G75*
G02*
X106540000Y-72285000I0J135000D01*
G01*
G37*
G36*
G01*
X105520000Y-72285000D02*
X105520000Y-71915000D01*
G75*
G02*
X105655000Y-71780000I135000J0D01*
G01*
X105925000Y-71780000D01*
G75*
G02*
X106060000Y-71915000I0J-135000D01*
G01*
X106060000Y-72285000D01*
G75*
G02*
X105925000Y-72420000I-135000J0D01*
G01*
X105655000Y-72420000D01*
G75*
G02*
X105520000Y-72285000I0J135000D01*
G01*
G37*
%TD*%
%TO.C,R9*%
G36*
G01*
X110265000Y-68720000D02*
X110635000Y-68720000D01*
G75*
G02*
X110770000Y-68855000I0J-135000D01*
G01*
X110770000Y-69125000D01*
G75*
G02*
X110635000Y-69260000I-135000J0D01*
G01*
X110265000Y-69260000D01*
G75*
G02*
X110130000Y-69125000I0J135000D01*
G01*
X110130000Y-68855000D01*
G75*
G02*
X110265000Y-68720000I135000J0D01*
G01*
G37*
G36*
G01*
X110265000Y-69740000D02*
X110635000Y-69740000D01*
G75*
G02*
X110770000Y-69875000I0J-135000D01*
G01*
X110770000Y-70145000D01*
G75*
G02*
X110635000Y-70280000I-135000J0D01*
G01*
X110265000Y-70280000D01*
G75*
G02*
X110130000Y-70145000I0J135000D01*
G01*
X110130000Y-69875000D01*
G75*
G02*
X110265000Y-69740000I135000J0D01*
G01*
G37*
%TD*%
%TO.C,R11*%
G36*
G01*
X113265000Y-68720000D02*
X113635000Y-68720000D01*
G75*
G02*
X113770000Y-68855000I0J-135000D01*
G01*
X113770000Y-69125000D01*
G75*
G02*
X113635000Y-69260000I-135000J0D01*
G01*
X113265000Y-69260000D01*
G75*
G02*
X113130000Y-69125000I0J135000D01*
G01*
X113130000Y-68855000D01*
G75*
G02*
X113265000Y-68720000I135000J0D01*
G01*
G37*
G36*
G01*
X113265000Y-69740000D02*
X113635000Y-69740000D01*
G75*
G02*
X113770000Y-69875000I0J-135000D01*
G01*
X113770000Y-70145000D01*
G75*
G02*
X113635000Y-70280000I-135000J0D01*
G01*
X113265000Y-70280000D01*
G75*
G02*
X113130000Y-70145000I0J135000D01*
G01*
X113130000Y-69875000D01*
G75*
G02*
X113265000Y-69740000I135000J0D01*
G01*
G37*
%TD*%
%TO.C,R12*%
G36*
G01*
X112265000Y-68720000D02*
X112635000Y-68720000D01*
G75*
G02*
X112770000Y-68855000I0J-135000D01*
G01*
X112770000Y-69125000D01*
G75*
G02*
X112635000Y-69260000I-135000J0D01*
G01*
X112265000Y-69260000D01*
G75*
G02*
X112130000Y-69125000I0J135000D01*
G01*
X112130000Y-68855000D01*
G75*
G02*
X112265000Y-68720000I135000J0D01*
G01*
G37*
G36*
G01*
X112265000Y-69740000D02*
X112635000Y-69740000D01*
G75*
G02*
X112770000Y-69875000I0J-135000D01*
G01*
X112770000Y-70145000D01*
G75*
G02*
X112635000Y-70280000I-135000J0D01*
G01*
X112265000Y-70280000D01*
G75*
G02*
X112130000Y-70145000I0J135000D01*
G01*
X112130000Y-69875000D01*
G75*
G02*
X112265000Y-69740000I135000J0D01*
G01*
G37*
%TD*%
D15*
%TO.C,U1*%
X109110000Y-77310000D03*
D16*
X115410000Y-77310000D03*
X115410000Y-79610000D03*
X115410000Y-75010000D03*
%TD*%
%TO.C,R10*%
G36*
G01*
X106865000Y-82470000D02*
X107235000Y-82470000D01*
G75*
G02*
X107370000Y-82605000I0J-135000D01*
G01*
X107370000Y-82875000D01*
G75*
G02*
X107235000Y-83010000I-135000J0D01*
G01*
X106865000Y-83010000D01*
G75*
G02*
X106730000Y-82875000I0J135000D01*
G01*
X106730000Y-82605000D01*
G75*
G02*
X106865000Y-82470000I135000J0D01*
G01*
G37*
G36*
G01*
X106865000Y-83490000D02*
X107235000Y-83490000D01*
G75*
G02*
X107370000Y-83625000I0J-135000D01*
G01*
X107370000Y-83895000D01*
G75*
G02*
X107235000Y-84030000I-135000J0D01*
G01*
X106865000Y-84030000D01*
G75*
G02*
X106730000Y-83895000I0J135000D01*
G01*
X106730000Y-83625000D01*
G75*
G02*
X106865000Y-83490000I135000J0D01*
G01*
G37*
%TD*%
%TO.C,R13*%
G36*
G01*
X113640000Y-84135000D02*
X113640000Y-83765000D01*
G75*
G02*
X113775000Y-83630000I135000J0D01*
G01*
X114045000Y-83630000D01*
G75*
G02*
X114180000Y-83765000I0J-135000D01*
G01*
X114180000Y-84135000D01*
G75*
G02*
X114045000Y-84270000I-135000J0D01*
G01*
X113775000Y-84270000D01*
G75*
G02*
X113640000Y-84135000I0J135000D01*
G01*
G37*
G36*
G01*
X112620000Y-84135000D02*
X112620000Y-83765000D01*
G75*
G02*
X112755000Y-83630000I135000J0D01*
G01*
X113025000Y-83630000D01*
G75*
G02*
X113160000Y-83765000I0J-135000D01*
G01*
X113160000Y-84135000D01*
G75*
G02*
X113025000Y-84270000I-135000J0D01*
G01*
X112755000Y-84270000D01*
G75*
G02*
X112620000Y-84135000I0J135000D01*
G01*
G37*
%TD*%
D10*
%TO.C,JP18*%
G36*
X104650000Y-76920000D02*
G01*
X104650000Y-77420000D01*
X104649398Y-77420000D01*
X104649398Y-77444534D01*
X104644588Y-77493365D01*
X104635016Y-77541490D01*
X104620772Y-77588445D01*
X104601995Y-77633778D01*
X104578864Y-77677051D01*
X104551604Y-77717850D01*
X104520476Y-77755779D01*
X104485779Y-77790476D01*
X104447850Y-77821604D01*
X104407051Y-77848864D01*
X104363778Y-77871995D01*
X104318445Y-77890772D01*
X104271490Y-77905016D01*
X104223365Y-77914588D01*
X104174534Y-77919398D01*
X104150000Y-77919398D01*
X104150000Y-77920000D01*
X103650000Y-77920000D01*
X103650000Y-77919398D01*
X103625466Y-77919398D01*
X103576635Y-77914588D01*
X103528510Y-77905016D01*
X103481555Y-77890772D01*
X103436222Y-77871995D01*
X103392949Y-77848864D01*
X103352150Y-77821604D01*
X103314221Y-77790476D01*
X103279524Y-77755779D01*
X103248396Y-77717850D01*
X103221136Y-77677051D01*
X103198005Y-77633778D01*
X103179228Y-77588445D01*
X103164984Y-77541490D01*
X103155412Y-77493365D01*
X103150602Y-77444534D01*
X103150602Y-77420000D01*
X103150000Y-77420000D01*
X103150000Y-76920000D01*
X104650000Y-76920000D01*
G37*
G36*
X103150602Y-76120000D02*
G01*
X103150602Y-76095466D01*
X103155412Y-76046635D01*
X103164984Y-75998510D01*
X103179228Y-75951555D01*
X103198005Y-75906222D01*
X103221136Y-75862949D01*
X103248396Y-75822150D01*
X103279524Y-75784221D01*
X103314221Y-75749524D01*
X103352150Y-75718396D01*
X103392949Y-75691136D01*
X103436222Y-75668005D01*
X103481555Y-75649228D01*
X103528510Y-75634984D01*
X103576635Y-75625412D01*
X103625466Y-75620602D01*
X103650000Y-75620602D01*
X103650000Y-75620000D01*
X104150000Y-75620000D01*
X104150000Y-75620602D01*
X104174534Y-75620602D01*
X104223365Y-75625412D01*
X104271490Y-75634984D01*
X104318445Y-75649228D01*
X104363778Y-75668005D01*
X104407051Y-75691136D01*
X104447850Y-75718396D01*
X104485779Y-75749524D01*
X104520476Y-75784221D01*
X104551604Y-75822150D01*
X104578864Y-75862949D01*
X104601995Y-75906222D01*
X104620772Y-75951555D01*
X104635016Y-75998510D01*
X104644588Y-76046635D01*
X104649398Y-76095466D01*
X104649398Y-76120000D01*
X104650000Y-76120000D01*
X104650000Y-76620000D01*
X103150000Y-76620000D01*
X103150000Y-76120000D01*
X103150602Y-76120000D01*
G37*
%TD*%
D11*
%TO.C,SW2*%
X127025000Y-84950000D03*
X124825000Y-84950000D03*
X124825000Y-81450000D03*
X127025000Y-81450000D03*
%TD*%
M02*
