%TF.GenerationSoftware,KiCad,Pcbnew,5.1.9*%
%TF.CreationDate,2021-01-20T22:35:35+01:00*%
%TF.ProjectId,wi-se-rewirable,77692d73-652d-4726-9577-697261626c65,rev?*%
%TF.SameCoordinates,Original*%
%TF.FileFunction,Copper,L2,Inr*%
%TF.FilePolarity,Positive*%
%FSLAX46Y46*%
G04 Gerber Fmt 4.6, Leading zero omitted, Abs format (unit mm)*
G04 Created by KiCad (PCBNEW 5.1.9) date 2021-01-20 22:35:35*
%MOMM*%
%LPD*%
G01*
G04 APERTURE LIST*
%TA.AperFunction,ComponentPad*%
%ADD10R,1.700000X1.700000*%
%TD*%
%TA.AperFunction,ComponentPad*%
%ADD11O,1.700000X1.700000*%
%TD*%
%TA.AperFunction,ViaPad*%
%ADD12C,1.000000*%
%TD*%
%TA.AperFunction,ViaPad*%
%ADD13C,0.800000*%
%TD*%
%TA.AperFunction,ViaPad*%
%ADD14C,0.500000*%
%TD*%
%TA.AperFunction,Conductor*%
%ADD15C,0.254000*%
%TD*%
%TA.AperFunction,Conductor*%
%ADD16C,0.100000*%
%TD*%
G04 APERTURE END LIST*
D10*
%TO.N,RTS*%
%TO.C,J1*%
X104750000Y-65000000D03*
D11*
%TO.N,DTR*%
X107290000Y-65000000D03*
%TD*%
D10*
%TO.N,LINE1*%
%TO.C,J2*%
X117920000Y-65000000D03*
D11*
%TO.N,LINE2*%
X120460000Y-65000000D03*
%TO.N,LINE3*%
X123000000Y-65000000D03*
%TO.N,LINE4*%
X125540000Y-65000000D03*
%TD*%
D12*
%TO.N,VCC*%
X123100000Y-80625000D03*
D13*
%TO.N,GND*%
X118260000Y-77090000D03*
X123490000Y-77090000D03*
X126010000Y-77080000D03*
D14*
X103700000Y-68450000D03*
D12*
X113850000Y-74850000D03*
X114425000Y-73600000D03*
D13*
X110466252Y-67700000D03*
X106750000Y-74950000D03*
D12*
X103850000Y-79450000D03*
X115479044Y-84229269D03*
D13*
X120784034Y-77100965D03*
X127025000Y-83100000D03*
D12*
X113900000Y-76000000D03*
%TO.N,+3V3*%
X103850000Y-82250000D03*
X113400000Y-72500000D03*
X103375000Y-74860000D03*
X114400000Y-71750010D03*
X121725000Y-80625000D03*
D13*
%TO.N,EN*%
X105751724Y-75008722D03*
X108000000Y-80850000D03*
%TO.N,BOOT0*%
X108300000Y-72589998D03*
D14*
X107350000Y-75900000D03*
X111570598Y-80179402D03*
X112419128Y-79330872D03*
%TO.N,RST*%
X111702357Y-68520734D03*
X108250000Y-69750000D03*
X108150000Y-68550000D03*
%TO.N,LED_WIFI*%
X115394863Y-83155137D03*
X111200000Y-79500000D03*
D13*
X106706295Y-79265037D03*
X106600000Y-77020000D03*
%TO.N,Net-(D1-Pad1)*%
X116500000Y-85300000D03*
%TO.N,Net-(D2-Pad1)*%
X119700000Y-85250000D03*
%TO.N,Net-(D3-Pad1)*%
X122700000Y-84450000D03*
%TO.N,Net-(D4-Pad1)*%
X119816841Y-84256848D03*
D14*
%TO.N,TXD*%
X120500000Y-73800000D03*
X117900000Y-73800000D03*
X123100000Y-73800000D03*
X125750000Y-73800000D03*
%TO.N,RXD*%
X117850000Y-70400000D03*
X120450000Y-70400000D03*
X123100000Y-70400000D03*
X125750000Y-70400000D03*
%TO.N,RTS*%
X107793316Y-70517571D03*
X104800001Y-70520818D03*
D13*
%TO.N,Net-(R10-Pad1)*%
X107050000Y-81800000D03*
%TO.N,Net-(R11-Pad1)*%
X114050000Y-68550000D03*
%TO.N,Net-(R12-Pad1)*%
X112677118Y-68321076D03*
%TO.N,Net-(R13-Pad2)*%
X114415030Y-84508335D03*
D12*
%TO.N,Net-(JP18-Pad1)*%
X104901724Y-77420000D03*
X111020000Y-78250000D03*
%TD*%
D15*
%TO.N,GND*%
X124386525Y-65946632D02*
X124593368Y-66153475D01*
X124836589Y-66315990D01*
X125106842Y-66427932D01*
X125393740Y-66485000D01*
X125686260Y-66485000D01*
X125973158Y-66427932D01*
X126243411Y-66315990D01*
X126346169Y-66247330D01*
X126355870Y-66339634D01*
X126367900Y-66398240D01*
X126379107Y-66456992D01*
X126381771Y-66465814D01*
X126416398Y-66577676D01*
X126439578Y-66632819D01*
X126461986Y-66688282D01*
X126466312Y-66696418D01*
X126522007Y-66799425D01*
X126555443Y-66848995D01*
X126588215Y-66899077D01*
X126594040Y-66906218D01*
X126668682Y-66996444D01*
X126711116Y-67038582D01*
X126752978Y-67081331D01*
X126760078Y-67087204D01*
X126850824Y-67161215D01*
X126900620Y-67194299D01*
X126950008Y-67228116D01*
X126958114Y-67232498D01*
X127061507Y-67287474D01*
X127116799Y-67310263D01*
X127171795Y-67333835D01*
X127180598Y-67336559D01*
X127292700Y-67370404D01*
X127351365Y-67382020D01*
X127409889Y-67394460D01*
X127419054Y-67395423D01*
X127535595Y-67406850D01*
X127540000Y-67407282D01*
X127540001Y-85290000D01*
X123305802Y-85290000D01*
X123359774Y-85253937D01*
X123503937Y-85109774D01*
X123617205Y-84940256D01*
X123695226Y-84751898D01*
X123735000Y-84551939D01*
X123735000Y-84348061D01*
X123695226Y-84148102D01*
X123617205Y-83959744D01*
X123503937Y-83790226D01*
X123359774Y-83646063D01*
X123190256Y-83532795D01*
X123001898Y-83454774D01*
X122801939Y-83415000D01*
X122598061Y-83415000D01*
X122398102Y-83454774D01*
X122209744Y-83532795D01*
X122040226Y-83646063D01*
X121896063Y-83790226D01*
X121782795Y-83959744D01*
X121704774Y-84148102D01*
X121665000Y-84348061D01*
X121665000Y-84551939D01*
X121704774Y-84751898D01*
X121782795Y-84940256D01*
X121896063Y-85109774D01*
X122040226Y-85253937D01*
X122094198Y-85290000D01*
X120735000Y-85290000D01*
X120735000Y-85148061D01*
X120695226Y-84948102D01*
X120658686Y-84859888D01*
X120734046Y-84747104D01*
X120812067Y-84558746D01*
X120851841Y-84358787D01*
X120851841Y-84154909D01*
X120812067Y-83954950D01*
X120734046Y-83766592D01*
X120620778Y-83597074D01*
X120476615Y-83452911D01*
X120307097Y-83339643D01*
X120118739Y-83261622D01*
X119918780Y-83221848D01*
X119714902Y-83221848D01*
X119514943Y-83261622D01*
X119326585Y-83339643D01*
X119157067Y-83452911D01*
X119012904Y-83597074D01*
X118899636Y-83766592D01*
X118821615Y-83954950D01*
X118781841Y-84154909D01*
X118781841Y-84358787D01*
X118821615Y-84558746D01*
X118858155Y-84646960D01*
X118782795Y-84759744D01*
X118704774Y-84948102D01*
X118665000Y-85148061D01*
X118665000Y-85290000D01*
X117535000Y-85290000D01*
X117535000Y-85198061D01*
X117495226Y-84998102D01*
X117417205Y-84809744D01*
X117303937Y-84640226D01*
X117159774Y-84496063D01*
X116990256Y-84382795D01*
X116801898Y-84304774D01*
X116601939Y-84265000D01*
X116398061Y-84265000D01*
X116198102Y-84304774D01*
X116009744Y-84382795D01*
X115840226Y-84496063D01*
X115696063Y-84640226D01*
X115582795Y-84809744D01*
X115504774Y-84998102D01*
X115465000Y-85198061D01*
X115465000Y-85290000D01*
X115097076Y-85290000D01*
X115218967Y-85168109D01*
X115332235Y-84998591D01*
X115410256Y-84810233D01*
X115450030Y-84610274D01*
X115450030Y-84406396D01*
X115410256Y-84206437D01*
X115341372Y-84040137D01*
X115482028Y-84040137D01*
X115653008Y-84006127D01*
X115814068Y-83939414D01*
X115959018Y-83842561D01*
X116082287Y-83719292D01*
X116179140Y-83574342D01*
X116245853Y-83413282D01*
X116279863Y-83242302D01*
X116279863Y-83067972D01*
X116245853Y-82896992D01*
X116179140Y-82735932D01*
X116082287Y-82590982D01*
X115959018Y-82467713D01*
X115814068Y-82370860D01*
X115653008Y-82304147D01*
X115482028Y-82270137D01*
X115307698Y-82270137D01*
X115136718Y-82304147D01*
X114975658Y-82370860D01*
X114830708Y-82467713D01*
X114707439Y-82590982D01*
X114610586Y-82735932D01*
X114543873Y-82896992D01*
X114509863Y-83067972D01*
X114509863Y-83242302D01*
X114543873Y-83413282D01*
X114573397Y-83484559D01*
X114516969Y-83473335D01*
X114313091Y-83473335D01*
X114113132Y-83513109D01*
X113924774Y-83591130D01*
X113755256Y-83704398D01*
X113611093Y-83848561D01*
X113497825Y-84018079D01*
X113419804Y-84206437D01*
X113380030Y-84406396D01*
X113380030Y-84610274D01*
X113419804Y-84810233D01*
X113497825Y-84998591D01*
X113611093Y-85168109D01*
X113732984Y-85290000D01*
X103310000Y-85290000D01*
X103310000Y-83254236D01*
X103312376Y-83255824D01*
X103518933Y-83341383D01*
X103738212Y-83385000D01*
X103961788Y-83385000D01*
X104181067Y-83341383D01*
X104387624Y-83255824D01*
X104573520Y-83131612D01*
X104731612Y-82973520D01*
X104855824Y-82787624D01*
X104941383Y-82581067D01*
X104985000Y-82361788D01*
X104985000Y-82138212D01*
X104941383Y-81918933D01*
X104855824Y-81712376D01*
X104731612Y-81526480D01*
X104573520Y-81368388D01*
X104387624Y-81244176D01*
X104181067Y-81158617D01*
X103961788Y-81115000D01*
X103738212Y-81115000D01*
X103518933Y-81158617D01*
X103312376Y-81244176D01*
X103310000Y-81245764D01*
X103310000Y-79163098D01*
X105671295Y-79163098D01*
X105671295Y-79366976D01*
X105711069Y-79566935D01*
X105789090Y-79755293D01*
X105902358Y-79924811D01*
X106046521Y-80068974D01*
X106216039Y-80182242D01*
X106404397Y-80260263D01*
X106604356Y-80300037D01*
X106808234Y-80300037D01*
X107008193Y-80260263D01*
X107196551Y-80182242D01*
X107219141Y-80167148D01*
X107196063Y-80190226D01*
X107082795Y-80359744D01*
X107004774Y-80548102D01*
X106965000Y-80748061D01*
X106965000Y-80765000D01*
X106948061Y-80765000D01*
X106748102Y-80804774D01*
X106559744Y-80882795D01*
X106390226Y-80996063D01*
X106246063Y-81140226D01*
X106132795Y-81309744D01*
X106054774Y-81498102D01*
X106015000Y-81698061D01*
X106015000Y-81901939D01*
X106054774Y-82101898D01*
X106132795Y-82290256D01*
X106246063Y-82459774D01*
X106390226Y-82603937D01*
X106559744Y-82717205D01*
X106748102Y-82795226D01*
X106948061Y-82835000D01*
X107151939Y-82835000D01*
X107351898Y-82795226D01*
X107540256Y-82717205D01*
X107709774Y-82603937D01*
X107853937Y-82459774D01*
X107967205Y-82290256D01*
X108045226Y-82101898D01*
X108085000Y-81901939D01*
X108085000Y-81885000D01*
X108101939Y-81885000D01*
X108301898Y-81845226D01*
X108490256Y-81767205D01*
X108659774Y-81653937D01*
X108803937Y-81509774D01*
X108917205Y-81340256D01*
X108995226Y-81151898D01*
X109035000Y-80951939D01*
X109035000Y-80748061D01*
X108995226Y-80548102D01*
X108917205Y-80359744D01*
X108803937Y-80190226D01*
X108659774Y-80046063D01*
X108490256Y-79932795D01*
X108301898Y-79854774D01*
X108101939Y-79815000D01*
X107898061Y-79815000D01*
X107698102Y-79854774D01*
X107509744Y-79932795D01*
X107487154Y-79947889D01*
X107510232Y-79924811D01*
X107623500Y-79755293D01*
X107701521Y-79566935D01*
X107741295Y-79366976D01*
X107741295Y-79163098D01*
X107701521Y-78963139D01*
X107623500Y-78774781D01*
X107510232Y-78605263D01*
X107366069Y-78461100D01*
X107196551Y-78347832D01*
X107008193Y-78269811D01*
X106808234Y-78230037D01*
X106604356Y-78230037D01*
X106404397Y-78269811D01*
X106216039Y-78347832D01*
X106046521Y-78461100D01*
X105902358Y-78605263D01*
X105789090Y-78774781D01*
X105711069Y-78963139D01*
X105671295Y-79163098D01*
X103310000Y-79163098D01*
X103310000Y-77308212D01*
X103766724Y-77308212D01*
X103766724Y-77531788D01*
X103810341Y-77751067D01*
X103895900Y-77957624D01*
X104020112Y-78143520D01*
X104178204Y-78301612D01*
X104364100Y-78425824D01*
X104570657Y-78511383D01*
X104789936Y-78555000D01*
X105013512Y-78555000D01*
X105232791Y-78511383D01*
X105439348Y-78425824D01*
X105625244Y-78301612D01*
X105783336Y-78143520D01*
X105786882Y-78138212D01*
X109885000Y-78138212D01*
X109885000Y-78361788D01*
X109928617Y-78581067D01*
X110014176Y-78787624D01*
X110138388Y-78973520D01*
X110296480Y-79131612D01*
X110373388Y-79183001D01*
X110349010Y-79241855D01*
X110315000Y-79412835D01*
X110315000Y-79587165D01*
X110349010Y-79758145D01*
X110415723Y-79919205D01*
X110512576Y-80064155D01*
X110635845Y-80187424D01*
X110685598Y-80220668D01*
X110685598Y-80266567D01*
X110719608Y-80437547D01*
X110786321Y-80598607D01*
X110883174Y-80743557D01*
X111006443Y-80866826D01*
X111151393Y-80963679D01*
X111312453Y-81030392D01*
X111483433Y-81064402D01*
X111657763Y-81064402D01*
X111828743Y-81030392D01*
X111989803Y-80963679D01*
X112134753Y-80866826D01*
X112258022Y-80743557D01*
X112354875Y-80598607D01*
X112390246Y-80513212D01*
X120590000Y-80513212D01*
X120590000Y-80736788D01*
X120633617Y-80956067D01*
X120719176Y-81162624D01*
X120843388Y-81348520D01*
X121001480Y-81506612D01*
X121187376Y-81630824D01*
X121393933Y-81716383D01*
X121613212Y-81760000D01*
X121836788Y-81760000D01*
X122056067Y-81716383D01*
X122262624Y-81630824D01*
X122412500Y-81530680D01*
X122562376Y-81630824D01*
X122768933Y-81716383D01*
X122988212Y-81760000D01*
X123211788Y-81760000D01*
X123431067Y-81716383D01*
X123637624Y-81630824D01*
X123823520Y-81506612D01*
X123981612Y-81348520D01*
X124105824Y-81162624D01*
X124191383Y-80956067D01*
X124235000Y-80736788D01*
X124235000Y-80513212D01*
X124191383Y-80293933D01*
X124105824Y-80087376D01*
X123981612Y-79901480D01*
X123823520Y-79743388D01*
X123637624Y-79619176D01*
X123431067Y-79533617D01*
X123211788Y-79490000D01*
X122988212Y-79490000D01*
X122768933Y-79533617D01*
X122562376Y-79619176D01*
X122412500Y-79719320D01*
X122262624Y-79619176D01*
X122056067Y-79533617D01*
X121836788Y-79490000D01*
X121613212Y-79490000D01*
X121393933Y-79533617D01*
X121187376Y-79619176D01*
X121001480Y-79743388D01*
X120843388Y-79901480D01*
X120719176Y-80087376D01*
X120633617Y-80293933D01*
X120590000Y-80513212D01*
X112390246Y-80513212D01*
X112421588Y-80437547D01*
X112455598Y-80266567D01*
X112455598Y-80215872D01*
X112506293Y-80215872D01*
X112677273Y-80181862D01*
X112838333Y-80115149D01*
X112983283Y-80018296D01*
X113106552Y-79895027D01*
X113203405Y-79750077D01*
X113270118Y-79589017D01*
X113304128Y-79418037D01*
X113304128Y-79243707D01*
X113270118Y-79072727D01*
X113203405Y-78911667D01*
X113106552Y-78766717D01*
X112983283Y-78643448D01*
X112838333Y-78546595D01*
X112677273Y-78479882D01*
X112506293Y-78445872D01*
X112331963Y-78445872D01*
X112160983Y-78479882D01*
X112128863Y-78493186D01*
X112155000Y-78361788D01*
X112155000Y-78138212D01*
X112111383Y-77918933D01*
X112025824Y-77712376D01*
X111901612Y-77526480D01*
X111743520Y-77368388D01*
X111557624Y-77244176D01*
X111351067Y-77158617D01*
X111131788Y-77115000D01*
X110908212Y-77115000D01*
X110688933Y-77158617D01*
X110482376Y-77244176D01*
X110296480Y-77368388D01*
X110138388Y-77526480D01*
X110014176Y-77712376D01*
X109928617Y-77918933D01*
X109885000Y-78138212D01*
X105786882Y-78138212D01*
X105907548Y-77957624D01*
X105958003Y-77835815D01*
X106109744Y-77937205D01*
X106298102Y-78015226D01*
X106498061Y-78055000D01*
X106701939Y-78055000D01*
X106901898Y-78015226D01*
X107090256Y-77937205D01*
X107259774Y-77823937D01*
X107403937Y-77679774D01*
X107517205Y-77510256D01*
X107595226Y-77321898D01*
X107635000Y-77121939D01*
X107635000Y-76918061D01*
X107602010Y-76752210D01*
X107608145Y-76750990D01*
X107769205Y-76684277D01*
X107914155Y-76587424D01*
X108037424Y-76464155D01*
X108134277Y-76319205D01*
X108200990Y-76158145D01*
X108235000Y-75987165D01*
X108235000Y-75812835D01*
X108200990Y-75641855D01*
X108134277Y-75480795D01*
X108037424Y-75335845D01*
X107914155Y-75212576D01*
X107769205Y-75115723D01*
X107608145Y-75049010D01*
X107437165Y-75015000D01*
X107262835Y-75015000D01*
X107091855Y-75049010D01*
X106930795Y-75115723D01*
X106785845Y-75212576D01*
X106761637Y-75236784D01*
X106786724Y-75110661D01*
X106786724Y-74906783D01*
X106746950Y-74706824D01*
X106668929Y-74518466D01*
X106555661Y-74348948D01*
X106411498Y-74204785D01*
X106241980Y-74091517D01*
X106053622Y-74013496D01*
X105853663Y-73973722D01*
X105649785Y-73973722D01*
X105449826Y-74013496D01*
X105261468Y-74091517D01*
X105091950Y-74204785D01*
X104947787Y-74348948D01*
X104834519Y-74518466D01*
X104756498Y-74706824D01*
X104716724Y-74906783D01*
X104716724Y-75110661D01*
X104756498Y-75310620D01*
X104834519Y-75498978D01*
X104947787Y-75668496D01*
X105091950Y-75812659D01*
X105261468Y-75925927D01*
X105449826Y-76003948D01*
X105649785Y-76043722D01*
X105853663Y-76043722D01*
X106053622Y-76003948D01*
X106241980Y-75925927D01*
X106411498Y-75812659D01*
X106478328Y-75745829D01*
X106465000Y-75812835D01*
X106465000Y-75987165D01*
X106465844Y-75991408D01*
X106298102Y-76024774D01*
X106109744Y-76102795D01*
X105940226Y-76216063D01*
X105796063Y-76360226D01*
X105682795Y-76529744D01*
X105663407Y-76576551D01*
X105625244Y-76538388D01*
X105439348Y-76414176D01*
X105232791Y-76328617D01*
X105013512Y-76285000D01*
X104789936Y-76285000D01*
X104570657Y-76328617D01*
X104364100Y-76414176D01*
X104178204Y-76538388D01*
X104020112Y-76696480D01*
X103895900Y-76882376D01*
X103810341Y-77088933D01*
X103766724Y-77308212D01*
X103310000Y-77308212D01*
X103310000Y-75995000D01*
X103486788Y-75995000D01*
X103706067Y-75951383D01*
X103912624Y-75865824D01*
X104098520Y-75741612D01*
X104256612Y-75583520D01*
X104380824Y-75397624D01*
X104466383Y-75191067D01*
X104510000Y-74971788D01*
X104510000Y-74748212D01*
X104466383Y-74528933D01*
X104380824Y-74322376D01*
X104256612Y-74136480D01*
X104098520Y-73978388D01*
X103912624Y-73854176D01*
X103706067Y-73768617D01*
X103486788Y-73725000D01*
X103310000Y-73725000D01*
X103310000Y-73712835D01*
X117015000Y-73712835D01*
X117015000Y-73887165D01*
X117049010Y-74058145D01*
X117115723Y-74219205D01*
X117212576Y-74364155D01*
X117335845Y-74487424D01*
X117480795Y-74584277D01*
X117641855Y-74650990D01*
X117812835Y-74685000D01*
X117987165Y-74685000D01*
X118158145Y-74650990D01*
X118319205Y-74584277D01*
X118464155Y-74487424D01*
X118587424Y-74364155D01*
X118684277Y-74219205D01*
X118750990Y-74058145D01*
X118785000Y-73887165D01*
X118785000Y-73712835D01*
X119615000Y-73712835D01*
X119615000Y-73887165D01*
X119649010Y-74058145D01*
X119715723Y-74219205D01*
X119812576Y-74364155D01*
X119935845Y-74487424D01*
X120080795Y-74584277D01*
X120241855Y-74650990D01*
X120412835Y-74685000D01*
X120587165Y-74685000D01*
X120758145Y-74650990D01*
X120919205Y-74584277D01*
X121064155Y-74487424D01*
X121187424Y-74364155D01*
X121284277Y-74219205D01*
X121350990Y-74058145D01*
X121385000Y-73887165D01*
X121385000Y-73712835D01*
X122215000Y-73712835D01*
X122215000Y-73887165D01*
X122249010Y-74058145D01*
X122315723Y-74219205D01*
X122412576Y-74364155D01*
X122535845Y-74487424D01*
X122680795Y-74584277D01*
X122841855Y-74650990D01*
X123012835Y-74685000D01*
X123187165Y-74685000D01*
X123358145Y-74650990D01*
X123519205Y-74584277D01*
X123664155Y-74487424D01*
X123787424Y-74364155D01*
X123884277Y-74219205D01*
X123950990Y-74058145D01*
X123985000Y-73887165D01*
X123985000Y-73712835D01*
X124865000Y-73712835D01*
X124865000Y-73887165D01*
X124899010Y-74058145D01*
X124965723Y-74219205D01*
X125062576Y-74364155D01*
X125185845Y-74487424D01*
X125330795Y-74584277D01*
X125491855Y-74650990D01*
X125662835Y-74685000D01*
X125837165Y-74685000D01*
X126008145Y-74650990D01*
X126169205Y-74584277D01*
X126314155Y-74487424D01*
X126437424Y-74364155D01*
X126534277Y-74219205D01*
X126600990Y-74058145D01*
X126635000Y-73887165D01*
X126635000Y-73712835D01*
X126600990Y-73541855D01*
X126534277Y-73380795D01*
X126437424Y-73235845D01*
X126314155Y-73112576D01*
X126169205Y-73015723D01*
X126008145Y-72949010D01*
X125837165Y-72915000D01*
X125662835Y-72915000D01*
X125491855Y-72949010D01*
X125330795Y-73015723D01*
X125185845Y-73112576D01*
X125062576Y-73235845D01*
X124965723Y-73380795D01*
X124899010Y-73541855D01*
X124865000Y-73712835D01*
X123985000Y-73712835D01*
X123950990Y-73541855D01*
X123884277Y-73380795D01*
X123787424Y-73235845D01*
X123664155Y-73112576D01*
X123519205Y-73015723D01*
X123358145Y-72949010D01*
X123187165Y-72915000D01*
X123012835Y-72915000D01*
X122841855Y-72949010D01*
X122680795Y-73015723D01*
X122535845Y-73112576D01*
X122412576Y-73235845D01*
X122315723Y-73380795D01*
X122249010Y-73541855D01*
X122215000Y-73712835D01*
X121385000Y-73712835D01*
X121350990Y-73541855D01*
X121284277Y-73380795D01*
X121187424Y-73235845D01*
X121064155Y-73112576D01*
X120919205Y-73015723D01*
X120758145Y-72949010D01*
X120587165Y-72915000D01*
X120412835Y-72915000D01*
X120241855Y-72949010D01*
X120080795Y-73015723D01*
X119935845Y-73112576D01*
X119812576Y-73235845D01*
X119715723Y-73380795D01*
X119649010Y-73541855D01*
X119615000Y-73712835D01*
X118785000Y-73712835D01*
X118750990Y-73541855D01*
X118684277Y-73380795D01*
X118587424Y-73235845D01*
X118464155Y-73112576D01*
X118319205Y-73015723D01*
X118158145Y-72949010D01*
X117987165Y-72915000D01*
X117812835Y-72915000D01*
X117641855Y-72949010D01*
X117480795Y-73015723D01*
X117335845Y-73112576D01*
X117212576Y-73235845D01*
X117115723Y-73380795D01*
X117049010Y-73541855D01*
X117015000Y-73712835D01*
X103310000Y-73712835D01*
X103310000Y-72488059D01*
X107265000Y-72488059D01*
X107265000Y-72691937D01*
X107304774Y-72891896D01*
X107382795Y-73080254D01*
X107496063Y-73249772D01*
X107640226Y-73393935D01*
X107809744Y-73507203D01*
X107998102Y-73585224D01*
X108198061Y-73624998D01*
X108401939Y-73624998D01*
X108601898Y-73585224D01*
X108790256Y-73507203D01*
X108959774Y-73393935D01*
X109103937Y-73249772D01*
X109217205Y-73080254D01*
X109295226Y-72891896D01*
X109335000Y-72691937D01*
X109335000Y-72488059D01*
X109315140Y-72388212D01*
X112265000Y-72388212D01*
X112265000Y-72611788D01*
X112308617Y-72831067D01*
X112394176Y-73037624D01*
X112518388Y-73223520D01*
X112676480Y-73381612D01*
X112862376Y-73505824D01*
X113068933Y-73591383D01*
X113288212Y-73635000D01*
X113511788Y-73635000D01*
X113731067Y-73591383D01*
X113937624Y-73505824D01*
X114123520Y-73381612D01*
X114281612Y-73223520D01*
X114405824Y-73037624D01*
X114469039Y-72885010D01*
X114511788Y-72885010D01*
X114731067Y-72841393D01*
X114937624Y-72755834D01*
X115123520Y-72631622D01*
X115281612Y-72473530D01*
X115405824Y-72287634D01*
X115491383Y-72081077D01*
X115535000Y-71861798D01*
X115535000Y-71638222D01*
X115491383Y-71418943D01*
X115405824Y-71212386D01*
X115281612Y-71026490D01*
X115123520Y-70868398D01*
X114937624Y-70744186D01*
X114731067Y-70658627D01*
X114511788Y-70615010D01*
X114288212Y-70615010D01*
X114068933Y-70658627D01*
X113862376Y-70744186D01*
X113676480Y-70868398D01*
X113518388Y-71026490D01*
X113394176Y-71212386D01*
X113330961Y-71365000D01*
X113288212Y-71365000D01*
X113068933Y-71408617D01*
X112862376Y-71494176D01*
X112676480Y-71618388D01*
X112518388Y-71776480D01*
X112394176Y-71962376D01*
X112308617Y-72168933D01*
X112265000Y-72388212D01*
X109315140Y-72388212D01*
X109295226Y-72288100D01*
X109217205Y-72099742D01*
X109103937Y-71930224D01*
X108959774Y-71786061D01*
X108790256Y-71672793D01*
X108601898Y-71594772D01*
X108401939Y-71554998D01*
X108198061Y-71554998D01*
X107998102Y-71594772D01*
X107809744Y-71672793D01*
X107640226Y-71786061D01*
X107496063Y-71930224D01*
X107382795Y-72099742D01*
X107304774Y-72288100D01*
X107265000Y-72488059D01*
X103310000Y-72488059D01*
X103310000Y-70433653D01*
X103915001Y-70433653D01*
X103915001Y-70607983D01*
X103949011Y-70778963D01*
X104015724Y-70940023D01*
X104112577Y-71084973D01*
X104235846Y-71208242D01*
X104380796Y-71305095D01*
X104541856Y-71371808D01*
X104712836Y-71405818D01*
X104887166Y-71405818D01*
X105058146Y-71371808D01*
X105219206Y-71305095D01*
X105364156Y-71208242D01*
X105487425Y-71084973D01*
X105584278Y-70940023D01*
X105650991Y-70778963D01*
X105685001Y-70607983D01*
X105685001Y-70433653D01*
X105684356Y-70430406D01*
X106908316Y-70430406D01*
X106908316Y-70604736D01*
X106942326Y-70775716D01*
X107009039Y-70936776D01*
X107105892Y-71081726D01*
X107229161Y-71204995D01*
X107374111Y-71301848D01*
X107535171Y-71368561D01*
X107706151Y-71402571D01*
X107880481Y-71402571D01*
X108051461Y-71368561D01*
X108212521Y-71301848D01*
X108357471Y-71204995D01*
X108480740Y-71081726D01*
X108577593Y-70936776D01*
X108644306Y-70775716D01*
X108678316Y-70604736D01*
X108678316Y-70528189D01*
X108814155Y-70437424D01*
X108937424Y-70314155D01*
X108938306Y-70312835D01*
X116965000Y-70312835D01*
X116965000Y-70487165D01*
X116999010Y-70658145D01*
X117065723Y-70819205D01*
X117162576Y-70964155D01*
X117285845Y-71087424D01*
X117430795Y-71184277D01*
X117591855Y-71250990D01*
X117762835Y-71285000D01*
X117937165Y-71285000D01*
X118108145Y-71250990D01*
X118269205Y-71184277D01*
X118414155Y-71087424D01*
X118537424Y-70964155D01*
X118634277Y-70819205D01*
X118700990Y-70658145D01*
X118735000Y-70487165D01*
X118735000Y-70312835D01*
X119565000Y-70312835D01*
X119565000Y-70487165D01*
X119599010Y-70658145D01*
X119665723Y-70819205D01*
X119762576Y-70964155D01*
X119885845Y-71087424D01*
X120030795Y-71184277D01*
X120191855Y-71250990D01*
X120362835Y-71285000D01*
X120537165Y-71285000D01*
X120708145Y-71250990D01*
X120869205Y-71184277D01*
X121014155Y-71087424D01*
X121137424Y-70964155D01*
X121234277Y-70819205D01*
X121300990Y-70658145D01*
X121335000Y-70487165D01*
X121335000Y-70312835D01*
X122215000Y-70312835D01*
X122215000Y-70487165D01*
X122249010Y-70658145D01*
X122315723Y-70819205D01*
X122412576Y-70964155D01*
X122535845Y-71087424D01*
X122680795Y-71184277D01*
X122841855Y-71250990D01*
X123012835Y-71285000D01*
X123187165Y-71285000D01*
X123358145Y-71250990D01*
X123519205Y-71184277D01*
X123664155Y-71087424D01*
X123787424Y-70964155D01*
X123884277Y-70819205D01*
X123950990Y-70658145D01*
X123985000Y-70487165D01*
X123985000Y-70312835D01*
X124865000Y-70312835D01*
X124865000Y-70487165D01*
X124899010Y-70658145D01*
X124965723Y-70819205D01*
X125062576Y-70964155D01*
X125185845Y-71087424D01*
X125330795Y-71184277D01*
X125491855Y-71250990D01*
X125662835Y-71285000D01*
X125837165Y-71285000D01*
X126008145Y-71250990D01*
X126169205Y-71184277D01*
X126314155Y-71087424D01*
X126437424Y-70964155D01*
X126534277Y-70819205D01*
X126600990Y-70658145D01*
X126635000Y-70487165D01*
X126635000Y-70312835D01*
X126600990Y-70141855D01*
X126534277Y-69980795D01*
X126437424Y-69835845D01*
X126314155Y-69712576D01*
X126169205Y-69615723D01*
X126008145Y-69549010D01*
X125837165Y-69515000D01*
X125662835Y-69515000D01*
X125491855Y-69549010D01*
X125330795Y-69615723D01*
X125185845Y-69712576D01*
X125062576Y-69835845D01*
X124965723Y-69980795D01*
X124899010Y-70141855D01*
X124865000Y-70312835D01*
X123985000Y-70312835D01*
X123950990Y-70141855D01*
X123884277Y-69980795D01*
X123787424Y-69835845D01*
X123664155Y-69712576D01*
X123519205Y-69615723D01*
X123358145Y-69549010D01*
X123187165Y-69515000D01*
X123012835Y-69515000D01*
X122841855Y-69549010D01*
X122680795Y-69615723D01*
X122535845Y-69712576D01*
X122412576Y-69835845D01*
X122315723Y-69980795D01*
X122249010Y-70141855D01*
X122215000Y-70312835D01*
X121335000Y-70312835D01*
X121300990Y-70141855D01*
X121234277Y-69980795D01*
X121137424Y-69835845D01*
X121014155Y-69712576D01*
X120869205Y-69615723D01*
X120708145Y-69549010D01*
X120537165Y-69515000D01*
X120362835Y-69515000D01*
X120191855Y-69549010D01*
X120030795Y-69615723D01*
X119885845Y-69712576D01*
X119762576Y-69835845D01*
X119665723Y-69980795D01*
X119599010Y-70141855D01*
X119565000Y-70312835D01*
X118735000Y-70312835D01*
X118700990Y-70141855D01*
X118634277Y-69980795D01*
X118537424Y-69835845D01*
X118414155Y-69712576D01*
X118269205Y-69615723D01*
X118108145Y-69549010D01*
X117937165Y-69515000D01*
X117762835Y-69515000D01*
X117591855Y-69549010D01*
X117430795Y-69615723D01*
X117285845Y-69712576D01*
X117162576Y-69835845D01*
X117065723Y-69980795D01*
X116999010Y-70141855D01*
X116965000Y-70312835D01*
X108938306Y-70312835D01*
X109034277Y-70169205D01*
X109100990Y-70008145D01*
X109135000Y-69837165D01*
X109135000Y-69662835D01*
X109100990Y-69491855D01*
X109034277Y-69330795D01*
X108937424Y-69185845D01*
X108848763Y-69097184D01*
X108934277Y-68969205D01*
X109000990Y-68808145D01*
X109035000Y-68637165D01*
X109035000Y-68462835D01*
X109000990Y-68291855D01*
X108934277Y-68130795D01*
X108837424Y-67985845D01*
X108714155Y-67862576D01*
X108569205Y-67765723D01*
X108408145Y-67699010D01*
X108237165Y-67665000D01*
X108062835Y-67665000D01*
X107891855Y-67699010D01*
X107730795Y-67765723D01*
X107585845Y-67862576D01*
X107462576Y-67985845D01*
X107365723Y-68130795D01*
X107299010Y-68291855D01*
X107265000Y-68462835D01*
X107265000Y-68637165D01*
X107299010Y-68808145D01*
X107365723Y-68969205D01*
X107462576Y-69114155D01*
X107551237Y-69202816D01*
X107465723Y-69330795D01*
X107399010Y-69491855D01*
X107365000Y-69662835D01*
X107365000Y-69739382D01*
X107229161Y-69830147D01*
X107105892Y-69953416D01*
X107009039Y-70098366D01*
X106942326Y-70259426D01*
X106908316Y-70430406D01*
X105684356Y-70430406D01*
X105650991Y-70262673D01*
X105584278Y-70101613D01*
X105487425Y-69956663D01*
X105364156Y-69833394D01*
X105219206Y-69736541D01*
X105058146Y-69669828D01*
X104887166Y-69635818D01*
X104712836Y-69635818D01*
X104541856Y-69669828D01*
X104380796Y-69736541D01*
X104235846Y-69833394D01*
X104112577Y-69956663D01*
X104015724Y-70101613D01*
X103949011Y-70262673D01*
X103915001Y-70433653D01*
X103310000Y-70433653D01*
X103310000Y-67576344D01*
X103399425Y-67527993D01*
X103448995Y-67494557D01*
X103499077Y-67461785D01*
X103506218Y-67455960D01*
X103596444Y-67381318D01*
X103638582Y-67338884D01*
X103681331Y-67297022D01*
X103687204Y-67289922D01*
X103761215Y-67199176D01*
X103794299Y-67149380D01*
X103828116Y-67099992D01*
X103832498Y-67091886D01*
X103887474Y-66988493D01*
X103910263Y-66933201D01*
X103933835Y-66878205D01*
X103936559Y-66869402D01*
X103970404Y-66757300D01*
X103982020Y-66698635D01*
X103994460Y-66640111D01*
X103995423Y-66630946D01*
X104006850Y-66514405D01*
X104006850Y-66514402D01*
X104009443Y-66488072D01*
X105600000Y-66488072D01*
X105724482Y-66475812D01*
X105844180Y-66439502D01*
X105954494Y-66380537D01*
X106051185Y-66301185D01*
X106130537Y-66204494D01*
X106189502Y-66094180D01*
X106211513Y-66021620D01*
X106343368Y-66153475D01*
X106586589Y-66315990D01*
X106856842Y-66427932D01*
X107143740Y-66485000D01*
X107436260Y-66485000D01*
X107723158Y-66427932D01*
X107993411Y-66315990D01*
X108002730Y-66309763D01*
X108005870Y-66339634D01*
X108017900Y-66398240D01*
X108029107Y-66456992D01*
X108031771Y-66465814D01*
X108066398Y-66577676D01*
X108089578Y-66632819D01*
X108111986Y-66688282D01*
X108116312Y-66696418D01*
X108172007Y-66799425D01*
X108205443Y-66848995D01*
X108238215Y-66899077D01*
X108244040Y-66906218D01*
X108318682Y-66996444D01*
X108361116Y-67038582D01*
X108402978Y-67081331D01*
X108410078Y-67087204D01*
X108500824Y-67161215D01*
X108550620Y-67194299D01*
X108600008Y-67228116D01*
X108608114Y-67232498D01*
X108711507Y-67287474D01*
X108766799Y-67310263D01*
X108821795Y-67333835D01*
X108830598Y-67336559D01*
X108942700Y-67370404D01*
X109001365Y-67382020D01*
X109059889Y-67394460D01*
X109069054Y-67395423D01*
X109185595Y-67406850D01*
X109185598Y-67406850D01*
X109217581Y-67410000D01*
X112177689Y-67410000D01*
X112017344Y-67517139D01*
X111880627Y-67653856D01*
X111789522Y-67635734D01*
X111615192Y-67635734D01*
X111444212Y-67669744D01*
X111283152Y-67736457D01*
X111138202Y-67833310D01*
X111014933Y-67956579D01*
X110918080Y-68101529D01*
X110851367Y-68262589D01*
X110817357Y-68433569D01*
X110817357Y-68607899D01*
X110851367Y-68778879D01*
X110918080Y-68939939D01*
X111014933Y-69084889D01*
X111138202Y-69208158D01*
X111283152Y-69305011D01*
X111444212Y-69371724D01*
X111615192Y-69405734D01*
X111789522Y-69405734D01*
X111960502Y-69371724D01*
X112121562Y-69305011D01*
X112208201Y-69247120D01*
X112375220Y-69316302D01*
X112575179Y-69356076D01*
X112779057Y-69356076D01*
X112979016Y-69316302D01*
X113167374Y-69238281D01*
X113234944Y-69193133D01*
X113246063Y-69209774D01*
X113390226Y-69353937D01*
X113559744Y-69467205D01*
X113748102Y-69545226D01*
X113948061Y-69585000D01*
X114151939Y-69585000D01*
X114351898Y-69545226D01*
X114540256Y-69467205D01*
X114709774Y-69353937D01*
X114853937Y-69209774D01*
X114967205Y-69040256D01*
X115045226Y-68851898D01*
X115085000Y-68651939D01*
X115085000Y-68448061D01*
X115045226Y-68248102D01*
X114967205Y-68059744D01*
X114853937Y-67890226D01*
X114709774Y-67746063D01*
X114540256Y-67632795D01*
X114351898Y-67554774D01*
X114151939Y-67515000D01*
X113948061Y-67515000D01*
X113748102Y-67554774D01*
X113559744Y-67632795D01*
X113492174Y-67677943D01*
X113481055Y-67661302D01*
X113336892Y-67517139D01*
X113176547Y-67410000D01*
X115832419Y-67410000D01*
X115860403Y-67407244D01*
X115864005Y-67407269D01*
X115873177Y-67406370D01*
X115989634Y-67394130D01*
X116048240Y-67382100D01*
X116106992Y-67370893D01*
X116115814Y-67368229D01*
X116227676Y-67333602D01*
X116282819Y-67310422D01*
X116338282Y-67288014D01*
X116346418Y-67283688D01*
X116449425Y-67227993D01*
X116498995Y-67194557D01*
X116549077Y-67161785D01*
X116556218Y-67155960D01*
X116646444Y-67081318D01*
X116688582Y-67038884D01*
X116731331Y-66997022D01*
X116737204Y-66989922D01*
X116811215Y-66899176D01*
X116844299Y-66849380D01*
X116878116Y-66799992D01*
X116882498Y-66791886D01*
X116937474Y-66688493D01*
X116960263Y-66633201D01*
X116983835Y-66578205D01*
X116986559Y-66569402D01*
X117012814Y-66482440D01*
X117070000Y-66488072D01*
X118770000Y-66488072D01*
X118894482Y-66475812D01*
X119014180Y-66439502D01*
X119124494Y-66380537D01*
X119221185Y-66301185D01*
X119300537Y-66204494D01*
X119359502Y-66094180D01*
X119381513Y-66021620D01*
X119513368Y-66153475D01*
X119756589Y-66315990D01*
X120026842Y-66427932D01*
X120313740Y-66485000D01*
X120606260Y-66485000D01*
X120893158Y-66427932D01*
X121163411Y-66315990D01*
X121406632Y-66153475D01*
X121613475Y-65946632D01*
X121730000Y-65772240D01*
X121846525Y-65946632D01*
X122053368Y-66153475D01*
X122296589Y-66315990D01*
X122566842Y-66427932D01*
X122853740Y-66485000D01*
X123146260Y-66485000D01*
X123433158Y-66427932D01*
X123703411Y-66315990D01*
X123946632Y-66153475D01*
X124153475Y-65946632D01*
X124270000Y-65772240D01*
X124386525Y-65946632D01*
%TA.AperFunction,Conductor*%
D16*
G36*
X124386525Y-65946632D02*
G01*
X124593368Y-66153475D01*
X124836589Y-66315990D01*
X125106842Y-66427932D01*
X125393740Y-66485000D01*
X125686260Y-66485000D01*
X125973158Y-66427932D01*
X126243411Y-66315990D01*
X126346169Y-66247330D01*
X126355870Y-66339634D01*
X126367900Y-66398240D01*
X126379107Y-66456992D01*
X126381771Y-66465814D01*
X126416398Y-66577676D01*
X126439578Y-66632819D01*
X126461986Y-66688282D01*
X126466312Y-66696418D01*
X126522007Y-66799425D01*
X126555443Y-66848995D01*
X126588215Y-66899077D01*
X126594040Y-66906218D01*
X126668682Y-66996444D01*
X126711116Y-67038582D01*
X126752978Y-67081331D01*
X126760078Y-67087204D01*
X126850824Y-67161215D01*
X126900620Y-67194299D01*
X126950008Y-67228116D01*
X126958114Y-67232498D01*
X127061507Y-67287474D01*
X127116799Y-67310263D01*
X127171795Y-67333835D01*
X127180598Y-67336559D01*
X127292700Y-67370404D01*
X127351365Y-67382020D01*
X127409889Y-67394460D01*
X127419054Y-67395423D01*
X127535595Y-67406850D01*
X127540000Y-67407282D01*
X127540001Y-85290000D01*
X123305802Y-85290000D01*
X123359774Y-85253937D01*
X123503937Y-85109774D01*
X123617205Y-84940256D01*
X123695226Y-84751898D01*
X123735000Y-84551939D01*
X123735000Y-84348061D01*
X123695226Y-84148102D01*
X123617205Y-83959744D01*
X123503937Y-83790226D01*
X123359774Y-83646063D01*
X123190256Y-83532795D01*
X123001898Y-83454774D01*
X122801939Y-83415000D01*
X122598061Y-83415000D01*
X122398102Y-83454774D01*
X122209744Y-83532795D01*
X122040226Y-83646063D01*
X121896063Y-83790226D01*
X121782795Y-83959744D01*
X121704774Y-84148102D01*
X121665000Y-84348061D01*
X121665000Y-84551939D01*
X121704774Y-84751898D01*
X121782795Y-84940256D01*
X121896063Y-85109774D01*
X122040226Y-85253937D01*
X122094198Y-85290000D01*
X120735000Y-85290000D01*
X120735000Y-85148061D01*
X120695226Y-84948102D01*
X120658686Y-84859888D01*
X120734046Y-84747104D01*
X120812067Y-84558746D01*
X120851841Y-84358787D01*
X120851841Y-84154909D01*
X120812067Y-83954950D01*
X120734046Y-83766592D01*
X120620778Y-83597074D01*
X120476615Y-83452911D01*
X120307097Y-83339643D01*
X120118739Y-83261622D01*
X119918780Y-83221848D01*
X119714902Y-83221848D01*
X119514943Y-83261622D01*
X119326585Y-83339643D01*
X119157067Y-83452911D01*
X119012904Y-83597074D01*
X118899636Y-83766592D01*
X118821615Y-83954950D01*
X118781841Y-84154909D01*
X118781841Y-84358787D01*
X118821615Y-84558746D01*
X118858155Y-84646960D01*
X118782795Y-84759744D01*
X118704774Y-84948102D01*
X118665000Y-85148061D01*
X118665000Y-85290000D01*
X117535000Y-85290000D01*
X117535000Y-85198061D01*
X117495226Y-84998102D01*
X117417205Y-84809744D01*
X117303937Y-84640226D01*
X117159774Y-84496063D01*
X116990256Y-84382795D01*
X116801898Y-84304774D01*
X116601939Y-84265000D01*
X116398061Y-84265000D01*
X116198102Y-84304774D01*
X116009744Y-84382795D01*
X115840226Y-84496063D01*
X115696063Y-84640226D01*
X115582795Y-84809744D01*
X115504774Y-84998102D01*
X115465000Y-85198061D01*
X115465000Y-85290000D01*
X115097076Y-85290000D01*
X115218967Y-85168109D01*
X115332235Y-84998591D01*
X115410256Y-84810233D01*
X115450030Y-84610274D01*
X115450030Y-84406396D01*
X115410256Y-84206437D01*
X115341372Y-84040137D01*
X115482028Y-84040137D01*
X115653008Y-84006127D01*
X115814068Y-83939414D01*
X115959018Y-83842561D01*
X116082287Y-83719292D01*
X116179140Y-83574342D01*
X116245853Y-83413282D01*
X116279863Y-83242302D01*
X116279863Y-83067972D01*
X116245853Y-82896992D01*
X116179140Y-82735932D01*
X116082287Y-82590982D01*
X115959018Y-82467713D01*
X115814068Y-82370860D01*
X115653008Y-82304147D01*
X115482028Y-82270137D01*
X115307698Y-82270137D01*
X115136718Y-82304147D01*
X114975658Y-82370860D01*
X114830708Y-82467713D01*
X114707439Y-82590982D01*
X114610586Y-82735932D01*
X114543873Y-82896992D01*
X114509863Y-83067972D01*
X114509863Y-83242302D01*
X114543873Y-83413282D01*
X114573397Y-83484559D01*
X114516969Y-83473335D01*
X114313091Y-83473335D01*
X114113132Y-83513109D01*
X113924774Y-83591130D01*
X113755256Y-83704398D01*
X113611093Y-83848561D01*
X113497825Y-84018079D01*
X113419804Y-84206437D01*
X113380030Y-84406396D01*
X113380030Y-84610274D01*
X113419804Y-84810233D01*
X113497825Y-84998591D01*
X113611093Y-85168109D01*
X113732984Y-85290000D01*
X103310000Y-85290000D01*
X103310000Y-83254236D01*
X103312376Y-83255824D01*
X103518933Y-83341383D01*
X103738212Y-83385000D01*
X103961788Y-83385000D01*
X104181067Y-83341383D01*
X104387624Y-83255824D01*
X104573520Y-83131612D01*
X104731612Y-82973520D01*
X104855824Y-82787624D01*
X104941383Y-82581067D01*
X104985000Y-82361788D01*
X104985000Y-82138212D01*
X104941383Y-81918933D01*
X104855824Y-81712376D01*
X104731612Y-81526480D01*
X104573520Y-81368388D01*
X104387624Y-81244176D01*
X104181067Y-81158617D01*
X103961788Y-81115000D01*
X103738212Y-81115000D01*
X103518933Y-81158617D01*
X103312376Y-81244176D01*
X103310000Y-81245764D01*
X103310000Y-79163098D01*
X105671295Y-79163098D01*
X105671295Y-79366976D01*
X105711069Y-79566935D01*
X105789090Y-79755293D01*
X105902358Y-79924811D01*
X106046521Y-80068974D01*
X106216039Y-80182242D01*
X106404397Y-80260263D01*
X106604356Y-80300037D01*
X106808234Y-80300037D01*
X107008193Y-80260263D01*
X107196551Y-80182242D01*
X107219141Y-80167148D01*
X107196063Y-80190226D01*
X107082795Y-80359744D01*
X107004774Y-80548102D01*
X106965000Y-80748061D01*
X106965000Y-80765000D01*
X106948061Y-80765000D01*
X106748102Y-80804774D01*
X106559744Y-80882795D01*
X106390226Y-80996063D01*
X106246063Y-81140226D01*
X106132795Y-81309744D01*
X106054774Y-81498102D01*
X106015000Y-81698061D01*
X106015000Y-81901939D01*
X106054774Y-82101898D01*
X106132795Y-82290256D01*
X106246063Y-82459774D01*
X106390226Y-82603937D01*
X106559744Y-82717205D01*
X106748102Y-82795226D01*
X106948061Y-82835000D01*
X107151939Y-82835000D01*
X107351898Y-82795226D01*
X107540256Y-82717205D01*
X107709774Y-82603937D01*
X107853937Y-82459774D01*
X107967205Y-82290256D01*
X108045226Y-82101898D01*
X108085000Y-81901939D01*
X108085000Y-81885000D01*
X108101939Y-81885000D01*
X108301898Y-81845226D01*
X108490256Y-81767205D01*
X108659774Y-81653937D01*
X108803937Y-81509774D01*
X108917205Y-81340256D01*
X108995226Y-81151898D01*
X109035000Y-80951939D01*
X109035000Y-80748061D01*
X108995226Y-80548102D01*
X108917205Y-80359744D01*
X108803937Y-80190226D01*
X108659774Y-80046063D01*
X108490256Y-79932795D01*
X108301898Y-79854774D01*
X108101939Y-79815000D01*
X107898061Y-79815000D01*
X107698102Y-79854774D01*
X107509744Y-79932795D01*
X107487154Y-79947889D01*
X107510232Y-79924811D01*
X107623500Y-79755293D01*
X107701521Y-79566935D01*
X107741295Y-79366976D01*
X107741295Y-79163098D01*
X107701521Y-78963139D01*
X107623500Y-78774781D01*
X107510232Y-78605263D01*
X107366069Y-78461100D01*
X107196551Y-78347832D01*
X107008193Y-78269811D01*
X106808234Y-78230037D01*
X106604356Y-78230037D01*
X106404397Y-78269811D01*
X106216039Y-78347832D01*
X106046521Y-78461100D01*
X105902358Y-78605263D01*
X105789090Y-78774781D01*
X105711069Y-78963139D01*
X105671295Y-79163098D01*
X103310000Y-79163098D01*
X103310000Y-77308212D01*
X103766724Y-77308212D01*
X103766724Y-77531788D01*
X103810341Y-77751067D01*
X103895900Y-77957624D01*
X104020112Y-78143520D01*
X104178204Y-78301612D01*
X104364100Y-78425824D01*
X104570657Y-78511383D01*
X104789936Y-78555000D01*
X105013512Y-78555000D01*
X105232791Y-78511383D01*
X105439348Y-78425824D01*
X105625244Y-78301612D01*
X105783336Y-78143520D01*
X105786882Y-78138212D01*
X109885000Y-78138212D01*
X109885000Y-78361788D01*
X109928617Y-78581067D01*
X110014176Y-78787624D01*
X110138388Y-78973520D01*
X110296480Y-79131612D01*
X110373388Y-79183001D01*
X110349010Y-79241855D01*
X110315000Y-79412835D01*
X110315000Y-79587165D01*
X110349010Y-79758145D01*
X110415723Y-79919205D01*
X110512576Y-80064155D01*
X110635845Y-80187424D01*
X110685598Y-80220668D01*
X110685598Y-80266567D01*
X110719608Y-80437547D01*
X110786321Y-80598607D01*
X110883174Y-80743557D01*
X111006443Y-80866826D01*
X111151393Y-80963679D01*
X111312453Y-81030392D01*
X111483433Y-81064402D01*
X111657763Y-81064402D01*
X111828743Y-81030392D01*
X111989803Y-80963679D01*
X112134753Y-80866826D01*
X112258022Y-80743557D01*
X112354875Y-80598607D01*
X112390246Y-80513212D01*
X120590000Y-80513212D01*
X120590000Y-80736788D01*
X120633617Y-80956067D01*
X120719176Y-81162624D01*
X120843388Y-81348520D01*
X121001480Y-81506612D01*
X121187376Y-81630824D01*
X121393933Y-81716383D01*
X121613212Y-81760000D01*
X121836788Y-81760000D01*
X122056067Y-81716383D01*
X122262624Y-81630824D01*
X122412500Y-81530680D01*
X122562376Y-81630824D01*
X122768933Y-81716383D01*
X122988212Y-81760000D01*
X123211788Y-81760000D01*
X123431067Y-81716383D01*
X123637624Y-81630824D01*
X123823520Y-81506612D01*
X123981612Y-81348520D01*
X124105824Y-81162624D01*
X124191383Y-80956067D01*
X124235000Y-80736788D01*
X124235000Y-80513212D01*
X124191383Y-80293933D01*
X124105824Y-80087376D01*
X123981612Y-79901480D01*
X123823520Y-79743388D01*
X123637624Y-79619176D01*
X123431067Y-79533617D01*
X123211788Y-79490000D01*
X122988212Y-79490000D01*
X122768933Y-79533617D01*
X122562376Y-79619176D01*
X122412500Y-79719320D01*
X122262624Y-79619176D01*
X122056067Y-79533617D01*
X121836788Y-79490000D01*
X121613212Y-79490000D01*
X121393933Y-79533617D01*
X121187376Y-79619176D01*
X121001480Y-79743388D01*
X120843388Y-79901480D01*
X120719176Y-80087376D01*
X120633617Y-80293933D01*
X120590000Y-80513212D01*
X112390246Y-80513212D01*
X112421588Y-80437547D01*
X112455598Y-80266567D01*
X112455598Y-80215872D01*
X112506293Y-80215872D01*
X112677273Y-80181862D01*
X112838333Y-80115149D01*
X112983283Y-80018296D01*
X113106552Y-79895027D01*
X113203405Y-79750077D01*
X113270118Y-79589017D01*
X113304128Y-79418037D01*
X113304128Y-79243707D01*
X113270118Y-79072727D01*
X113203405Y-78911667D01*
X113106552Y-78766717D01*
X112983283Y-78643448D01*
X112838333Y-78546595D01*
X112677273Y-78479882D01*
X112506293Y-78445872D01*
X112331963Y-78445872D01*
X112160983Y-78479882D01*
X112128863Y-78493186D01*
X112155000Y-78361788D01*
X112155000Y-78138212D01*
X112111383Y-77918933D01*
X112025824Y-77712376D01*
X111901612Y-77526480D01*
X111743520Y-77368388D01*
X111557624Y-77244176D01*
X111351067Y-77158617D01*
X111131788Y-77115000D01*
X110908212Y-77115000D01*
X110688933Y-77158617D01*
X110482376Y-77244176D01*
X110296480Y-77368388D01*
X110138388Y-77526480D01*
X110014176Y-77712376D01*
X109928617Y-77918933D01*
X109885000Y-78138212D01*
X105786882Y-78138212D01*
X105907548Y-77957624D01*
X105958003Y-77835815D01*
X106109744Y-77937205D01*
X106298102Y-78015226D01*
X106498061Y-78055000D01*
X106701939Y-78055000D01*
X106901898Y-78015226D01*
X107090256Y-77937205D01*
X107259774Y-77823937D01*
X107403937Y-77679774D01*
X107517205Y-77510256D01*
X107595226Y-77321898D01*
X107635000Y-77121939D01*
X107635000Y-76918061D01*
X107602010Y-76752210D01*
X107608145Y-76750990D01*
X107769205Y-76684277D01*
X107914155Y-76587424D01*
X108037424Y-76464155D01*
X108134277Y-76319205D01*
X108200990Y-76158145D01*
X108235000Y-75987165D01*
X108235000Y-75812835D01*
X108200990Y-75641855D01*
X108134277Y-75480795D01*
X108037424Y-75335845D01*
X107914155Y-75212576D01*
X107769205Y-75115723D01*
X107608145Y-75049010D01*
X107437165Y-75015000D01*
X107262835Y-75015000D01*
X107091855Y-75049010D01*
X106930795Y-75115723D01*
X106785845Y-75212576D01*
X106761637Y-75236784D01*
X106786724Y-75110661D01*
X106786724Y-74906783D01*
X106746950Y-74706824D01*
X106668929Y-74518466D01*
X106555661Y-74348948D01*
X106411498Y-74204785D01*
X106241980Y-74091517D01*
X106053622Y-74013496D01*
X105853663Y-73973722D01*
X105649785Y-73973722D01*
X105449826Y-74013496D01*
X105261468Y-74091517D01*
X105091950Y-74204785D01*
X104947787Y-74348948D01*
X104834519Y-74518466D01*
X104756498Y-74706824D01*
X104716724Y-74906783D01*
X104716724Y-75110661D01*
X104756498Y-75310620D01*
X104834519Y-75498978D01*
X104947787Y-75668496D01*
X105091950Y-75812659D01*
X105261468Y-75925927D01*
X105449826Y-76003948D01*
X105649785Y-76043722D01*
X105853663Y-76043722D01*
X106053622Y-76003948D01*
X106241980Y-75925927D01*
X106411498Y-75812659D01*
X106478328Y-75745829D01*
X106465000Y-75812835D01*
X106465000Y-75987165D01*
X106465844Y-75991408D01*
X106298102Y-76024774D01*
X106109744Y-76102795D01*
X105940226Y-76216063D01*
X105796063Y-76360226D01*
X105682795Y-76529744D01*
X105663407Y-76576551D01*
X105625244Y-76538388D01*
X105439348Y-76414176D01*
X105232791Y-76328617D01*
X105013512Y-76285000D01*
X104789936Y-76285000D01*
X104570657Y-76328617D01*
X104364100Y-76414176D01*
X104178204Y-76538388D01*
X104020112Y-76696480D01*
X103895900Y-76882376D01*
X103810341Y-77088933D01*
X103766724Y-77308212D01*
X103310000Y-77308212D01*
X103310000Y-75995000D01*
X103486788Y-75995000D01*
X103706067Y-75951383D01*
X103912624Y-75865824D01*
X104098520Y-75741612D01*
X104256612Y-75583520D01*
X104380824Y-75397624D01*
X104466383Y-75191067D01*
X104510000Y-74971788D01*
X104510000Y-74748212D01*
X104466383Y-74528933D01*
X104380824Y-74322376D01*
X104256612Y-74136480D01*
X104098520Y-73978388D01*
X103912624Y-73854176D01*
X103706067Y-73768617D01*
X103486788Y-73725000D01*
X103310000Y-73725000D01*
X103310000Y-73712835D01*
X117015000Y-73712835D01*
X117015000Y-73887165D01*
X117049010Y-74058145D01*
X117115723Y-74219205D01*
X117212576Y-74364155D01*
X117335845Y-74487424D01*
X117480795Y-74584277D01*
X117641855Y-74650990D01*
X117812835Y-74685000D01*
X117987165Y-74685000D01*
X118158145Y-74650990D01*
X118319205Y-74584277D01*
X118464155Y-74487424D01*
X118587424Y-74364155D01*
X118684277Y-74219205D01*
X118750990Y-74058145D01*
X118785000Y-73887165D01*
X118785000Y-73712835D01*
X119615000Y-73712835D01*
X119615000Y-73887165D01*
X119649010Y-74058145D01*
X119715723Y-74219205D01*
X119812576Y-74364155D01*
X119935845Y-74487424D01*
X120080795Y-74584277D01*
X120241855Y-74650990D01*
X120412835Y-74685000D01*
X120587165Y-74685000D01*
X120758145Y-74650990D01*
X120919205Y-74584277D01*
X121064155Y-74487424D01*
X121187424Y-74364155D01*
X121284277Y-74219205D01*
X121350990Y-74058145D01*
X121385000Y-73887165D01*
X121385000Y-73712835D01*
X122215000Y-73712835D01*
X122215000Y-73887165D01*
X122249010Y-74058145D01*
X122315723Y-74219205D01*
X122412576Y-74364155D01*
X122535845Y-74487424D01*
X122680795Y-74584277D01*
X122841855Y-74650990D01*
X123012835Y-74685000D01*
X123187165Y-74685000D01*
X123358145Y-74650990D01*
X123519205Y-74584277D01*
X123664155Y-74487424D01*
X123787424Y-74364155D01*
X123884277Y-74219205D01*
X123950990Y-74058145D01*
X123985000Y-73887165D01*
X123985000Y-73712835D01*
X124865000Y-73712835D01*
X124865000Y-73887165D01*
X124899010Y-74058145D01*
X124965723Y-74219205D01*
X125062576Y-74364155D01*
X125185845Y-74487424D01*
X125330795Y-74584277D01*
X125491855Y-74650990D01*
X125662835Y-74685000D01*
X125837165Y-74685000D01*
X126008145Y-74650990D01*
X126169205Y-74584277D01*
X126314155Y-74487424D01*
X126437424Y-74364155D01*
X126534277Y-74219205D01*
X126600990Y-74058145D01*
X126635000Y-73887165D01*
X126635000Y-73712835D01*
X126600990Y-73541855D01*
X126534277Y-73380795D01*
X126437424Y-73235845D01*
X126314155Y-73112576D01*
X126169205Y-73015723D01*
X126008145Y-72949010D01*
X125837165Y-72915000D01*
X125662835Y-72915000D01*
X125491855Y-72949010D01*
X125330795Y-73015723D01*
X125185845Y-73112576D01*
X125062576Y-73235845D01*
X124965723Y-73380795D01*
X124899010Y-73541855D01*
X124865000Y-73712835D01*
X123985000Y-73712835D01*
X123950990Y-73541855D01*
X123884277Y-73380795D01*
X123787424Y-73235845D01*
X123664155Y-73112576D01*
X123519205Y-73015723D01*
X123358145Y-72949010D01*
X123187165Y-72915000D01*
X123012835Y-72915000D01*
X122841855Y-72949010D01*
X122680795Y-73015723D01*
X122535845Y-73112576D01*
X122412576Y-73235845D01*
X122315723Y-73380795D01*
X122249010Y-73541855D01*
X122215000Y-73712835D01*
X121385000Y-73712835D01*
X121350990Y-73541855D01*
X121284277Y-73380795D01*
X121187424Y-73235845D01*
X121064155Y-73112576D01*
X120919205Y-73015723D01*
X120758145Y-72949010D01*
X120587165Y-72915000D01*
X120412835Y-72915000D01*
X120241855Y-72949010D01*
X120080795Y-73015723D01*
X119935845Y-73112576D01*
X119812576Y-73235845D01*
X119715723Y-73380795D01*
X119649010Y-73541855D01*
X119615000Y-73712835D01*
X118785000Y-73712835D01*
X118750990Y-73541855D01*
X118684277Y-73380795D01*
X118587424Y-73235845D01*
X118464155Y-73112576D01*
X118319205Y-73015723D01*
X118158145Y-72949010D01*
X117987165Y-72915000D01*
X117812835Y-72915000D01*
X117641855Y-72949010D01*
X117480795Y-73015723D01*
X117335845Y-73112576D01*
X117212576Y-73235845D01*
X117115723Y-73380795D01*
X117049010Y-73541855D01*
X117015000Y-73712835D01*
X103310000Y-73712835D01*
X103310000Y-72488059D01*
X107265000Y-72488059D01*
X107265000Y-72691937D01*
X107304774Y-72891896D01*
X107382795Y-73080254D01*
X107496063Y-73249772D01*
X107640226Y-73393935D01*
X107809744Y-73507203D01*
X107998102Y-73585224D01*
X108198061Y-73624998D01*
X108401939Y-73624998D01*
X108601898Y-73585224D01*
X108790256Y-73507203D01*
X108959774Y-73393935D01*
X109103937Y-73249772D01*
X109217205Y-73080254D01*
X109295226Y-72891896D01*
X109335000Y-72691937D01*
X109335000Y-72488059D01*
X109315140Y-72388212D01*
X112265000Y-72388212D01*
X112265000Y-72611788D01*
X112308617Y-72831067D01*
X112394176Y-73037624D01*
X112518388Y-73223520D01*
X112676480Y-73381612D01*
X112862376Y-73505824D01*
X113068933Y-73591383D01*
X113288212Y-73635000D01*
X113511788Y-73635000D01*
X113731067Y-73591383D01*
X113937624Y-73505824D01*
X114123520Y-73381612D01*
X114281612Y-73223520D01*
X114405824Y-73037624D01*
X114469039Y-72885010D01*
X114511788Y-72885010D01*
X114731067Y-72841393D01*
X114937624Y-72755834D01*
X115123520Y-72631622D01*
X115281612Y-72473530D01*
X115405824Y-72287634D01*
X115491383Y-72081077D01*
X115535000Y-71861798D01*
X115535000Y-71638222D01*
X115491383Y-71418943D01*
X115405824Y-71212386D01*
X115281612Y-71026490D01*
X115123520Y-70868398D01*
X114937624Y-70744186D01*
X114731067Y-70658627D01*
X114511788Y-70615010D01*
X114288212Y-70615010D01*
X114068933Y-70658627D01*
X113862376Y-70744186D01*
X113676480Y-70868398D01*
X113518388Y-71026490D01*
X113394176Y-71212386D01*
X113330961Y-71365000D01*
X113288212Y-71365000D01*
X113068933Y-71408617D01*
X112862376Y-71494176D01*
X112676480Y-71618388D01*
X112518388Y-71776480D01*
X112394176Y-71962376D01*
X112308617Y-72168933D01*
X112265000Y-72388212D01*
X109315140Y-72388212D01*
X109295226Y-72288100D01*
X109217205Y-72099742D01*
X109103937Y-71930224D01*
X108959774Y-71786061D01*
X108790256Y-71672793D01*
X108601898Y-71594772D01*
X108401939Y-71554998D01*
X108198061Y-71554998D01*
X107998102Y-71594772D01*
X107809744Y-71672793D01*
X107640226Y-71786061D01*
X107496063Y-71930224D01*
X107382795Y-72099742D01*
X107304774Y-72288100D01*
X107265000Y-72488059D01*
X103310000Y-72488059D01*
X103310000Y-70433653D01*
X103915001Y-70433653D01*
X103915001Y-70607983D01*
X103949011Y-70778963D01*
X104015724Y-70940023D01*
X104112577Y-71084973D01*
X104235846Y-71208242D01*
X104380796Y-71305095D01*
X104541856Y-71371808D01*
X104712836Y-71405818D01*
X104887166Y-71405818D01*
X105058146Y-71371808D01*
X105219206Y-71305095D01*
X105364156Y-71208242D01*
X105487425Y-71084973D01*
X105584278Y-70940023D01*
X105650991Y-70778963D01*
X105685001Y-70607983D01*
X105685001Y-70433653D01*
X105684356Y-70430406D01*
X106908316Y-70430406D01*
X106908316Y-70604736D01*
X106942326Y-70775716D01*
X107009039Y-70936776D01*
X107105892Y-71081726D01*
X107229161Y-71204995D01*
X107374111Y-71301848D01*
X107535171Y-71368561D01*
X107706151Y-71402571D01*
X107880481Y-71402571D01*
X108051461Y-71368561D01*
X108212521Y-71301848D01*
X108357471Y-71204995D01*
X108480740Y-71081726D01*
X108577593Y-70936776D01*
X108644306Y-70775716D01*
X108678316Y-70604736D01*
X108678316Y-70528189D01*
X108814155Y-70437424D01*
X108937424Y-70314155D01*
X108938306Y-70312835D01*
X116965000Y-70312835D01*
X116965000Y-70487165D01*
X116999010Y-70658145D01*
X117065723Y-70819205D01*
X117162576Y-70964155D01*
X117285845Y-71087424D01*
X117430795Y-71184277D01*
X117591855Y-71250990D01*
X117762835Y-71285000D01*
X117937165Y-71285000D01*
X118108145Y-71250990D01*
X118269205Y-71184277D01*
X118414155Y-71087424D01*
X118537424Y-70964155D01*
X118634277Y-70819205D01*
X118700990Y-70658145D01*
X118735000Y-70487165D01*
X118735000Y-70312835D01*
X119565000Y-70312835D01*
X119565000Y-70487165D01*
X119599010Y-70658145D01*
X119665723Y-70819205D01*
X119762576Y-70964155D01*
X119885845Y-71087424D01*
X120030795Y-71184277D01*
X120191855Y-71250990D01*
X120362835Y-71285000D01*
X120537165Y-71285000D01*
X120708145Y-71250990D01*
X120869205Y-71184277D01*
X121014155Y-71087424D01*
X121137424Y-70964155D01*
X121234277Y-70819205D01*
X121300990Y-70658145D01*
X121335000Y-70487165D01*
X121335000Y-70312835D01*
X122215000Y-70312835D01*
X122215000Y-70487165D01*
X122249010Y-70658145D01*
X122315723Y-70819205D01*
X122412576Y-70964155D01*
X122535845Y-71087424D01*
X122680795Y-71184277D01*
X122841855Y-71250990D01*
X123012835Y-71285000D01*
X123187165Y-71285000D01*
X123358145Y-71250990D01*
X123519205Y-71184277D01*
X123664155Y-71087424D01*
X123787424Y-70964155D01*
X123884277Y-70819205D01*
X123950990Y-70658145D01*
X123985000Y-70487165D01*
X123985000Y-70312835D01*
X124865000Y-70312835D01*
X124865000Y-70487165D01*
X124899010Y-70658145D01*
X124965723Y-70819205D01*
X125062576Y-70964155D01*
X125185845Y-71087424D01*
X125330795Y-71184277D01*
X125491855Y-71250990D01*
X125662835Y-71285000D01*
X125837165Y-71285000D01*
X126008145Y-71250990D01*
X126169205Y-71184277D01*
X126314155Y-71087424D01*
X126437424Y-70964155D01*
X126534277Y-70819205D01*
X126600990Y-70658145D01*
X126635000Y-70487165D01*
X126635000Y-70312835D01*
X126600990Y-70141855D01*
X126534277Y-69980795D01*
X126437424Y-69835845D01*
X126314155Y-69712576D01*
X126169205Y-69615723D01*
X126008145Y-69549010D01*
X125837165Y-69515000D01*
X125662835Y-69515000D01*
X125491855Y-69549010D01*
X125330795Y-69615723D01*
X125185845Y-69712576D01*
X125062576Y-69835845D01*
X124965723Y-69980795D01*
X124899010Y-70141855D01*
X124865000Y-70312835D01*
X123985000Y-70312835D01*
X123950990Y-70141855D01*
X123884277Y-69980795D01*
X123787424Y-69835845D01*
X123664155Y-69712576D01*
X123519205Y-69615723D01*
X123358145Y-69549010D01*
X123187165Y-69515000D01*
X123012835Y-69515000D01*
X122841855Y-69549010D01*
X122680795Y-69615723D01*
X122535845Y-69712576D01*
X122412576Y-69835845D01*
X122315723Y-69980795D01*
X122249010Y-70141855D01*
X122215000Y-70312835D01*
X121335000Y-70312835D01*
X121300990Y-70141855D01*
X121234277Y-69980795D01*
X121137424Y-69835845D01*
X121014155Y-69712576D01*
X120869205Y-69615723D01*
X120708145Y-69549010D01*
X120537165Y-69515000D01*
X120362835Y-69515000D01*
X120191855Y-69549010D01*
X120030795Y-69615723D01*
X119885845Y-69712576D01*
X119762576Y-69835845D01*
X119665723Y-69980795D01*
X119599010Y-70141855D01*
X119565000Y-70312835D01*
X118735000Y-70312835D01*
X118700990Y-70141855D01*
X118634277Y-69980795D01*
X118537424Y-69835845D01*
X118414155Y-69712576D01*
X118269205Y-69615723D01*
X118108145Y-69549010D01*
X117937165Y-69515000D01*
X117762835Y-69515000D01*
X117591855Y-69549010D01*
X117430795Y-69615723D01*
X117285845Y-69712576D01*
X117162576Y-69835845D01*
X117065723Y-69980795D01*
X116999010Y-70141855D01*
X116965000Y-70312835D01*
X108938306Y-70312835D01*
X109034277Y-70169205D01*
X109100990Y-70008145D01*
X109135000Y-69837165D01*
X109135000Y-69662835D01*
X109100990Y-69491855D01*
X109034277Y-69330795D01*
X108937424Y-69185845D01*
X108848763Y-69097184D01*
X108934277Y-68969205D01*
X109000990Y-68808145D01*
X109035000Y-68637165D01*
X109035000Y-68462835D01*
X109000990Y-68291855D01*
X108934277Y-68130795D01*
X108837424Y-67985845D01*
X108714155Y-67862576D01*
X108569205Y-67765723D01*
X108408145Y-67699010D01*
X108237165Y-67665000D01*
X108062835Y-67665000D01*
X107891855Y-67699010D01*
X107730795Y-67765723D01*
X107585845Y-67862576D01*
X107462576Y-67985845D01*
X107365723Y-68130795D01*
X107299010Y-68291855D01*
X107265000Y-68462835D01*
X107265000Y-68637165D01*
X107299010Y-68808145D01*
X107365723Y-68969205D01*
X107462576Y-69114155D01*
X107551237Y-69202816D01*
X107465723Y-69330795D01*
X107399010Y-69491855D01*
X107365000Y-69662835D01*
X107365000Y-69739382D01*
X107229161Y-69830147D01*
X107105892Y-69953416D01*
X107009039Y-70098366D01*
X106942326Y-70259426D01*
X106908316Y-70430406D01*
X105684356Y-70430406D01*
X105650991Y-70262673D01*
X105584278Y-70101613D01*
X105487425Y-69956663D01*
X105364156Y-69833394D01*
X105219206Y-69736541D01*
X105058146Y-69669828D01*
X104887166Y-69635818D01*
X104712836Y-69635818D01*
X104541856Y-69669828D01*
X104380796Y-69736541D01*
X104235846Y-69833394D01*
X104112577Y-69956663D01*
X104015724Y-70101613D01*
X103949011Y-70262673D01*
X103915001Y-70433653D01*
X103310000Y-70433653D01*
X103310000Y-67576344D01*
X103399425Y-67527993D01*
X103448995Y-67494557D01*
X103499077Y-67461785D01*
X103506218Y-67455960D01*
X103596444Y-67381318D01*
X103638582Y-67338884D01*
X103681331Y-67297022D01*
X103687204Y-67289922D01*
X103761215Y-67199176D01*
X103794299Y-67149380D01*
X103828116Y-67099992D01*
X103832498Y-67091886D01*
X103887474Y-66988493D01*
X103910263Y-66933201D01*
X103933835Y-66878205D01*
X103936559Y-66869402D01*
X103970404Y-66757300D01*
X103982020Y-66698635D01*
X103994460Y-66640111D01*
X103995423Y-66630946D01*
X104006850Y-66514405D01*
X104006850Y-66514402D01*
X104009443Y-66488072D01*
X105600000Y-66488072D01*
X105724482Y-66475812D01*
X105844180Y-66439502D01*
X105954494Y-66380537D01*
X106051185Y-66301185D01*
X106130537Y-66204494D01*
X106189502Y-66094180D01*
X106211513Y-66021620D01*
X106343368Y-66153475D01*
X106586589Y-66315990D01*
X106856842Y-66427932D01*
X107143740Y-66485000D01*
X107436260Y-66485000D01*
X107723158Y-66427932D01*
X107993411Y-66315990D01*
X108002730Y-66309763D01*
X108005870Y-66339634D01*
X108017900Y-66398240D01*
X108029107Y-66456992D01*
X108031771Y-66465814D01*
X108066398Y-66577676D01*
X108089578Y-66632819D01*
X108111986Y-66688282D01*
X108116312Y-66696418D01*
X108172007Y-66799425D01*
X108205443Y-66848995D01*
X108238215Y-66899077D01*
X108244040Y-66906218D01*
X108318682Y-66996444D01*
X108361116Y-67038582D01*
X108402978Y-67081331D01*
X108410078Y-67087204D01*
X108500824Y-67161215D01*
X108550620Y-67194299D01*
X108600008Y-67228116D01*
X108608114Y-67232498D01*
X108711507Y-67287474D01*
X108766799Y-67310263D01*
X108821795Y-67333835D01*
X108830598Y-67336559D01*
X108942700Y-67370404D01*
X109001365Y-67382020D01*
X109059889Y-67394460D01*
X109069054Y-67395423D01*
X109185595Y-67406850D01*
X109185598Y-67406850D01*
X109217581Y-67410000D01*
X112177689Y-67410000D01*
X112017344Y-67517139D01*
X111880627Y-67653856D01*
X111789522Y-67635734D01*
X111615192Y-67635734D01*
X111444212Y-67669744D01*
X111283152Y-67736457D01*
X111138202Y-67833310D01*
X111014933Y-67956579D01*
X110918080Y-68101529D01*
X110851367Y-68262589D01*
X110817357Y-68433569D01*
X110817357Y-68607899D01*
X110851367Y-68778879D01*
X110918080Y-68939939D01*
X111014933Y-69084889D01*
X111138202Y-69208158D01*
X111283152Y-69305011D01*
X111444212Y-69371724D01*
X111615192Y-69405734D01*
X111789522Y-69405734D01*
X111960502Y-69371724D01*
X112121562Y-69305011D01*
X112208201Y-69247120D01*
X112375220Y-69316302D01*
X112575179Y-69356076D01*
X112779057Y-69356076D01*
X112979016Y-69316302D01*
X113167374Y-69238281D01*
X113234944Y-69193133D01*
X113246063Y-69209774D01*
X113390226Y-69353937D01*
X113559744Y-69467205D01*
X113748102Y-69545226D01*
X113948061Y-69585000D01*
X114151939Y-69585000D01*
X114351898Y-69545226D01*
X114540256Y-69467205D01*
X114709774Y-69353937D01*
X114853937Y-69209774D01*
X114967205Y-69040256D01*
X115045226Y-68851898D01*
X115085000Y-68651939D01*
X115085000Y-68448061D01*
X115045226Y-68248102D01*
X114967205Y-68059744D01*
X114853937Y-67890226D01*
X114709774Y-67746063D01*
X114540256Y-67632795D01*
X114351898Y-67554774D01*
X114151939Y-67515000D01*
X113948061Y-67515000D01*
X113748102Y-67554774D01*
X113559744Y-67632795D01*
X113492174Y-67677943D01*
X113481055Y-67661302D01*
X113336892Y-67517139D01*
X113176547Y-67410000D01*
X115832419Y-67410000D01*
X115860403Y-67407244D01*
X115864005Y-67407269D01*
X115873177Y-67406370D01*
X115989634Y-67394130D01*
X116048240Y-67382100D01*
X116106992Y-67370893D01*
X116115814Y-67368229D01*
X116227676Y-67333602D01*
X116282819Y-67310422D01*
X116338282Y-67288014D01*
X116346418Y-67283688D01*
X116449425Y-67227993D01*
X116498995Y-67194557D01*
X116549077Y-67161785D01*
X116556218Y-67155960D01*
X116646444Y-67081318D01*
X116688582Y-67038884D01*
X116731331Y-66997022D01*
X116737204Y-66989922D01*
X116811215Y-66899176D01*
X116844299Y-66849380D01*
X116878116Y-66799992D01*
X116882498Y-66791886D01*
X116937474Y-66688493D01*
X116960263Y-66633201D01*
X116983835Y-66578205D01*
X116986559Y-66569402D01*
X117012814Y-66482440D01*
X117070000Y-66488072D01*
X118770000Y-66488072D01*
X118894482Y-66475812D01*
X119014180Y-66439502D01*
X119124494Y-66380537D01*
X119221185Y-66301185D01*
X119300537Y-66204494D01*
X119359502Y-66094180D01*
X119381513Y-66021620D01*
X119513368Y-66153475D01*
X119756589Y-66315990D01*
X120026842Y-66427932D01*
X120313740Y-66485000D01*
X120606260Y-66485000D01*
X120893158Y-66427932D01*
X121163411Y-66315990D01*
X121406632Y-66153475D01*
X121613475Y-65946632D01*
X121730000Y-65772240D01*
X121846525Y-65946632D01*
X122053368Y-66153475D01*
X122296589Y-66315990D01*
X122566842Y-66427932D01*
X122853740Y-66485000D01*
X123146260Y-66485000D01*
X123433158Y-66427932D01*
X123703411Y-66315990D01*
X123946632Y-66153475D01*
X124153475Y-65946632D01*
X124270000Y-65772240D01*
X124386525Y-65946632D01*
G37*
%TD.AperFunction*%
%TD*%
M02*
