%TF.GenerationSoftware,KiCad,Pcbnew,5.1.9*%
%TF.CreationDate,2021-01-20T22:35:35+01:00*%
%TF.ProjectId,wi-se-rewirable,77692d73-652d-4726-9577-697261626c65,rev?*%
%TF.SameCoordinates,Original*%
%TF.FileFunction,Legend,Bot*%
%TF.FilePolarity,Positive*%
%FSLAX46Y46*%
G04 Gerber Fmt 4.6, Leading zero omitted, Abs format (unit mm)*
G04 Created by KiCad (PCBNEW 5.1.9) date 2021-01-20 22:35:35*
%MOMM*%
%LPD*%
G01*
G04 APERTURE LIST*
%ADD10C,0.120000*%
%ADD11C,0.100000*%
%ADD12C,0.150000*%
%ADD13C,0.152400*%
G04 APERTURE END LIST*
D10*
X120358922Y-75419258D02*
G75*
G02*
X120299999Y-76174999I-633922J-330742D01*
G01*
D11*
G36*
X120250000Y-76800000D02*
G01*
X120200000Y-76800000D01*
X120275000Y-76225000D01*
X120325000Y-76225000D01*
X120250000Y-76800000D01*
G37*
X120250000Y-76800000D02*
X120200000Y-76800000D01*
X120275000Y-76225000D01*
X120325000Y-76225000D01*
X120250000Y-76800000D01*
D10*
X120200000Y-76800000D02*
X120358922Y-75419258D01*
X122450000Y-80700000D02*
X122450000Y-81250000D01*
X122450000Y-80650000D02*
X122600000Y-80800000D01*
X122300000Y-80800000D02*
X122450000Y-80650000D01*
D11*
G36*
X121900000Y-81275000D02*
G01*
X121750000Y-81375000D01*
X121500000Y-81425000D01*
X121300000Y-81375000D01*
X121150000Y-81225000D01*
X121200000Y-81175000D01*
X122000000Y-81075000D01*
X121900000Y-81275000D01*
G37*
X121900000Y-81275000D02*
X121750000Y-81375000D01*
X121500000Y-81425000D01*
X121300000Y-81375000D01*
X121150000Y-81225000D01*
X121200000Y-81175000D01*
X122000000Y-81075000D01*
X121900000Y-81275000D01*
D10*
X122450000Y-80000000D02*
X122450000Y-80150000D01*
X122450000Y-79600000D02*
X122450000Y-79750000D01*
X122450000Y-79200000D02*
X122450000Y-79350000D01*
X122450000Y-78800000D02*
X122450000Y-78950000D01*
X122050000Y-81075000D02*
G75*
G02*
X121315633Y-81395599I-534367J222653D01*
G01*
X121315633Y-81395600D02*
G75*
G02*
X121155001Y-81263069I139367J332530D01*
G01*
D11*
G36*
X121050000Y-81275000D02*
G01*
X120300000Y-81425000D01*
X120300000Y-81275000D01*
X121100000Y-81175000D01*
X121050000Y-81275000D01*
G37*
X121050000Y-81275000D02*
X120300000Y-81425000D01*
X120300000Y-81275000D01*
X121100000Y-81175000D01*
X121050000Y-81275000D01*
D10*
X120350000Y-81275000D02*
X122050000Y-81075000D01*
X123100000Y-78300000D02*
X123400000Y-78100000D01*
X123100000Y-78300000D02*
X122800000Y-78100000D01*
X123100000Y-77000000D02*
X123100000Y-78300000D01*
X125700000Y-76800000D02*
X125900000Y-76800000D01*
X125900000Y-76800000D02*
X125900000Y-74000000D01*
X125900000Y-74000000D02*
X125700000Y-74000000D01*
X105200000Y-77900000D02*
X105600000Y-77800000D01*
X105200000Y-77900000D02*
X105200000Y-78300000D01*
X105200000Y-77900000D02*
X109600000Y-80900000D01*
X107800000Y-85700000D02*
X107800000Y-81100000D01*
X112200000Y-85700000D02*
X107800000Y-85700000D01*
X112200000Y-81100000D02*
X112200000Y-85700000D01*
X107800000Y-81100000D02*
X112200000Y-81100000D01*
X109500000Y-83200000D02*
X109800000Y-83200000D01*
X109500000Y-83000000D02*
X109800000Y-83000000D01*
X109600000Y-82800000D02*
X109300000Y-83100000D01*
D12*
X111885714Y-82771428D02*
X111514285Y-82771428D01*
X111714285Y-83000000D01*
X111628571Y-83000000D01*
X111571428Y-83028571D01*
X111542857Y-83057142D01*
X111514285Y-83114285D01*
X111514285Y-83257142D01*
X111542857Y-83314285D01*
X111571428Y-83342857D01*
X111628571Y-83371428D01*
X111800000Y-83371428D01*
X111857142Y-83342857D01*
X111885714Y-83314285D01*
X111257142Y-83314285D02*
X111228571Y-83342857D01*
X111257142Y-83371428D01*
X111285714Y-83342857D01*
X111257142Y-83314285D01*
X111257142Y-83371428D01*
X111028571Y-82771428D02*
X110657142Y-82771428D01*
X110857142Y-83000000D01*
X110771428Y-83000000D01*
X110714285Y-83028571D01*
X110685714Y-83057142D01*
X110657142Y-83114285D01*
X110657142Y-83257142D01*
X110685714Y-83314285D01*
X110714285Y-83342857D01*
X110771428Y-83371428D01*
X110942857Y-83371428D01*
X111000000Y-83342857D01*
X111028571Y-83314285D01*
X110485714Y-82771428D02*
X110285714Y-83371428D01*
X110085714Y-82771428D01*
D10*
X109300000Y-83100000D02*
X109600000Y-83400000D01*
X109300000Y-84700000D02*
X109600000Y-85000000D01*
X109600000Y-84400000D02*
X109300000Y-84700000D01*
X109500000Y-84800000D02*
X109800000Y-84800000D01*
X109500000Y-84600000D02*
X109800000Y-84600000D01*
D12*
X110714285Y-84371428D02*
X111000000Y-84371428D01*
X111028571Y-84657142D01*
X111000000Y-84628571D01*
X110942857Y-84600000D01*
X110800000Y-84600000D01*
X110742857Y-84628571D01*
X110714285Y-84657142D01*
X110685714Y-84714285D01*
X110685714Y-84857142D01*
X110714285Y-84914285D01*
X110742857Y-84942857D01*
X110800000Y-84971428D01*
X110942857Y-84971428D01*
X111000000Y-84942857D01*
X111028571Y-84914285D01*
X110514285Y-84371428D02*
X110314285Y-84971428D01*
X110114285Y-84371428D01*
X111400000Y-82071428D02*
X111400000Y-81671428D01*
X111400000Y-81471428D02*
X111428571Y-81500000D01*
X111400000Y-81528571D01*
X111371428Y-81500000D01*
X111400000Y-81471428D01*
X111400000Y-81528571D01*
X111200000Y-81671428D02*
X110971428Y-81671428D01*
X111114285Y-82071428D02*
X111114285Y-81557142D01*
X111085714Y-81500000D01*
X111028571Y-81471428D01*
X110971428Y-81471428D01*
X110400000Y-81471428D02*
X110200000Y-82071428D01*
X110000000Y-81471428D01*
X109457142Y-82014285D02*
X109485714Y-82042857D01*
X109571428Y-82071428D01*
X109628571Y-82071428D01*
X109714285Y-82042857D01*
X109771428Y-81985714D01*
X109800000Y-81928571D01*
X109828571Y-81814285D01*
X109828571Y-81728571D01*
X109800000Y-81614285D01*
X109771428Y-81557142D01*
X109714285Y-81500000D01*
X109628571Y-81471428D01*
X109571428Y-81471428D01*
X109485714Y-81500000D01*
X109457142Y-81528571D01*
X108857142Y-82014285D02*
X108885714Y-82042857D01*
X108971428Y-82071428D01*
X109028571Y-82071428D01*
X109114285Y-82042857D01*
X109171428Y-81985714D01*
X109200000Y-81928571D01*
X109228571Y-81814285D01*
X109228571Y-81728571D01*
X109200000Y-81614285D01*
X109171428Y-81557142D01*
X109114285Y-81500000D01*
X109028571Y-81471428D01*
X108971428Y-81471428D01*
X108885714Y-81500000D01*
X108857142Y-81528571D01*
X108600000Y-82014285D02*
X108571428Y-82042857D01*
X108600000Y-82071428D01*
X108628571Y-82042857D01*
X108600000Y-82014285D01*
X108600000Y-82071428D01*
X108600000Y-81700000D02*
X108571428Y-81728571D01*
X108600000Y-81757142D01*
X108628571Y-81728571D01*
X108600000Y-81700000D01*
X108600000Y-81757142D01*
D11*
G36*
X108700000Y-85000000D02*
G01*
X108400000Y-85000000D01*
X108400000Y-84400000D01*
X108700000Y-84400000D01*
X108700000Y-85000000D01*
G37*
X108700000Y-85000000D02*
X108400000Y-85000000D01*
X108400000Y-84400000D01*
X108700000Y-84400000D01*
X108700000Y-85000000D01*
D10*
X108300000Y-84100000D02*
X108800000Y-84100000D01*
X108300000Y-85400000D02*
G75*
G02*
X108100000Y-85200000I0J200000D01*
G01*
D11*
G36*
X108800000Y-84600000D02*
G01*
X108300000Y-84600000D01*
X108300000Y-84300000D01*
X108800000Y-84300000D01*
X108800000Y-84600000D01*
G37*
X108800000Y-84600000D02*
X108300000Y-84600000D01*
X108300000Y-84300000D01*
X108800000Y-84300000D01*
X108800000Y-84600000D01*
D10*
X108100000Y-85200000D02*
X108100000Y-84300000D01*
D11*
G36*
X108800000Y-85200000D02*
G01*
X108300000Y-85200000D01*
X108300000Y-84900000D01*
X108800000Y-84900000D01*
X108800000Y-85200000D01*
G37*
X108800000Y-85200000D02*
X108300000Y-85200000D01*
X108300000Y-84900000D01*
X108800000Y-84900000D01*
X108800000Y-85200000D01*
D10*
X108300000Y-85400000D02*
X108800000Y-85400000D01*
X108800000Y-84100000D02*
G75*
G02*
X109000000Y-84300000I0J-200000D01*
G01*
X109000000Y-85200000D02*
X109000000Y-84300000D01*
X108100000Y-84300000D02*
G75*
G02*
X108300000Y-84100000I200000J0D01*
G01*
X109000000Y-85200000D02*
G75*
G02*
X108800000Y-85400000I-200000J0D01*
G01*
D11*
G36*
X108800000Y-82900000D02*
G01*
X108300000Y-82900000D01*
X108300000Y-82600000D01*
X108800000Y-82600000D01*
X108800000Y-82900000D01*
G37*
X108800000Y-82900000D02*
X108300000Y-82900000D01*
X108300000Y-82600000D01*
X108800000Y-82600000D01*
X108800000Y-82900000D01*
G36*
X108800000Y-83500000D02*
G01*
X108300000Y-83500000D01*
X108300000Y-83200000D01*
X108800000Y-83200000D01*
X108800000Y-83500000D01*
G37*
X108800000Y-83500000D02*
X108300000Y-83500000D01*
X108300000Y-83200000D01*
X108800000Y-83200000D01*
X108800000Y-83500000D01*
D10*
X108300000Y-83700000D02*
G75*
G02*
X108100000Y-83500000I0J200000D01*
G01*
X109000000Y-83500000D02*
G75*
G02*
X108800000Y-83700000I-200000J0D01*
G01*
X108800000Y-82400000D02*
G75*
G02*
X109000000Y-82600000I0J-200000D01*
G01*
X108100000Y-82600000D02*
G75*
G02*
X108300000Y-82400000I200000J0D01*
G01*
X108300000Y-83700000D02*
X108800000Y-83700000D01*
X108300000Y-82400000D02*
X108800000Y-82400000D01*
X109000000Y-83500000D02*
X109000000Y-82600000D01*
X108100000Y-83500000D02*
X108100000Y-82600000D01*
X119625000Y-76825000D02*
X119825000Y-76825000D01*
X119625000Y-74025000D02*
X119625000Y-76825000D01*
X119825000Y-74025000D02*
X119625000Y-74025000D01*
D12*
X119191666Y-74961904D02*
X118925000Y-75761904D01*
X118658333Y-74961904D01*
X117934523Y-75685714D02*
X117972619Y-75723809D01*
X118086904Y-75761904D01*
X118163095Y-75761904D01*
X118277380Y-75723809D01*
X118353571Y-75647619D01*
X118391666Y-75571428D01*
X118429761Y-75419047D01*
X118429761Y-75304761D01*
X118391666Y-75152380D01*
X118353571Y-75076190D01*
X118277380Y-75000000D01*
X118163095Y-74961904D01*
X118086904Y-74961904D01*
X117972619Y-75000000D01*
X117934523Y-75038095D01*
X117134523Y-75685714D02*
X117172619Y-75723809D01*
X117286904Y-75761904D01*
X117363095Y-75761904D01*
X117477380Y-75723809D01*
X117553571Y-75647619D01*
X117591666Y-75571428D01*
X117629761Y-75419047D01*
X117629761Y-75304761D01*
X117591666Y-75152380D01*
X117553571Y-75076190D01*
X117477380Y-75000000D01*
X117363095Y-74961904D01*
X117286904Y-74961904D01*
X117172619Y-75000000D01*
X117134523Y-75038095D01*
X121973928Y-75871428D02*
X122259642Y-75871428D01*
X122288214Y-76157142D01*
X122259642Y-76128571D01*
X122202500Y-76100000D01*
X122059642Y-76100000D01*
X122002500Y-76128571D01*
X121973928Y-76157142D01*
X121945357Y-76214285D01*
X121945357Y-76357142D01*
X121973928Y-76414285D01*
X122002500Y-76442857D01*
X122059642Y-76471428D01*
X122202500Y-76471428D01*
X122259642Y-76442857D01*
X122288214Y-76414285D01*
X121773928Y-75871428D02*
X121573928Y-76471428D01*
X121373928Y-75871428D01*
X121173928Y-76242857D02*
X120716785Y-76242857D01*
X120945357Y-76471428D02*
X120945357Y-76014285D01*
X122316785Y-74271428D02*
X121945357Y-74271428D01*
X122145357Y-74500000D01*
X122059642Y-74500000D01*
X122002500Y-74528571D01*
X121973928Y-74557142D01*
X121945357Y-74614285D01*
X121945357Y-74757142D01*
X121973928Y-74814285D01*
X122002500Y-74842857D01*
X122059642Y-74871428D01*
X122231071Y-74871428D01*
X122288214Y-74842857D01*
X122316785Y-74814285D01*
X121688214Y-74814285D02*
X121659642Y-74842857D01*
X121688214Y-74871428D01*
X121716785Y-74842857D01*
X121688214Y-74814285D01*
X121688214Y-74871428D01*
X121459642Y-74271428D02*
X121088214Y-74271428D01*
X121288214Y-74500000D01*
X121202500Y-74500000D01*
X121145357Y-74528571D01*
X121116785Y-74557142D01*
X121088214Y-74614285D01*
X121088214Y-74757142D01*
X121116785Y-74814285D01*
X121145357Y-74842857D01*
X121202500Y-74871428D01*
X121373928Y-74871428D01*
X121431071Y-74842857D01*
X121459642Y-74814285D01*
X120916785Y-74271428D02*
X120716785Y-74871428D01*
X120516785Y-74271428D01*
D10*
X106299999Y-75100001D02*
X106300000Y-74800000D01*
X106299999Y-75100001D02*
G75*
G02*
X105100001Y-75099999I-599999J100001D01*
G01*
X106300000Y-74700000D02*
X106500000Y-74900000D01*
X106300000Y-74700000D02*
X106100000Y-74900000D01*
D11*
G36*
X124700000Y-76500000D02*
G01*
X124200000Y-76500000D01*
X124200000Y-75900000D01*
X124700000Y-75900000D01*
X124700000Y-76500000D01*
G37*
X124700000Y-76500000D02*
X124200000Y-76500000D01*
X124200000Y-75900000D01*
X124700000Y-75900000D01*
X124700000Y-76500000D01*
G36*
X123800000Y-74900000D02*
G01*
X123300000Y-74900000D01*
X123300000Y-74300000D01*
X123800000Y-74300000D01*
X123800000Y-74900000D01*
G37*
X123800000Y-74900000D02*
X123300000Y-74900000D01*
X123300000Y-74300000D01*
X123800000Y-74300000D01*
X123800000Y-74900000D01*
D10*
X124300000Y-74200000D02*
X123700000Y-74200000D01*
X123400000Y-75000000D02*
X123100000Y-75000000D01*
D11*
G36*
X123400000Y-75000000D02*
G01*
X123100000Y-75000000D01*
X122900000Y-74800000D01*
X122900000Y-74400000D01*
X123100000Y-74200000D01*
X123400000Y-74200000D01*
X123400000Y-75000000D01*
G37*
X123400000Y-75000000D02*
X123100000Y-75000000D01*
X122900000Y-74800000D01*
X122900000Y-74400000D01*
X123100000Y-74200000D01*
X123400000Y-74200000D01*
X123400000Y-75000000D01*
G36*
X125100000Y-74400000D02*
G01*
X125100000Y-74800000D01*
X124900000Y-75000000D01*
X124600000Y-75000000D01*
X124600000Y-74200000D01*
X124900000Y-74200000D01*
X125100000Y-74400000D01*
G37*
X125100000Y-74400000D02*
X125100000Y-74800000D01*
X124900000Y-75000000D01*
X124600000Y-75000000D01*
X124600000Y-74200000D01*
X124900000Y-74200000D01*
X125100000Y-74400000D01*
D10*
X124600000Y-74200000D02*
X124600000Y-75000000D01*
X125100000Y-74800000D02*
G75*
G02*
X124900000Y-75000000I-200000J0D01*
G01*
X124900000Y-74200000D02*
G75*
G02*
X125100000Y-74400000I0J-200000D01*
G01*
X123100000Y-75200000D02*
G75*
G02*
X122700000Y-74800000I0J400000D01*
G01*
X122900000Y-74400000D02*
G75*
G02*
X123100000Y-74200000I200000J0D01*
G01*
X124300000Y-75000000D02*
X124300000Y-74200000D01*
X125100000Y-74400000D02*
X125100000Y-74800000D01*
X124900000Y-74000000D02*
G75*
G02*
X125300000Y-74400000I0J-400000D01*
G01*
X122698006Y-74400001D02*
G75*
G02*
X123139999Y-74000001I401994J1D01*
G01*
X124600000Y-74200000D02*
X124900000Y-74200000D01*
D11*
G36*
X124300000Y-75000000D02*
G01*
X123700000Y-75000000D01*
X123700000Y-74200000D01*
X124300000Y-74200000D01*
X124300000Y-75000000D01*
G37*
X124300000Y-75000000D02*
X123700000Y-75000000D01*
X123700000Y-74200000D01*
X124300000Y-74200000D01*
X124300000Y-75000000D01*
D10*
X123400000Y-74200000D02*
X123100000Y-74200000D01*
X123100000Y-74000000D02*
X124900000Y-74000000D01*
X125300000Y-74400000D02*
X125300000Y-74800000D01*
X123100000Y-75200000D02*
X124900000Y-75200000D01*
X123700000Y-74200000D02*
X123700000Y-75000000D01*
X123100000Y-75000000D02*
G75*
G02*
X122900000Y-74800000I0J200000D01*
G01*
X122900000Y-74800000D02*
X122900000Y-74400000D01*
X125301994Y-74799999D02*
G75*
G02*
X124860001Y-75199999I-401994J-1D01*
G01*
X123700000Y-75000000D02*
X124300000Y-75000000D01*
X124600000Y-75000000D02*
X124900000Y-75000000D01*
X122700000Y-74800000D02*
X122700000Y-74400000D01*
X123400000Y-75000000D02*
X123400000Y-74200000D01*
D11*
G36*
X124300000Y-76600000D02*
G01*
X123700000Y-76600000D01*
X123700000Y-75800000D01*
X124300000Y-75800000D01*
X124300000Y-76600000D01*
G37*
X124300000Y-76600000D02*
X123700000Y-76600000D01*
X123700000Y-75800000D01*
X124300000Y-75800000D01*
X124300000Y-76600000D01*
D10*
X124300000Y-75800000D02*
X123700000Y-75800000D01*
X124300000Y-76600000D02*
X124300000Y-75800000D01*
X123700000Y-76600000D02*
X124300000Y-76600000D01*
X123700000Y-75800000D02*
X123700000Y-76600000D01*
X122900000Y-76000000D02*
G75*
G02*
X123100000Y-75800000I200000J0D01*
G01*
X125300000Y-76000000D02*
X125300000Y-76400000D01*
D11*
G36*
X123400000Y-76600000D02*
G01*
X123100000Y-76600000D01*
X122900000Y-76400000D01*
X122900000Y-76000000D01*
X123100000Y-75800000D01*
X123400000Y-75800000D01*
X123400000Y-76600000D01*
G37*
X123400000Y-76600000D02*
X123100000Y-76600000D01*
X122900000Y-76400000D01*
X122900000Y-76000000D01*
X123100000Y-75800000D01*
X123400000Y-75800000D01*
X123400000Y-76600000D01*
D10*
X124600000Y-76600000D02*
X124900000Y-76600000D01*
X122700000Y-76400000D02*
X122700000Y-76000000D01*
X123100000Y-76600000D02*
G75*
G02*
X122900000Y-76400000I0J200000D01*
G01*
X122900000Y-76400000D02*
X122900000Y-76000000D01*
X123400000Y-75800000D02*
X123100000Y-75800000D01*
X124600000Y-75800000D02*
X124600000Y-76600000D01*
X125100000Y-76400000D02*
G75*
G02*
X124900000Y-76600000I-200000J0D01*
G01*
X123100000Y-75600000D02*
X124900000Y-75600000D01*
X124900000Y-75800000D02*
G75*
G02*
X125100000Y-76000000I0J-200000D01*
G01*
X123100000Y-76800000D02*
X124900000Y-76800000D01*
X123400000Y-76600000D02*
X123100000Y-76600000D01*
X124900000Y-75600000D02*
G75*
G02*
X125300000Y-76000000I0J-400000D01*
G01*
X125100000Y-76000000D02*
X125100000Y-76400000D01*
X122698006Y-76000001D02*
G75*
G02*
X123139999Y-75600001I401994J1D01*
G01*
X124600000Y-75800000D02*
X124900000Y-75800000D01*
D11*
G36*
X125100000Y-76000000D02*
G01*
X125100000Y-76400000D01*
X124900000Y-76600000D01*
X124600000Y-76600000D01*
X124600000Y-75800000D01*
X124900000Y-75800000D01*
X125100000Y-76000000D01*
G37*
X125100000Y-76000000D02*
X125100000Y-76400000D01*
X124900000Y-76600000D01*
X124600000Y-76600000D01*
X124600000Y-75800000D01*
X124900000Y-75800000D01*
X125100000Y-76000000D01*
D10*
X125301994Y-76399999D02*
G75*
G02*
X124860001Y-76799999I-401994J-1D01*
G01*
X123400000Y-76600000D02*
X123400000Y-75800000D01*
X123100000Y-76800000D02*
G75*
G02*
X122700000Y-76400000I0J400000D01*
G01*
D12*
X123675000Y-81916666D02*
X123708333Y-82016666D01*
X123741666Y-82050000D01*
X123808333Y-82083333D01*
X123908333Y-82083333D01*
X123975000Y-82050000D01*
X124008333Y-82016666D01*
X124041666Y-81950000D01*
X124041666Y-81683333D01*
X123341666Y-81683333D01*
X123341666Y-81916666D01*
X123375000Y-81983333D01*
X123408333Y-82016666D01*
X123475000Y-82050000D01*
X123541666Y-82050000D01*
X123608333Y-82016666D01*
X123641666Y-81983333D01*
X123675000Y-81916666D01*
X123675000Y-81683333D01*
X123341666Y-82516666D02*
X123341666Y-82650000D01*
X123375000Y-82716666D01*
X123441666Y-82783333D01*
X123575000Y-82816666D01*
X123808333Y-82816666D01*
X123941666Y-82783333D01*
X124008333Y-82716666D01*
X124041666Y-82650000D01*
X124041666Y-82516666D01*
X124008333Y-82450000D01*
X123941666Y-82383333D01*
X123808333Y-82350000D01*
X123575000Y-82350000D01*
X123441666Y-82383333D01*
X123375000Y-82450000D01*
X123341666Y-82516666D01*
X123341666Y-83250000D02*
X123341666Y-83383333D01*
X123375000Y-83450000D01*
X123441666Y-83516666D01*
X123575000Y-83550000D01*
X123808333Y-83550000D01*
X123941666Y-83516666D01*
X124008333Y-83450000D01*
X124041666Y-83383333D01*
X124041666Y-83250000D01*
X124008333Y-83183333D01*
X123941666Y-83116666D01*
X123808333Y-83083333D01*
X123575000Y-83083333D01*
X123441666Y-83116666D01*
X123375000Y-83183333D01*
X123341666Y-83250000D01*
X123341666Y-83750000D02*
X123341666Y-84150000D01*
X124041666Y-83950000D02*
X123341666Y-83950000D01*
X123341666Y-84516666D02*
X123341666Y-84583333D01*
X123375000Y-84650000D01*
X123408333Y-84683333D01*
X123475000Y-84716666D01*
X123608333Y-84750000D01*
X123775000Y-84750000D01*
X123908333Y-84716666D01*
X123975000Y-84683333D01*
X124008333Y-84650000D01*
X124041666Y-84583333D01*
X124041666Y-84516666D01*
X124008333Y-84450000D01*
X123975000Y-84416666D01*
X123908333Y-84383333D01*
X123775000Y-84350000D01*
X123608333Y-84350000D01*
X123475000Y-84383333D01*
X123408333Y-84416666D01*
X123375000Y-84450000D01*
X123341666Y-84516666D01*
X123953333Y-73050000D02*
X123986666Y-73083333D01*
X124086666Y-73116666D01*
X124153333Y-73116666D01*
X124253333Y-73083333D01*
X124320000Y-73016666D01*
X124353333Y-72950000D01*
X124386666Y-72816666D01*
X124386666Y-72716666D01*
X124353333Y-72583333D01*
X124320000Y-72516666D01*
X124253333Y-72450000D01*
X124153333Y-72416666D01*
X124086666Y-72416666D01*
X123986666Y-72450000D01*
X123953333Y-72483333D01*
X123653333Y-72750000D02*
X123420000Y-72750000D01*
X123320000Y-73116666D02*
X123653333Y-73116666D01*
X123653333Y-72416666D01*
X123320000Y-72416666D01*
X122620000Y-73116666D02*
X122853333Y-72783333D01*
X123020000Y-73116666D02*
X123020000Y-72416666D01*
X122753333Y-72416666D01*
X122686666Y-72450000D01*
X122653333Y-72483333D01*
X122620000Y-72550000D01*
X122620000Y-72650000D01*
X122653333Y-72716666D01*
X122686666Y-72750000D01*
X122753333Y-72783333D01*
X123020000Y-72783333D01*
X122320000Y-73116666D02*
X122320000Y-72416666D01*
X121920000Y-73116666D01*
X121920000Y-72416666D01*
X121586666Y-72850000D02*
X121053333Y-72850000D01*
X120586666Y-72416666D02*
X120453333Y-72416666D01*
X120386666Y-72450000D01*
X120320000Y-72516666D01*
X120286666Y-72650000D01*
X120286666Y-72883333D01*
X120320000Y-73016666D01*
X120386666Y-73083333D01*
X120453333Y-73116666D01*
X120586666Y-73116666D01*
X120653333Y-73083333D01*
X120720000Y-73016666D01*
X120753333Y-72883333D01*
X120753333Y-72650000D01*
X120720000Y-72516666D01*
X120653333Y-72450000D01*
X120586666Y-72416666D01*
X119986666Y-73116666D02*
X119986666Y-72416666D01*
X119986666Y-72750000D02*
X119586666Y-72750000D01*
X119586666Y-73116666D02*
X119586666Y-72416666D01*
X118920000Y-73116666D02*
X119253333Y-73116666D01*
X119253333Y-72416666D01*
X118686666Y-72850000D02*
X118153333Y-72850000D01*
X117853333Y-73083333D02*
X117753333Y-73116666D01*
X117586666Y-73116666D01*
X117520000Y-73083333D01*
X117486666Y-73050000D01*
X117453333Y-72983333D01*
X117453333Y-72916666D01*
X117486666Y-72850000D01*
X117520000Y-72816666D01*
X117586666Y-72783333D01*
X117720000Y-72750000D01*
X117786666Y-72716666D01*
X117820000Y-72683333D01*
X117853333Y-72616666D01*
X117853333Y-72550000D01*
X117820000Y-72483333D01*
X117786666Y-72450000D01*
X117720000Y-72416666D01*
X117553333Y-72416666D01*
X117453333Y-72450000D01*
X124700476Y-71382380D02*
X124700476Y-70382380D01*
X124700476Y-71334761D02*
X124795714Y-71382380D01*
X124986190Y-71382380D01*
X125081428Y-71334761D01*
X125129047Y-71287142D01*
X125176666Y-71191904D01*
X125176666Y-70906190D01*
X125129047Y-70810952D01*
X125081428Y-70763333D01*
X124986190Y-70715714D01*
X124795714Y-70715714D01*
X124700476Y-70763333D01*
X123843333Y-71334761D02*
X123938571Y-71382380D01*
X124129047Y-71382380D01*
X124224285Y-71334761D01*
X124271904Y-71239523D01*
X124271904Y-70858571D01*
X124224285Y-70763333D01*
X124129047Y-70715714D01*
X123938571Y-70715714D01*
X123843333Y-70763333D01*
X123795714Y-70858571D01*
X123795714Y-70953809D01*
X124271904Y-71049047D01*
X123367142Y-70715714D02*
X123367142Y-71715714D01*
X123367142Y-70763333D02*
X123271904Y-70715714D01*
X123081428Y-70715714D01*
X122986190Y-70763333D01*
X122938571Y-70810952D01*
X122890952Y-70906190D01*
X122890952Y-71191904D01*
X122938571Y-71287142D01*
X122986190Y-71334761D01*
X123081428Y-71382380D01*
X123271904Y-71382380D01*
X123367142Y-71334761D01*
X122033809Y-71382380D02*
X122033809Y-70858571D01*
X122081428Y-70763333D01*
X122176666Y-70715714D01*
X122367142Y-70715714D01*
X122462380Y-70763333D01*
X122033809Y-71334761D02*
X122129047Y-71382380D01*
X122367142Y-71382380D01*
X122462380Y-71334761D01*
X122510000Y-71239523D01*
X122510000Y-71144285D01*
X122462380Y-71049047D01*
X122367142Y-71001428D01*
X122129047Y-71001428D01*
X122033809Y-70953809D01*
X121129047Y-70715714D02*
X121129047Y-71382380D01*
X121557619Y-70715714D02*
X121557619Y-71239523D01*
X121510000Y-71334761D01*
X121414761Y-71382380D01*
X121271904Y-71382380D01*
X121176666Y-71334761D01*
X121129047Y-71287142D01*
X120652857Y-71287142D02*
X120605238Y-71334761D01*
X120652857Y-71382380D01*
X120700476Y-71334761D01*
X120652857Y-71287142D01*
X120652857Y-71382380D01*
X119795714Y-71334761D02*
X119890952Y-71382380D01*
X120081428Y-71382380D01*
X120176666Y-71334761D01*
X120224285Y-71239523D01*
X120224285Y-70858571D01*
X120176666Y-70763333D01*
X120081428Y-70715714D01*
X119890952Y-70715714D01*
X119795714Y-70763333D01*
X119748095Y-70858571D01*
X119748095Y-70953809D01*
X120224285Y-71049047D01*
X118890952Y-70715714D02*
X118890952Y-71382380D01*
X119319523Y-70715714D02*
X119319523Y-71239523D01*
X119271904Y-71334761D01*
X119176666Y-71382380D01*
X119033809Y-71382380D01*
X118938571Y-71334761D01*
X118890952Y-71287142D01*
X127274285Y-69255714D02*
X127036190Y-69922380D01*
X126798095Y-69255714D01*
X126226666Y-68922380D02*
X126131428Y-68922380D01*
X126036190Y-68970000D01*
X125988571Y-69017619D01*
X125940952Y-69112857D01*
X125893333Y-69303333D01*
X125893333Y-69541428D01*
X125940952Y-69731904D01*
X125988571Y-69827142D01*
X126036190Y-69874761D01*
X126131428Y-69922380D01*
X126226666Y-69922380D01*
X126321904Y-69874761D01*
X126369523Y-69827142D01*
X126417142Y-69731904D01*
X126464761Y-69541428D01*
X126464761Y-69303333D01*
X126417142Y-69112857D01*
X126369523Y-69017619D01*
X126321904Y-68970000D01*
X126226666Y-68922380D01*
X125464761Y-69827142D02*
X125417142Y-69874761D01*
X125464761Y-69922380D01*
X125512380Y-69874761D01*
X125464761Y-69827142D01*
X125464761Y-69922380D01*
X124464761Y-69922380D02*
X125036190Y-69922380D01*
X124750476Y-69922380D02*
X124750476Y-68922380D01*
X124845714Y-69065238D01*
X124940952Y-69160476D01*
X125036190Y-69208095D01*
X123274285Y-69922380D02*
X123274285Y-69255714D01*
X123274285Y-69446190D02*
X123226666Y-69350952D01*
X123179047Y-69303333D01*
X123083809Y-69255714D01*
X122988571Y-69255714D01*
X122274285Y-69874761D02*
X122369523Y-69922380D01*
X122560000Y-69922380D01*
X122655238Y-69874761D01*
X122702857Y-69779523D01*
X122702857Y-69398571D01*
X122655238Y-69303333D01*
X122560000Y-69255714D01*
X122369523Y-69255714D01*
X122274285Y-69303333D01*
X122226666Y-69398571D01*
X122226666Y-69493809D01*
X122702857Y-69589047D01*
X121893333Y-69255714D02*
X121702857Y-69922380D01*
X121512380Y-69446190D01*
X121321904Y-69922380D01*
X121131428Y-69255714D01*
X120750476Y-69922380D02*
X120750476Y-69255714D01*
X120750476Y-68922380D02*
X120798095Y-68970000D01*
X120750476Y-69017619D01*
X120702857Y-68970000D01*
X120750476Y-68922380D01*
X120750476Y-69017619D01*
X120274285Y-69922380D02*
X120274285Y-69255714D01*
X120274285Y-69446190D02*
X120226666Y-69350952D01*
X120179047Y-69303333D01*
X120083809Y-69255714D01*
X119988571Y-69255714D01*
X119226666Y-69922380D02*
X119226666Y-69398571D01*
X119274285Y-69303333D01*
X119369523Y-69255714D01*
X119560000Y-69255714D01*
X119655238Y-69303333D01*
X119226666Y-69874761D02*
X119321904Y-69922380D01*
X119560000Y-69922380D01*
X119655238Y-69874761D01*
X119702857Y-69779523D01*
X119702857Y-69684285D01*
X119655238Y-69589047D01*
X119560000Y-69541428D01*
X119321904Y-69541428D01*
X119226666Y-69493809D01*
X118750476Y-69922380D02*
X118750476Y-68922380D01*
X118750476Y-69303333D02*
X118655238Y-69255714D01*
X118464761Y-69255714D01*
X118369523Y-69303333D01*
X118321904Y-69350952D01*
X118274285Y-69446190D01*
X118274285Y-69731904D01*
X118321904Y-69827142D01*
X118369523Y-69874761D01*
X118464761Y-69922380D01*
X118655238Y-69922380D01*
X118750476Y-69874761D01*
X117702857Y-69922380D02*
X117798095Y-69874761D01*
X117845714Y-69779523D01*
X117845714Y-68922380D01*
X116940952Y-69874761D02*
X117036190Y-69922380D01*
X117226666Y-69922380D01*
X117321904Y-69874761D01*
X117369523Y-69779523D01*
X117369523Y-69398571D01*
X117321904Y-69303333D01*
X117226666Y-69255714D01*
X117036190Y-69255714D01*
X116940952Y-69303333D01*
X116893333Y-69398571D01*
X116893333Y-69493809D01*
X117369523Y-69589047D01*
X124797619Y-67118095D02*
X124488095Y-68418095D01*
X124240476Y-67489523D01*
X123992857Y-68418095D01*
X123683333Y-67118095D01*
X123188095Y-68418095D02*
X123188095Y-67551428D01*
X123188095Y-67118095D02*
X123250000Y-67180000D01*
X123188095Y-67241904D01*
X123126190Y-67180000D01*
X123188095Y-67118095D01*
X123188095Y-67241904D01*
X122569047Y-67922857D02*
X121578571Y-67922857D01*
X121021428Y-68356190D02*
X120835714Y-68418095D01*
X120526190Y-68418095D01*
X120402380Y-68356190D01*
X120340476Y-68294285D01*
X120278571Y-68170476D01*
X120278571Y-68046666D01*
X120340476Y-67922857D01*
X120402380Y-67860952D01*
X120526190Y-67799047D01*
X120773809Y-67737142D01*
X120897619Y-67675238D01*
X120959523Y-67613333D01*
X121021428Y-67489523D01*
X121021428Y-67365714D01*
X120959523Y-67241904D01*
X120897619Y-67180000D01*
X120773809Y-67118095D01*
X120464285Y-67118095D01*
X120278571Y-67180000D01*
X119226190Y-68356190D02*
X119350000Y-68418095D01*
X119597619Y-68418095D01*
X119721428Y-68356190D01*
X119783333Y-68232380D01*
X119783333Y-67737142D01*
X119721428Y-67613333D01*
X119597619Y-67551428D01*
X119350000Y-67551428D01*
X119226190Y-67613333D01*
X119164285Y-67737142D01*
X119164285Y-67860952D01*
X119783333Y-67984761D01*
D10*
%TO.C,JP17*%
X121870000Y-78260000D02*
X122170000Y-77960000D01*
X121570000Y-77960000D02*
X122170000Y-77960000D01*
X121870000Y-78260000D02*
X121570000Y-77960000D01*
X121020000Y-79160000D02*
X121020000Y-79760000D01*
X124470000Y-78460000D02*
X121670000Y-78460000D01*
X125120000Y-79760000D02*
X125120000Y-79160000D01*
X121670000Y-80460000D02*
X124470000Y-80460000D01*
X124420000Y-80460000D02*
G75*
G03*
X125120000Y-79760000I0J700000D01*
G01*
X125120000Y-79160000D02*
G75*
G03*
X124420000Y-78460000I-700000J0D01*
G01*
X121720000Y-78460000D02*
G75*
G03*
X121020000Y-79160000I0J-700000D01*
G01*
X121020000Y-79760000D02*
G75*
G03*
X121720000Y-80460000I700000J0D01*
G01*
%TO.C,C1*%
X126080000Y-78561252D02*
X126080000Y-77138748D01*
X127900000Y-78561252D02*
X127900000Y-77138748D01*
%TO.C,C2*%
X113488748Y-73410000D02*
X114911252Y-73410000D01*
X113488748Y-71590000D02*
X114911252Y-71590000D01*
%TO.C,C5*%
X102940000Y-82611252D02*
X102940000Y-81188748D01*
X104760000Y-82611252D02*
X104760000Y-81188748D01*
%TO.C,C6*%
X106310000Y-82840580D02*
X106310000Y-82559420D01*
X105290000Y-82840580D02*
X105290000Y-82559420D01*
%TO.C,C7*%
X113292164Y-83260000D02*
X113507836Y-83260000D01*
X113292164Y-82540000D02*
X113507836Y-82540000D01*
%TO.C,C8*%
X106192164Y-73740000D02*
X106407836Y-73740000D01*
X106192164Y-74460000D02*
X106407836Y-74460000D01*
%TO.C,C9*%
X111007836Y-67690000D02*
X110792164Y-67690000D01*
X111007836Y-68410000D02*
X110792164Y-68410000D01*
%TO.C,J1*%
X106020000Y-63670000D02*
X106020000Y-66330000D01*
X106020000Y-63670000D02*
X108620000Y-63670000D01*
X108620000Y-63670000D02*
X108620000Y-66330000D01*
X106020000Y-66330000D02*
X108620000Y-66330000D01*
X103420000Y-66330000D02*
X104750000Y-66330000D01*
X103420000Y-65000000D02*
X103420000Y-66330000D01*
%TO.C,J2*%
X119190000Y-63670000D02*
X119190000Y-66330000D01*
X119190000Y-63670000D02*
X126870000Y-63670000D01*
X126870000Y-63670000D02*
X126870000Y-66330000D01*
X119190000Y-66330000D02*
X126870000Y-66330000D01*
X116590000Y-66330000D02*
X117920000Y-66330000D01*
X116590000Y-65000000D02*
X116590000Y-66330000D01*
D13*
%TO.C,Q1*%
X103576200Y-68163001D02*
G75*
G03*
X103576200Y-68163001I-76200J0D01*
G01*
X103833260Y-71375500D02*
X102824400Y-71375500D01*
X102824400Y-71375500D02*
X102824400Y-69724500D01*
X106075600Y-71375500D02*
X105066740Y-71375500D01*
X106075600Y-69724500D02*
X106075600Y-71375500D01*
X104116739Y-69724500D02*
X104783261Y-69724500D01*
%TO.C,Q2*%
X107766739Y-69724500D02*
X108433261Y-69724500D01*
X109725600Y-69724500D02*
X109725600Y-71375500D01*
X109725600Y-71375500D02*
X108716740Y-71375500D01*
X106474400Y-71375500D02*
X106474400Y-69724500D01*
X107483260Y-71375500D02*
X106474400Y-71375500D01*
X107226200Y-68163001D02*
G75*
G03*
X107226200Y-68163001I-76200J0D01*
G01*
D10*
%TO.C,R1*%
X117320000Y-83956359D02*
X117320000Y-84263641D01*
X118080000Y-83956359D02*
X118080000Y-84263641D01*
%TO.C,R2*%
X119080000Y-83946359D02*
X119080000Y-84253641D01*
X118320000Y-83946359D02*
X118320000Y-84253641D01*
%TO.C,R3*%
X122480000Y-83956359D02*
X122480000Y-84263641D01*
X121720000Y-83956359D02*
X121720000Y-84263641D01*
%TO.C,R4*%
X121480000Y-83956359D02*
X121480000Y-84263641D01*
X120720000Y-83956359D02*
X120720000Y-84263641D01*
%TO.C,R5*%
X109803641Y-71720000D02*
X109496359Y-71720000D01*
X109803641Y-72480000D02*
X109496359Y-72480000D01*
%TO.C,R6*%
X106453641Y-73480000D02*
X106146359Y-73480000D01*
X106453641Y-72720000D02*
X106146359Y-72720000D01*
%TO.C,R7*%
X111830000Y-69653641D02*
X111830000Y-69346359D01*
X111070000Y-69653641D02*
X111070000Y-69346359D01*
%TO.C,R8*%
X106146359Y-71720000D02*
X106453641Y-71720000D01*
X106146359Y-72480000D02*
X106453641Y-72480000D01*
%TO.C,R9*%
X110070000Y-69346359D02*
X110070000Y-69653641D01*
X110830000Y-69346359D02*
X110830000Y-69653641D01*
%TO.C,R11*%
X113070000Y-69346359D02*
X113070000Y-69653641D01*
X113830000Y-69346359D02*
X113830000Y-69653641D01*
%TO.C,R12*%
X112070000Y-69346359D02*
X112070000Y-69653641D01*
X112830000Y-69346359D02*
X112830000Y-69653641D01*
%TO.C,U1*%
X110350000Y-80720000D02*
X110350000Y-79460000D01*
X110350000Y-73900000D02*
X110350000Y-75160000D01*
X114110000Y-80720000D02*
X110350000Y-80720000D01*
X116360000Y-73900000D02*
X110350000Y-73900000D01*
%TO.C,R10*%
X106670000Y-83096359D02*
X106670000Y-83403641D01*
X107430000Y-83096359D02*
X107430000Y-83403641D01*
%TO.C,R13*%
X113246359Y-83570000D02*
X113553641Y-83570000D01*
X113246359Y-84330000D02*
X113553641Y-84330000D01*
%TO.C,JP18*%
X103600000Y-78170000D02*
X104200000Y-78170000D01*
X102900000Y-76070000D02*
X102900000Y-77470000D01*
X104200000Y-75370000D02*
X103600000Y-75370000D01*
X104900000Y-77470000D02*
X104900000Y-76070000D01*
X104900000Y-76070000D02*
G75*
G03*
X104200000Y-75370000I-700000J0D01*
G01*
X103600000Y-75370000D02*
G75*
G03*
X102900000Y-76070000I0J-700000D01*
G01*
X102900000Y-77470000D02*
G75*
G03*
X103600000Y-78170000I700000J0D01*
G01*
X104200000Y-78170000D02*
G75*
G03*
X104900000Y-77470000I0J700000D01*
G01*
D12*
%TO.C,SW2*%
X127425000Y-84700000D02*
X124425000Y-84700000D01*
X124425000Y-81700000D02*
X127425000Y-81700000D01*
X127425000Y-84700000D02*
X127425000Y-81700000D01*
X124425000Y-84700000D02*
X124425000Y-81700000D01*
%TO.C,JP17*%
X120516666Y-79116666D02*
X120516666Y-79616666D01*
X120550000Y-79716666D01*
X120616666Y-79783333D01*
X120716666Y-79816666D01*
X120783333Y-79816666D01*
X120183333Y-79816666D02*
X120183333Y-79116666D01*
X119916666Y-79116666D01*
X119850000Y-79150000D01*
X119816666Y-79183333D01*
X119783333Y-79250000D01*
X119783333Y-79350000D01*
X119816666Y-79416666D01*
X119850000Y-79450000D01*
X119916666Y-79483333D01*
X120183333Y-79483333D01*
X119116666Y-79816666D02*
X119516666Y-79816666D01*
X119316666Y-79816666D02*
X119316666Y-79116666D01*
X119383333Y-79216666D01*
X119450000Y-79283333D01*
X119516666Y-79316666D01*
X118883333Y-79116666D02*
X118416666Y-79116666D01*
X118716666Y-79816666D01*
%TO.C,C1*%
X127116666Y-75037500D02*
X127150000Y-75070833D01*
X127250000Y-75104166D01*
X127316666Y-75104166D01*
X127416666Y-75070833D01*
X127483333Y-75004166D01*
X127516666Y-74937500D01*
X127550000Y-74804166D01*
X127550000Y-74704166D01*
X127516666Y-74570833D01*
X127483333Y-74504166D01*
X127416666Y-74437500D01*
X127316666Y-74404166D01*
X127250000Y-74404166D01*
X127150000Y-74437500D01*
X127116666Y-74470833D01*
X126450000Y-75104166D02*
X126850000Y-75104166D01*
X126650000Y-75104166D02*
X126650000Y-74404166D01*
X126716666Y-74504166D01*
X126783333Y-74570833D01*
X126850000Y-74604166D01*
%TO.C,C2*%
X116050000Y-70533333D02*
X116083333Y-70500000D01*
X116116666Y-70400000D01*
X116116666Y-70333333D01*
X116083333Y-70233333D01*
X116016666Y-70166666D01*
X115950000Y-70133333D01*
X115816666Y-70100000D01*
X115716666Y-70100000D01*
X115583333Y-70133333D01*
X115516666Y-70166666D01*
X115450000Y-70233333D01*
X115416666Y-70333333D01*
X115416666Y-70400000D01*
X115450000Y-70500000D01*
X115483333Y-70533333D01*
X115483333Y-70800000D02*
X115450000Y-70833333D01*
X115416666Y-70900000D01*
X115416666Y-71066666D01*
X115450000Y-71133333D01*
X115483333Y-71166666D01*
X115550000Y-71200000D01*
X115616666Y-71200000D01*
X115716666Y-71166666D01*
X116116666Y-70766666D01*
X116116666Y-71200000D01*
%TO.C,C5*%
X104033333Y-85065714D02*
X104071428Y-85103809D01*
X104185714Y-85141904D01*
X104261904Y-85141904D01*
X104376190Y-85103809D01*
X104452380Y-85027619D01*
X104490476Y-84951428D01*
X104528571Y-84799047D01*
X104528571Y-84684761D01*
X104490476Y-84532380D01*
X104452380Y-84456190D01*
X104376190Y-84380000D01*
X104261904Y-84341904D01*
X104185714Y-84341904D01*
X104071428Y-84380000D01*
X104033333Y-84418095D01*
X103309523Y-84341904D02*
X103690476Y-84341904D01*
X103728571Y-84722857D01*
X103690476Y-84684761D01*
X103614285Y-84646666D01*
X103423809Y-84646666D01*
X103347619Y-84684761D01*
X103309523Y-84722857D01*
X103271428Y-84799047D01*
X103271428Y-84989523D01*
X103309523Y-85065714D01*
X103347619Y-85103809D01*
X103423809Y-85141904D01*
X103614285Y-85141904D01*
X103690476Y-85103809D01*
X103728571Y-85065714D01*
%TO.C,C6*%
X105933333Y-80935714D02*
X105971428Y-80973809D01*
X106085714Y-81011904D01*
X106161904Y-81011904D01*
X106276190Y-80973809D01*
X106352380Y-80897619D01*
X106390476Y-80821428D01*
X106428571Y-80669047D01*
X106428571Y-80554761D01*
X106390476Y-80402380D01*
X106352380Y-80326190D01*
X106276190Y-80250000D01*
X106161904Y-80211904D01*
X106085714Y-80211904D01*
X105971428Y-80250000D01*
X105933333Y-80288095D01*
X105247619Y-80211904D02*
X105400000Y-80211904D01*
X105476190Y-80250000D01*
X105514285Y-80288095D01*
X105590476Y-80402380D01*
X105628571Y-80554761D01*
X105628571Y-80859523D01*
X105590476Y-80935714D01*
X105552380Y-80973809D01*
X105476190Y-81011904D01*
X105323809Y-81011904D01*
X105247619Y-80973809D01*
X105209523Y-80935714D01*
X105171428Y-80859523D01*
X105171428Y-80669047D01*
X105209523Y-80592857D01*
X105247619Y-80554761D01*
X105323809Y-80516666D01*
X105476190Y-80516666D01*
X105552380Y-80554761D01*
X105590476Y-80592857D01*
X105628571Y-80669047D01*
%TO.C,C7*%
X113533333Y-82185714D02*
X113571428Y-82223809D01*
X113685714Y-82261904D01*
X113761904Y-82261904D01*
X113876190Y-82223809D01*
X113952380Y-82147619D01*
X113990476Y-82071428D01*
X114028571Y-81919047D01*
X114028571Y-81804761D01*
X113990476Y-81652380D01*
X113952380Y-81576190D01*
X113876190Y-81500000D01*
X113761904Y-81461904D01*
X113685714Y-81461904D01*
X113571428Y-81500000D01*
X113533333Y-81538095D01*
X113266666Y-81461904D02*
X112733333Y-81461904D01*
X113076190Y-82261904D01*
%TO.C,C8*%
X104766666Y-74850000D02*
X104800000Y-74883333D01*
X104900000Y-74916666D01*
X104966666Y-74916666D01*
X105066666Y-74883333D01*
X105133333Y-74816666D01*
X105166666Y-74750000D01*
X105200000Y-74616666D01*
X105200000Y-74516666D01*
X105166666Y-74383333D01*
X105133333Y-74316666D01*
X105066666Y-74250000D01*
X104966666Y-74216666D01*
X104900000Y-74216666D01*
X104800000Y-74250000D01*
X104766666Y-74283333D01*
X104366666Y-74516666D02*
X104433333Y-74483333D01*
X104466666Y-74450000D01*
X104500000Y-74383333D01*
X104500000Y-74350000D01*
X104466666Y-74283333D01*
X104433333Y-74250000D01*
X104366666Y-74216666D01*
X104233333Y-74216666D01*
X104166666Y-74250000D01*
X104133333Y-74283333D01*
X104100000Y-74350000D01*
X104100000Y-74383333D01*
X104133333Y-74450000D01*
X104166666Y-74483333D01*
X104233333Y-74516666D01*
X104366666Y-74516666D01*
X104433333Y-74550000D01*
X104466666Y-74583333D01*
X104500000Y-74650000D01*
X104500000Y-74783333D01*
X104466666Y-74850000D01*
X104433333Y-74883333D01*
X104366666Y-74916666D01*
X104233333Y-74916666D01*
X104166666Y-74883333D01*
X104133333Y-74850000D01*
X104100000Y-74783333D01*
X104100000Y-74650000D01*
X104133333Y-74583333D01*
X104166666Y-74550000D01*
X104233333Y-74516666D01*
%TO.C,C9*%
X109416666Y-68300000D02*
X109450000Y-68333333D01*
X109550000Y-68366666D01*
X109616666Y-68366666D01*
X109716666Y-68333333D01*
X109783333Y-68266666D01*
X109816666Y-68200000D01*
X109850000Y-68066666D01*
X109850000Y-67966666D01*
X109816666Y-67833333D01*
X109783333Y-67766666D01*
X109716666Y-67700000D01*
X109616666Y-67666666D01*
X109550000Y-67666666D01*
X109450000Y-67700000D01*
X109416666Y-67733333D01*
X109083333Y-68366666D02*
X108950000Y-68366666D01*
X108883333Y-68333333D01*
X108850000Y-68300000D01*
X108783333Y-68200000D01*
X108750000Y-68066666D01*
X108750000Y-67800000D01*
X108783333Y-67733333D01*
X108816666Y-67700000D01*
X108883333Y-67666666D01*
X109016666Y-67666666D01*
X109083333Y-67700000D01*
X109116666Y-67733333D01*
X109150000Y-67800000D01*
X109150000Y-67966666D01*
X109116666Y-68033333D01*
X109083333Y-68066666D01*
X109016666Y-68100000D01*
X108883333Y-68100000D01*
X108816666Y-68066666D01*
X108783333Y-68033333D01*
X108750000Y-67966666D01*
%TO.C,Q1*%
X104476190Y-70938095D02*
X104552380Y-70900000D01*
X104628571Y-70823809D01*
X104742857Y-70709523D01*
X104819047Y-70671428D01*
X104895238Y-70671428D01*
X104857142Y-70861904D02*
X104933333Y-70823809D01*
X105009523Y-70747619D01*
X105047619Y-70595238D01*
X105047619Y-70328571D01*
X105009523Y-70176190D01*
X104933333Y-70100000D01*
X104857142Y-70061904D01*
X104704761Y-70061904D01*
X104628571Y-70100000D01*
X104552380Y-70176190D01*
X104514285Y-70328571D01*
X104514285Y-70595238D01*
X104552380Y-70747619D01*
X104628571Y-70823809D01*
X104704761Y-70861904D01*
X104857142Y-70861904D01*
X103752380Y-70861904D02*
X104209523Y-70861904D01*
X103980952Y-70861904D02*
X103980952Y-70061904D01*
X104057142Y-70176190D01*
X104133333Y-70252380D01*
X104209523Y-70290476D01*
%TO.C,Q2*%
X108066666Y-70933333D02*
X108133333Y-70900000D01*
X108200000Y-70833333D01*
X108300000Y-70733333D01*
X108366666Y-70700000D01*
X108433333Y-70700000D01*
X108400000Y-70866666D02*
X108466666Y-70833333D01*
X108533333Y-70766666D01*
X108566666Y-70633333D01*
X108566666Y-70400000D01*
X108533333Y-70266666D01*
X108466666Y-70200000D01*
X108400000Y-70166666D01*
X108266666Y-70166666D01*
X108200000Y-70200000D01*
X108133333Y-70266666D01*
X108100000Y-70400000D01*
X108100000Y-70633333D01*
X108133333Y-70766666D01*
X108200000Y-70833333D01*
X108266666Y-70866666D01*
X108400000Y-70866666D01*
X107833333Y-70233333D02*
X107800000Y-70200000D01*
X107733333Y-70166666D01*
X107566666Y-70166666D01*
X107500000Y-70200000D01*
X107466666Y-70233333D01*
X107433333Y-70300000D01*
X107433333Y-70366666D01*
X107466666Y-70466666D01*
X107866666Y-70866666D01*
X107433333Y-70866666D01*
%TO.C,R1*%
X118066666Y-82233333D02*
X117733333Y-82000000D01*
X118066666Y-81833333D02*
X117366666Y-81833333D01*
X117366666Y-82100000D01*
X117400000Y-82166666D01*
X117433333Y-82200000D01*
X117500000Y-82233333D01*
X117600000Y-82233333D01*
X117666666Y-82200000D01*
X117700000Y-82166666D01*
X117733333Y-82100000D01*
X117733333Y-81833333D01*
X118066666Y-82900000D02*
X118066666Y-82500000D01*
X118066666Y-82700000D02*
X117366666Y-82700000D01*
X117466666Y-82633333D01*
X117533333Y-82566666D01*
X117566666Y-82500000D01*
%TO.C,R2*%
X119016666Y-82233333D02*
X118683333Y-82000000D01*
X119016666Y-81833333D02*
X118316666Y-81833333D01*
X118316666Y-82100000D01*
X118350000Y-82166666D01*
X118383333Y-82200000D01*
X118450000Y-82233333D01*
X118550000Y-82233333D01*
X118616666Y-82200000D01*
X118650000Y-82166666D01*
X118683333Y-82100000D01*
X118683333Y-81833333D01*
X118383333Y-82500000D02*
X118350000Y-82533333D01*
X118316666Y-82600000D01*
X118316666Y-82766666D01*
X118350000Y-82833333D01*
X118383333Y-82866666D01*
X118450000Y-82900000D01*
X118516666Y-82900000D01*
X118616666Y-82866666D01*
X119016666Y-82466666D01*
X119016666Y-82900000D01*
%TO.C,R3*%
X122466666Y-82233333D02*
X122133333Y-82000000D01*
X122466666Y-81833333D02*
X121766666Y-81833333D01*
X121766666Y-82100000D01*
X121800000Y-82166666D01*
X121833333Y-82200000D01*
X121900000Y-82233333D01*
X122000000Y-82233333D01*
X122066666Y-82200000D01*
X122100000Y-82166666D01*
X122133333Y-82100000D01*
X122133333Y-81833333D01*
X121766666Y-82466666D02*
X121766666Y-82900000D01*
X122033333Y-82666666D01*
X122033333Y-82766666D01*
X122066666Y-82833333D01*
X122100000Y-82866666D01*
X122166666Y-82900000D01*
X122333333Y-82900000D01*
X122400000Y-82866666D01*
X122433333Y-82833333D01*
X122466666Y-82766666D01*
X122466666Y-82566666D01*
X122433333Y-82500000D01*
X122400000Y-82466666D01*
%TO.C,R4*%
X121416666Y-82233333D02*
X121083333Y-82000000D01*
X121416666Y-81833333D02*
X120716666Y-81833333D01*
X120716666Y-82100000D01*
X120750000Y-82166666D01*
X120783333Y-82200000D01*
X120850000Y-82233333D01*
X120950000Y-82233333D01*
X121016666Y-82200000D01*
X121050000Y-82166666D01*
X121083333Y-82100000D01*
X121083333Y-81833333D01*
X120950000Y-82833333D02*
X121416666Y-82833333D01*
X120683333Y-82666666D02*
X121183333Y-82500000D01*
X121183333Y-82933333D01*
%TO.C,R5*%
X109783333Y-73511904D02*
X110050000Y-73130952D01*
X110240476Y-73511904D02*
X110240476Y-72711904D01*
X109935714Y-72711904D01*
X109859523Y-72750000D01*
X109821428Y-72788095D01*
X109783333Y-72864285D01*
X109783333Y-72978571D01*
X109821428Y-73054761D01*
X109859523Y-73092857D01*
X109935714Y-73130952D01*
X110240476Y-73130952D01*
X109059523Y-72711904D02*
X109440476Y-72711904D01*
X109478571Y-73092857D01*
X109440476Y-73054761D01*
X109364285Y-73016666D01*
X109173809Y-73016666D01*
X109097619Y-73054761D01*
X109059523Y-73092857D01*
X109021428Y-73169047D01*
X109021428Y-73359523D01*
X109059523Y-73435714D01*
X109097619Y-73473809D01*
X109173809Y-73511904D01*
X109364285Y-73511904D01*
X109440476Y-73473809D01*
X109478571Y-73435714D01*
%TO.C,R6*%
X104766666Y-74016666D02*
X105000000Y-73683333D01*
X105166666Y-74016666D02*
X105166666Y-73316666D01*
X104900000Y-73316666D01*
X104833333Y-73350000D01*
X104800000Y-73383333D01*
X104766666Y-73450000D01*
X104766666Y-73550000D01*
X104800000Y-73616666D01*
X104833333Y-73650000D01*
X104900000Y-73683333D01*
X105166666Y-73683333D01*
X104166666Y-73316666D02*
X104300000Y-73316666D01*
X104366666Y-73350000D01*
X104400000Y-73383333D01*
X104466666Y-73483333D01*
X104500000Y-73616666D01*
X104500000Y-73883333D01*
X104466666Y-73950000D01*
X104433333Y-73983333D01*
X104366666Y-74016666D01*
X104233333Y-74016666D01*
X104166666Y-73983333D01*
X104133333Y-73950000D01*
X104100000Y-73883333D01*
X104100000Y-73716666D01*
X104133333Y-73650000D01*
X104166666Y-73616666D01*
X104233333Y-73583333D01*
X104366666Y-73583333D01*
X104433333Y-73616666D01*
X104466666Y-73650000D01*
X104500000Y-73716666D01*
%TO.C,R7*%
X112866666Y-70883333D02*
X112533333Y-70650000D01*
X112866666Y-70483333D02*
X112166666Y-70483333D01*
X112166666Y-70750000D01*
X112200000Y-70816666D01*
X112233333Y-70850000D01*
X112300000Y-70883333D01*
X112400000Y-70883333D01*
X112466666Y-70850000D01*
X112500000Y-70816666D01*
X112533333Y-70750000D01*
X112533333Y-70483333D01*
X112166666Y-71116666D02*
X112166666Y-71583333D01*
X112866666Y-71283333D01*
%TO.C,R8*%
X104766666Y-73066666D02*
X105000000Y-72733333D01*
X105166666Y-73066666D02*
X105166666Y-72366666D01*
X104900000Y-72366666D01*
X104833333Y-72400000D01*
X104800000Y-72433333D01*
X104766666Y-72500000D01*
X104766666Y-72600000D01*
X104800000Y-72666666D01*
X104833333Y-72700000D01*
X104900000Y-72733333D01*
X105166666Y-72733333D01*
X104366666Y-72666666D02*
X104433333Y-72633333D01*
X104466666Y-72600000D01*
X104500000Y-72533333D01*
X104500000Y-72500000D01*
X104466666Y-72433333D01*
X104433333Y-72400000D01*
X104366666Y-72366666D01*
X104233333Y-72366666D01*
X104166666Y-72400000D01*
X104133333Y-72433333D01*
X104100000Y-72500000D01*
X104100000Y-72533333D01*
X104133333Y-72600000D01*
X104166666Y-72633333D01*
X104233333Y-72666666D01*
X104366666Y-72666666D01*
X104433333Y-72700000D01*
X104466666Y-72733333D01*
X104500000Y-72800000D01*
X104500000Y-72933333D01*
X104466666Y-73000000D01*
X104433333Y-73033333D01*
X104366666Y-73066666D01*
X104233333Y-73066666D01*
X104166666Y-73033333D01*
X104133333Y-73000000D01*
X104100000Y-72933333D01*
X104100000Y-72800000D01*
X104133333Y-72733333D01*
X104166666Y-72700000D01*
X104233333Y-72666666D01*
%TO.C,R9*%
X110816666Y-70883333D02*
X110483333Y-70650000D01*
X110816666Y-70483333D02*
X110116666Y-70483333D01*
X110116666Y-70750000D01*
X110150000Y-70816666D01*
X110183333Y-70850000D01*
X110250000Y-70883333D01*
X110350000Y-70883333D01*
X110416666Y-70850000D01*
X110450000Y-70816666D01*
X110483333Y-70750000D01*
X110483333Y-70483333D01*
X110816666Y-71216666D02*
X110816666Y-71350000D01*
X110783333Y-71416666D01*
X110750000Y-71450000D01*
X110650000Y-71516666D01*
X110516666Y-71550000D01*
X110250000Y-71550000D01*
X110183333Y-71516666D01*
X110150000Y-71483333D01*
X110116666Y-71416666D01*
X110116666Y-71283333D01*
X110150000Y-71216666D01*
X110183333Y-71183333D01*
X110250000Y-71150000D01*
X110416666Y-71150000D01*
X110483333Y-71183333D01*
X110516666Y-71216666D01*
X110550000Y-71283333D01*
X110550000Y-71416666D01*
X110516666Y-71483333D01*
X110483333Y-71516666D01*
X110416666Y-71550000D01*
%TO.C,R11*%
X114766666Y-69450000D02*
X114433333Y-69216666D01*
X114766666Y-69050000D02*
X114066666Y-69050000D01*
X114066666Y-69316666D01*
X114100000Y-69383333D01*
X114133333Y-69416666D01*
X114200000Y-69450000D01*
X114300000Y-69450000D01*
X114366666Y-69416666D01*
X114400000Y-69383333D01*
X114433333Y-69316666D01*
X114433333Y-69050000D01*
X114766666Y-70116666D02*
X114766666Y-69716666D01*
X114766666Y-69916666D02*
X114066666Y-69916666D01*
X114166666Y-69850000D01*
X114233333Y-69783333D01*
X114266666Y-69716666D01*
X114766666Y-70783333D02*
X114766666Y-70383333D01*
X114766666Y-70583333D02*
X114066666Y-70583333D01*
X114166666Y-70516666D01*
X114233333Y-70450000D01*
X114266666Y-70383333D01*
%TO.C,R12*%
X111816666Y-70900000D02*
X111483333Y-70666666D01*
X111816666Y-70500000D02*
X111116666Y-70500000D01*
X111116666Y-70766666D01*
X111150000Y-70833333D01*
X111183333Y-70866666D01*
X111250000Y-70900000D01*
X111350000Y-70900000D01*
X111416666Y-70866666D01*
X111450000Y-70833333D01*
X111483333Y-70766666D01*
X111483333Y-70500000D01*
X111816666Y-71566666D02*
X111816666Y-71166666D01*
X111816666Y-71366666D02*
X111116666Y-71366666D01*
X111216666Y-71300000D01*
X111283333Y-71233333D01*
X111316666Y-71166666D01*
X111183333Y-71833333D02*
X111150000Y-71866666D01*
X111116666Y-71933333D01*
X111116666Y-72100000D01*
X111150000Y-72166666D01*
X111183333Y-72200000D01*
X111250000Y-72233333D01*
X111316666Y-72233333D01*
X111416666Y-72200000D01*
X111816666Y-71800000D01*
X111816666Y-72233333D01*
%TO.C,U1*%
X113261904Y-76502380D02*
X113261904Y-77311904D01*
X113214285Y-77407142D01*
X113166666Y-77454761D01*
X113071428Y-77502380D01*
X112880952Y-77502380D01*
X112785714Y-77454761D01*
X112738095Y-77407142D01*
X112690476Y-77311904D01*
X112690476Y-76502380D01*
X111690476Y-77502380D02*
X112261904Y-77502380D01*
X111976190Y-77502380D02*
X111976190Y-76502380D01*
X112071428Y-76645238D01*
X112166666Y-76740476D01*
X112261904Y-76788095D01*
%TO.C,R10*%
X107371428Y-84614285D02*
X107085714Y-84414285D01*
X107371428Y-84271428D02*
X106771428Y-84271428D01*
X106771428Y-84500000D01*
X106800000Y-84557142D01*
X106828571Y-84585714D01*
X106885714Y-84614285D01*
X106971428Y-84614285D01*
X107028571Y-84585714D01*
X107057142Y-84557142D01*
X107085714Y-84500000D01*
X107085714Y-84271428D01*
X107371428Y-85185714D02*
X107371428Y-84842857D01*
X107371428Y-85014285D02*
X106771428Y-85014285D01*
X106857142Y-84957142D01*
X106914285Y-84900000D01*
X106942857Y-84842857D01*
X106771428Y-85557142D02*
X106771428Y-85614285D01*
X106800000Y-85671428D01*
X106828571Y-85700000D01*
X106885714Y-85728571D01*
X107000000Y-85757142D01*
X107142857Y-85757142D01*
X107257142Y-85728571D01*
X107314285Y-85700000D01*
X107342857Y-85671428D01*
X107371428Y-85614285D01*
X107371428Y-85557142D01*
X107342857Y-85500000D01*
X107314285Y-85471428D01*
X107257142Y-85442857D01*
X107142857Y-85414285D01*
X107000000Y-85414285D01*
X106885714Y-85442857D01*
X106828571Y-85471428D01*
X106800000Y-85500000D01*
X106771428Y-85557142D01*
%TO.C,R13*%
X113914285Y-85481904D02*
X114180952Y-85100952D01*
X114371428Y-85481904D02*
X114371428Y-84681904D01*
X114066666Y-84681904D01*
X113990476Y-84720000D01*
X113952380Y-84758095D01*
X113914285Y-84834285D01*
X113914285Y-84948571D01*
X113952380Y-85024761D01*
X113990476Y-85062857D01*
X114066666Y-85100952D01*
X114371428Y-85100952D01*
X113152380Y-85481904D02*
X113609523Y-85481904D01*
X113380952Y-85481904D02*
X113380952Y-84681904D01*
X113457142Y-84796190D01*
X113533333Y-84872380D01*
X113609523Y-84910476D01*
X112885714Y-84681904D02*
X112390476Y-84681904D01*
X112657142Y-84986666D01*
X112542857Y-84986666D01*
X112466666Y-85024761D01*
X112428571Y-85062857D01*
X112390476Y-85139047D01*
X112390476Y-85329523D01*
X112428571Y-85405714D01*
X112466666Y-85443809D01*
X112542857Y-85481904D01*
X112771428Y-85481904D01*
X112847619Y-85443809D01*
X112885714Y-85405714D01*
%TO.C,JP18*%
X104735714Y-78341428D02*
X104735714Y-78770000D01*
X104764285Y-78855714D01*
X104821428Y-78912857D01*
X104907142Y-78941428D01*
X104964285Y-78941428D01*
X104450000Y-78941428D02*
X104450000Y-78341428D01*
X104221428Y-78341428D01*
X104164285Y-78370000D01*
X104135714Y-78398571D01*
X104107142Y-78455714D01*
X104107142Y-78541428D01*
X104135714Y-78598571D01*
X104164285Y-78627142D01*
X104221428Y-78655714D01*
X104450000Y-78655714D01*
X103535714Y-78941428D02*
X103878571Y-78941428D01*
X103707142Y-78941428D02*
X103707142Y-78341428D01*
X103764285Y-78427142D01*
X103821428Y-78484285D01*
X103878571Y-78512857D01*
X103192857Y-78598571D02*
X103250000Y-78570000D01*
X103278571Y-78541428D01*
X103307142Y-78484285D01*
X103307142Y-78455714D01*
X103278571Y-78398571D01*
X103250000Y-78370000D01*
X103192857Y-78341428D01*
X103078571Y-78341428D01*
X103021428Y-78370000D01*
X102992857Y-78398571D01*
X102964285Y-78455714D01*
X102964285Y-78484285D01*
X102992857Y-78541428D01*
X103021428Y-78570000D01*
X103078571Y-78598571D01*
X103192857Y-78598571D01*
X103250000Y-78627142D01*
X103278571Y-78655714D01*
X103307142Y-78712857D01*
X103307142Y-78827142D01*
X103278571Y-78884285D01*
X103250000Y-78912857D01*
X103192857Y-78941428D01*
X103078571Y-78941428D01*
X103021428Y-78912857D01*
X102992857Y-78884285D01*
X102964285Y-78827142D01*
X102964285Y-78712857D01*
X102992857Y-78655714D01*
X103021428Y-78627142D01*
X103078571Y-78598571D01*
%TO.C,SW2*%
X126775000Y-83417857D02*
X126689285Y-83446428D01*
X126546428Y-83446428D01*
X126489285Y-83417857D01*
X126460714Y-83389285D01*
X126432142Y-83332142D01*
X126432142Y-83275000D01*
X126460714Y-83217857D01*
X126489285Y-83189285D01*
X126546428Y-83160714D01*
X126660714Y-83132142D01*
X126717857Y-83103571D01*
X126746428Y-83075000D01*
X126775000Y-83017857D01*
X126775000Y-82960714D01*
X126746428Y-82903571D01*
X126717857Y-82875000D01*
X126660714Y-82846428D01*
X126517857Y-82846428D01*
X126432142Y-82875000D01*
X126232142Y-82846428D02*
X126089285Y-83446428D01*
X125975000Y-83017857D01*
X125860714Y-83446428D01*
X125717857Y-82846428D01*
X125517857Y-82903571D02*
X125489285Y-82875000D01*
X125432142Y-82846428D01*
X125289285Y-82846428D01*
X125232142Y-82875000D01*
X125203571Y-82903571D01*
X125175000Y-82960714D01*
X125175000Y-83017857D01*
X125203571Y-83103571D01*
X125546428Y-83446428D01*
X125175000Y-83446428D01*
%TD*%
M02*
