%TF.GenerationSoftware,KiCad,Pcbnew,5.1.9*%
%TF.CreationDate,2021-01-20T22:35:35+01:00*%
%TF.ProjectId,wi-se-rewirable,77692d73-652d-4726-9577-697261626c65,rev?*%
%TF.SameCoordinates,Original*%
%TF.FileFunction,Soldermask,Top*%
%TF.FilePolarity,Negative*%
%FSLAX46Y46*%
G04 Gerber Fmt 4.6, Leading zero omitted, Abs format (unit mm)*
G04 Created by KiCad (PCBNEW 5.1.9) date 2021-01-20 22:35:35*
%MOMM*%
%LPD*%
G01*
G04 APERTURE LIST*
%ADD10R,1.000000X1.500000*%
%ADD11R,1.700000X1.700000*%
%ADD12O,1.700000X1.700000*%
%ADD13C,0.100000*%
%ADD14R,0.912500X0.850000*%
%ADD15R,4.300000X4.300000*%
G04 APERTURE END LIST*
D10*
%TO.C,SW1*%
X127025000Y-84950000D03*
X124825000Y-84950000D03*
X124825000Y-81450000D03*
X127025000Y-81450000D03*
%TD*%
%TO.C,D1*%
G36*
G01*
X117637500Y-83850000D02*
X117162500Y-83850000D01*
G75*
G02*
X116925000Y-83612500I0J237500D01*
G01*
X116925000Y-83037500D01*
G75*
G02*
X117162500Y-82800000I237500J0D01*
G01*
X117637500Y-82800000D01*
G75*
G02*
X117875000Y-83037500I0J-237500D01*
G01*
X117875000Y-83612500D01*
G75*
G02*
X117637500Y-83850000I-237500J0D01*
G01*
G37*
G36*
G01*
X117637500Y-85600000D02*
X117162500Y-85600000D01*
G75*
G02*
X116925000Y-85362500I0J237500D01*
G01*
X116925000Y-84787500D01*
G75*
G02*
X117162500Y-84550000I237500J0D01*
G01*
X117637500Y-84550000D01*
G75*
G02*
X117875000Y-84787500I0J-237500D01*
G01*
X117875000Y-85362500D01*
G75*
G02*
X117637500Y-85600000I-237500J0D01*
G01*
G37*
%TD*%
%TO.C,D2*%
G36*
G01*
X119137500Y-85600000D02*
X118662500Y-85600000D01*
G75*
G02*
X118425000Y-85362500I0J237500D01*
G01*
X118425000Y-84787500D01*
G75*
G02*
X118662500Y-84550000I237500J0D01*
G01*
X119137500Y-84550000D01*
G75*
G02*
X119375000Y-84787500I0J-237500D01*
G01*
X119375000Y-85362500D01*
G75*
G02*
X119137500Y-85600000I-237500J0D01*
G01*
G37*
G36*
G01*
X119137500Y-83850000D02*
X118662500Y-83850000D01*
G75*
G02*
X118425000Y-83612500I0J237500D01*
G01*
X118425000Y-83037500D01*
G75*
G02*
X118662500Y-82800000I237500J0D01*
G01*
X119137500Y-82800000D01*
G75*
G02*
X119375000Y-83037500I0J-237500D01*
G01*
X119375000Y-83612500D01*
G75*
G02*
X119137500Y-83850000I-237500J0D01*
G01*
G37*
%TD*%
%TO.C,D3*%
G36*
G01*
X122537500Y-83850000D02*
X122062500Y-83850000D01*
G75*
G02*
X121825000Y-83612500I0J237500D01*
G01*
X121825000Y-83037500D01*
G75*
G02*
X122062500Y-82800000I237500J0D01*
G01*
X122537500Y-82800000D01*
G75*
G02*
X122775000Y-83037500I0J-237500D01*
G01*
X122775000Y-83612500D01*
G75*
G02*
X122537500Y-83850000I-237500J0D01*
G01*
G37*
G36*
G01*
X122537500Y-85600000D02*
X122062500Y-85600000D01*
G75*
G02*
X121825000Y-85362500I0J237500D01*
G01*
X121825000Y-84787500D01*
G75*
G02*
X122062500Y-84550000I237500J0D01*
G01*
X122537500Y-84550000D01*
G75*
G02*
X122775000Y-84787500I0J-237500D01*
G01*
X122775000Y-85362500D01*
G75*
G02*
X122537500Y-85600000I-237500J0D01*
G01*
G37*
%TD*%
%TO.C,D4*%
G36*
G01*
X121037500Y-85600000D02*
X120562500Y-85600000D01*
G75*
G02*
X120325000Y-85362500I0J237500D01*
G01*
X120325000Y-84787500D01*
G75*
G02*
X120562500Y-84550000I237500J0D01*
G01*
X121037500Y-84550000D01*
G75*
G02*
X121275000Y-84787500I0J-237500D01*
G01*
X121275000Y-85362500D01*
G75*
G02*
X121037500Y-85600000I-237500J0D01*
G01*
G37*
G36*
G01*
X121037500Y-83850000D02*
X120562500Y-83850000D01*
G75*
G02*
X120325000Y-83612500I0J237500D01*
G01*
X120325000Y-83037500D01*
G75*
G02*
X120562500Y-82800000I237500J0D01*
G01*
X121037500Y-82800000D01*
G75*
G02*
X121275000Y-83037500I0J-237500D01*
G01*
X121275000Y-83612500D01*
G75*
G02*
X121037500Y-83850000I-237500J0D01*
G01*
G37*
%TD*%
D11*
%TO.C,J1*%
X104750000Y-65000000D03*
D12*
X107290000Y-65000000D03*
%TD*%
D11*
%TO.C,J2*%
X117920000Y-65000000D03*
D12*
X120460000Y-65000000D03*
X123000000Y-65000000D03*
X125540000Y-65000000D03*
%TD*%
D13*
%TO.C,JP1*%
G36*
X118649398Y-79500000D02*
G01*
X118649398Y-79524534D01*
X118644588Y-79573365D01*
X118635016Y-79621490D01*
X118620772Y-79668445D01*
X118601995Y-79713778D01*
X118578864Y-79757051D01*
X118551604Y-79797850D01*
X118520476Y-79835779D01*
X118485779Y-79870476D01*
X118447850Y-79901604D01*
X118407051Y-79928864D01*
X118363778Y-79951995D01*
X118318445Y-79970772D01*
X118271490Y-79985016D01*
X118223365Y-79994588D01*
X118174534Y-79999398D01*
X118150000Y-79999398D01*
X118150000Y-80000000D01*
X117650000Y-80000000D01*
X117650000Y-79999398D01*
X117625466Y-79999398D01*
X117576635Y-79994588D01*
X117528510Y-79985016D01*
X117481555Y-79970772D01*
X117436222Y-79951995D01*
X117392949Y-79928864D01*
X117352150Y-79901604D01*
X117314221Y-79870476D01*
X117279524Y-79835779D01*
X117248396Y-79797850D01*
X117221136Y-79757051D01*
X117198005Y-79713778D01*
X117179228Y-79668445D01*
X117164984Y-79621490D01*
X117155412Y-79573365D01*
X117150602Y-79524534D01*
X117150602Y-79500000D01*
X117150000Y-79500000D01*
X117150000Y-79000000D01*
X118650000Y-79000000D01*
X118650000Y-79500000D01*
X118649398Y-79500000D01*
G37*
G36*
X117150000Y-78700000D02*
G01*
X117150000Y-78200000D01*
X117150602Y-78200000D01*
X117150602Y-78175466D01*
X117155412Y-78126635D01*
X117164984Y-78078510D01*
X117179228Y-78031555D01*
X117198005Y-77986222D01*
X117221136Y-77942949D01*
X117248396Y-77902150D01*
X117279524Y-77864221D01*
X117314221Y-77829524D01*
X117352150Y-77798396D01*
X117392949Y-77771136D01*
X117436222Y-77748005D01*
X117481555Y-77729228D01*
X117528510Y-77714984D01*
X117576635Y-77705412D01*
X117625466Y-77700602D01*
X117650000Y-77700602D01*
X117650000Y-77700000D01*
X118150000Y-77700000D01*
X118150000Y-77700602D01*
X118174534Y-77700602D01*
X118223365Y-77705412D01*
X118271490Y-77714984D01*
X118318445Y-77729228D01*
X118363778Y-77748005D01*
X118407051Y-77771136D01*
X118447850Y-77798396D01*
X118485779Y-77829524D01*
X118520476Y-77864221D01*
X118551604Y-77902150D01*
X118578864Y-77942949D01*
X118601995Y-77986222D01*
X118620772Y-78031555D01*
X118635016Y-78078510D01*
X118644588Y-78126635D01*
X118649398Y-78175466D01*
X118649398Y-78200000D01*
X118650000Y-78200000D01*
X118650000Y-78700000D01*
X117150000Y-78700000D01*
G37*
%TD*%
%TO.C,JP2*%
G36*
X119750000Y-78700000D02*
G01*
X119750000Y-78200000D01*
X119750602Y-78200000D01*
X119750602Y-78175466D01*
X119755412Y-78126635D01*
X119764984Y-78078510D01*
X119779228Y-78031555D01*
X119798005Y-77986222D01*
X119821136Y-77942949D01*
X119848396Y-77902150D01*
X119879524Y-77864221D01*
X119914221Y-77829524D01*
X119952150Y-77798396D01*
X119992949Y-77771136D01*
X120036222Y-77748005D01*
X120081555Y-77729228D01*
X120128510Y-77714984D01*
X120176635Y-77705412D01*
X120225466Y-77700602D01*
X120250000Y-77700602D01*
X120250000Y-77700000D01*
X120750000Y-77700000D01*
X120750000Y-77700602D01*
X120774534Y-77700602D01*
X120823365Y-77705412D01*
X120871490Y-77714984D01*
X120918445Y-77729228D01*
X120963778Y-77748005D01*
X121007051Y-77771136D01*
X121047850Y-77798396D01*
X121085779Y-77829524D01*
X121120476Y-77864221D01*
X121151604Y-77902150D01*
X121178864Y-77942949D01*
X121201995Y-77986222D01*
X121220772Y-78031555D01*
X121235016Y-78078510D01*
X121244588Y-78126635D01*
X121249398Y-78175466D01*
X121249398Y-78200000D01*
X121250000Y-78200000D01*
X121250000Y-78700000D01*
X119750000Y-78700000D01*
G37*
G36*
X121249398Y-79500000D02*
G01*
X121249398Y-79524534D01*
X121244588Y-79573365D01*
X121235016Y-79621490D01*
X121220772Y-79668445D01*
X121201995Y-79713778D01*
X121178864Y-79757051D01*
X121151604Y-79797850D01*
X121120476Y-79835779D01*
X121085779Y-79870476D01*
X121047850Y-79901604D01*
X121007051Y-79928864D01*
X120963778Y-79951995D01*
X120918445Y-79970772D01*
X120871490Y-79985016D01*
X120823365Y-79994588D01*
X120774534Y-79999398D01*
X120750000Y-79999398D01*
X120750000Y-80000000D01*
X120250000Y-80000000D01*
X120250000Y-79999398D01*
X120225466Y-79999398D01*
X120176635Y-79994588D01*
X120128510Y-79985016D01*
X120081555Y-79970772D01*
X120036222Y-79951995D01*
X119992949Y-79928864D01*
X119952150Y-79901604D01*
X119914221Y-79870476D01*
X119879524Y-79835779D01*
X119848396Y-79797850D01*
X119821136Y-79757051D01*
X119798005Y-79713778D01*
X119779228Y-79668445D01*
X119764984Y-79621490D01*
X119755412Y-79573365D01*
X119750602Y-79524534D01*
X119750602Y-79500000D01*
X119750000Y-79500000D01*
X119750000Y-79000000D01*
X121250000Y-79000000D01*
X121250000Y-79500000D01*
X121249398Y-79500000D01*
G37*
%TD*%
%TO.C,JP3*%
G36*
X122350000Y-78700000D02*
G01*
X122350000Y-78200000D01*
X122350602Y-78200000D01*
X122350602Y-78175466D01*
X122355412Y-78126635D01*
X122364984Y-78078510D01*
X122379228Y-78031555D01*
X122398005Y-77986222D01*
X122421136Y-77942949D01*
X122448396Y-77902150D01*
X122479524Y-77864221D01*
X122514221Y-77829524D01*
X122552150Y-77798396D01*
X122592949Y-77771136D01*
X122636222Y-77748005D01*
X122681555Y-77729228D01*
X122728510Y-77714984D01*
X122776635Y-77705412D01*
X122825466Y-77700602D01*
X122850000Y-77700602D01*
X122850000Y-77700000D01*
X123350000Y-77700000D01*
X123350000Y-77700602D01*
X123374534Y-77700602D01*
X123423365Y-77705412D01*
X123471490Y-77714984D01*
X123518445Y-77729228D01*
X123563778Y-77748005D01*
X123607051Y-77771136D01*
X123647850Y-77798396D01*
X123685779Y-77829524D01*
X123720476Y-77864221D01*
X123751604Y-77902150D01*
X123778864Y-77942949D01*
X123801995Y-77986222D01*
X123820772Y-78031555D01*
X123835016Y-78078510D01*
X123844588Y-78126635D01*
X123849398Y-78175466D01*
X123849398Y-78200000D01*
X123850000Y-78200000D01*
X123850000Y-78700000D01*
X122350000Y-78700000D01*
G37*
G36*
X123849398Y-79500000D02*
G01*
X123849398Y-79524534D01*
X123844588Y-79573365D01*
X123835016Y-79621490D01*
X123820772Y-79668445D01*
X123801995Y-79713778D01*
X123778864Y-79757051D01*
X123751604Y-79797850D01*
X123720476Y-79835779D01*
X123685779Y-79870476D01*
X123647850Y-79901604D01*
X123607051Y-79928864D01*
X123563778Y-79951995D01*
X123518445Y-79970772D01*
X123471490Y-79985016D01*
X123423365Y-79994588D01*
X123374534Y-79999398D01*
X123350000Y-79999398D01*
X123350000Y-80000000D01*
X122850000Y-80000000D01*
X122850000Y-79999398D01*
X122825466Y-79999398D01*
X122776635Y-79994588D01*
X122728510Y-79985016D01*
X122681555Y-79970772D01*
X122636222Y-79951995D01*
X122592949Y-79928864D01*
X122552150Y-79901604D01*
X122514221Y-79870476D01*
X122479524Y-79835779D01*
X122448396Y-79797850D01*
X122421136Y-79757051D01*
X122398005Y-79713778D01*
X122379228Y-79668445D01*
X122364984Y-79621490D01*
X122355412Y-79573365D01*
X122350602Y-79524534D01*
X122350602Y-79500000D01*
X122350000Y-79500000D01*
X122350000Y-79000000D01*
X123850000Y-79000000D01*
X123850000Y-79500000D01*
X123849398Y-79500000D01*
G37*
%TD*%
%TO.C,JP4*%
G36*
X126449398Y-79500000D02*
G01*
X126449398Y-79524534D01*
X126444588Y-79573365D01*
X126435016Y-79621490D01*
X126420772Y-79668445D01*
X126401995Y-79713778D01*
X126378864Y-79757051D01*
X126351604Y-79797850D01*
X126320476Y-79835779D01*
X126285779Y-79870476D01*
X126247850Y-79901604D01*
X126207051Y-79928864D01*
X126163778Y-79951995D01*
X126118445Y-79970772D01*
X126071490Y-79985016D01*
X126023365Y-79994588D01*
X125974534Y-79999398D01*
X125950000Y-79999398D01*
X125950000Y-80000000D01*
X125450000Y-80000000D01*
X125450000Y-79999398D01*
X125425466Y-79999398D01*
X125376635Y-79994588D01*
X125328510Y-79985016D01*
X125281555Y-79970772D01*
X125236222Y-79951995D01*
X125192949Y-79928864D01*
X125152150Y-79901604D01*
X125114221Y-79870476D01*
X125079524Y-79835779D01*
X125048396Y-79797850D01*
X125021136Y-79757051D01*
X124998005Y-79713778D01*
X124979228Y-79668445D01*
X124964984Y-79621490D01*
X124955412Y-79573365D01*
X124950602Y-79524534D01*
X124950602Y-79500000D01*
X124950000Y-79500000D01*
X124950000Y-79000000D01*
X126450000Y-79000000D01*
X126450000Y-79500000D01*
X126449398Y-79500000D01*
G37*
G36*
X124950000Y-78700000D02*
G01*
X124950000Y-78200000D01*
X124950602Y-78200000D01*
X124950602Y-78175466D01*
X124955412Y-78126635D01*
X124964984Y-78078510D01*
X124979228Y-78031555D01*
X124998005Y-77986222D01*
X125021136Y-77942949D01*
X125048396Y-77902150D01*
X125079524Y-77864221D01*
X125114221Y-77829524D01*
X125152150Y-77798396D01*
X125192949Y-77771136D01*
X125236222Y-77748005D01*
X125281555Y-77729228D01*
X125328510Y-77714984D01*
X125376635Y-77705412D01*
X125425466Y-77700602D01*
X125450000Y-77700602D01*
X125450000Y-77700000D01*
X125950000Y-77700000D01*
X125950000Y-77700602D01*
X125974534Y-77700602D01*
X126023365Y-77705412D01*
X126071490Y-77714984D01*
X126118445Y-77729228D01*
X126163778Y-77748005D01*
X126207051Y-77771136D01*
X126247850Y-77798396D01*
X126285779Y-77829524D01*
X126320476Y-77864221D01*
X126351604Y-77902150D01*
X126378864Y-77942949D01*
X126401995Y-77986222D01*
X126420772Y-78031555D01*
X126435016Y-78078510D01*
X126444588Y-78126635D01*
X126449398Y-78175466D01*
X126449398Y-78200000D01*
X126450000Y-78200000D01*
X126450000Y-78700000D01*
X124950000Y-78700000D01*
G37*
%TD*%
%TO.C,JP5*%
G36*
X118649398Y-69350000D02*
G01*
X118649398Y-69374534D01*
X118644588Y-69423365D01*
X118635016Y-69471490D01*
X118620772Y-69518445D01*
X118601995Y-69563778D01*
X118578864Y-69607051D01*
X118551604Y-69647850D01*
X118520476Y-69685779D01*
X118485779Y-69720476D01*
X118447850Y-69751604D01*
X118407051Y-69778864D01*
X118363778Y-69801995D01*
X118318445Y-69820772D01*
X118271490Y-69835016D01*
X118223365Y-69844588D01*
X118174534Y-69849398D01*
X118150000Y-69849398D01*
X118150000Y-69850000D01*
X117650000Y-69850000D01*
X117650000Y-69849398D01*
X117625466Y-69849398D01*
X117576635Y-69844588D01*
X117528510Y-69835016D01*
X117481555Y-69820772D01*
X117436222Y-69801995D01*
X117392949Y-69778864D01*
X117352150Y-69751604D01*
X117314221Y-69720476D01*
X117279524Y-69685779D01*
X117248396Y-69647850D01*
X117221136Y-69607051D01*
X117198005Y-69563778D01*
X117179228Y-69518445D01*
X117164984Y-69471490D01*
X117155412Y-69423365D01*
X117150602Y-69374534D01*
X117150602Y-69350000D01*
X117150000Y-69350000D01*
X117150000Y-68850000D01*
X118650000Y-68850000D01*
X118650000Y-69350000D01*
X118649398Y-69350000D01*
G37*
G36*
X117150000Y-68550000D02*
G01*
X117150000Y-68050000D01*
X117150602Y-68050000D01*
X117150602Y-68025466D01*
X117155412Y-67976635D01*
X117164984Y-67928510D01*
X117179228Y-67881555D01*
X117198005Y-67836222D01*
X117221136Y-67792949D01*
X117248396Y-67752150D01*
X117279524Y-67714221D01*
X117314221Y-67679524D01*
X117352150Y-67648396D01*
X117392949Y-67621136D01*
X117436222Y-67598005D01*
X117481555Y-67579228D01*
X117528510Y-67564984D01*
X117576635Y-67555412D01*
X117625466Y-67550602D01*
X117650000Y-67550602D01*
X117650000Y-67550000D01*
X118150000Y-67550000D01*
X118150000Y-67550602D01*
X118174534Y-67550602D01*
X118223365Y-67555412D01*
X118271490Y-67564984D01*
X118318445Y-67579228D01*
X118363778Y-67598005D01*
X118407051Y-67621136D01*
X118447850Y-67648396D01*
X118485779Y-67679524D01*
X118520476Y-67714221D01*
X118551604Y-67752150D01*
X118578864Y-67792949D01*
X118601995Y-67836222D01*
X118620772Y-67881555D01*
X118635016Y-67928510D01*
X118644588Y-67976635D01*
X118649398Y-68025466D01*
X118649398Y-68050000D01*
X118650000Y-68050000D01*
X118650000Y-68550000D01*
X117150000Y-68550000D01*
G37*
%TD*%
%TO.C,JP6*%
G36*
X121249398Y-69350000D02*
G01*
X121249398Y-69374534D01*
X121244588Y-69423365D01*
X121235016Y-69471490D01*
X121220772Y-69518445D01*
X121201995Y-69563778D01*
X121178864Y-69607051D01*
X121151604Y-69647850D01*
X121120476Y-69685779D01*
X121085779Y-69720476D01*
X121047850Y-69751604D01*
X121007051Y-69778864D01*
X120963778Y-69801995D01*
X120918445Y-69820772D01*
X120871490Y-69835016D01*
X120823365Y-69844588D01*
X120774534Y-69849398D01*
X120750000Y-69849398D01*
X120750000Y-69850000D01*
X120250000Y-69850000D01*
X120250000Y-69849398D01*
X120225466Y-69849398D01*
X120176635Y-69844588D01*
X120128510Y-69835016D01*
X120081555Y-69820772D01*
X120036222Y-69801995D01*
X119992949Y-69778864D01*
X119952150Y-69751604D01*
X119914221Y-69720476D01*
X119879524Y-69685779D01*
X119848396Y-69647850D01*
X119821136Y-69607051D01*
X119798005Y-69563778D01*
X119779228Y-69518445D01*
X119764984Y-69471490D01*
X119755412Y-69423365D01*
X119750602Y-69374534D01*
X119750602Y-69350000D01*
X119750000Y-69350000D01*
X119750000Y-68850000D01*
X121250000Y-68850000D01*
X121250000Y-69350000D01*
X121249398Y-69350000D01*
G37*
G36*
X119750000Y-68550000D02*
G01*
X119750000Y-68050000D01*
X119750602Y-68050000D01*
X119750602Y-68025466D01*
X119755412Y-67976635D01*
X119764984Y-67928510D01*
X119779228Y-67881555D01*
X119798005Y-67836222D01*
X119821136Y-67792949D01*
X119848396Y-67752150D01*
X119879524Y-67714221D01*
X119914221Y-67679524D01*
X119952150Y-67648396D01*
X119992949Y-67621136D01*
X120036222Y-67598005D01*
X120081555Y-67579228D01*
X120128510Y-67564984D01*
X120176635Y-67555412D01*
X120225466Y-67550602D01*
X120250000Y-67550602D01*
X120250000Y-67550000D01*
X120750000Y-67550000D01*
X120750000Y-67550602D01*
X120774534Y-67550602D01*
X120823365Y-67555412D01*
X120871490Y-67564984D01*
X120918445Y-67579228D01*
X120963778Y-67598005D01*
X121007051Y-67621136D01*
X121047850Y-67648396D01*
X121085779Y-67679524D01*
X121120476Y-67714221D01*
X121151604Y-67752150D01*
X121178864Y-67792949D01*
X121201995Y-67836222D01*
X121220772Y-67881555D01*
X121235016Y-67928510D01*
X121244588Y-67976635D01*
X121249398Y-68025466D01*
X121249398Y-68050000D01*
X121250000Y-68050000D01*
X121250000Y-68550000D01*
X119750000Y-68550000D01*
G37*
%TD*%
%TO.C,JP7*%
G36*
X123849398Y-69350000D02*
G01*
X123849398Y-69374534D01*
X123844588Y-69423365D01*
X123835016Y-69471490D01*
X123820772Y-69518445D01*
X123801995Y-69563778D01*
X123778864Y-69607051D01*
X123751604Y-69647850D01*
X123720476Y-69685779D01*
X123685779Y-69720476D01*
X123647850Y-69751604D01*
X123607051Y-69778864D01*
X123563778Y-69801995D01*
X123518445Y-69820772D01*
X123471490Y-69835016D01*
X123423365Y-69844588D01*
X123374534Y-69849398D01*
X123350000Y-69849398D01*
X123350000Y-69850000D01*
X122850000Y-69850000D01*
X122850000Y-69849398D01*
X122825466Y-69849398D01*
X122776635Y-69844588D01*
X122728510Y-69835016D01*
X122681555Y-69820772D01*
X122636222Y-69801995D01*
X122592949Y-69778864D01*
X122552150Y-69751604D01*
X122514221Y-69720476D01*
X122479524Y-69685779D01*
X122448396Y-69647850D01*
X122421136Y-69607051D01*
X122398005Y-69563778D01*
X122379228Y-69518445D01*
X122364984Y-69471490D01*
X122355412Y-69423365D01*
X122350602Y-69374534D01*
X122350602Y-69350000D01*
X122350000Y-69350000D01*
X122350000Y-68850000D01*
X123850000Y-68850000D01*
X123850000Y-69350000D01*
X123849398Y-69350000D01*
G37*
G36*
X122350000Y-68550000D02*
G01*
X122350000Y-68050000D01*
X122350602Y-68050000D01*
X122350602Y-68025466D01*
X122355412Y-67976635D01*
X122364984Y-67928510D01*
X122379228Y-67881555D01*
X122398005Y-67836222D01*
X122421136Y-67792949D01*
X122448396Y-67752150D01*
X122479524Y-67714221D01*
X122514221Y-67679524D01*
X122552150Y-67648396D01*
X122592949Y-67621136D01*
X122636222Y-67598005D01*
X122681555Y-67579228D01*
X122728510Y-67564984D01*
X122776635Y-67555412D01*
X122825466Y-67550602D01*
X122850000Y-67550602D01*
X122850000Y-67550000D01*
X123350000Y-67550000D01*
X123350000Y-67550602D01*
X123374534Y-67550602D01*
X123423365Y-67555412D01*
X123471490Y-67564984D01*
X123518445Y-67579228D01*
X123563778Y-67598005D01*
X123607051Y-67621136D01*
X123647850Y-67648396D01*
X123685779Y-67679524D01*
X123720476Y-67714221D01*
X123751604Y-67752150D01*
X123778864Y-67792949D01*
X123801995Y-67836222D01*
X123820772Y-67881555D01*
X123835016Y-67928510D01*
X123844588Y-67976635D01*
X123849398Y-68025466D01*
X123849398Y-68050000D01*
X123850000Y-68050000D01*
X123850000Y-68550000D01*
X122350000Y-68550000D01*
G37*
%TD*%
%TO.C,JP8*%
G36*
X124950000Y-68550000D02*
G01*
X124950000Y-68050000D01*
X124950602Y-68050000D01*
X124950602Y-68025466D01*
X124955412Y-67976635D01*
X124964984Y-67928510D01*
X124979228Y-67881555D01*
X124998005Y-67836222D01*
X125021136Y-67792949D01*
X125048396Y-67752150D01*
X125079524Y-67714221D01*
X125114221Y-67679524D01*
X125152150Y-67648396D01*
X125192949Y-67621136D01*
X125236222Y-67598005D01*
X125281555Y-67579228D01*
X125328510Y-67564984D01*
X125376635Y-67555412D01*
X125425466Y-67550602D01*
X125450000Y-67550602D01*
X125450000Y-67550000D01*
X125950000Y-67550000D01*
X125950000Y-67550602D01*
X125974534Y-67550602D01*
X126023365Y-67555412D01*
X126071490Y-67564984D01*
X126118445Y-67579228D01*
X126163778Y-67598005D01*
X126207051Y-67621136D01*
X126247850Y-67648396D01*
X126285779Y-67679524D01*
X126320476Y-67714221D01*
X126351604Y-67752150D01*
X126378864Y-67792949D01*
X126401995Y-67836222D01*
X126420772Y-67881555D01*
X126435016Y-67928510D01*
X126444588Y-67976635D01*
X126449398Y-68025466D01*
X126449398Y-68050000D01*
X126450000Y-68050000D01*
X126450000Y-68550000D01*
X124950000Y-68550000D01*
G37*
G36*
X126449398Y-69350000D02*
G01*
X126449398Y-69374534D01*
X126444588Y-69423365D01*
X126435016Y-69471490D01*
X126420772Y-69518445D01*
X126401995Y-69563778D01*
X126378864Y-69607051D01*
X126351604Y-69647850D01*
X126320476Y-69685779D01*
X126285779Y-69720476D01*
X126247850Y-69751604D01*
X126207051Y-69778864D01*
X126163778Y-69801995D01*
X126118445Y-69820772D01*
X126071490Y-69835016D01*
X126023365Y-69844588D01*
X125974534Y-69849398D01*
X125950000Y-69849398D01*
X125950000Y-69850000D01*
X125450000Y-69850000D01*
X125450000Y-69849398D01*
X125425466Y-69849398D01*
X125376635Y-69844588D01*
X125328510Y-69835016D01*
X125281555Y-69820772D01*
X125236222Y-69801995D01*
X125192949Y-69778864D01*
X125152150Y-69751604D01*
X125114221Y-69720476D01*
X125079524Y-69685779D01*
X125048396Y-69647850D01*
X125021136Y-69607051D01*
X124998005Y-69563778D01*
X124979228Y-69518445D01*
X124964984Y-69471490D01*
X124955412Y-69423365D01*
X124950602Y-69374534D01*
X124950602Y-69350000D01*
X124950000Y-69350000D01*
X124950000Y-68850000D01*
X126450000Y-68850000D01*
X126450000Y-69350000D01*
X126449398Y-69350000D01*
G37*
%TD*%
%TO.C,JP9*%
G36*
X117150000Y-71950000D02*
G01*
X117150000Y-71450000D01*
X117150602Y-71450000D01*
X117150602Y-71425466D01*
X117155412Y-71376635D01*
X117164984Y-71328510D01*
X117179228Y-71281555D01*
X117198005Y-71236222D01*
X117221136Y-71192949D01*
X117248396Y-71152150D01*
X117279524Y-71114221D01*
X117314221Y-71079524D01*
X117352150Y-71048396D01*
X117392949Y-71021136D01*
X117436222Y-70998005D01*
X117481555Y-70979228D01*
X117528510Y-70964984D01*
X117576635Y-70955412D01*
X117625466Y-70950602D01*
X117650000Y-70950602D01*
X117650000Y-70950000D01*
X118150000Y-70950000D01*
X118150000Y-70950602D01*
X118174534Y-70950602D01*
X118223365Y-70955412D01*
X118271490Y-70964984D01*
X118318445Y-70979228D01*
X118363778Y-70998005D01*
X118407051Y-71021136D01*
X118447850Y-71048396D01*
X118485779Y-71079524D01*
X118520476Y-71114221D01*
X118551604Y-71152150D01*
X118578864Y-71192949D01*
X118601995Y-71236222D01*
X118620772Y-71281555D01*
X118635016Y-71328510D01*
X118644588Y-71376635D01*
X118649398Y-71425466D01*
X118649398Y-71450000D01*
X118650000Y-71450000D01*
X118650000Y-71950000D01*
X117150000Y-71950000D01*
G37*
G36*
X118649398Y-72750000D02*
G01*
X118649398Y-72774534D01*
X118644588Y-72823365D01*
X118635016Y-72871490D01*
X118620772Y-72918445D01*
X118601995Y-72963778D01*
X118578864Y-73007051D01*
X118551604Y-73047850D01*
X118520476Y-73085779D01*
X118485779Y-73120476D01*
X118447850Y-73151604D01*
X118407051Y-73178864D01*
X118363778Y-73201995D01*
X118318445Y-73220772D01*
X118271490Y-73235016D01*
X118223365Y-73244588D01*
X118174534Y-73249398D01*
X118150000Y-73249398D01*
X118150000Y-73250000D01*
X117650000Y-73250000D01*
X117650000Y-73249398D01*
X117625466Y-73249398D01*
X117576635Y-73244588D01*
X117528510Y-73235016D01*
X117481555Y-73220772D01*
X117436222Y-73201995D01*
X117392949Y-73178864D01*
X117352150Y-73151604D01*
X117314221Y-73120476D01*
X117279524Y-73085779D01*
X117248396Y-73047850D01*
X117221136Y-73007051D01*
X117198005Y-72963778D01*
X117179228Y-72918445D01*
X117164984Y-72871490D01*
X117155412Y-72823365D01*
X117150602Y-72774534D01*
X117150602Y-72750000D01*
X117150000Y-72750000D01*
X117150000Y-72250000D01*
X118650000Y-72250000D01*
X118650000Y-72750000D01*
X118649398Y-72750000D01*
G37*
%TD*%
%TO.C,JP10*%
G36*
X119750000Y-71950000D02*
G01*
X119750000Y-71450000D01*
X119750602Y-71450000D01*
X119750602Y-71425466D01*
X119755412Y-71376635D01*
X119764984Y-71328510D01*
X119779228Y-71281555D01*
X119798005Y-71236222D01*
X119821136Y-71192949D01*
X119848396Y-71152150D01*
X119879524Y-71114221D01*
X119914221Y-71079524D01*
X119952150Y-71048396D01*
X119992949Y-71021136D01*
X120036222Y-70998005D01*
X120081555Y-70979228D01*
X120128510Y-70964984D01*
X120176635Y-70955412D01*
X120225466Y-70950602D01*
X120250000Y-70950602D01*
X120250000Y-70950000D01*
X120750000Y-70950000D01*
X120750000Y-70950602D01*
X120774534Y-70950602D01*
X120823365Y-70955412D01*
X120871490Y-70964984D01*
X120918445Y-70979228D01*
X120963778Y-70998005D01*
X121007051Y-71021136D01*
X121047850Y-71048396D01*
X121085779Y-71079524D01*
X121120476Y-71114221D01*
X121151604Y-71152150D01*
X121178864Y-71192949D01*
X121201995Y-71236222D01*
X121220772Y-71281555D01*
X121235016Y-71328510D01*
X121244588Y-71376635D01*
X121249398Y-71425466D01*
X121249398Y-71450000D01*
X121250000Y-71450000D01*
X121250000Y-71950000D01*
X119750000Y-71950000D01*
G37*
G36*
X121249398Y-72750000D02*
G01*
X121249398Y-72774534D01*
X121244588Y-72823365D01*
X121235016Y-72871490D01*
X121220772Y-72918445D01*
X121201995Y-72963778D01*
X121178864Y-73007051D01*
X121151604Y-73047850D01*
X121120476Y-73085779D01*
X121085779Y-73120476D01*
X121047850Y-73151604D01*
X121007051Y-73178864D01*
X120963778Y-73201995D01*
X120918445Y-73220772D01*
X120871490Y-73235016D01*
X120823365Y-73244588D01*
X120774534Y-73249398D01*
X120750000Y-73249398D01*
X120750000Y-73250000D01*
X120250000Y-73250000D01*
X120250000Y-73249398D01*
X120225466Y-73249398D01*
X120176635Y-73244588D01*
X120128510Y-73235016D01*
X120081555Y-73220772D01*
X120036222Y-73201995D01*
X119992949Y-73178864D01*
X119952150Y-73151604D01*
X119914221Y-73120476D01*
X119879524Y-73085779D01*
X119848396Y-73047850D01*
X119821136Y-73007051D01*
X119798005Y-72963778D01*
X119779228Y-72918445D01*
X119764984Y-72871490D01*
X119755412Y-72823365D01*
X119750602Y-72774534D01*
X119750602Y-72750000D01*
X119750000Y-72750000D01*
X119750000Y-72250000D01*
X121250000Y-72250000D01*
X121250000Y-72750000D01*
X121249398Y-72750000D01*
G37*
%TD*%
%TO.C,JP11*%
G36*
X122350000Y-71950000D02*
G01*
X122350000Y-71450000D01*
X122350602Y-71450000D01*
X122350602Y-71425466D01*
X122355412Y-71376635D01*
X122364984Y-71328510D01*
X122379228Y-71281555D01*
X122398005Y-71236222D01*
X122421136Y-71192949D01*
X122448396Y-71152150D01*
X122479524Y-71114221D01*
X122514221Y-71079524D01*
X122552150Y-71048396D01*
X122592949Y-71021136D01*
X122636222Y-70998005D01*
X122681555Y-70979228D01*
X122728510Y-70964984D01*
X122776635Y-70955412D01*
X122825466Y-70950602D01*
X122850000Y-70950602D01*
X122850000Y-70950000D01*
X123350000Y-70950000D01*
X123350000Y-70950602D01*
X123374534Y-70950602D01*
X123423365Y-70955412D01*
X123471490Y-70964984D01*
X123518445Y-70979228D01*
X123563778Y-70998005D01*
X123607051Y-71021136D01*
X123647850Y-71048396D01*
X123685779Y-71079524D01*
X123720476Y-71114221D01*
X123751604Y-71152150D01*
X123778864Y-71192949D01*
X123801995Y-71236222D01*
X123820772Y-71281555D01*
X123835016Y-71328510D01*
X123844588Y-71376635D01*
X123849398Y-71425466D01*
X123849398Y-71450000D01*
X123850000Y-71450000D01*
X123850000Y-71950000D01*
X122350000Y-71950000D01*
G37*
G36*
X123849398Y-72750000D02*
G01*
X123849398Y-72774534D01*
X123844588Y-72823365D01*
X123835016Y-72871490D01*
X123820772Y-72918445D01*
X123801995Y-72963778D01*
X123778864Y-73007051D01*
X123751604Y-73047850D01*
X123720476Y-73085779D01*
X123685779Y-73120476D01*
X123647850Y-73151604D01*
X123607051Y-73178864D01*
X123563778Y-73201995D01*
X123518445Y-73220772D01*
X123471490Y-73235016D01*
X123423365Y-73244588D01*
X123374534Y-73249398D01*
X123350000Y-73249398D01*
X123350000Y-73250000D01*
X122850000Y-73250000D01*
X122850000Y-73249398D01*
X122825466Y-73249398D01*
X122776635Y-73244588D01*
X122728510Y-73235016D01*
X122681555Y-73220772D01*
X122636222Y-73201995D01*
X122592949Y-73178864D01*
X122552150Y-73151604D01*
X122514221Y-73120476D01*
X122479524Y-73085779D01*
X122448396Y-73047850D01*
X122421136Y-73007051D01*
X122398005Y-72963778D01*
X122379228Y-72918445D01*
X122364984Y-72871490D01*
X122355412Y-72823365D01*
X122350602Y-72774534D01*
X122350602Y-72750000D01*
X122350000Y-72750000D01*
X122350000Y-72250000D01*
X123850000Y-72250000D01*
X123850000Y-72750000D01*
X123849398Y-72750000D01*
G37*
%TD*%
%TO.C,JP12*%
G36*
X126449398Y-72750000D02*
G01*
X126449398Y-72774534D01*
X126444588Y-72823365D01*
X126435016Y-72871490D01*
X126420772Y-72918445D01*
X126401995Y-72963778D01*
X126378864Y-73007051D01*
X126351604Y-73047850D01*
X126320476Y-73085779D01*
X126285779Y-73120476D01*
X126247850Y-73151604D01*
X126207051Y-73178864D01*
X126163778Y-73201995D01*
X126118445Y-73220772D01*
X126071490Y-73235016D01*
X126023365Y-73244588D01*
X125974534Y-73249398D01*
X125950000Y-73249398D01*
X125950000Y-73250000D01*
X125450000Y-73250000D01*
X125450000Y-73249398D01*
X125425466Y-73249398D01*
X125376635Y-73244588D01*
X125328510Y-73235016D01*
X125281555Y-73220772D01*
X125236222Y-73201995D01*
X125192949Y-73178864D01*
X125152150Y-73151604D01*
X125114221Y-73120476D01*
X125079524Y-73085779D01*
X125048396Y-73047850D01*
X125021136Y-73007051D01*
X124998005Y-72963778D01*
X124979228Y-72918445D01*
X124964984Y-72871490D01*
X124955412Y-72823365D01*
X124950602Y-72774534D01*
X124950602Y-72750000D01*
X124950000Y-72750000D01*
X124950000Y-72250000D01*
X126450000Y-72250000D01*
X126450000Y-72750000D01*
X126449398Y-72750000D01*
G37*
G36*
X124950000Y-71950000D02*
G01*
X124950000Y-71450000D01*
X124950602Y-71450000D01*
X124950602Y-71425466D01*
X124955412Y-71376635D01*
X124964984Y-71328510D01*
X124979228Y-71281555D01*
X124998005Y-71236222D01*
X125021136Y-71192949D01*
X125048396Y-71152150D01*
X125079524Y-71114221D01*
X125114221Y-71079524D01*
X125152150Y-71048396D01*
X125192949Y-71021136D01*
X125236222Y-70998005D01*
X125281555Y-70979228D01*
X125328510Y-70964984D01*
X125376635Y-70955412D01*
X125425466Y-70950602D01*
X125450000Y-70950602D01*
X125450000Y-70950000D01*
X125950000Y-70950000D01*
X125950000Y-70950602D01*
X125974534Y-70950602D01*
X126023365Y-70955412D01*
X126071490Y-70964984D01*
X126118445Y-70979228D01*
X126163778Y-70998005D01*
X126207051Y-71021136D01*
X126247850Y-71048396D01*
X126285779Y-71079524D01*
X126320476Y-71114221D01*
X126351604Y-71152150D01*
X126378864Y-71192949D01*
X126401995Y-71236222D01*
X126420772Y-71281555D01*
X126435016Y-71328510D01*
X126444588Y-71376635D01*
X126449398Y-71425466D01*
X126449398Y-71450000D01*
X126450000Y-71450000D01*
X126450000Y-71950000D01*
X124950000Y-71950000D01*
G37*
%TD*%
%TO.C,JP13*%
G36*
X118649398Y-76150000D02*
G01*
X118649398Y-76174534D01*
X118644588Y-76223365D01*
X118635016Y-76271490D01*
X118620772Y-76318445D01*
X118601995Y-76363778D01*
X118578864Y-76407051D01*
X118551604Y-76447850D01*
X118520476Y-76485779D01*
X118485779Y-76520476D01*
X118447850Y-76551604D01*
X118407051Y-76578864D01*
X118363778Y-76601995D01*
X118318445Y-76620772D01*
X118271490Y-76635016D01*
X118223365Y-76644588D01*
X118174534Y-76649398D01*
X118150000Y-76649398D01*
X118150000Y-76650000D01*
X117650000Y-76650000D01*
X117650000Y-76649398D01*
X117625466Y-76649398D01*
X117576635Y-76644588D01*
X117528510Y-76635016D01*
X117481555Y-76620772D01*
X117436222Y-76601995D01*
X117392949Y-76578864D01*
X117352150Y-76551604D01*
X117314221Y-76520476D01*
X117279524Y-76485779D01*
X117248396Y-76447850D01*
X117221136Y-76407051D01*
X117198005Y-76363778D01*
X117179228Y-76318445D01*
X117164984Y-76271490D01*
X117155412Y-76223365D01*
X117150602Y-76174534D01*
X117150602Y-76150000D01*
X117150000Y-76150000D01*
X117150000Y-75650000D01*
X118650000Y-75650000D01*
X118650000Y-76150000D01*
X118649398Y-76150000D01*
G37*
G36*
X117150000Y-75350000D02*
G01*
X117150000Y-74850000D01*
X117150602Y-74850000D01*
X117150602Y-74825466D01*
X117155412Y-74776635D01*
X117164984Y-74728510D01*
X117179228Y-74681555D01*
X117198005Y-74636222D01*
X117221136Y-74592949D01*
X117248396Y-74552150D01*
X117279524Y-74514221D01*
X117314221Y-74479524D01*
X117352150Y-74448396D01*
X117392949Y-74421136D01*
X117436222Y-74398005D01*
X117481555Y-74379228D01*
X117528510Y-74364984D01*
X117576635Y-74355412D01*
X117625466Y-74350602D01*
X117650000Y-74350602D01*
X117650000Y-74350000D01*
X118150000Y-74350000D01*
X118150000Y-74350602D01*
X118174534Y-74350602D01*
X118223365Y-74355412D01*
X118271490Y-74364984D01*
X118318445Y-74379228D01*
X118363778Y-74398005D01*
X118407051Y-74421136D01*
X118447850Y-74448396D01*
X118485779Y-74479524D01*
X118520476Y-74514221D01*
X118551604Y-74552150D01*
X118578864Y-74592949D01*
X118601995Y-74636222D01*
X118620772Y-74681555D01*
X118635016Y-74728510D01*
X118644588Y-74776635D01*
X118649398Y-74825466D01*
X118649398Y-74850000D01*
X118650000Y-74850000D01*
X118650000Y-75350000D01*
X117150000Y-75350000D01*
G37*
%TD*%
%TO.C,JP14*%
G36*
X121249398Y-76150000D02*
G01*
X121249398Y-76174534D01*
X121244588Y-76223365D01*
X121235016Y-76271490D01*
X121220772Y-76318445D01*
X121201995Y-76363778D01*
X121178864Y-76407051D01*
X121151604Y-76447850D01*
X121120476Y-76485779D01*
X121085779Y-76520476D01*
X121047850Y-76551604D01*
X121007051Y-76578864D01*
X120963778Y-76601995D01*
X120918445Y-76620772D01*
X120871490Y-76635016D01*
X120823365Y-76644588D01*
X120774534Y-76649398D01*
X120750000Y-76649398D01*
X120750000Y-76650000D01*
X120250000Y-76650000D01*
X120250000Y-76649398D01*
X120225466Y-76649398D01*
X120176635Y-76644588D01*
X120128510Y-76635016D01*
X120081555Y-76620772D01*
X120036222Y-76601995D01*
X119992949Y-76578864D01*
X119952150Y-76551604D01*
X119914221Y-76520476D01*
X119879524Y-76485779D01*
X119848396Y-76447850D01*
X119821136Y-76407051D01*
X119798005Y-76363778D01*
X119779228Y-76318445D01*
X119764984Y-76271490D01*
X119755412Y-76223365D01*
X119750602Y-76174534D01*
X119750602Y-76150000D01*
X119750000Y-76150000D01*
X119750000Y-75650000D01*
X121250000Y-75650000D01*
X121250000Y-76150000D01*
X121249398Y-76150000D01*
G37*
G36*
X119750000Y-75350000D02*
G01*
X119750000Y-74850000D01*
X119750602Y-74850000D01*
X119750602Y-74825466D01*
X119755412Y-74776635D01*
X119764984Y-74728510D01*
X119779228Y-74681555D01*
X119798005Y-74636222D01*
X119821136Y-74592949D01*
X119848396Y-74552150D01*
X119879524Y-74514221D01*
X119914221Y-74479524D01*
X119952150Y-74448396D01*
X119992949Y-74421136D01*
X120036222Y-74398005D01*
X120081555Y-74379228D01*
X120128510Y-74364984D01*
X120176635Y-74355412D01*
X120225466Y-74350602D01*
X120250000Y-74350602D01*
X120250000Y-74350000D01*
X120750000Y-74350000D01*
X120750000Y-74350602D01*
X120774534Y-74350602D01*
X120823365Y-74355412D01*
X120871490Y-74364984D01*
X120918445Y-74379228D01*
X120963778Y-74398005D01*
X121007051Y-74421136D01*
X121047850Y-74448396D01*
X121085779Y-74479524D01*
X121120476Y-74514221D01*
X121151604Y-74552150D01*
X121178864Y-74592949D01*
X121201995Y-74636222D01*
X121220772Y-74681555D01*
X121235016Y-74728510D01*
X121244588Y-74776635D01*
X121249398Y-74825466D01*
X121249398Y-74850000D01*
X121250000Y-74850000D01*
X121250000Y-75350000D01*
X119750000Y-75350000D01*
G37*
%TD*%
%TO.C,JP15*%
G36*
X122350000Y-75350000D02*
G01*
X122350000Y-74850000D01*
X122350602Y-74850000D01*
X122350602Y-74825466D01*
X122355412Y-74776635D01*
X122364984Y-74728510D01*
X122379228Y-74681555D01*
X122398005Y-74636222D01*
X122421136Y-74592949D01*
X122448396Y-74552150D01*
X122479524Y-74514221D01*
X122514221Y-74479524D01*
X122552150Y-74448396D01*
X122592949Y-74421136D01*
X122636222Y-74398005D01*
X122681555Y-74379228D01*
X122728510Y-74364984D01*
X122776635Y-74355412D01*
X122825466Y-74350602D01*
X122850000Y-74350602D01*
X122850000Y-74350000D01*
X123350000Y-74350000D01*
X123350000Y-74350602D01*
X123374534Y-74350602D01*
X123423365Y-74355412D01*
X123471490Y-74364984D01*
X123518445Y-74379228D01*
X123563778Y-74398005D01*
X123607051Y-74421136D01*
X123647850Y-74448396D01*
X123685779Y-74479524D01*
X123720476Y-74514221D01*
X123751604Y-74552150D01*
X123778864Y-74592949D01*
X123801995Y-74636222D01*
X123820772Y-74681555D01*
X123835016Y-74728510D01*
X123844588Y-74776635D01*
X123849398Y-74825466D01*
X123849398Y-74850000D01*
X123850000Y-74850000D01*
X123850000Y-75350000D01*
X122350000Y-75350000D01*
G37*
G36*
X123849398Y-76150000D02*
G01*
X123849398Y-76174534D01*
X123844588Y-76223365D01*
X123835016Y-76271490D01*
X123820772Y-76318445D01*
X123801995Y-76363778D01*
X123778864Y-76407051D01*
X123751604Y-76447850D01*
X123720476Y-76485779D01*
X123685779Y-76520476D01*
X123647850Y-76551604D01*
X123607051Y-76578864D01*
X123563778Y-76601995D01*
X123518445Y-76620772D01*
X123471490Y-76635016D01*
X123423365Y-76644588D01*
X123374534Y-76649398D01*
X123350000Y-76649398D01*
X123350000Y-76650000D01*
X122850000Y-76650000D01*
X122850000Y-76649398D01*
X122825466Y-76649398D01*
X122776635Y-76644588D01*
X122728510Y-76635016D01*
X122681555Y-76620772D01*
X122636222Y-76601995D01*
X122592949Y-76578864D01*
X122552150Y-76551604D01*
X122514221Y-76520476D01*
X122479524Y-76485779D01*
X122448396Y-76447850D01*
X122421136Y-76407051D01*
X122398005Y-76363778D01*
X122379228Y-76318445D01*
X122364984Y-76271490D01*
X122355412Y-76223365D01*
X122350602Y-76174534D01*
X122350602Y-76150000D01*
X122350000Y-76150000D01*
X122350000Y-75650000D01*
X123850000Y-75650000D01*
X123850000Y-76150000D01*
X123849398Y-76150000D01*
G37*
%TD*%
%TO.C,JP16*%
G36*
X124950000Y-75350000D02*
G01*
X124950000Y-74850000D01*
X124950602Y-74850000D01*
X124950602Y-74825466D01*
X124955412Y-74776635D01*
X124964984Y-74728510D01*
X124979228Y-74681555D01*
X124998005Y-74636222D01*
X125021136Y-74592949D01*
X125048396Y-74552150D01*
X125079524Y-74514221D01*
X125114221Y-74479524D01*
X125152150Y-74448396D01*
X125192949Y-74421136D01*
X125236222Y-74398005D01*
X125281555Y-74379228D01*
X125328510Y-74364984D01*
X125376635Y-74355412D01*
X125425466Y-74350602D01*
X125450000Y-74350602D01*
X125450000Y-74350000D01*
X125950000Y-74350000D01*
X125950000Y-74350602D01*
X125974534Y-74350602D01*
X126023365Y-74355412D01*
X126071490Y-74364984D01*
X126118445Y-74379228D01*
X126163778Y-74398005D01*
X126207051Y-74421136D01*
X126247850Y-74448396D01*
X126285779Y-74479524D01*
X126320476Y-74514221D01*
X126351604Y-74552150D01*
X126378864Y-74592949D01*
X126401995Y-74636222D01*
X126420772Y-74681555D01*
X126435016Y-74728510D01*
X126444588Y-74776635D01*
X126449398Y-74825466D01*
X126449398Y-74850000D01*
X126450000Y-74850000D01*
X126450000Y-75350000D01*
X124950000Y-75350000D01*
G37*
G36*
X126449398Y-76150000D02*
G01*
X126449398Y-76174534D01*
X126444588Y-76223365D01*
X126435016Y-76271490D01*
X126420772Y-76318445D01*
X126401995Y-76363778D01*
X126378864Y-76407051D01*
X126351604Y-76447850D01*
X126320476Y-76485779D01*
X126285779Y-76520476D01*
X126247850Y-76551604D01*
X126207051Y-76578864D01*
X126163778Y-76601995D01*
X126118445Y-76620772D01*
X126071490Y-76635016D01*
X126023365Y-76644588D01*
X125974534Y-76649398D01*
X125950000Y-76649398D01*
X125950000Y-76650000D01*
X125450000Y-76650000D01*
X125450000Y-76649398D01*
X125425466Y-76649398D01*
X125376635Y-76644588D01*
X125328510Y-76635016D01*
X125281555Y-76620772D01*
X125236222Y-76601995D01*
X125192949Y-76578864D01*
X125152150Y-76551604D01*
X125114221Y-76520476D01*
X125079524Y-76485779D01*
X125048396Y-76447850D01*
X125021136Y-76407051D01*
X124998005Y-76363778D01*
X124979228Y-76318445D01*
X124964984Y-76271490D01*
X124955412Y-76223365D01*
X124950602Y-76174534D01*
X124950602Y-76150000D01*
X124950000Y-76150000D01*
X124950000Y-75650000D01*
X126450000Y-75650000D01*
X126450000Y-76150000D01*
X126449398Y-76150000D01*
G37*
%TD*%
D14*
%TO.C,U2*%
X103410000Y-67722500D03*
X104910000Y-67722500D03*
X106410000Y-67722500D03*
X107910000Y-67722500D03*
X109410000Y-67722500D03*
X110910000Y-67722500D03*
X112410000Y-67722500D03*
X113910000Y-67722500D03*
X115410000Y-67722500D03*
X115410000Y-85197500D03*
X113910000Y-85197500D03*
X112410000Y-85197500D03*
X110910000Y-85197500D03*
X109410000Y-85197500D03*
X107910000Y-85197500D03*
X106410000Y-85197500D03*
X104910000Y-85197500D03*
X103410000Y-85197500D03*
D15*
X109990000Y-75340000D03*
%TD*%
M02*
